<svg xmlns="http://www.w3.org/2000/svg" width="470" height="300"><rect fill="#fff" stroke="#000" stroke-width="10" width="460" height="290" x="5" y="5"/><path fill="#008100" d="M 25.1,25.8 V 226.9 H 268 a 133.4,64.2 0 0 1 -107.9,-62.8 133.4,64.2 0 0 1 47.2,-48.8 115,55.4 0 0 1 -28.8,-36.5 115,55.4 0 0 1 81.5,-53 z m 302.2,0 a 115,55.4 0 0 1 81.3,53 115,55.4 0 0 1 -28.6,36.4 133.4,64.2 0 0 1 47.1,48.9 133.4,64.2 0 0 1 -106.6,62.8 h 124.5 V 25.8 Z m -33.7,29.7 a 77.7,27.7 0 0 0 -77.7,27.7 77.7,27.7 0 0 0 77.7,27.7 77.7,27.7 0 0 0 77.7,-27.7 77.7,27.7 0 0 0 -77.7,-27.7 z m -162.3,6.5 c 4.8,0 11.1,2.4 14.2,7.3 4,6.4 4.4,13.3 4.4,23.6 v 11.1 h -9.5 v -8.1 c 0,-6.9 -1.2,-17.9 -3.7,-21.9 -1.4,-2.3 -3.3,-3.6 -5.3,-3.6 -2.1,0 -3.8,1.6 -4.8,3.1 -3.1,4.8 -2.3,19.1 -2.3,37.9 v 25.9 c 0,22.6 0.1,40.7 7.1,40.7 5.3,0 7,-3 8,-29 v -10 h -10 v -10 h 21 l 0.4,57.5 h -6.8 c 0,-3.4 -0.7,-6.5 -1.7,-6.5 -3,5 -7.5,6.5 -13.7,6.5 -3.3,0 -8.4,-1.9 -11.3,-6.5 -5.7,-9 -4.4,-24.3 -4.4,-42.8 0,-42.8 -2.2,-59 4.4,-69.2 3.1,-4.8 9,-6 14,-6 z m -87,2.2 h 18.9 c 12.1,0 17.6,11.1 17.6,33.6 0,19.3 -5.9,23.4 -9.9,25.7 4.4,2 10.9,5.6 10.9,29.8 0,19.8 -5.1,31.6 -17.9,31.6 h -19.6 z m 46.5,0 H 101.5 V 184.9 H 90.7 Z m -36.4,7.8 v 46 h 6 c 6.9,0 10,-7.5 10,-21.8 0,-16.9 -2.3,-24.2 -8.7,-24.2 z m 0,53 v 52 h 8.4 c 6.7,0 9.6,-8.4 9.6,-27.5 0,-16.9 -3.5,-24.5 -12.1,-24.5 z m 239.2,5.7 a 97.2,34.5 0 0 0 -97.2,34.5 97.2,34.5 0 0 0 97.2,34.5 97.2,34.5 0 0 0 97.2,-34.5 97.2,34.5 0 0 0 -97.2,-34.5 z"/><path d="m 408.1,262.9 c -1,7 -5.3,13.7 -16.8,13.7 -12.5,0 -20.3,-6.7 -20.3,-17.3 0,-10.2 7.8,-17.3 19,-17.3 13.2,0 15.6,6.3 17,8.9 l -8,4 c -2,-3.9 -3.7,-6.2 -8.4,-6.2 -6,0 -9.5,3.9 -9.5,10.5 0,6.6 3.7,10.4 10.1,10.4 5.7,0 8.8,-3.8 8.8,-7.8 z m 7.4,-20 v 32.8 h 0.1 8 21.6 v -6.5 h -21.6 v -7.6 h 18.1 v -6.3 h -18.1 v -6.2 h 21.6 v -6.3 h -29.6 z m -128,0 v 32.8 h 0.1 8 21.6 v -6.5 h -21.6 v -7.6 h 18.1 v -6.3 h -18.1 v -6.2 h 21.6 v -6.3 h -29.6 z m -85.7,0 v 32.8 h 0.1 8 21.6 v -6.3 h -21.6 v -7.8 h 18.1 v -6.3 h -18.1 v -6.2 h 21.6 v -6.3 h -29.6 z m 125.1,0 v 32.7 h 8.9 v -21.4 l 19.7,21.4 h 8.9 v -21.4 -11.3 h -8.9 v 21.4 l -19.7,-21.4 z m -212.1,0 v 32.7 h 8.9 v -21.4 l 19.7,21.4 h 8.9 v -21.4 -11.3 h -8.9 v 21.4 l -19.7,-21.4 z m 127.9,-0.1 h 20.1 c 9.1,0 14.9,3.6 14.9,9.3 0,3.1 -1.8,7.6 -9,8.9 l 10.4,14.6 h -10.5 l -9.8,-13.5 h -6.4 v 13.5 h -9.7 z m 9.7,5.9 v 7.4 h 9.5 c 3.4,0 5.6,-1.5 5.6,-3.8 0,-2 -2.2,-3.5 -5.4,-3.5 h -9.7 z m -89.2,-5.8 h 31.6 v 6.5 h -23.6 v 6 h 20.1 v 6.3 h -20.1 v 14.1 h -8.1 v -32.8 z m -75.4,-1 c 11.2,0 20.4,6.1 20.4,17.3 -0.1,10.9 -9.2,17.4 -20.4,17.4 -11.1,0 -20.4,-6.2 -20.4,-17.4 0,-11.2 9.2,-17.3 20.4,-17.3 z m 0,27.6 c 6.4,0 10.2,-4 10.2,-10.3 0,-6.3 -3.7,-10.2 -10.2,-10.2 -6.4,0 -10.2,3.9 -10.2,10.2 0,6.3 3.7,10.3 10.2,10.3 z m -25.9,-6.6 c -1,7 -5.3,13.7 -16.8,13.7 -12.5,0 -20.3,-6.7 -20.3,-17.3 0,-10.2 7.8,-17.3 19,-17.3 13.2,0 15.6,6.3 17,8.9 l -8,4 c -2,-3.9 -3.7,-6.2 -8.4,-6.2 -6,0 -9.5,3.9 -9.5,10.5 0,6.6 3.7,10.4 10.1,10.4 5.7,0 8.8,-3.8 8.8,-7.8 z"/></svg>