<svg width="248" height="95" xmlns="http://www.w3.org/2000/svg">
  <g id="g33237" transform="matrix(0.51132172,0,0,0.51132172,1.5053766,2.1114383)">
    <path id="path29765" style="fill:#a2aaad"
       d="m 295.35938,0 v 11.769531 h 14.79101 v 42.09961 h 11.76953 V 11.769531 H 336.7207 V 0 Z m 44.66015,0 v 53.869141 h 11.76953 V 32.830078 h 20.3418 v 21.039063 h 11.76953 V 0 h -11.76953 v 21.060547 h -20.3418 V 0 Z m 49.95117,0 v 53.869141 h 40.16992 V 42.099609 h -28.40039 v -9.269531 h 26.31055 V 21.060547 h -26.31055 v -9.291016 h 28.40039 V 0 Z M 123.84961,2.3007812 219.42969,77.669922 197.23047,91.490234 133,40.839844 H 61.919922 L 157.49023,116.21094 135.31055,130 71.089844,79.410156 H 0 l 101.16992,79.789064 a 67.393,67.393 0 0 0 11.4707,7.2207 78.329,78.329 0 0 0 12.87891,5 85.74,85.74 0 0 0 23.83008,3.39063 c 1.44,0 2.90008,-0.001 4.33008,-0.11133 12.18999,-0.64 23.37985,-3.92977 32.33984,-9.50977 a 46.379,46.379 0 0 0 9.42969,-7.67968 36.85,36.85 0 0 0 6.48047,-9.51954 c 3.64999,-7.44999 3.74109,-15.22977 2.62109,-21.75976 a 164.286,164.286 0 0 0 24.2793,1.49023 h 0.31054 c 12.19999,-0.64 23.38009,-3.92977 32.33008,-9.50976 a 43.174,43.174 0 0 0 13.19922,-12.39063 34.773,34.773 0 0 0 4,-7.890622 31.558,31.558 0 0 0 1.69922,-8.609376 33.232,33.232 0 0 0 -0.87891,-9.480468 A 36.927,36.927 0 0 0 276.05078,71 a 49.01,49.01 0 0 0 -13,-15 L 194.94922,2.3007812 Z" />
    <path id="path29767" style="fill:#010101" d="m 149.08008,11 75.75976,59.75 9.79102,7.720703 -10.58008,6.589844 -22.1914,13.839844 -5.22852,3.259769 -4.82031,-3.820316 L 130,49.589844 H 87.160156 l 75.759764,59.749996 9.7793,7.72071 -10.58008,6.58984 -22.17969,13.82031 -5.22851,3.25977 -4.83008,-3.82031 L 68.060547,88.160156 H 25.230469 l 81.369141,64.169924 a 58.239,58.239 0 0 0 9.93945,6.25976 A 70.239,70.239 0 0 0 128,163.05078 76.9,76.9 0 0 0 153.2207,166 c 10.71999,-0.56 20.45993,-3.39922 28.16992,-8.19922 a 37.252,37.252 0 0 0 7.66016,-6.2207 27.972,27.972 0 0 0 5,-7.33008 c 6.60999,-13.37999 -2.48047,-29.18945 -2.48047,-29.18945 a 160.613,160.613 0 0 0 37.11914,4 c 10.71999,-0.57 20.45993,-3.40118 28.16993,-8.20117 A 34.609,34.609 0 0 0 267.42969,101 25.635,25.635 0 0 0 270.38086,95.160156 22.991,22.991 0 0 0 271.61914,88.900391 24.453,24.453 0 0 0 271,81.890625 a 28.353,28.353 0 0 0 -2.61914,-6.75 40.293,40.293 0 0 0 -10.74024,-12.291016 L 191.91016,11 Z m 155.4707,50.730469 -9.28125,11.779297 h 40.26953 v 9.279296 h -31 l -9.27929,11.771485 h 40.26953 v 9.279293 h -31 l -9.2793,11.75977 h 40.90039 c 7.24999,0 13.12891,-7.00024 13.12891,-15.740235 A 16.732,16.732 0 0 0 343.55078,86.849609 L 343.5,86.779297 a 15.288,15.288 0 0 0 4.06055,-10.509766 c 0,-7.999992 -5.88087,-14.539062 -13.13086,-14.539062 z m 50,0 v 53.869141 h 11.76953 V 61.730469 Z m 28.60938,0 a 10.11,10.11 0 0 0 -10.09961,10.099609 v 33.679692 a 10.06,10.06 0 0 0 2.95312,7.14453 10.046,10.046 0 0 0 3.2793,2.18554 c 1.226,0.506 2.54019,0.76377 3.86719,0.75977 h 33.35937 V 82.789062 H 394.35938 V 94.560547 H 404.75 v 9.279293 H 384.83984 V 73.509766 h 31.67969 V 61.730469 Z m -87.80078,61.730471 v 40.75 c 0,7.24999 7.05024,13.1289 15.74023,13.1289 a 17.361,17.361 0 0 0 11.18945,-3.92968 17.337,17.337 0 0 0 11.19141,3.92968 c 8.68999,0 15.73047,-5.87891 15.73047,-13.1289 V 132.75 l -11.76172,-9.28906 v 40.10937 h -9.2793 V 132.75 l -11.76953,-9.28906 v 40.10937 h -9.26953 V 132.75 Z m 59.92968,0 v 53.8789 h 40.18164 v -11.77929 h -28.41015 v -9.27149 h 26.32031 v -11.76953 h -26.32031 v -9.2793 h 28.41015 v -11.77929 z m 56.31055,0 a 10.12,10.12 0 0 0 -10.10938,10.09961 v 12.6289 a 10.108,10.108 0 0 0 10.10938,10.09961 h 18.30078 v 9.27149 h -28.41016 v 11.77929 h 30.08985 a 10.087,10.087 0 0 0 10.08984,-10.09961 v -12.62109 a 10.108,10.108 0 0 0 -10.08984,-10.09961 h -18.31055 v -9.28906 h 39.31055 v 42.10937 h 11.7793 v -42.10937 h 14.79101 v -11.76953 z" />
  </g>
</svg>
