<svg xmlns="http://www.w3.org/2000/svg" width="247" height="50.511" viewBox="0 0 247 50.511">
 <g transform="matrix(1.3333 0 0 -1.3333 -273.92 637.71)">
  <g>
   <path d="m226.55 477.5-9.9375-18.397h16.8c3.9023 0 6.8683 1.046 8.4756 3.7192l1.2847 2.1358c0.81335 1.3486 0.89063 2.5413 0.23877 3.3486 1.3471 0.53824 2.4794 1.4204 3.2329 2.6719l1.2246 2.0391c1.9975 3.3206 0.05965 4.4209-2.959 4.4209l-18.36 0.06153zm40.915-0.06006c-3.8858 0-5.874-0.90936-7.9717-4.3975l-5.2939-8.8066c-2.4101-4.0069-0.88554-5.1343 2.9868-5.1343h13.54c3.8888 0 5.877 0.91084 7.9746 4.3975l4.1177 6.4351-15.218-0.00586 6.4673-3.9624-1.2554-2.0903h-12.601l5.3833 8.9517 19.052-0.07325 2.8184 4.667-20 0.01904zm-14.215-0.00147-11.029-18.335h6.2256l11.032 18.335h-6.2285zm-22.657-4.2964s11.137-0.07006 11.413-0.08496l-0.94336-1.5688c-0.30949-0.51432-0.70448-0.74854-2.0845-0.74854l-9.646-0.02783 1.2612 2.4302zm-3.4688-6.7896s10.632-0.0108 10.926-0.0542l-0.90674-1.5132c-0.48741-0.81185-0.91088-1.0371-2.3701-1.0371h-9.0586l1.0034 1.9351 0.40576 0.66944zm59.561-10.327c-31.853-0.03458-60.721-2.234-74.937-5.7715l-5.5356-7.8208c45.546 11.2 109.39 11.574 173.33 6.3721-26.161 5.1245-61 7.2548-92.854 7.2202z" fill="#e41c39"/>
   <path d="m350.56 477.51c-4.3029 0-6.226-0.72661-8.3042-4.1968l-1.2978-2.2119c-2.3877-3.9845-0.62143-5.1064 3.6636-5.1064h12.576l-1.9336-2.4126-17.104 0.03809-2.1357-4.352 17.112-0.03955c4.2955 0 5.0114-0.65665 8.0405 3.4146l2.1665 3.0908c2.3997 4.0009 0.55948 5.1094-3.7046 5.1094h-12.576l1.3052 2.0024 16.592-0.01757 3.4292 4.6816h-17.83zm39.404 0-19.336-0.02784-3.148-4.6216 6.2036-0.01465-8.8755-13.666h6.8936l8.8257 13.666h6.0264l3.4102 4.6641zm-96.938-0.0835-11.429-18.246 22.438 0.03808 3.4541 4.7183-16.022-0.00585 1.5644 2.4976h10.02l2.7949 4.4604h-10.022l1.207 1.9395 13.989 0.02197 2.9268 4.519-20.921 0.05713zm34.348 0-22.715-18.196 8.855 0.02197 4.1221 3.1743h10.874l0.31641-3.1787 6.9111-0.02344-2.9458 18.202h-5.417zm0.35742-7.1602 0.33398-3.8115-5.209 0.0542 4.875 3.7573zm-19.958-23.395-3.4072-5.5107h1.6846l1.708 2.7612 2.3408-2.9941 3.4102 5.5107h-1.6846l-1.7109-2.7598-2.3408 2.9927zm46.271 0-3.4043-5.5107h1.6831l1.7065 2.7612 2.3467-2.9941 3.4087 5.5107h-1.6875l-1.7065-2.7598-2.3467 2.9927zm-61.311-0.13476c-1.9721 0-4.2776-1.0827-5.2075-2.5942-1.1109-1.7956 0.21726-2.8799 2.0757-2.8799 1.063 0 2.3025 0.31585 3.4702 0.99463l0.42187 0.25195-1.1177 0.79834-0.06445-0.03955c-0.63094-0.38574-1.4037-0.62402-2.1094-0.62402-1.238 0-1.4303 0.68959-1.1089 1.2129 0.4904 0.79389 1.8943 1.4985 3.0396 1.4985 0.72063 0 1.1009-0.24703 1.2041-0.5625l0.05859-0.17432 1.8047 0.73389-0.15088 0.31787c-0.36182 0.75952-1.2693 1.0664-2.3159 1.0664zm8.6148 0c-1.975 0-4.279-1.0827-5.209-2.5928-1.1109-1.7956 0.22019-2.8814 2.0786-2.8814 1.9706 0 4.2745 1.0842 5.209 2.5942 1.1094 1.7956-0.22168 2.8799-2.0786 2.8799zm64.586 0c-1.972 0-4.2775-1.0827-5.209-2.5942-1.1139-1.7956 0.21429-2.8799 2.0742-2.8799 1.0675 0 2.3025 0.31585 3.4717 0.99463l0.42334 0.25195-1.1177 0.79834-0.06592-0.03955c-0.63093-0.38574-1.4037-0.62402-2.1079-0.62402-1.2379 0-1.4318 0.68959-1.1089 1.2129 0.49189 0.79389 1.8944 1.4985 3.0366 1.4985 0.72214 0 1.1009-0.24703 1.2041-0.5625l0.06006-0.17432 1.8062 0.73389-0.14941 0.31787c-0.36331 0.75952-1.2708 1.0664-2.3174 1.0664zm-48.628-0.09815-3.2622-5.2778h1.6846l1.2422 2.0098h2.6411l0.85254 1.3784h-2.6396l0.31348 0.50683h3.7925l0.85254 1.3828h-5.477zm9.2768 0-3.2651-5.2778h5.4756l0.85693 1.3814h-3.7896l0.38526 0.62842h2.6396l0.85546 1.3784h-2.6426l0.31494 0.50683h3.7896l0.85547 1.3828h-5.4756zm9.271 0-3.2622-5.2778h1.6846l0.92139 1.4883h1.2393l0.43652-1.4883h2.0215l-0.61377 1.7666c0.89707 0.24371 1.7973 0.76199 2.2368 1.4722 0.82381 1.3336-0.08067 2.0391-1.4502 2.0391h-3.2139zm8.7759 0-3.2637-5.2778h5.4756l0.85547 1.3814h-3.7925l0.38818 0.62842h2.6396l0.85693 1.3784h-2.6426l0.31347 0.50683h3.7925l0.85401 1.3828h-5.477zm27.573 0-3.2681-5.2778h5.4771l0.85546 1.3814h-3.791l0.38672 0.62842h2.6411l0.85547 1.3784h-2.6411l0.31347 0.50683h3.7925l0.85254 1.3828h-5.4741zm-71.457-1.2847c1.2395 0 1.4318-0.68967 1.1089-1.21-0.4889-0.79391-1.8929-1.5-3.0352-1.5-1.2424 0-1.4333 0.69109-1.1118 1.2129 0.48891 0.7939 1.8943 1.4971 3.0381 1.4971zm35.941-0.09815h1.6846c0.43657 0 0.61121-0.08919 0.66651-0.17139 0.0314-0.04486 0.03347-0.09762-0.02783-0.19482-0.1839-0.29902-0.7026-0.66064-1.5249-0.66064h-1.4341l0.63574 1.0268z" fill="#1a427d"/>
  </g>
 </g>
</svg>