<svg xmlns="http://www.w3.org/2000/svg" width="248" height="147.63" viewBox="0 0 248 147.63">
 <g transform="matrix(1.3333 0 0 -1.3333 -156.51 575.91)">
  <g>
   <g fill="#003976" stroke="#003976">
    <path d="m296.7 430.88-12.732-8.3745-1.7241-11.471-0.07324-0.68555-1.1865 5.5049-4.3608 2.1812c-12.389-6.8836-25.584-12.392-39.119-16.75l-0.11719-38.435 0.03955-5.2251c-0.61219-0.07051-8.1278-0.1936-8.5269-0.1626l-0.11572 38.546-1.9497 3.6694c-0.3061-0.08602-9.9835-1.0325-14.915-1.4897l-0.22851-0.23145v-40.838l-9.397-0.25928-0.01172 0.25928-0.22852 40.61v0.62402s-10.375 1.603-15.678 2.436l-0.33692-1.2436-0.61963-2.6177v-34.991l-0.22851-0.57275-6.1948 41.067c-6.5395 2.2976-13.306 4.247-19.733 6.8848-1.2321-1.453-1.9495-2.266-2.7554-3.3237-1.1469-9.7547-2.1764-19.505-3.2109-29.256 0.34484 11.242 1.5304 23.24 2.5254 35.105l-13.54 6.8848c-0.31383-0.20148-2.9819-1.6084-4.4736-2.4097l-0.22851-4.0166c-0.39134 3.2112-0.91838 7.8975-1.147 9.6372l-12.962 8.2588c-0.09686-0.01085-4.7844-1.6799-5.0478-1.831l1.8325-22.26 2.6382-31.778 2.9839-35.105c1.5103 0.0465 19.962 0 21.681 0 0.86094 1.4328 1.3015 2.3127 2.1035 3.3472-0.09299-1.484-0.19801-2.2011-0.28711-3.3472 5.164 0.11624 10.69-0.11288 15.737 0.11572l1.4912 4.4751 0.9375 6.4028c0.80204-0.11623 1.6273-0.09711 2.3906-0.20947 0.34406-3.6723 0.68849-7.2286 1.2627-10.668l94.988 0.33985v14.915l-3.2109 4.8193-6.9961-0.46142c-0.0512 0.72842-0.0512 3.6929 0 6.0835l8.4873 1.604v14.685c-1.2631 1.3755-2.4165 2.5456-3.668 3.9009-1.6072-0.34484-3.2738-0.72321-4.7725-0.97119-0.0271 0.63156-0.04688 4.6832-0.04688 4.9893l9.7515 3.2109 0.42919 0.1626 0.02637 4.8852-0.02637 1.5688 6.9111-25.204 0.22851-29.251 2.8711-4.9365h14.911l0.34424 0.0205-0.11279 33.478 10.897 56.215 0.03955 0.22119-5.5444 1.27zm-171.28-95.438v-0.85987h166.88v0.85987h-166.88zm0-12.283v-0.86133h166.88v0.86133h-166.88z" stroke-width=".61725"/>
    <path d="m211.74 332.49c-0.03797-0.2015-0.14784-0.24317-0.45703-0.24317h-4.6978v-0.18603c0.3913-0.04262 0.45703-0.12003 0.45703-0.34863v-5.9898c0-0.2286-0.06646-0.31063-0.43066-0.34863v-0.19043h4.8618c0.30532 0 0.4154-0.03876 0.4541-0.24024h0.18897v1.6128h-0.18897c-0.03875-0.20227-0.14878-0.24463-0.4541-0.24463h-3.0923v1.9321h1.7212c0.30996 0 0.41443-0.03805 0.45703-0.21241h0.18457v1.585h-0.18457c-0.04262-0.20153-0.14707-0.24023-0.45703-0.24023h-1.7212v1.7432h2.9018c0.30919 0 0.41903-0.03951 0.45703-0.21386h0.1875v1.585h-0.1875zm38.224 0c-0.03797-0.2007-0.14575-0.24463-0.41309-0.24463h-4.7153v-0.18457c0.3913-0.04262 0.45703-0.12003 0.45703-0.34863v-5.9898c0-0.2286-0.06499-0.31063-0.4292-0.34863v-0.19043h2.2427v0.19043c-0.4037 0.03797-0.46875 0.12003-0.46875 0.34863v2.521h1.8237c0.30996 0 0.41509-0.03893 0.45849-0.22413h0.18457v1.623h-0.18457c-0.04339-0.22865-0.14853-0.2666-0.45849-0.2666h-1.8237v1.7432h2.9136c0.26734 0 0.37509-0.03875 0.41309-0.24023h0.19043v1.6113h-0.19043zm6.148 0c-0.04262-0.2015-0.15095-0.24317-0.45704-0.24317h-4.6992v-0.18603c0.38823-0.04262 0.4541-0.12003 0.4541-0.34863v-5.9898c0-0.2286-0.06516-0.31063-0.42627-0.34863v-0.19043h4.8574c0.30997 0 0.41903-0.03876 0.45703-0.24024h0.19043v1.6128h-0.19043c-0.03797-0.20227-0.14706-0.24463-0.45703-0.24463h-3.0864v1.9321h1.7183c0.30609 0 0.41669-0.03805 0.45849-0.21241h0.18604v1.585h-0.18604c-0.04184-0.20153-0.1524-0.24023-0.45849-0.24023h-1.7183v1.7432h2.9004c0.30609 0 0.41444-0.03951 0.45704-0.21386h0.18603v1.585h-0.18603zm14.171 0c-0.03875-0.2015-0.14708-0.24317-0.45704-0.24317h-4.6978v-0.18603c0.39133-0.04262 0.45557-0.12003 0.45557-0.34863v-5.9898c0-0.2286-0.06499-0.31063-0.4292-0.34863v-0.19043h4.8618c0.30609 0 0.41523-0.03876 0.45703-0.24024h0.18604v1.6128h-0.18604c-0.04184-0.20227-0.15094-0.24463-0.45703-0.24463h-3.0879v1.9321h1.7153c0.30996 0 0.4198-0.03805 0.4585-0.21241h0.18897v1.585h-0.18897c-0.03875-0.20153-0.14854-0.24023-0.4585-0.24023h-1.7153v1.7432h2.8975c0.30996 0 0.41834-0.03951 0.45704-0.21386h0.19042v1.585h-0.19042zm20.884 0c-0.03875-0.2015-0.14707-0.24317-0.45703-0.24317h-4.6992v-0.18603c0.3913-0.04262 0.4585-0.12003 0.4585-0.34863v-5.9898c0-0.2286-0.06723-0.31063-0.43067-0.34863v-0.19043h4.8618c0.30997 0 0.41443-0.03876 0.45703-0.24024h0.18604v1.6128h-0.18604c-0.04262-0.20227-0.14706-0.24463-0.45703-0.24463h-3.0879v1.9321h1.7168c0.30996 0 0.41903-0.03805 0.45703-0.21241h0.18896v1.585h-0.18896c-0.03797-0.20153-0.14707-0.24023-0.45703-0.24023h-1.7168v1.7432h2.8975c0.30996 0 0.41833-0.03951 0.45703-0.21386h0.19043v1.585h-0.19043zm-150.18-0.1626c-1.7591 0-2.5386-0.98036-2.5386-2.042 0-2.5107 4.2422-1.5304 4.2422-3.0059 0-0.63156-0.41806-1.0459-1.6494-1.0459-0.76716 0-1.8677 0.33245-1.8677 0.80127 0 0.04261 0.01087 0.08203 0.02637 0.13623l-0.18897 0.08203-0.80712-1.667 0.13623-0.08057c0.09299 0.10846 0.14711 0.18897 0.22851 0.18897 0.20148 0 0.3873-0.13558 0.81738-0.29444 0.40295-0.14724 0.94109-0.29297 1.5835-0.29297 2.0962 0 3.0615 1.1262 3.0615 2.2266 0 2.7657-4.2422 1.7162-4.2422 3.1421 0 0.4572 0.31044 0.83203 1.0737 0.83203 1.1151 0 1.708-0.48398 1.708-0.79395 0-0.08137-0.01611-0.18591-0.01611-0.22851l0.19043-0.08057 0.9917 1.6655-0.1084 0.0542c-0.07749-0.09373-0.15891-0.1626-0.30615-0.1626-0.13561 0-0.34926 0.13549-0.7251 0.28272-0.37971 0.14722-0.90159 0.28271-1.6099 0.28271zm6.709 0c-1.7591 0-2.5386-0.98036-2.5386-2.042 0-2.5107 4.2422-1.5304 4.2422-3.0059 0-0.63156-0.41342-1.0459-1.6494-1.0459-0.76716 0-1.8677 0.33245-1.8677 0.80127 0 0.04261 0.01623 0.08203 0.02783 0.13623l-0.18604 0.08203-0.80713-1.667 0.13184-0.08057c0.09299 0.10846 0.14712 0.18897 0.22852 0.18897 0.20148 0 0.39169-0.13558 0.82177-0.29444 0.40295-0.14724 0.9379-0.29297 1.585-0.29297 2.0923 0 3.0601 1.1262 3.0601 2.2266 0 2.7657-4.2422 1.7162-4.2422 3.1421 0 0.4572 0.30656 0.83203 1.0737 0.83203 1.1112 0 1.7036-0.48398 1.7036-0.79395 0-0.08137-0.01172-0.18591-0.01172-0.22851l0.18604-0.08057 0.99609 1.6655-0.1084 0.0542c-0.08136-0.09373-0.16332-0.1626-0.31055-0.1626-0.13561 0-0.3478 0.13549-0.72363 0.28272-0.37584 0.14722-0.89919 0.28271-1.6113 0.28271zm7.2202 0c-2.0528 0-3.2227-1.5953-3.2227-3.6108 0-2.014 1.1699-3.6108 3.2227-3.6108s3.2226 1.5968 3.2226 3.6108c0 2.0156-1.1699 3.6108-3.2226 3.6108zm71.695 0c-1.7211 0-3.3867-1.1814-3.3867-3.6797 0-1.9063 1.183-3.5405 3.2241-3.5405 1.7319 0 2.1504 0.93604 2.4566 0.93604 0.08136 0 0.16261-0.05337 0.22851-0.13477l0.1084 0.12452-1.1279 1.459-0.1626-0.0498c0.0271-0.06974 0.0542-0.22842 0.0542-0.28272 0-0.44557-0.67069-0.92578-1.4224-0.92578-1.1965 0-2.0142 0.99208-2.0142 2.4141 0 1.828 0.77813 2.5518 2.0684 2.5518 0.69743 0 1.3403-0.42896 1.3403-0.91406 0-0.03876-1.2e-4 -0.09237-0.01172-0.13037l0.12012-0.05567 0.8877 1.6113-0.06885 0.06592c-0.12011-0.08141-0.21304-0.12012-0.29444-0.12012-0.10849 0-0.29511 0.15963-0.6167 0.33399-0.32159 0.17823-0.76675 0.33691-1.3828 0.33691zm6.6006 0c-2.0528 0-3.2183-1.5953-3.2183-3.6108 0-2.014 1.1655-3.6108 3.2183-3.6108 2.0566 0 3.2226 1.5968 3.2226 3.6108 0 2.0156-1.166 3.6108-3.2226 3.6108zm49.334 0c-1.7164 0-3.3823-1.1814-3.3823-3.6797 0-1.9063 1.183-3.5405 3.2241-3.5405 1.7319 0 2.1451 0.93604 2.4551 0.93604 0.08137 0 0.16408-0.05337 0.22998-0.13477l0.1084 0.12452-1.1279 1.459-0.1626-0.0498c0.0272-0.06974 0.0542-0.22842 0.0542-0.28272 0-0.44557-0.67001-0.92578-1.4209-0.92578-1.1972 0-2.0156 0.99208-2.0156 2.4141 0 1.828 0.77839 2.5518 2.064 2.5518 0.7013 0 1.3447-0.42896 1.3447-0.91406 0-0.03876-1.2e-4 -0.09237-0.01172-0.13037l0.12158-0.05567 0.88184 1.6113-0.06592 0.06592c-0.12011-0.08141-0.21304-0.12012-0.29444-0.12012-0.10849 0-0.29417 0.15963-0.61963 0.33399-0.32159 0.17823-0.76365 0.33691-1.3828 0.33691zm-156.77-0.08203v-0.18457c0.18981-0.0155 0.27099-0.09501 0.27099-0.27246v-6.1465c0-0.17515-0.09663-0.25716-0.27099-0.26806v-0.19043h1.8281v0.19043c-0.24336 0.01085-0.3252 0.09292-0.3252 0.26806v4.9146h0.02637c0.55406-1.8404 1.398-3.614 2.0684-5.373h0.20215c0.69742 1.8017 1.5577 3.5878 2.1621 5.4243h0.02637v-4.9658c0-0.17515-0.08058-0.25716-0.3208-0.26806v-0.19043h1.8779v0.19043c-0.22859 0.01085-0.32081 0.09292-0.32081 0.26806v6.1465c0 0.17742 0.09296 0.25696 0.29444 0.27246v0.18457h-2.3482v-0.18457c0.1472-0.04262 0.21387-0.09428 0.21387-0.21826 0-0.18521-0.92562-2.2267-1.623-3.9741-0.25572 0.72842-1.585 3.7616-1.585 3.9902 0 0.09299 0.06654 0.14785 0.20215 0.20215v0.18457h-2.3789zm8.9941 0v-0.18457c0.3875-0.04262 0.45703-0.12003 0.45703-0.34863v-5.9898c0-0.2286-0.06957-0.31063-0.45703-0.34863v-0.19043h2.2559v0.19043c-0.3875 0.03797-0.45704 0.12003-0.45704 0.34863v5.9898c0 0.2286 0.06958 0.30603 0.45704 0.34863v0.18457h-2.2559zm24.453 0v-0.18457c0.30923-0.04339 0.37647-0.12073 0.37647-0.3501v-3.9478c0-1.6111 0.78882-2.6572 2.792-2.6572 1.9993 0 2.7935 1.0462 2.7935 2.6572v3.9478c0 0.22937 0.06579 0.3067 0.34863 0.3501v0.18457h-1.9058v-0.18457c0.25181-0.04339 0.3208-0.12073 0.3208-0.3501v-3.9741c0-0.9144-0.52266-1.5029-1.5029-1.5029s-1.5059 0.58853-1.5059 1.5029v3.9741c0 0.22937 0.06948 0.3067 0.3252 0.3501v0.18457h-2.042zm7.6743 0v-0.18457c0.25576-0.04262 0.3252-0.12003 0.3252-0.34863v-5.9898c0-0.2286-0.07023-0.31063-0.29883-0.34863v-0.19043h1.96v0.19043c-0.25492 0.03797-0.3208 0.12003-0.3208 0.34863v2.3906h1.2246l1.1118-2.1504c0.14724-0.28207 0.1626-0.34865 0.1626-0.41455 0-0.11938-0.12084-0.16341-0.26807-0.17431v-0.19043h1.9849v0.19043c-0.26735 0.03797-0.33395 0.26792-0.62842 0.87158l-1.0503 2.042c1.0229 0.22783 1.519 0.97903 1.519 1.998 0 1.2089-0.88735 1.96-2.3628 1.96h-3.3589zm7.4106 0v-0.18457c0.3875-0.04262 0.45704-0.12003 0.45704-0.34863v-5.9898c0-0.2286-0.06958-0.31063-0.45704-0.34863v-0.19043h2.2559v0.19043c-0.3913 0.03797-0.45849 0.12003-0.45849 0.34863v5.9898c0 0.2286 0.06716 0.30603 0.45849 0.34863v0.18457h-2.2559zm7.7329 0v-0.18457c0.16272-0.04262 0.25551-0.27171 0.33691-0.53906 0.51145-1.6893 2.0259-5.7728 2.0259-5.9356 0-0.10849-0.13095-0.2124-0.3208-0.2124v-0.19043h2.231v0.19043c-0.18986 0-0.29882 0.08057-0.29882 0.20068 0 0.36034 1.1539 3.7573 1.8823 5.9341 0.10462 0.32237 0.14787 0.47085 0.37647 0.55225v0.18457h-1.8135v-0.18457c0.24019-0.05425 0.30615-0.09372 0.30615-0.17432 0-0.20148-1.0071-3.2128-1.5146-4.875h-0.02636c-0.4572 1.5421-1.5732 4.5534-1.5732 4.8208 0 0.12011 0.06961 0.18592 0.28272 0.22852v0.18457h-1.894zm7.5542 0v-0.18457c0.24096-0.02712 0.29444-0.0812 0.29444-0.1626 0-0.10849-0.03952-0.2144-0.12012-0.4585l-1.96-5.7451c-0.04262-0.10849-0.10836-0.3099-0.28271-0.3208v-0.19043h1.7695v0.19043c-0.22787 0.01085-0.29444 0.13089-0.29444 0.25488 0 0.05114 0.0162 0.14723 0.0542 0.24023l0.37647 1.1162h2.417l0.43066-1.2363c0.0387-0.09299 0.0542-0.16262 0.0542-0.22852 0-0.09226-0.07027-0.12018-0.24463-0.14648v-0.19043h1.8281v0.19043c-0.14724 0.02635-0.20062 0.08057-0.28272 0.3208l-1.9219 5.5869c-0.12015 0.36033-0.1582 0.46938-0.1582 0.55078 0 0.1348 0.07736 0.21302 0.28271 0.22852v0.18457h-2.2427zm4.9775 0v-0.18604c0.33706-0.04262 0.40284-0.12003 0.40284-0.34863v-5.9883c0-0.22938-0.06503-0.31063-0.375-0.34863v-0.19043h4.6714c0.30997 0 0.41443-0.03876 0.45703-0.24024h0.18604v1.6934h-0.18604c-0.04262-0.28286-0.14706-0.32519-0.45703-0.32519h-2.9517v5.3994c0 0.2286 0.06441 0.30603 0.45264 0.34863v0.18604h-2.2002zm5.9575 0v-0.18604c0.33326-0.04262 0.40284-0.12003 0.40284-0.34863v-5.9883c0-0.22938-0.0689-0.31063-0.375-0.34863v-0.19043h4.6714c0.30997 0 0.41443-0.03876 0.45703-0.24024h0.18604v1.6934h-0.18604c-0.04262-0.28286-0.14706-0.32519-0.45703-0.32519h-2.9546v5.3994c0 0.2286 0.06957 0.30603 0.45703 0.34863v0.18604h-2.2017zm12.439 0v-0.18457c0.16273-0.04262 0.27181-0.16329 0.33691-0.28418l2.0815-3.6636v-2.3906c0-0.2286-0.06731-0.31063-0.32226-0.34863v-0.19043h1.9878v0.19043c-0.25569 0.03797-0.32226 0.12003-0.32226 0.34863v2.3906l2.0654 3.6372c0.10849 0.18986 0.21741 0.26795 0.35302 0.31055v0.18457h-1.9878v-0.18457c0.25569-0.02712 0.3208-0.07119 0.3208-0.20215 0-0.2441-0.952-1.6111-1.3286-2.417-0.51068 0.87178-1.3828 2.3195-1.3828 2.4272 0 0.12013 0.09219 0.1764 0.29444 0.1919v0.18457h-2.0962zm24.74 0v-0.18457c0.18603-0.04262 0.25489-0.12003 0.25489-0.34863v-5.9898c0-0.2286-0.06887-0.31063-0.30909-0.34863v-0.19043h1.8237v0.19043c-0.21314 0.03797-0.28271 0.12003-0.28271 0.34863v4.645h0.02783c0.43008-1.2205 2.7114-4.579 2.7114-4.8076 0-0.13101-0.12023-0.15973-0.25196-0.18603v-0.19043h1.96v0.19043c-0.1744 0.03797-0.24317 0.08128-0.24317 0.34863v5.9898c0 0.2286 0.06954 0.30603 0.29736 0.34863v0.18457h-1.8281v-0.18457c0.22857-0.04262 0.29443-0.12003 0.29443-0.34863v-4.2188h-0.02783c-0.13173 0.60366-2.4551 4.2187-2.4551 4.4473 0 0.07751 0.05409 0.10462 0.24317 0.12012v0.18457h-2.2148zm20.155 0v-0.18457c0.25569-0.04262 0.32226-0.12003 0.32226-0.34863v-5.9898c0-0.2286-0.06583-0.31063-0.29443-0.34863v-0.19043h1.96v0.19043c-0.25569 0.03797-0.3208 0.12003-0.3208 0.34863v2.3906h1.2202l1.1147-2.1504c0.14726-0.28207 0.15967-0.34865 0.15967-0.41455 0-0.11938-0.12083-0.16341-0.26807-0.17431v-0.19043h1.9878v0.19043c-0.26735 0.03797-0.33688 0.26792-0.63135 0.87158l-1.0459 2.042c1.019 0.22783 1.519 0.97903 1.519 1.998 0 1.2089-0.88787 1.96-2.3672 1.96h-3.356zm14.149 0v-0.18457c0.18595-0.04262 0.25195-0.12003 0.25195-0.34863v-5.9898c0-0.2286-0.06593-0.31063-0.30615-0.34863v-0.19043h1.8237v0.19043c-0.21314 0.03797-0.28272 0.12003-0.28272 0.34863v4.645h0.02783c0.43008-1.2205 2.7114-4.579 2.7114-4.8076 0-0.13101-0.12022-0.15973-0.25195-0.18603v-0.19043h1.957v0.19043c-0.17052 0.03797-0.24024 0.08128-0.24024 0.34863v5.9898c0 0.2286 0.06902 0.30603 0.29297 0.34863v0.18457h-1.8237v-0.18457c0.22857-0.04262 0.29444-0.12003 0.29444-0.34863v-4.2188h-0.02784c-0.13173 0.60366-2.4565 4.2187-2.4565 4.4473 0 0.07751 0.05425 0.10462 0.24023 0.12012v0.18457h-2.2104zm-117.1-1.0459c1.1972 0 1.8794-0.88658 1.8794-2.4829 0-1.5994-0.68214-2.4829-1.8794-2.4829-1.1926 0-1.8794 0.88348-1.8794 2.4829 0 1.5963 0.6868 2.4829 1.8794 2.4829zm78.296 0c1.1965 0 1.8838-0.88658 1.8838-2.4829 0-1.5994-0.68732-2.4829-1.8838-2.4829-1.1934 0-1.8794 0.88348-1.8794 2.4829 0 1.5963 0.68603 2.4829 1.8794 2.4829zm-64.648-0.08057h1.5454c0.81831 0 1.166-0.34856 1.166-0.9375 0-0.59281-0.3477-0.94043-1.166-0.94043h-1.5454v1.8779zm90.968 0h1.5425c0.82141 0 1.169-0.34856 1.169-0.9375 0-0.59281-0.34754-0.94043-1.169-0.94043h-1.5425v1.8779zm-68.902-0.37646h0.02637l0.8833-2.8198h-1.7856l0.87597 2.8198z" stroke-width=".4324"/>
    <path d="m196.43 425.46-17.099-0.12744v-5.3848h3.9522v-13.377h9.3633v13.25h3.7837v5.6396zm12.393-0.07617v-6.4893h-1.7227v6.3765h-9.29v-18.7h9.1772v6.5244h1.6611v-6.5274h9.2373v18.816h-9.063zm14.427-0.08203-3.646-0.03516v-18.734h15.261v5.2881h-6.0117v1.5923h4.9761v5.102h-4.9116v1.5923h5.7334v5.1592l-11.401 0.03516z" stroke-width=".61761"/>
   </g>
   <path d="m300.49 428.82-0.34423-0.25635c-4.2458-3.0997-8.2586-5.1355-12.388-8.1182l-4.2466-27.99-0.34424 0.34131c-1.2592 7.4578-2.4058 14.914-3.7852 22.26-1.7505-0.83303-6.5779-3.317-11.118-5.5635l-1.7314-0.97705 10.211-37.058c0.0271-9.3393 0.01837-29.166 0.02637-30.177l13.052 0.12012-0.11573 32.01 3.0982 16.061 7.686 39.349zm-180.34-1.0298 6.8643-82.542 0.47607-4.5322c0.57344-0.05812 19.167 0.13512 19.271 0.11572l3.9023 46.693c0.46031 7.3408 1.2633 14.452 1.7197 21.794-4.2419 2.1806-8.6043 4.3626-12.962 6.4277l-0.34424-7.5747-2.1812-47.723-0.22851-0.11572-1.8369 27.075-2.064 32.24c-4.2419 2.6378-8.7158 5.7331-12.617 8.1431zm85.767-3.479-6.8716-0.06592v-16.418h6.6943v6.3486h4.1221v-6.2476h7.0151v16.383h-6.7866v-6.501h-4.1733v6.501zm14.851-0.06592v-16.418h12.938v2.9048h-5.9912v3.8628h4.9072v2.8315h-4.7183v3.7456h5.7378v3.0732h-12.873zm-25.56-0.07764-14.594-0.06592v-2.9795h3.7617v-13.318h7.0151v13.191h3.8174v3.1728zm69.281-16.542c-7.8019-3.2113-15.853-6.5649-23.88-9.4321l-0.00293-52.658 0.03076-4.4751c8.1622-0.06587 15.8 0.11279 23.832 0.11279v13.078c-3.4205-0.20922-6.9115-0.39893-10.324-0.45703-0.11624 4.0133 0.11279 8.4874 0.11279 12.505l8.4917 1.7197v12.85c-1.0345-0.24798-7.8218-1.7782-8.6045-1.9673 0.0194 0.75477 0.0194 10.944 0 11.49 3.4398 1.1469 6.8836 2.1758 10.324 3.5552v12.734l0.0205 0.94482zm-106.37-1.9746-6.8848-64.245-0.08497-0.57422c4.4744 0 8.4607-0.11624 12.819 0 0.22937 1.8319 1.0424 10.63 1.147 11.243 2.0651-0.11702 4.4854-0.37515 6.1934-0.57275l1.2642-10.67c4.2458 0.11236 12.18 0.16262 12.734 0.22852 0 0-7.9156 53.689-8.6045 58.28-6.1443 2.1225-15.562 5.3225-18.583 6.3106zm29.023-8.8374 0.22852-55.772c0.68193-0.031 24.208 0.01904 24.208 0.01904v10.668l-11.013-0.03077-0.11279 33.762-0.11719 9.4058-13.194 1.9482zm39.924-1.0298c-4.2458-0.46108-8.9021-0.82633-13.078-1.2642v-53.002l0.01905-0.57275c8.6039 0.11701 15.965 0.09678 24.073 0.22851l0.01904 11.149-10.92-0.14356-0.11279 43.605zm-59.758-7.2744 0.4292-0.24024 2.4375-24.334-0.35743 0.07031-3.8965 0.57422c0.47657 8.1041 0.8099 16.011 1.3872 23.93z" fill="#fff"/>
   <path d="m299 426.64-10.323-6.772c-1.9528-10.324-4.5442-29.643-4.8193-31.204-0.29834-0.01628-0.63268 0.03052-1.0356 0.11572l-3.8965 23.975-0.19336 0.89209c-3.5569-1.9481-7.6097-3.7584-11.165-5.8228l9.9785-36.023-0.00732-29.618 11.366 0.02051v31.661l7.1133 36.826c1.1469 5.2756 2.2935 10.785 2.9824 15.949zm-177.7-1.0312v-0.34424l7.1118-83.635c5.9661 0 12.161-0.11529 17.553 0.11719l5.5049 66.766c-3.5561 1.9528-7.4563 3.7866-11.125 5.5107l-2.5254-54.497-0.04687-1.1836c-0.57421 0.11236-1.4451 0.03877-2.0186 0.2666l-3.9009 60.344-10.553 6.6548zm100.07-1.875v-15.337h11.59v1.7007h-5.7979v4.9043h4.8911v1.771h-4.7681v4.9863h5.7407v1.9394l-11.656 0.03516zm-10.67-0.01905v-6.4658h-5.3686v6.3882h-5.7524v-15.264h5.6514v6.2183h5.1519v-6.0908h5.978v15.214h-5.6602zm-15.976-0.17431-13.535-0.1128v-1.7974h3.7852v-13.384h5.9077v13.384h3.8423v1.9102zm68.603-17.553c-1.797-0.75554-18.959-7.5412-19.389-7.6846-0.87566-0.29447-2.436-0.90673-2.436-0.90673l0.14355-55.308c1.4336 0.0511 20.217-0.0465 21.702 0-0.03951 2.2473 0.09668 9.9898 0.09668 11.013l-10.185-0.54199c0 3.5832 0.08841 9.4917-0.02783 14.082l-0.01758 0.20947 8.6221 1.856c-0.01857 1.8753-0.06612 10.045-0.11572 10.897-2.8672-0.57344-5.3998-1.186-8.3716-1.8369l-0.08936 13.223c3.3476 1.2158 6.628 2.0372 10.068 3.3003v11.698zm-104.4-1.7197-0.91699-8.833-4.1309-38.662-1.4912-15.026h10.786c0.45643 3.7855 0.65008 7.1311 1.0298 11.241 2.754-0.11624 5.3533-0.3829 7.9175-0.57275l1.2129-10.661s7.5045 0.04688 10.948 0.04688v0.28711l-8.146 55.758-0.12452 0.50684c-0.6703 0.23635-13.861 4.8263-17.084 5.915zm29.225-8.7861-0.08496-0.1626 0.11572-53.459 22.601 0.11573c0 1.3088-0.07032 8.3835-0.07032 8.7671l-11.06 0.06591-0.11279 42.791-0.01172 0.30615c-0.9609 0.08911-10.401 1.4793-11.377 1.5762zm37.887-0.84815c-2.5146-0.25263-7.3416-0.77473-11.165-1.1118l0.15234-51.662c0.37583 0.03875 15.096 0.03797 22.258 0.22705v9.3208c-1.4251-0.0465-11.017-0.25489-11.017-0.25489l-0.11132 31.317-0.11719 12.164zm-59.445-4.8896c0.6703-0.23635 1.2825-0.50382 1.856-0.73242 0.9175-9.0642 2.2585-23.021 2.6382-26.272l-6.1948 0.80127 1.7007 26.203z" fill="#c8102e"/>
  </g>
 </g>
</svg>