<svg xmlns="http://www.w3.org/2000/svg" height="168.44" viewBox="0 0 248.50043 168.43896" width="248.5"><g transform="matrix(.85 0 0 .85 .91241 1.0879)"><path fill="#ffb923" d="m144.84 0-3.8496 15.279c-20.5 0.9-39.121 8.9809-53.301 21.711l-13.359-7.0801 6.8809 5.959 3.9785 3.4512 0.02148 0.0098 1.9688 0.98047 0.16992 0.08008 1.8301 0.89844h0.0098l29.49 14.58 2.8594 0.41992-1.9082-15.689-3.7031-7.1777 18.842 16.408 8.1914-30.4 0.73828-2.7305 0.40039-1.4785 0.74023-2.7598 0.74024 2.7598 0.40039 1.4688 0.74023 2.7402 8.1992 30.4 18.879-16.439-3.7383 7.2188-0.25977 2.1309-0.25 2.1406-1.4004 11.42h0.01l2.8594-0.41992v-0.0059l29.5-14.555 0.01-0.0098 1.7305-0.84961 0.25-0.12109 1.9238-0.94531-1.6035 1.3945-1.4902 1.291-0.01 0.0098-4.9902 4.3398-0.0801 0.10937-2 2.7402-7.8789 10.811h-12.682-1.709c-17.53 0-36.411 0.000234-54.311-0.0098h-1.7305-12.66l-7.9687-10.93-0.79102-1.0801-1.2285-1.6797-4.9707-4.3203h-0.0098l-1.5-1.3008-1.6406-1.4297 1.3906 1.9707 1.0293 1.4688 12.189 17.311h-1.3496-2.1895-21.869c1.04-1.85 2.1498-3.6602 3.3398-5.4102-1.19 1.76-2.3113 3.5602-3.3613 5.4102h-2.3789c3.02-5.54 6.6787-10.699 10.889-15.379l2.2402 0.37891c0.04-0.04 0.07133-0.10039 0.11133-0.15039l-2.381-3.271c-5.22 5.5-9.6902 11.7-13.24 18.42h-10-14.68v-4.8301h-26.789-0.19141c-18.251 0-17.94 19.49-17.94 25.9v68.6l13.18-5.9492c4.73-2.08 20.01-8.4909 30.65-12.461l2.3691 4.7207 2.4609 4.8906 2.2305-0.64063c6.08-1.75 12.329-3.2904 18.719-4.6504 0.72-0.15 1.4399-0.30898 2.1699-0.45898 0.7-0.14 1.4209-0.28188 2.1309-0.42188h0.0098c8.4-1.65 17.04-2.9788 25.92-3.9688 1.23-0.14 2.4592-0.26062 3.6992-0.39062 1.27-0.13 2.5403-0.24938 3.8203-0.35938h0.0312 0.0195c5-0.45 10.059-0.80101 15.199-1.041 1.54-0.07 3.1004-0.12969 4.6504-0.17969 4.43-0.15 8.9002-0.24023 13.41-0.24023 4.63 0 9.1906 0.0805 13.641 0.23046 1.55 0.05 3.0894 0.10969 4.6094 0.17969 8.4 0.37 16.41 0.9807 23.9 1.7207h0.0195c0.04 0 0.0794 0.01 0.10938 0.01 1.27 0.12 2.52 0.25063 3.75 0.39062 1.27 0.14 2.52 0.27993 3.75 0.41993 9.48 1.1 17.941 2.3887 25.111 3.6387h0.01c0.73 0.13 1.4504 0.25086 2.1504 0.38086 0.75 0.13 1.4795 0.27039 2.1895 0.40039 12.91 2.39 20.59 4.45 20.77 4.5l2.2305 0.60937 1.9902-4.0293 2.2891-4.6309c6.96 2.35 13.991 4.9708 20.891 7.8008 2.25 0.93 4.4897 1.4004 6.6797 1.4004 4.04 0 7.6798-1.6516 10.34-4.6016 0.64-0.71 1.2205-1.4898 1.7305-2.3398 0.13-0.2 0.24008-0.39031 0.33008-0.57031 2.36-4.19 2.8398-8.9699 2.8398-15.67v-36.859c0-6.55-0.45977-11.55-2.7598-16.23-3.16-6.51-8.7502-10.1-15.74-10.1h-30.971v4.8398h-20.479c-3.54-6.71-7.9914-12.879-13.191-18.369l-2.3984 3.2793c0.02 0.02 0.0386 0.06008 0.0586 0.08008l2.2402-0.37891c4.21 4.68 7.8704 9.8487 10.9 15.389h-2.3809-21.85-2.6699-0.90039l12.191-17.311 0.01-0.0098 1.0195-1.4492 1.3633-1.9395 0.0176-0.0098 0.0488-0.04102 5.8398-4.9707 5-4.25-13.25 6.9609c-14.19-12.78-32.85-20.891-53.41-21.801l-3.85-15.279zm-3.8691 15.32 0.01 0.0098-1.0703 4.2305-6.5801 26.08-21.01-19.541-0.17969-0.16992 0.0996 0.21094v0.0098l2.0703 4.1094 1.5703 3.1211 0.0156 0.01367 2.7832 22.465-0.94922-1.1992-2.4512-3.0801-23.648-12.5h-0.01172l-3.8789-2.0508 3.2793-0.16992c12.99-10.96 28.94-17.8 47.42-19.59l2.5312-1.9492zm7.75 0.12891 2.4395 2.0508c18.07 1.35 34.52 8.4196 47.48 19.35l3.2891 0.31055-3.7891 1.9902h-0.01l-23.721 12.469-0.93946 1.1816-2.4492 3.0664 2.7871-22.484 0.002-0.002 1.209-2.4102 2.4297-4.8301 0.10156-0.21094-0.1914 0.16992-21.02 19.52-6.5801-26.068-1.0391-4.1016zm-13.26 36.32c-0.24 0.04-0.48071 0.08086-0.72071 0.13086 0.24-0.05 0.48071-0.09086 0.72071-0.13086zm18.01 63.49c0.01 0.00032 0.0195-0.00033 0.0293 0 0.13 0 0.24937 0.01 0.35938 0.0195-0.12001-0.01-0.24868-0.0195-0.38868-0.0195zm-53.021 19.529c-1.29 0.15-2.5794 0.30071-3.8594 0.47071l-11.209 15.4c-3.45-3.71-6.5505-7.731-9.2305-12.041h-0.0098c-0.72 0.14-1.4404 0.29117-2.1504 0.45117 2.61 4.26 5.5897 8.2805 8.9297 11.98l0.08984 2.8691-0.12891 0.17969-8.5508 11.74 10.859-9.4004 0.03125-0.0293 0.92969-1.3203 1.4805-2.0898 0.0098-0.01 12.809-18.201zm89.291 0.70117 12.311 17.48 0.01 0.01 1.4102 2 0.99024 1.4102 0.0586 0.0488 10.83 9.2012-8.459-11.57c0.01 0 0.0193-0.01 0.0293-0.0195v-0.0606l0.0703-3.1797c3.17-3.55 6.0293-7.3697 8.5293-11.43-0.72-0.13-1.459-0.26039-2.209-0.40039h-0.01c-2.62 4.14-5.6209 8.0291-8.9609 11.619l-10.68-14.619c-1.28-0.17-2.5899-0.33024-3.9199-0.49024zm-72.84 1.3906-20.221 10.719-3.3594 1.7812-4.9707 4.3184-0.0098 0.0117-1.7891 1.5586-1.3398 1.1699 1.9297-0.95898 0.19922-0.0996 1.8203-0.90039 0.0098-0.01 28.689-14.191 0.80078-0.39844 2.8691-0.41992c-1.6-0.78-3.1589-1.6501-4.6289-2.5801zm55.9 0.01c-1.46 0.92-3.0209 1.7901-4.6309 2.5801l2.8691 0.41992 0.80078 0.39844 28.711 14.172 0.01 0.01 1.7188 0.84961 0.28125 0.14063 1.9199 0.94922-1.4297-1.25-1.6914-1.4707-0.01-0.01-4.9902-4.3398-0.0801-0.10937-3.2695-1.7207-20.209-10.619zm-54.131 3-0.4707 0.58985-2.9394 3.6797-3.0996 25.439c-7.52-3.28-14.439-7.6499-20.529-12.92l-0.01172 0.01-0.05859 0.0312-0.53125 2.1895c12.991 10.97 28.941 17.8 47.421 19.59l2.5508 1.9707-1.0703-4.2598c-1.78-0.11-3.5488-0.26047-5.2988-0.48047-0.04-0.01-0.0909-0.01-0.13086-0.0195-0.62-0.08-1.2298-0.16-1.8398-0.25-0.15-0.02-0.29946-0.0503-0.43946-0.0703-0.51-0.08-1.0098-0.15999-1.5098-0.25-0.23-0.04-0.45164-0.0811-0.68164-0.12109-0.42-0.08-0.83977-0.15023-1.2598-0.24023-0.3-0.06-0.60039-0.11946-0.90039-0.18946-0.34-0.07-0.67953-0.1407-1.0195-0.2207-0.36-0.08-0.72008-0.17-1.0801-0.25-0.27-0.06-0.55031-0.12945-0.82031-0.18945-0.41-0.1-0.82828-0.21032-1.2383-0.32031-0.21-0.06-0.42063-0.10993-0.64063-0.16993-0.47-0.13-0.93062-0.26039-1.3906-0.40039-0.15-0.04-0.29899-0.0889-0.45899-0.1289-0.51-0.15-1.0212-0.31047-1.5312-0.48047l-0.29883-0.0898c-0.54999-0.18-1.1004-0.37054-1.6504-0.56054-0.05-0.02-0.10015-0.0288-0.16015-0.0488-0.59-0.21-1.1795-0.42039-1.7695-0.65039-0.01 0-0.0115 0.00023-0.0215-0.01-1.17-0.44-2.3285-0.92015-3.4785-1.4102l-0.19141 0.16992 0.10156-0.21094 3.6387-7.2285 2.6914-21.701 0.11914-0.79883zm52.359 0.01 0.10156 0.81055 2.6797 21.689 3.6387 7.2402 0.10156 0.20899-0.1914-0.16992c-1.14 0.5-2.2988 0.97015-3.4688 1.4102-0.01 0-0.031 0.01-0.041 0.0195-0.58 0.21999-1.1602 0.43062-1.7402 0.64062l-0.17969 0.0606c-0.54 0.19-1.0789 0.36882-1.6289 0.54883-0.11 0.03-0.21031 0.0716-0.32031 0.10156-0.5 0.16-0.99977 0.31875-1.5098 0.46875-0.16 0.05-0.32047 0.0906-0.48047 0.14062-0.46 0.13-0.91109 0.27063-1.3711 0.39063-0.22 0.06-0.4382 0.11992-0.6582 0.16992-0.4 0.11-0.81071 0.21836-1.2207 0.31836-0.28 0.07-0.55984 0.13117-0.83984 0.20117-0.35 0.08-0.70078 0.17-1.0508 0.25-0.35 0.08-0.68906 0.14875-1.0391 0.21875-0.29 0.06-0.5811 0.13164-0.8711 0.18164-0.42 0.08-0.84953 0.15828-1.2695 0.23828l-0.66015 0.1211c-0.51 0.09-1.0193 0.17-1.5293 0.25-0.14 0.02-0.27969 0.0503-0.42969 0.0703-0.62 0.09-1.2413 0.18-1.8613 0.25-0.04 0-0.0791 0.01-0.11914 0.0195-1.75 0.22-3.5208 0.37047-5.3008 0.48047l-1.0703 4.2598v0.01l0.0117-0.01 2.4688-2.2109c18.07-1.35 34.52-8.4196 47.48-19.35l-0.56055-2.2598v-0.01c-6.1 5.28-13.03 9.6692-20.57 12.949l-3.0996-25.459-2.9297-3.6602-0.4707-0.58984zm2.7812 22.5-3.7402-7.25-1.5898-13.02 1.5801 13.029-0.39063-0.35938-12.311-11.432c-1.74 0.42-3.5487 0.75023-5.3887 0.99024l-7.1309 28.25-7.1191-28.25c-1.84-0.24001-3.6506-0.58024-5.3906-0.99024l-12.311 11.432-0.38867 0.35938-3.7402 7.25 18.189-15.84 0.69922-0.60937 0.2207 0.79883 7.9805 29.59 0.74023 2.7598 0.38868 1.4512 0.74023 2.7598 0.74023-2.7598 0.39063-1.4609 0.74023-2.7598 7.9785-29.59 0.2207-0.80078 0.69922 0.61133 18.191 15.84zm24.27-5.8301 0.0195 0.0801c0.02-0.02 0.0308-0.031 0.0508-0.041l-0.0703-0.0391z"/><path fill="#002649" d="m139.91 19.539c-9.77 0.58-19.07 2.8608-27.6 6.5508l21.02 19.529 6.5801-26.08zm9.8691 0.02148 6.5801 26.07 21.01-19.531c-2.31-1-4.6701-1.8997-7.0801-2.6797l-0.0898-0.0293c-0.57-0.18-1.1292-0.36125-1.6992-0.53125-0.07-0.02-0.13922-0.03859-0.19922-0.05859-0.54-0.16-1.0713-0.31094-1.6113-0.46094-0.1-0.03-0.19882-0.05008-0.29883-0.08008-0.50999-0.14-1.021-0.27039-1.541-0.40039-0.12-0.03-0.24914-0.05984-0.36914-0.08984-0.49-0.12-0.9807-0.22961-1.4707-0.34961-0.15-0.03-0.29899-0.06961-0.45899-0.09961l-1.4102-0.30078c-0.16999-0.03-0.33976-0.06961-0.50976-0.09961-0.45-0.09-0.91109-0.17-1.3711-0.25-0.19-0.03-0.38032-0.06961-0.57032-0.09961l-1.3203-0.21094c-0.21-0.03-0.41891-0.05961-0.62891-0.09961-0.43-0.06-0.86101-0.11992-1.291-0.16992-0.22-0.03-0.43992-0.05984-0.66992-0.08984-0.42-0.05-0.84953-0.10062-1.2695-0.14062-0.23-0.02-0.45922-0.05031-0.69922-0.07031-0.42-0.04-0.83977-0.06938-1.2598-0.10937l-0.7207-0.06055c-0.35-0.03-0.70078-0.03859-1.0508-0.05859zm27.75 6.5996-3.0996 25.459 23.721-12.459c-6.11-5.3-13.061-9.7-20.621-13zm-65.369 0.0098c-7.52 3.28-14.439 7.6599-20.529 12.92l23.629 12.519-3.1-25.439zm-26.769 18.93c-1.11 1.19-2.1905 2.4197-3.2305 3.6797-0.11 0.13-0.22031 0.27039-0.32031 0.40039-0.28 0.34-0.56008 0.69102-0.83008 1.041-0.22 0.28-0.44039 0.56961-0.65039 0.84961-0.15 0.2-0.30898 0.39938-0.45898 0.60938-0.29 0.39-0.58133 0.78969-0.86133 1.1797-0.07 0.1-0.14875 0.20078-0.21875 0.30078-0.34 0.48-0.67 0.95922-1 1.4492-0.01 0.02-0.03101 0.04055-0.04102 0.06055-1.19 1.75-2.2998 3.5602-3.3398 5.4102h21.871l-10.92-14.981zm118.97 0.07031-10.92 14.93h21.85c-0.09-0.15-0.16976-0.30898-0.25976-0.45898s-0.17953-0.31094-0.26953-0.46094c-0.21-0.36-0.42063-0.72984-0.64063-1.0898-0.15-0.25-0.30898-0.49024-0.45898-0.74024-0.16-0.26-0.32024-0.52906-0.49024-0.78906-2.58-4.06-5.5405-7.8706-8.8105-11.391zm-186.42 12.75c-15.59 0-15.17 16.29-15.17 23.24v64.43l1.2402-0.56054 8.0996-3.6895c5.45-2.39 22.63-9.5789 33.15-13.379l4.9004 9.7793c6.05-1.74 12.139-3.2408 18.209-4.5508 0.71-0.15 1.4306-0.29922 2.1406-0.44922 0.71-0.14 1.4094-0.28968 2.1094-0.42968 9.85-1.97 19.67-3.4099 29.33-4.4199 1.52-0.15999 3.0503-0.31117 4.5703-0.45117 27.84-2.54 54.211-1.5697 76.131 0.57032 1.91 0.19 3.7987 0.38984 5.6387 0.58984 10.93 1.21 20.602 2.6798 28.592 4.0898h0.01c0.73001 0.13 1.4484 0.26063 2.1484 0.39063 0.74 0.14 1.4602 0.27039 2.1602 0.40039 12.73 2.39 20.191 4.4199 20.191 4.4199l4.3398-8.791 2.2402 0.75976c7.04 2.38 14.149 5.0404 21.139 7.9004 6.42 2.64 12.281 0.78125 15.461-4.4688 0.64-1.05 1.1295-2.1498 1.5195-3.3398 1.01-3.11 1.25-6.7817 1.25-11.512h-0.0508v-36.85c0-6.16-0.41828-10.84-2.4883-15.07-2.7-5.55-7.4316-8.5996-13.352-8.5996h-28.299v4.7695 0.05078h-7.2812-14.51-2.3398-2.3398-25.23-2.7598-0.72851-2.2812-1.2305-0.0195c-24.73 0-53.649-0.0098-79.199-0.0098h-0.01-1.2305-2.291-1.3184-2.1602-25.25-0.0098-2.3418-2.3301-18.5-7.4883v-0.05078-4.7695h-24.182-0.17969zm78.65 77.35c-6.97 0.9-13.789 2.0213-20.439 3.3613 2.68 4.3 5.7805 8.3291 9.2305 12.039l11.209-15.4zm97.09 0.7207 10.68 14.619c3.33-3.59 6.3409-7.4692 8.9609-11.619-5.69-1.01-12.301-2.05-19.641-3zm-19.25 8.1504 3.0996 25.459c7.54-3.29 14.47-7.6692 20.57-12.949l-0.0195-0.0801-23.65-12.43zm-59.17 0.0293-23.629 12.52c6.09 5.26 12.999 9.6399 20.529 12.92l3.0996-25.439zm18.1 5.9707-21.039 19.529c1.15 0.5 2.3105 0.97016 3.4805 1.4102 0.01 0 0.01-0.00024 0.0195 0.01 0.59 0.22 1.1795 0.44039 1.7695 0.65039 0.05 0.02 0.10016 0.0388 0.16016 0.0488 0.55 0.19 1.1004 0.38055 1.6504 0.56055l0.29883 0.0898 1.5312 0.48047c0.15 0.05 0.29898 0.0909 0.45898 0.13086 0.46 0.14 0.93063 0.26844 1.3906 0.39844 0.21 0.06 0.42062 0.10992 0.64062 0.16992 0.41 0.11 0.82024 0.22031 1.2402 0.32031 0.27 0.07 0.53836 0.13141 0.81836 0.19141 0.36 0.09 0.72007 0.17 1.0801 0.25 0.34 0.08 0.68148 0.13875 1.0215 0.21875 0.3 0.06 0.59844 0.12945 0.89844 0.18945l1.2598 0.24024c0.23 0.04 0.45164 0.0811 0.68164 0.12109 0.5 0.09 1.0098 0.17 1.5098 0.25 0.15 0.02 0.29945 0.0503 0.43945 0.0703 0.61 0.09 1.2298 0.17 1.8398 0.25 0.04 0 0.0908 0.01 0.13085 0.0195 1.75 0.22 3.5188 0.37047 5.2988 0.48047l-6.5801-26.08zm22.98 0.01-6.5703 26.07c1.78-0.11 3.5508-0.26047 5.3008-0.48047 0.04 0 0.0791-0.01 0.11914-0.0195 0.62-0.08 1.2413-0.16 1.8613-0.25 0.14-0.02 0.27969-0.0503 0.42969-0.0703 0.51-0.08 1.0193-0.16 1.5293-0.25l0.66015-0.12109c0.43-0.08 0.84953-0.15024 1.2695-0.24024l0.8711-0.17968c0.35-0.07 0.69906-0.13876 1.0391-0.21876 0.35-0.08 0.70078-0.17 1.0508-0.25 0.28-0.07 0.55984-0.13117 0.83984-0.20117 0.41-0.1 0.81071-0.21031 1.2207-0.32031 0.22-0.06 0.4382-0.10992 0.6582-0.16992 0.46-0.13 0.92109-0.25867 1.3711-0.38867 0.16-0.05 0.32047-0.0906 0.48047-0.14063 0.51-0.15 1.0098-0.3107 1.5098-0.4707 0.11-0.03 0.21031-0.0696 0.32031-0.0996 0.54-0.18 1.0889-0.35883 1.6289-0.54883l0.17969-0.0606c0.58-0.21 1.1702-0.42062 1.7402-0.64062 0.01 0 0.031-0.01 0.041-0.0195 1.17-0.44 2.3288-0.92016 3.4688-1.4102l-21.02-19.52z"/><path fill="#fff" d="m144.84 27.1-6.3105 25.711c-3.03 0.14-6.1992 1.2891-6.1992 1.2891l-12.43-11.439 1.8691 15.18c-1.33 0.65-2.7686 1.46-4.0586 2.25h54.299c-1.29-0.8-2.7303-1.6701-4.0703-2.3301l1.5312-12.311 0.33008-2.709-12.441 11.359s-2.5791-1.1495-6.0391-1.4395l-6.4805-25.561zm-49.5 22.051 7.9707 10.93c4.14 0.01 8.3702 0.0098 12.66 0.0098l-20.63-10.941zm98.93 0.13867-20.559 10.811h12.68l7.8789-10.811zm55.471 15.291c0.02 4.07 0.0503 8.1292 0.0703 12.199 1.77-1.86 3.5501-3.7798 5.3301-5.7598 0.99001 0.04 1.969 0.08133 2.959 0.11133 0 0 10.761 0.42828 11.951 0.48828 1.11 0.05 2.8291 0.24117 4.0391 1.9512-1.44 1.59-2.8805 3.1502-4.3105 4.6602l0.0898 37.75c-2.05-0.65-4.0984-1.2902-6.1484-1.9102-0.04-12.11-0.0909-24.23-0.13086-36.34-1.83-2.27-3.6602-4.4698-5.4902-6.5898-1.81 2.02-3.6197 3.9596-5.4297 5.8496l0.17969 33.959c-0.95-0.26-1.8898-0.51953-2.8398-0.76953 0.02 4.04 0.0503 8.0809 0.0703 12.131 1.76-1.39 3.5308-2.8306 5.3008-4.3106 0.98 0.31 1.9594 0.62922 2.9394 0.94922 3.65 1.19 7.2897 2.44 10.93 3.75 2.45 0.88 3.9491 0.95156 4.8691 0.10156 1.34 2.21 2.6815 4.4595 4.0215 6.7695 0.27-0.29 0.52-0.62976 0.75-1.0098 1.32-2.15 1.7988-5.2209 1.7988-11.381v-35.6c-0.01-6.14-0.50009-9.4304-1.8301-12.15-1.58-3.25-4.0094-4.8496-7.3594-4.8496h-21.76zm-231.67 0.0098c-6.75-0.05-9.0608 4.1196-9.0508 16.6v8.8711c0 5.32 0.51117 8.9499 1.7012 11.17 1.52-1.96 3.0288-3.8705 4.5488-5.7305 0.99 1.18 2.361 1.4804 4.041 1.1504 2.02-0.4 4.0386-0.78992 6.0586-1.1699 3.75-0.69 4.9199 1.3398 4.9199 1.3398-1.45 1.59-2.8898 3.2204-4.3398 4.9004-1.77 0.4-3.5386 0.82024-5.3086 1.2402 1.77-0.42 3.5503-0.84024 5.3203-1.2402-0.01 4.13-0.03102 8.2684-0.04102 12.398-2.09 0.63-4.1795 1.2912-6.2695 1.9512 0-2.12 0.0095-4.2296 0.01953-6.3496-3.41 0.95-6.8205 1.9385-10.23 2.9785v21.352c1.62-3.08 3.2509-6.0802 4.8809-8.9902 3.78-1.44 7.5691-2.8113 11.369-4.1113 1.76-0.6 3.1797-1.6694 4.1797-3.3594 1.49 1.27 2.9807 2.5109 4.4707 3.7109 1.67-2.66 2.4195-5.7008 2.4395-10.301 0.02-3.87 0.04055-7.7491 0.06055-11.619 0.03-8.16-2.7304-11.332-9.1504-10.432-2.67 0.4-5.3302 0.8007-7.9902 1.2207l0.03-11.909c-1.32-1.53-2.6507-3.1007-3.9707-4.7207 1.081-1.37 2.731-1.949 4.991-2.039 3.38-0.14 6.7702-0.28016 10.16-0.41016-1.63 2.15-3.2511 4.3704-4.8711 6.6504h0.01172c-0.01 1.75-0.01148 3.5-0.02148 5.25 1.62-2.29 3.2313-4.5099 4.8613-6.6699 1.61 1.94 3.2201 3.8204 4.8301 5.6504 0.0032-0.000336 0.0065 0.000336 0.0098 0 0.03-5.79 0.05984-11.591 0.08984-17.381h-17.75zm107.2 4.7793c-9.84 0-19.68 0.0017-29.52 0.01172-0.03 4.26-0.06937 8.5193-0.10938 12.779h0.01953c1.08-1.22 2.1602-2.4311 3.2402-3.6211 1.11 1.12 2.2298 2.2418 3.3398 3.3418 0.01-1.78 0.0291-3.5713 0.0391-5.3613-1.11-1.14-2.2298-2.299-3.3398-3.459 3.7628-0.0499 7.5262-0.09094 11.289-0.13086-1.466 1.147-2.9324 2.3232-4.3984 3.5-0.04 6.52-0.0809 13.031-0.13086 19.541-0.81 0.06-1.6197 0.12945-2.4297 0.18945-0.02 2.37-0.0388 4.7491-0.0488 7.1191 1.56-1.33 3.1197-2.6299 4.6797-3.9199 1.61-0.13 3.2201-0.25914 4.8301-0.36914l4.6191 3.0606c0.01-2.29 0.021-4.5811 0.041-6.8711-0.79 0.04-1.5908 0.09063-2.3808 0.14062 0.04-6.36 0.0694-12.711 0.10937-19.061-1.6254-1.0969-3.2399-2.2034-4.8652-3.3301 3.8687-0.03998 7.727-0.06985 11.596-0.08984-1.07 1.12-2.139 2.2509-3.209 3.3809l-0.0312 5.1289h0.0215c1.08-1.13 2.1485-2.2396 3.2285-3.3496l3.3613 3.2109c0.02-3.94 0.0288-7.8918 0.0488-11.842zm2.2305 0.01172c-0.01 2.26-0.0195 4.5191-0.0195 6.7891 1.52-1.12 3.0386-2.2298 4.5586-3.3398 0.82 0 1.6409 0.00027 2.4609-0.0098-1.53 1.1-3.0596 2.2103-4.5996 3.3203-0.02 6.18-0.0405 12.349-0.0605 18.529-0.81 0.03-1.6197 0.05008-2.4297 0.08008-0.01 2.25-0.0195 4.5-0.0195 6.75 1.53-1.17 3.0598-2.3307 4.5898-3.4707 0.82-0.02 1.6488-0.04859 2.4688-0.05859 1.55 1.06 3.1102 2.1292 4.6602 3.1992 0.01-4.28 0.0115-8.5503 0.0215-12.82-1.55-1.11-3.0906-2.2198-4.6406-3.3398 4.8-0.06 9.6102-0.08055 14.41-0.06055-1.55 1.12-3.1004 2.2411-4.6504 3.3711 0 4.26-0.01 8.5288-0.01 12.799 1.56-1.1 3.1199-2.1798 4.6699-3.2598l2.5195 0.03125c1.51 1.12 3.031 2.2487 4.541 3.3887 0-2.23-0.0115-4.4692-0.0215-6.6992-0.79-0.02-1.5889-0.04078-2.3789-0.05078l-0.03-18.42c-1.55-1.12-3.0984-2.2298-4.6484-3.3398h2.7188c1.43 1.11 2.8708 2.2296 4.3008 3.3496-0.01-2.25-0.01-4.4983-0.0195-6.7383h-11.65v12.369c-1.7 0-3.4111 0.0095-5.1211 0.01953 0-4.13 0.0115-8.2587 0.0215-12.389h-11.641zm30.641 0c-0.01 2.25-0.00046 4.5 0.01 6.75 1.53-1.1 3.0696-2.2103 4.5996-3.3203 0.76 0 1.5291 0.0098 2.2891 0.0098 0.004 0.000046 0.008-0.000044 0.0117 0 0.8661 0.0099 1.7335 0.0096 2.5996 0.01953 1.55 1.14 3.1004 2.2892 4.6504 3.4492-0.01-2.3-0.021-4.6082-0.041-6.9082h-14.119zm6.9102 3.4395c-1.51 1.11-2.9905 2.2201-4.4805 3.3301 0.02 6.18 0.0404 12.359 0.0606 18.549-0.81-0.03-1.6216-0.04836-2.4316-0.06836 0.01 2.24 0.0115 4.4787 0.0215 6.7188 1.48-1.05 2.9497-2.1004 4.4297-3.1504 5.17 0.21 10.35 0.50062 15.52 0.89062h0.01c1.59 1.26 3.1795 2.5396 4.7695 3.8496l-0.0898-12.93c-2.91-0.17-5.8185-0.31898-8.7285-0.45898 0.01 1.92 0.0193 3.83 0.0293 5.75-1.4-0.08-2.7995-0.16047-4.1895-0.23047-0.03-6.27-0.06-12.55-0.1-18.82-1.61-1.15-3.2084-2.2997-4.8184-3.4297zm27.398-3.4395c-1.61 9.11-3.2196 18.059-4.8496 26.879-0.81-0.07-1.6197-0.12922-2.4297-0.19922 0.02 2.36 0.0408 4.7296 0.0508 7.0996 1.13-1.05 2.2684-2.0999 3.3984-3.1699 1.26 0.12 2.531 0.25063 3.791 0.39063 1.35 1.33 2.6991 2.6884 4.0391 4.0684 0.34-2.79 0.68172-5.6002 1.0117-8.4102h0.0293c-1.41-1.16-2.8109-2.2999-4.2109-3.4199 4.45 0.37 8.9113 0.78023 13.361 1.2402-1.28 0.93-2.5716 1.8402-3.8516 2.7402 0.4 2.94 0.81094 5.8913 1.2109 8.8613 1.31-1.03 2.6199-2.0806 3.9199-3.1406 1.26 0.18 2.5193 0.37055 3.7793 0.56055 1.15 1.46 2.3012 2.9394 3.4512 4.4394-0.02-2.65-0.0503-5.3107-0.0703-7.9707l-2.4297-0.33008c-1.83-10.11-3.6507-19.979-5.4707-29.629-4.91 0-9.8205 0.000268-14.73-0.0098zm24.57 0c0.03 2.7 0.0501 5.3996 0.0801 8.0996 1.39-1.28 2.7799-2.5799 4.1699-3.9199 0.76 0.02 1.521 0.02883 2.291 0.04883-1.35 1.35-2.6912 2.6709-4.0312 3.9609 0.07 7.48 0.14093 14.96 0.21093 22.43l-2.4297-0.35938c0.03 2.67 0.0501 5.3398 0.0801 8.0098 1.49-1.03 2.9787-2.0802 4.4688-3.1602 0.65998 0.12 1.3202 0.22961 1.9902 0.34961 1.56 1.64 3.1199 3.321 4.6699 5.041-0.06-6.6-0.10992-13.191-0.16992-19.791 2.86 6.9 5.7108 14.11 8.5508 21.66 1.31-1.15 2.6099-2.3293 3.9199-3.5293 0.83 0.18 1.6602 0.35883 2.4902 0.54883 1.51 1.85 3.0095 3.7397 4.5195 5.6797-0.02-3.15-0.0405-6.309-0.0606-9.459-0.81-0.14-1.5989-0.30093-2.3789-0.46093l-0.17968-25.709c-1.56-1.63-3.1119-3.2212-4.6719-4.7812 0.76 0.02 1.5117 0.04055 2.2617 0.06055 1.59 1.57 3.1795 3.1898 4.7695 4.8398-0.02-3.18-0.0405-6.3493-0.0605-9.5293-3.66 0-7.3107-0.0098-10.971-0.0098 0.06 6.94 0.11188 13.89 0.17188 20.83-2.87-7.27-5.7413-14.2-8.6113-20.84-3.69 0-7.3901 0.000268-11.08-0.0098zm-123.67 0.0098c-3.88 0-7.7587-0.000268-11.639 0.0098-0.09 9.68-0.18148 19.359-0.27148 29.049-1.77 0.23-3.5403 0.46117-5.3203 0.70117 0.09-9.92 0.18148-19.84 0.27148-29.75-3.9 0-7.7914-0.00027-11.691 0.0098-0.02 2.81-0.04836 5.6199-0.06836 8.4199 1.5-1.43 3-2.8409 4.5-4.2109 0.78-0.02 1.5598-0.02883 2.3398-0.04883-1.47 1.35-2.9399 2.7402-4.4199 4.1602-0.07 7.6-0.14117 15.189-0.20117 22.789-0.03 3.11 0.5807 5.1004 1.9707 6.1504 1.28-1.37 2.5696-2.7093 3.8496-4.0293 0.84 0.65001 2.0095 0.79032 3.4395 0.57032 1.73-0.27 3.4497-0.53125 5.1797-0.78125 1.49-0.21 2.7008-0.71914 3.5508-1.6191 1.32 0.9 2.6292 1.7902 3.9492 2.6602 1.34-1.36 1.9312-3.3116 1.9512-6.1016l0.17969-20.488c-1.48-1.19-2.9692-2.4009-4.4492-3.6309 0.88-0.01 1.7684-0.02906 2.6484-0.03906 1.39 1.22 2.7799 2.4196 4.1699 3.5996 0.02-2.47 0.04055-4.9399 0.06055-7.4199zm-38.379 0.01953c-2.73 0-5.4614-0.000268-8.1914 0.0098-2.83 0-4.9 1.0709-6.25 3.2109-1.14 1.8-1.5698 3.9498-1.5898 8.0098-0.05 7.82-0.09867 15.639-0.13867 23.459-0.02 4.06 0.36828 6.0996 1.4883 7.5996 0.21 0.29 0.46094 0.54172 0.71094 0.76172 1.2-1.53 2.3898-3.0317 3.5898-4.5117 0.83 0.72 1.9999 0.84125 3.4199 0.53125 1.72-0.38 3.4402-0.75133 5.1602-1.1113 1.45-0.3 2.6402-0.91922 3.4902-1.9492 1.19 0.88 2.3801 1.7494 3.5801 2.6094 0.23-0.29 0.46016-0.59016 0.66016-0.91016 1.15-1.8 1.5696-3.7388 1.5996-7.2988l0.17969-20.58c0.03-3.56-0.37047-5.4105-1.4805-6.9805-1.35-1.86-3.3985-2.8496-6.2285-2.8496zm141.37 3.7305c2.37 0.03 4.7511 0.06937 7.1211 0.10938-1.18 0.99-2.361 1.9599-3.541 2.9199 0.75 4.66 1.4902 9.3809 2.2402 14.131-1.38-0.11-2.7509-0.23008-4.1309-0.33008 0.63-4.57 1.2606-9.1705 1.8906-13.811-1.19-1.02-2.3901-2.0295-3.5801-3.0195zm-142.92 0.758c1.43-0.04 2.4902 0.41992 3.2402 1.1699-1.08 1.06-2.1698 2.1405-3.2598 3.2305-0.06 8.17-0.13117 16.34-0.20117 24.52-1.73 0.32-3.4595 0.65047-5.1895 0.98047 0.06-8.41 0.11945-16.82 0.18945-25.24-1.11-1.04-2.2298-2.0997-3.3398-3.1797 0.77-0.84 1.8706-1.3116 3.3906-1.3516 1.72-0.04 3.4499-0.08891 5.1699-0.12891zm87.291 60.48c-18.75 0-31.311 1.7498-36.291 2.5898l-7.7305 10.629 20.221-10.709c1.47 0.93002 3.0289 1.7901 4.6289 2.5801l-0.31836 2.6602-1.5801 13.029 0.38868-0.35938 12.311-11.432c1.74 0.42 3.5506 0.75022 5.3906 0.99024l7.1191 28.25 7.1309-28.25c1.84-0.24002 3.6487-0.58024 5.3887-0.99024l12.311 11.432 0.39062 0.35938-1.5898-13.029-0.32031-2.6602c1.61-0.79 3.1689-1.6601 4.6289-2.5801l20.21 10.62-7.2305-9.8789c-5.56-1.04-20.329-3.25-45.059-3.25z"/><path fill="#99badd" d="m144.81 23.15-7.1211 28.25c-0.06 0.01-0.12945 0.0193-0.18945 0.0293-0.69 0.09-1.3803 0.21008-2.0703 0.33008-0.24 0.04-0.47875 0.08086-0.71875 0.13086-0.82 0.15-1.6319 0.31977-2.4219 0.50977l-6.9297-6.4297-5.7695-5.3613 1.9102 15.691c-1.61 0.79-3.1609 1.6501-4.6309 2.5801l-23.539-12.49 1.2305 1.6797 0.7793 1.0801 20.631 10.93h1.7285c1.29-0.78 2.7406-1.59 4.0606-2.25l-1.8692-15.18 12.43 11.439s3.1792-1.1491 6.1992-1.2891l6.3106-25.711 6.4805 25.561c3.45 0.29 6.0391 1.4395 6.0391 1.4395l12.439-11.359 0.26172-2.1309-4.3711 4.0508-8.3398 7.7402c-0.14-0.03-0.28945-0.05984-0.43945-0.08984-0.51-0.12-1.0306-0.23008-1.5606-0.33008-0.22-0.04-0.44015-0.10062-0.66015-0.14062-0.3-0.06-0.61016-0.09063-0.91016-0.14062-0.61-0.1-1.2101-0.20906-1.8301-0.28906l-7.1289-28.25zm24.66 22.299-1.5312 12.311c1.34 0.66 2.7803 1.5201 4.0703 2.3301h1.7109l20.559-10.811 2-2.7402-23.49 12.342c-1.47-0.92-3.0187-1.7801-4.6387-2.5801l1.3203-10.852zm85.67 25.58c-1.78 1.99-3.5501 3.8998-5.3301 5.7598 0.95 0.07 1.8994 0.14117 2.8594 0.20117 1.8081-1.8881 3.6157-3.8359 5.4238-5.8438 1.8285 2.1284 3.6578 4.3258 5.4863 6.584 2.07 0.17 4.1294 0.32976 6.1894 0.50976 1.44-1.51 2.8706-3.0602 4.3106-4.6602-1.21-1.71-2.931-1.8992-4.041-1.9492-1.189-0.05995-11.922-0.49949-11.939-0.49023-0.003-0.000132-0.006 0.000132-0.01 0-0.98667-0.03987-1.9625-0.08143-2.9492-0.11133zm-224.23 0.05078c-3.39 0.13-6.7702 0.27016-10.16 0.41016-2.26 0.1-3.9102 0.66906-4.9902 2.0391 1.32 1.61 2.6507 3.1807 3.9707 4.7207 2.09-0.17 4.1988-0.33953 6.2988-0.51953 1.62-2.28 3.2509-4.5004 4.8809-6.6504zm117.98 1.6797c1.55 1.11 3.0984 2.2198 4.6484 3.3398 0.79 0.01 1.5811 0.0098 2.3711 0.0098-1.43-1.12-2.8708-2.2296-4.3008-3.3496h-2.7188zm13.859 0.05078c-1.53 1.11-3.0596 2.2203-4.5996 3.3203 0.81 0.01 1.6199 0.0095 2.4199 0.01953 1.49-1.1 2.979-2.2101 4.459-3.3301-0.76-0.01-1.5193-0.0098-2.2793-0.0098zm2.2793 0.0098c1.61 1.13 3.2103 2.2797 4.8203 3.4297 0.82 0.01 1.6294 0.01906 2.4394 0.03906-1.55-1.16-3.0984-2.3092-4.6484-3.4492-0.87 0-1.7413-0.0095-2.6113-0.01953zm-43.189 0.0098c-3.87 0.03-7.7296 0.05984-11.6 0.08984 1.62 1.13 3.2489 2.2398 4.8789 3.3398 1.17-0.02 2.3417-0.02883 3.5117-0.04883 1.07-1.13 2.139-2.2609 3.209-3.3809zm10.199 0c-1.52 1.11-3.0386 2.2198-4.5586 3.3398 0.81-0.01 1.6197-0.0095 2.4297-0.01953 1.53-1.11 3.0696-2.2203 4.5996-3.3203-0.83-0.01-1.6507-0.01-2.4707 0zm-21.79 0.099c-3.77 0.04-7.5406 0.08086-11.311 0.13086 1.11 1.16 2.2298 2.319 3.3398 3.459 1.18-0.03 2.3705-0.06008 3.5605-0.08008 1.47-1.19 2.9402-2.3598 4.4102-3.5098zm86.09 0.20117c1.19 0.99 2.3901 1.9995 3.5801 3.0195 1.18-0.95 2.361-1.9202 3.541-2.9102-2.37-0.04-4.7511-0.06938-7.1211-0.10938zm-107.23 0.05859c-0.88 0.02-1.7684 0.03102-2.6484 0.04102 1.48 1.24 2.9692 2.4389 4.4492 3.6289 0.79-0.02 1.5791-0.05031 2.3691-0.07031-1.39-1.18-2.7799-2.3896-4.1699-3.5996zm-17.639 0.37109c-0.78 0.02-1.5598 0.02883-2.3398 0.04883-1.5 1.37-3 2.7809-4.5 4.2109 0.81-0.03 1.6099-0.06961 2.4199-0.09961 1.47-1.42 2.9399-2.8002 4.4199-4.1602zm149.78 0.019c-1.39 1.34-2.7799 2.6399-4.1699 3.9199 0.81 0.03 1.6099 0.06961 2.4199 0.09961 1.35-1.3 2.6991-2.6288 4.0391-3.9688-0.76-0.02-1.5291-0.04078-2.2891-0.05078zm-167.83 0.32c-1.72 0.04-3.4499 0.08891-5.1699 0.12891-1.52 0.04-2.6206 0.50156-3.3906 1.3516 1.11 1.08 2.2298 2.1397 3.3398 3.1797 1.74-0.09 3.4712-0.17977 5.2012-0.25977 1.09-1.09 2.1698-2.1705 3.2598-3.2305-0.76-0.76-1.8102-1.2099-3.2402-1.1699zm187.12 0.13867c1.56 1.55 3.1119 3.1412 4.6719 4.7812 0.79 0.04 1.5694 0.07914 2.3594 0.11914-1.59-1.66-3.1795-3.2698-4.7695-4.8398-0.75-0.02-1.5117-0.04055-2.2617-0.06055zm-209.66 2.272c-1.62 2.16-3.2413 4.3799-4.8613 6.6699 0 0.01-0.0098 0.0095-0.0098 0.01953 2.09-0.24 4.1798-0.44992 6.2598-0.66992 1.15-0.12 2.2914-0.24914 3.4414-0.36914-1.61-1.83-3.2201-3.7104-4.8301-5.6504zm90.979 1.689c-1.08 1.11-2.1485 2.2196-3.2285 3.3496 2.2-0.05 4.3898-0.09867 6.5898-0.13867-1.13-1.07-2.2513-2.1409-3.3613-3.2109zm-22.959 0.53906c-1.08 1.19-2.1602 2.4011-3.2402 3.6211 2.19-0.1 4.3901-0.1893 6.5801-0.2793-1.12-1.1-2.2298-2.2218-3.3398-3.3418zm42.791 6.3926c-2.4012 0.01-4.8012 0.03336-7.2012 0.06836 1.54 1.11 3.0906 2.2198 4.6406 3.3398 1.7-0.02 3.4091-0.0293 5.1191-0.0293 1.55-1.13 3.1004-2.2511 4.6504-3.3711-2.405-0.015-4.8077-0.01781-7.209-0.0078zm51.588 7.6992c1.4 1.12 2.8109 2.2599 4.2109 3.4199 1.76 0.18 3.5291 0.35859 5.2891 0.55859 1.29-0.9 2.5713-1.8202 3.8613-2.7402-4.45-0.46-8.9013-0.87828-13.361-1.2383zm-166.63 2.68c-0.39156 0.01027-0.82102 0.05242-1.291 0.13867-2.02 0.38-4.0386 0.76992-6.0586 1.1699-1.67 0.33-3.051 0.03156-4.041-1.1484-1.52 1.86-3.0388 3.7685-4.5488 5.7285l-0.01172 0.0117c0.57 1.09 1.3009 1.82 2.2109 2.25 0.03 0.01 0.05984 0.0291 0.08984 0.0391 0.08 0.03 0.15047 0.0598 0.23047 0.0898 0.07 0.03 0.13875 0.0601 0.21875 0.0801 0.05 0.02 0.10039 0.031 0.15039 0.041 0.11 0.03 0.22984 0.0598 0.33984 0.0898 0.02 0 0.04055 0.01 0.06055 0.01 1.05 0.21 2.2905 0.12882 3.7305-0.20117 0.06-0.01 0.11969-0.0191 0.17969-0.0391 0.91-0.22 1.8107-0.42062 2.7207-0.64062 1.77-0.42 3.5386-0.84024 5.3086-1.2402 1.45-1.67 2.8898-3.3004 4.3398-4.9004 0 0.0088-0.88797-1.5504-3.6289-1.4785zm122.26 2.5391c-1.55 1.08-3.1099 2.1598-4.6699 3.2598 3.91-0.01 7.8207 0.0504 11.721 0.15039-1.5-1.13-3.0212-2.2589-4.5312-3.3789l-2.5195-0.03125zm-14.461 0.11133c-0.82 0.02-1.6488 0.03859-2.4688 0.05859-1.53 1.15-3.0598 2.3007-4.5898 3.4707 3.9-0.16 7.8088-0.28007 11.719-0.33007-1.55-1.07-3.1102-2.1392-4.6602-3.1992zm28.201 0.22852c-1.47 1.05-2.9497 2.0904-4.4297 3.1504 8.24 0.28 16.489 0.80985 24.719 1.5898-1.6-1.31-3.1895-2.5896-4.7695-3.8496-5.18-0.38-10.35-0.68062-15.52-0.89062zm-49.91 0.81c-1.62 0.11-3.2298 0.23914-4.8398 0.36914-1.56 1.28-3.1197 2.5899-4.6797 3.9199 4.71-0.49 9.4187-0.89851 14.139-1.2285l-4.62-3.06zm75.879 0.99023c-1.13 1.06-2.2584 2.1199-3.3984 3.1699 3.74 0.38 7.4885 0.80906 11.229 1.2891-1.35-1.38-2.6891-2.7384-4.0391-4.0684-1.26-0.13-2.531-0.27063-3.791-0.39063zm-103.79 0.81c-0.85 0.9-2.0608 1.4091-3.5508 1.6191-1.73 0.25-3.4497 0.5093-5.1797 0.7793-1.43 0.22-2.5995 0.0816-3.4395-0.56836-1.28 1.32-2.5696 2.6593-3.8496 4.0293 0 0 0.000234 0.01-0.0098 0.01 0.04 0.03 0.08867 0.0598 0.13867 0.0898 0.1 0.07 0.19102 0.12945 0.29102 0.18945 0.07 0.04 0.13898 0.0713 0.20898 0.11133 0.12 0.06 0.24109 0.11015 0.37109 0.16015l0.17969 0.0586c0.15 0.05 0.31047 0.10062 0.48047 0.14062 0.03 0.01 0.05961 0.01 0.09961 0.0195 1.08 0.22 2.4191 0.17063 4.0391-0.10937 2.73-0.49 5.4709-0.93914 8.2109-1.3691 0.35-0.06 0.68953-0.12164 1.0195-0.18164 0.11-0.02 0.21031-0.0484 0.32031-0.0684 0.21-0.05 0.41938-0.0906 0.60938-0.14063l0.41992-0.12109c0.15-0.04 0.30141-0.0789 0.44141-0.12891 0.15-0.05 0.29922-0.11015 0.44922-0.16015 0.11-0.04 0.23008-0.0809 0.33008-0.13086 0.15-0.06 0.29945-0.12922 0.43945-0.19922 0.09-0.04 0.17953-0.0809 0.26953-0.13086 0.14-0.08 0.28016-0.15828 0.41016-0.23828 0.07-0.04 0.15047-0.0909 0.23047-0.13086 0.13-0.08 0.25109-0.17953 0.37109-0.26953 0.07-0.05 0.12922-0.10039 0.19922-0.15039 0.12-0.09 0.22008-0.19078 0.33008-0.30078 0.05-0.04 0.10062-0.0789 0.14062-0.12891-1.33-0.89-2.6507-1.7797-3.9707-2.6797zm123.09 1.5195c-1.31 1.06-2.6199 2.1106-3.9199 3.1406-0.01 0.01-0.0291 0.0191-0.0391 0.0391 1.49 0.22 2.969 0.45945 4.459 0.68945 2.25 0.36 4.5002 0.73086 6.7402 1.1309-1.15-1.51-2.2992-2.9894-3.4492-4.4394-1.27-0.2-2.531-0.38055-3.791-0.56055zm13.91 2.1992c-1.49 1.07-2.9807 2.1302-4.4707 3.1602-0.01 0.01-0.0291 0.0213-0.0391 0.0312 0.01 0 0.0291 0.01 0.0391 0.01 1.85 0.34 3.7008 0.68883 5.5508 1.0488 1.86 0.37 3.7201 0.74063 5.5801 1.1406-1.56-1.72-3.1099-3.401-4.6699-5.041-0.66-0.12-1.3202-0.22961-1.9902-0.34961zm-165.19 0.90039c-0.85 1.03-2.0402 1.6492-3.4902 1.9492-1.72 0.36-3.4402 0.73133-5.1602 1.1113-1.42 0.31-2.5899 0.18875-3.4199-0.53125-1.2 1.47-2.3898 2.9717-3.5898 4.5117 0 0.01-0.0098 0.01-0.0098 0.01 0.14 0.12 0.27969 0.23008 0.42969 0.33008 1.26 0.87 2.9405 1.0495 5.0605 0.51953 0.74-0.19 1.4885-0.37078 2.2285-0.55078 1.37-0.34 2.7413-0.66047 4.1113-0.98047 0.61-0.14 1.2084-0.28968 1.8184-0.42968 1.05-0.24 1.9901-0.59883 2.8301-1.0488 0.02-0.01 0.04078-0.0213 0.05078-0.0312 0.27-0.14 0.51977-0.29875 0.75977-0.46875 0.01-0.01 0.02101-0.0115 0.04102-0.0215 0.72-0.5 1.3702-1.0798 1.9102-1.7598 0 0-0.01172 0.00023-0.01172-0.01-1.18-0.85-2.3686-1.7096-3.5586-2.5996zm184.16 2.8203c-1.31 1.2-2.6099 2.3793-3.9199 3.5293 3.65 0.85 7.2897 1.7512 10.93 2.7012-1.5-1.94-3.0115-3.8316-4.5215-5.6816-0.83-0.18-1.6583-0.36883-2.4883-0.54883zm-210.95 9.3301c-1 1.69-2.4197 2.7494-4.1797 3.3594-3.79 1.31-7.5791 2.6694-11.369 4.1094-1.63 2.92-3.2509 5.9102-4.8809 8.9902-0.01-0.08 3.7807-1.6687 7.9707-3.3887 0.65-0.27 1.2895-0.53101 1.9395-0.79101 4.5-1.83 8.8502-3.5691 8.9902-3.5391h0.0098c0.01 0 0.0095-0.01 0.01953-0.01 1.2-0.55 2.4496-1.2804 3.5996-2.1504 0.14-0.12 0.27039-0.25086 0.40039-0.38086 0.03-0.03 0.06961-0.0598 0.09961-0.0898l0.06055-0.0605c0.31-0.32 0.61039-0.65906 0.90039-1.0391 0.03-0.04 0.36977-0.48922 0.50977-0.69922 0.09-0.14 0.17953-0.28016 0.26953-0.41016 0.04-0.06 0.08133-0.11992 0.11133-0.16992-1.47-1.22-2.9612-2.4605-4.4512-3.7305zm225.52 0.43946c-1.77 1.49-3.5288 2.9205-5.2988 4.3105 7.21 2.43 14.389 5.1088 21.549 8.0488 0.32 0.13 0.63141 0.2418 0.94141 0.3418 0.04 0.01 0.0889 0.0291 0.1289 0.0391 0.29 0.09 0.58133 0.16094 0.86133 0.21094 0.04 0.01 0.0789 0.01 0.12891 0.0195 0.28 0.05 0.56031 0.0796 0.82031 0.0996h0.0293c0.27 0.01 0.53125 0.0007 0.78125-0.0293h0.0586c0.25-0.03 0.4907-0.0804 0.7207-0.15039l0.0899-0.0312c0.23-0.07 0.44992-0.15953 0.66992-0.26953 0.01-0.01 0.021-0.01 0.041-0.0195 0.45-0.24 0.85852-0.56047 1.2285-0.98047l0.0117-0.0195c-1.34-2.31-2.6815-4.5695-4.0215-6.7695-0.92001 0.85-2.4192 0.78039-4.8692-0.0996-3.64-1.31-7.2797-2.56-10.93-3.75-0.98-0.32-1.9614-0.64117-2.9414-0.95117zm-114.5 14.51c-11.8 0-23.278 0.55086-34.398 1.6309-0.74 0.07-1.4809 0.15047-2.2109 0.23047l-2.209 3.0293-8.7207 11.971 3.3594-1.7812 7.7305-10.629c4.98-0.84 17.531-2.5898 36.291-2.5898 24.73 0 39.508 2.21 45.068 3.25l7.2305 9.8789 3.2695 1.7207-8.0996-11.121-2.2305-3.0391c-0.73-0.08-1.4688-0.16023-2.2188-0.24023-12.82-1.35-27.351-2.3106-42.861-2.3106z"/><path fill="#ffb923" d="m148.29 108.04v1.9102c0.5-0.31 1.0117-0.62945 1.5117-0.93945 0.28671 0 0.56313 0.01 0.84961 0.01h0.01s3.6097 0.0601 4.1797 0.0801c1.13 0.03 1.4199 0.66992 1.4199 0.66992-0.38 0.31-0.76063 0.61016-1.1406 0.91016 0 0-0.009-0.0188-0.0391-0.0488 0.16 0.21 0.25976 0.48008 0.25976 0.83008 0 1.03-0.48976 1.3896-1.7598 1.3496-0.42-0.01-0.84953-0.0215-1.2695-0.0215v-2.7695c-0.55-0.33-1.1002-0.67-1.6602-1-0.62 0.38-1.2511 0.76063-1.8711 1.1406 0.2 0.17 0.25 0.45 0.25 1v5.6289c0 0.84-0.13 1.0319-0.75 1.1719v1.9199l1.4707-1.0801c0.56 0.01 1.1197 0.01 1.6797 0.0195 0.54 0.37 1.0694 0.73914 1.6094 1.1191h0.0215c-0.01-0.64-0.0215-1.2799-0.0215-1.9199-0.64-0.19-0.72851-0.34922-0.72851-1.1992v-1.5801h-0.0215c-0.56-0.44-1.1294-0.87054-1.6894-1.3105 0 0 3.2212 0.0503 3.7812 0.0703 0.91 0.02 1.4883 0.53906 1.4883 0.53906-0.41 0.31-0.81828 0.63117-1.2383 0.95117-0.01-0.01-0.031-0.01-0.041-0.0195 0.36 0.21 0.47071 0.61866 0.47071 1.3887v0.27148c0 0.57-0.0215 0.93914-0.0215 1.1191 0 0.86 0.0608 1.2702 0.30078 1.7402 0.48-0.35 0.97094-0.70101 1.4609-1.041 0.16 0 0.31852 0.0117 0.47852 0.0117 0.54 0.38 1.0716 0.75867 1.6016 1.1387 0.007 0.0002 0.013-0.0002 0.0195 0v-1.9199c-0.48-0.2-0.61133-0.42008-0.61133-1.0801v-0.43945c0-0.37 0.0215-0.64079 0.0215-0.80078 0-1.1-0.55118-1.8201-1.9512-1.8301 0.04 0 0.0811-0.01 0.12109-0.01-0.05 0-0.0906 0.01-0.14063 0.01-0.24 0-1.119-0.0288-1.959-0.0488 1.35-0.1 1.9997-1.0704 2.1797-1.4004 0.43 0.31 0.86881 0.60992 1.2988 0.91992 0 0-0.26907 0.28945-0.78907 0.43945 0.95-0.25 1.5488-1.0699 1.5488-2.6699 0-1.47-0.87867-3.0496-2.6387-3.0996-2.56-0.06-5.1314-0.11086-7.6914-0.13086zm-8.3887 0.0117c-3.37 0.04-6.7298 0.11852-10.09 0.22852v1.9102c0.5-0.34 1.0098-0.67 1.5098-1 0.29-0.01 0.56938-0.0193 0.85938-0.0293 2.05-0.06 4.1102-0.11063 6.1602-0.14063-0.62 0.53-1.2391 1.0713-1.8691 1.6113-0.04-0.02-0.0909-0.0408-0.13086-0.0508 0.35 0.15 0.48047 0.43922 0.48047 0.94922v0.2207c0.49-0.31 0.97899-0.61969 1.459-0.92969 0.53 0.3 1.0716 0.59063 1.6016 0.89063h0.0195v-3.6602zm-7.7207 1.1094c-0.63 0.41-1.2489 0.82048-1.8789 1.2305 0.2 0.16 0.25977 0.42852 0.25977 0.97852v5.6309c0 0.83-0.11 1.0192-0.75 1.1992v1.9199l1.4688-1.1387c2.33-0.07 4.6602-0.13016 6.9902-0.16016 0.54 0.35 1.0713 0.71033 1.6113 1.0703 0.006-0.00006 0.013 0.00008 0.0195 0v-3.9297c-1.03 0.01-2.0598 0.0288-3.0898 0.0488v0.16015c0 1.35-0.19133 1.531-1.6113 1.541-0.46 0.01-0.90914 0.0193-1.3691 0.0293v-2.8594c-0.006 0.00002-0.0132 0-0.0195 0-0.55-0.33-1.1102-0.67-1.6602-1 1.43-0.04 2.8591-0.0816 4.2891-0.10156 0.44 0.34 0.89008 0.67148 1.3301 1.0215h0.0312v-2.0117c-1.32 0.02-2.6409 0.0501-3.9609 0.0801v-2.3789c-0.55-0.45-1.1102-0.89007-1.6602-1.3301zm34.98-0.54102v1.8906c0.5-0.29 1.0098-0.57914 1.5098-0.86915 0.28803 0.0199 0.56562 0.0291 0.85352 0.0488-0.62447 0.35677-1.2386 0.70362-1.8633 1.0606 0.19 0.18 0.25 0.45 0.25 1v5.6309c0 0.83-0.11 1.0089-0.75 1.1289v1.9199c0.49-0.34 0.9807-0.67977 1.4707-1.0098 2.33 0.13 4.6583 0.27946 6.9883 0.43946 0.53926 0.39945 1.0703 0.79957 1.5996 1.209 0.007 0.00053 0.0143 0.00095 0.0215 0.002v-3.9297c-1.03-0.08-2.0501-0.1507-3.0801-0.2207v0.16016c0 1.35-0.18961 1.5102-1.5996 1.4102-0.46-0.03-0.9111-0.0598-1.3711-0.0898v-2.8613h-0.0195l-1.6504-1.1387c1.43 0.08 2.8512 0.16953 4.2812 0.26953 0.44 0.37 0.89008 0.75086 1.3301 1.1309h0.0195v-2.0117c-1.32-0.09-2.6409-0.17976-3.9609-0.25976v-2.3789l-1.6387-1.459c2.0428 0.11965 4.0861 0.24896 6.1289 0.39843-0.62 0.48-1.2394 0.95922-1.8594 1.4492-0.04-0.02-0.0909-0.0386-0.13086-0.0586 0.34 0.18 0.47071 0.48023 0.47071 0.99023v0.21875c0.49-0.27 0.96898-0.53882 1.459-0.79883 0.52925 0.33952 1.0703 0.6878 1.5996 1.0274 0.007 0.00055 0.0143 0.00095 0.0215 0.002v-3.6602c-3.36-0.25-6.7201-0.47063-10.08-0.64063zm-45.25 0.0117c-3.28 0.17-6.5698 0.37891-9.8398 0.62891-0.01 0.64-0.0214 1.2802-0.0312 1.9102 0.5-0.36 1.0117-0.71055 1.5117-1.0605 0.27482-0.019 0.54057-0.0357 0.81445-0.0547-0.60857 0.42218-1.2277 0.85357-1.8359 1.2754 0.24 0.16 0.28125 0.41023 0.28125 0.99023v5.6289c0 0.82-0.17149 1.1005-0.77149 1.2305 0.01 0.63 0.0115 1.2704 0.0215 1.9004 0.44-0.35 0.87859-0.69102 1.3086-1.041l2.1016-0.14844c0.44603 0.28746 0.88227 0.57389 1.3281 0.86133 0.0104-0.00072 0.0209-0.00095 0.0312-0.002-0.01-0.64-0.01-1.2894-0.0195-1.9394h-0.041c-0.07-0.02-0.13898-0.0408-0.20898-0.0508-0.38-0.1-0.47117-0.32032-0.45117-1.0703v-1.9805c-0.007 0.00043-0.013 0.002-0.0195 0.002-0.55-0.31-1.1002-0.62164-1.6602-0.93164 1.35-0.09 2.691-0.16977 4.041-0.25977 0.44616 0.31727 0.88214 0.63586 1.3281 0.95313 0.0104-0.00059 0.0209-0.00096 0.0312-0.002v-2.0098c-1.25 0.07-2.5 0.14851-3.75 0.22851v-2.4004c0.36-0.03 0.72984-0.0484 1.0898-0.0684-0.37 0.02-0.73937 0.0484-1.1094 0.0684-0.54114-0.41323-1.0822-0.827-1.6328-1.2402 1.9842-0.13953 3.9788-0.26923 5.9629-0.37891-0.62 0.56-1.2416 1.1197-1.8516 1.6797 0.33 0.16 0.46094 0.4607 0.46094 0.9707v0.14063c0.46-0.33 0.92086-0.65047 1.3809-0.98047 0.51 0.28 1.0098 0.55008 1.5098 0.83008-0.95999 0.05-1.9206 0.11015-2.8906 0.16015 0.97-0.06 1.9402-0.11015 2.9102-0.16015v-3.6797zm63.68 1.3184v1.9004c0.44-0.28 0.87055-0.55008 1.3106-0.83008l0.87695 0.0879c-0.55616 0.34724-1.1215 0.67413-1.6875 1.0117 0.2 0.19 0.25 0.47172 0.25 1.0117v5.6289c0 0.84-0.13 1.0196-0.75 1.0996v1.9004c0.44-0.27 0.87055-0.55032 1.3106-0.82032 0.61 0.06 1.2103 0.11969 1.8203 0.17969 0.44 0.36 0.89008 0.73156 1.3301 1.1016h0.0195v-1.9199c-0.62-0.21-0.75-0.41148-0.75-1.2715v-3.0684c-0.01-0.01-0.0195-0.031-0.0195-0.041-0.49902-1.6068-1.0107-3.2037-1.5098-4.8105h0.01c0.09 0.01 0.1893 0.0212 0.2793 0.0312 2.04 3.51 4.0909 7.0401 6.1309 10.58 0.06 0.01 0.12945 0.0195 0.18945 0.0195 0.51 0.38 1.0291 0.76063 1.5391 1.1406h0.0312v-8.7305c0-0.55714 0.0505-0.79347 0.26172-0.9375-0.0262 0.016-0.0596 0.0285-0.082 0.0469-0.58-0.47-1.17-0.9404-1.75-1.4004v-0.0195c-0.56 0.32-1.1194 0.64094-1.6894 0.96094 0.21 0.19 0.26953 0.47953 0.26953 1.0195v3.0391c-1.22-2.18-2.4304-4.3591-3.6504-6.5391-1.25-0.13-2.4902-0.25109-3.7402-0.37109zm-82.029 0.0606c-1.5 0.14-2.9998 0.29117-4.5098 0.45117v1.8984c0.44-0.36 0.86859-0.72985 1.3086-1.0898 0.29-0.03 0.58085-0.0598 0.88085-0.0898 0.27-0.03 0.55032-0.0501 0.82032-0.0801 0.48363 0.26649 0.95607 0.54395 1.4394 0.82031-0.24 0.11-0.39977 0.19078-0.50977 0.30078-0.58-0.34-1.17-0.68148-1.75-1.0215v-0.0195c-0.56 0.44-1.1294 0.89008-1.6894 1.3301 0.21 0.14 0.26953 0.4207 0.26953 0.9707v3.0391c-1.22-1.92-2.4304-3.84-3.6504-5.75-1.25 0.14-2.4905 0.29141-3.7305 0.44141v1.8984c0.44-0.37 0.871-0.74 1.311-1.11 0.29142-0.0291 0.58298-0.0666 0.86523-0.10547-0.55469 0.46536-1.1112 0.91936-1.6758 1.375 0.19 0.14 0.25 0.42094 0.25 0.96094v5.6289c0 0.82998-0.13 1.0398-0.75 1.2598v1.9004c0.44-0.37 0.87055-0.73961 1.3105-1.0996 0.6-0.07 1.2105-0.13898 1.8105-0.20898 0.43678 0.26802 0.88339 0.53471 1.3203 0.80273 0.0097-0.001 0.01955-0.003 0.0293-0.004v-1.9199c-0.62-0.07-0.75-0.24937-0.75-1.1094v-3.0703c-0.01-0.01-0.0095-0.021-0.01953-0.041-0.49889-1.4967-0.99704-2.9918-1.5059-4.4785 0.0019-0.00024 0.004 0.00026 0.0059 0 0.09-0.01 0.1793-0.0212 0.2793-0.0312 2.04 3.07 4.0809 6.1598 6.1309 9.2598 0.06-0.01 0.12945-0.01 0.18944-0.0195 0.51001 0.27 1.0288 0.53078 1.5488 0.80078-0.3 0.03-0.60821 0.0598-0.90819 0.0898l0.92968-0.0898v-8.7207c0-0.83475 0.0897-0.98901 0.69922-1.2559 0.003 0.002 0.006 0.004 0.01 0.006h0.0195c0.01-0.64 0.0115-1.2799 0.0215-1.9199zm88.65 0.59961v1.9199c0.44-0.27 0.86859-0.5386 1.3086-0.8086 0.29 0.03 0.59086 0.0696 0.88086 0.0996 0.27 0.03 0.54031 0.0596 0.82031 0.0996 0.48336 0.37485 0.9562 0.75016 1.4297 1.125 0.008-0.002 0.0114-0.004 0.0195-0.006h0.0195c0.01-0.64 0.0115-1.2782 0.0215-1.9082-1.5-0.18-3-0.36148-4.5-0.52148zm15.656 1.9258c-0.68727 0.0346-1.2473 0.17221-1.6973 0.41406-0.85 0.47-1.1504 1.0499-1.1504 2.1699v5.7715c0 1.13 0.12961 1.6492 0.59961 2.1992 0.51-0.28 1.031-0.55984 1.541-0.83984 0.49 0.67 1.3506 1.3508 2.6406 1.5508 2.18 0.33 2.9883-0.35156 2.9883-0.35156v-0.01c0.53 0.45 1.0601 0.89985 1.5801 1.3398-0.09 0.02-0.16976 0.0308-0.25976 0.0508-0.79431 0.16485-1.5412 0.25474-2.2656 0.27734 0.72869-0.0219 1.4827-0.11144 2.2871-0.27734 0.09-0.01 0.16977-0.0308 0.25976-0.0508v-4.0195c-1.03-0.17-2.0501-0.33024-3.0801-0.49024v0.96094c0 1.12-0.43024 1.5196-1.4902 1.3496-1.13-0.17-1.5508-0.68055-1.5508-1.8106v-4.2988c0-0.41 0.0712-0.7307 0.20117-0.9707-0.02 0.03-0.0405 0.0501-0.0605 0.0801-0.43-0.37-0.87055-0.72985-1.3106-1.0898 0.48-0.54 1.3394-0.83109 2.6894-0.62109 2.1 0.32 2.9902 1.1816 2.9902 1.1816v0.01c-0.55 0.29-1.0887 0.57914-1.6387 0.86914 0.1 0.23 0.15993 0.50008 0.16993 0.83008 0.01 0.1 0.01 0.21054 0.0195 0.31054 0.48-0.23 0.96922-0.44992 1.4492-0.66992 0.53 0.39 1.0601 0.77992 1.5801 1.1699h0.0215v-3.3398c-1.46-0.81-3.0399-1.3398-4.6699-1.5898-0.3975-0.055-0.76938-0.0906-1.1133-0.10546-0.25793-0.0111-0.50139-0.0115-0.73047 0zm-126.92 0.0879c-0.48281-0.003-1.0157 0.0394-1.5957 0.12695-3.25 0.5-4.7988 1.7894-4.7988 3.9394v6.0801c0 0.43 0.08945 1.0005 0.18945 1.2305 0.09 0.19 0.23039 0.35023 0.40039 0.49023l1.4102-1.2012c0.54 0.46 1.5198 0.63141 2.7598 0.44141 1.1-0.17 1.9098-0.50078 2.5098-1.0508 0.09-0.08 0.16047-0.16024 0.23047-0.24024 0.48 0.26 0.95969 0.51149 1.4297 0.77149-0.13 0.15-0.29024 0.30898-0.49024 0.45898-0.87 0.71-2.0599 1.1504-3.6699 1.4004h0.01953c1.61-0.25 2.8097-0.69039 3.6797-1.4004 0.85-0.67 1.0801-1.2603 1.0801-2.5703v-5.8789c0-0.66-0.08976-1.0702-0.25976-1.4102-0.45-0.7725-1.4461-1.18-2.8945-1.1875zm-0.72656 1.3027c0.825-0.008 1.4541 0.18422 1.8516 0.57422-0.47 0.38-0.92086 0.76063-1.3809 1.1406 0.11 0.19 0.16992 0.42852 0.16992 0.72852v4.5801c0 1.03-0.5093 1.5902-1.5293 1.7402-1.08 0.17-1.5293-0.2189-1.5293-1.3789v-4.3906c-0.01-0.37 0.05922-0.67945 0.19922-0.93945-0.02 0.04-0.05055 0.0596-0.06055 0.0996-0.46-0.24-0.91891-0.49047-1.3789-0.73047 0.51-0.69 1.4195-1.1396 2.7695-1.3496 0.3175-0.0475 0.61367-0.0716 0.88867-0.0742zm142.59 1.1836c0.01 0.62 0.01 1.2606 0.01 1.8906 0.5-0.23 1.0002-0.45969 1.4902-0.67969 0.28 0.05 0.56961 0.11016 0.84961 0.16016 0.005 0.00085 0.009 0.00095 0.0137 0.002-0.61813 0.26925-1.2354 0.54918-1.8535 0.81836 0.19 0.21 0.25 0.48906 0.25 1.0391v5.6309c0 0.83-0.11023 0.98907-0.74023 1.0391v1.9199c0.49-0.28 0.96922-0.55033 1.4492-0.82031 2.3 0.43 4.6004 0.87984 6.9004 1.3398 0.52724 0.46756 1.0451 0.9347 1.5723 1.4121 0.0124 0.003 0.0247 0.005 0.0371 0.008v-3.9297c-1.01-0.21-2.0291-0.41914-3.0391-0.61914v0.16016c0 1.35-0.19008 1.4892-1.5801 1.1992-0.45-0.09-0.89961-0.16977-1.3496-0.25977v-2.8594c1.3 0.25 2.6102 0.50953 3.9102 0.76953v-2.0098c-1.3-0.26-2.6102-0.51953-3.9102-0.76953v-2.3809c-0.54871-0.55868-1.088-1.1268-1.6367-1.6855 2.0221 0.37869 4.0346 0.77712 6.0469 1.1855-0.61 0.4-1.2298 0.80094-1.8398 1.2109-0.04-0.03-0.0809-0.0601-0.13085-0.0801 0.34 0.22 0.4707 0.53883 0.4707 1.0488v0.2207c0.48-0.21 0.95945-0.40937 1.4394-0.60937 0.53 0.41 1.0501 0.81828 1.5801 1.2383-1.01-0.21-2.0095-0.40938-3.0195-0.60938 1.01 0.2 2.0291 0.4111 3.0391 0.6211v-3.6602c-3.31-0.69-6.629-1.3314-9.959-1.9414zm-158.85 0.49218c-0.7775 0.006-1.5756 0.088-2.3906 0.24805-1.58 0.31-2.7312 0.80953-3.5312 1.5195-0.85 0.76-1.1387 1.4406-1.1387 2.5606v5.7695c0 1.13 0.12984 1.6 0.58984 2 0.51-0.46 1.0193-0.90914 1.5293-1.3691 0.49 0.49 1.3409 0.89062 2.6309 0.64062 2.17-0.42 2.9688-1.3809 2.9688-1.3809v-0.01c0.53 0.27 1.0501 0.52906 1.5801 0.78906-0.08 0.04-0.17 0.0909-0.25 0.13086-1.58 0.88-2.9694 1.3899-4.3594 1.6699 1.4-0.27 2.7909-0.78992 4.3809-1.6699 0.09-0.05 0.17-0.0906 0.25-0.14062v-4.0098c-1.02 0.19-2.0503 0.38008-3.0703 0.58008v0.96093c0 1.12-0.42047 1.6592-1.4805 1.8692-1.12 0.22-1.5391-0.1393-1.5391-1.2793v-4.3008c0-0.42 0.06922-0.76883 0.19922-1.0488-0.02 0.04-0.05055 0.0694-0.06055 0.10937-0.43-0.21-0.85883-0.42062-1.2988-0.64062 0.47-0.7 1.3297-1.2888 2.6797-1.5488 2.09-0.41 2.9688 0.13867 2.9688 0.13867v0.01c-0.54 0.48-1.0889 0.96141-1.6289 1.4414 0.1 0.20002 0.15992 0.44954 0.16992 0.76954 0.01 0.1 0.0095 0.20078 0.01953 0.30078 0.48-0.39 0.95945-0.78164 1.4395-1.1816 0.53 0.21 1.0501 0.41109 1.5801 0.62109-1.01 0.19-2.0195 0.38031-3.0195 0.57031 1.01-0.2 2.0308-0.39031 3.0508-0.57031v-3.3398c-0.735-0.145-1.492-0.21524-2.2695-0.20899z"/><path fill="#d17a29" d="m144.85 12.43-0.74023 2.7598-0.39844 1.4805-0.74024 2.7305-8.1914 30.4-18.889-16.451 3.7402 7.2598 5.7695 5.3613 6.9297 6.4297c0.79-0.19 1.5999-0.35977 2.4199-0.50977 0.24-0.05 0.4807-0.08086 0.7207-0.13086 0.74-0.13 1.49-0.24938 2.25-0.35938l7.1191-28.25 7.1309 28.25c0.62 0.08 1.2201 0.18906 1.8301 0.28906 0.3 0.05 0.61016 0.09063 0.91016 0.14062 0.23 0.04 0.4382 0.10062 0.6582 0.14062 0.53 0.1 1.0406 0.21008 1.5606 0.33008 0.14 0.03 0.28945 0.05984 0.43945 0.08984l8.3418-7.7402 4.3691-4.0508 3.7402-7.25-18.891 16.451-8.1992-30.4-0.74024-2.7402-0.40039-1.4707-0.74023-2.7598zm-3.88 2.871-2.53 1.949c-18.48 1.79-34.42 8.6298-47.42 19.59l-3.2793 0.16992 3.8906 2.0703c6.09-5.26 12.999-9.6399 20.529-12.92l3.0996 25.439 2.4512 3.0801 0.94922 1.2012-2.791-22.512-1.5684-3.1191-2.0703-4.1094v-0.0098l-0.0996-0.21094 0.17969 0.16992c8.52-3.69 17.82-5.9708 27.6-6.5508l1.0703-4.2285-0.01-0.0098zm7.7695 0.16016 1.0391 4.0996c0.35 0.02 0.71078 0.03859 1.0508 0.05859l0.7207 0.06055c0.42 0.03 0.83977 0.06938 1.2598 0.10937 0.23 0.02 0.45922 0.05031 0.69922 0.07031 0.42 0.04 0.84953 0.09062 1.2695 0.14062 0.22 0.03 0.43992 0.05984 0.66992 0.08984 0.43 0.06 0.86101 0.10992 1.291 0.16992 0.21 0.03 0.41891 0.05961 0.62891 0.09961l1.3203 0.21094c0.19 0.03 0.38032 0.06961 0.57032 0.09961 0.46 0.08 0.91109 0.16 1.3711 0.25 0.17 0.03 0.33977 0.06961 0.50976 0.09961 0.47 0.1 0.94016 0.19078 1.4102 0.30078 0.15 0.03 0.29899 0.06961 0.45899 0.09961 0.49 0.11 0.9807 0.22961 1.4707 0.34961 0.12 0.03 0.24914 0.05984 0.36914 0.08984 0.51 0.13 1.031 0.26039 1.541 0.40039 0.1 0.03 0.19883 0.05008 0.29883 0.08008 0.54 0.15 1.0813 0.30094 1.6113 0.46094 0.07 0.02 0.13922 0.03859 0.19922 0.05859 0.57 0.17 1.1392 0.35125 1.6992 0.53125l0.0898 0.0293c2.41 0.79 4.7801 1.6797 7.0801 2.6797l0.19141-0.16992-0.0996 0.21094-2.4316 4.8301-1.209 2.4102-2.791 22.504-0.01 0.0059-2.8691 0.41992c1.62 0.79 3.1687 1.6501 4.6387 2.5801l23.49-12.34 0.0801-0.11133 4.9902-4.3398 0.01-0.0098 1.4902-1.2891 1.5781-1.373-1.3379 1.9023-1.0195 1.4492-12.201 17.32h0.90039 2.6699l10.92-14.93c3.27 3.52 6.2305 7.3306 8.8105 11.391 0.17 0.26 0.33024 0.52906 0.49024 0.78906 0.15 0.25 0.30898 0.49024 0.45898 0.74024 0.22 0.36 0.43063 0.72984 0.64063 1.0898 0.09 0.15 0.17953 0.31094 0.26953 0.46094s0.16976 0.29898 0.25976 0.45898h2.3809c-3.03-5.54-6.6804-10.709-10.9-15.389l-2.2402 0.37891c-0.02-0.02-0.0386-0.06008-0.0586-0.08008l2.3984-3.2793 8.4805-11.611-5 4.25-5.8398 4.9707-0.0488 0.04102-0.0156 0.02148-1.9258 0.94726-0.25 0.12109-1.7305 0.84961-0.01 0.0098-29.494 14.553 2.4551-3.082 0.93946-1.1816 3.0996-25.459c7.56 3.3 14.511 7.7 20.621 13h0.01l3.7891-1.9902-3.2891-0.31055c-12.96-10.93-29.41-18-47.48-19.35l-2.4395-2.0488zm-74.4 14.459 8.5508 11.75 2.3789 3.2695c-0.04 0.05-0.06937 0.11039-0.10938 0.15039l-2.25-0.37891c-4.21 4.68-7.8606 9.8389-10.891 15.379h2.3809c1.04-1.85 2.1694-3.6602 3.3594-5.4102 0.01-0.02 0.03101-0.04055 0.04102-0.06055 0.33-0.49 0.66-0.96922 1-1.4492 0.07-0.1 0.13875-0.20078 0.21875-0.30078 0.28-0.4 0.57133-0.78969 0.86133-1.1797 0.15-0.2 0.30898-0.40938 0.45898-0.60938 0.22-0.29 0.43039-0.56961 0.65039-0.84961 0.27-0.35 0.55008-0.69102 0.83008-1.041 0.11-0.13 0.22031-0.27039 0.32031-0.40039 1.04-1.26 2.1185-2.4797 3.2285-3.6797l10.9 14.98h2.1914 1.3496l-12.17-17.311-1.0312-1.4688-1.3887-1.9707-0.02148-0.0098-3.9785-3.4492-6.8809-5.9609zm10.881 9.4199 1.6289 1.4199 1.5098 1.3105 4.9707 4.3301 23.57 12.49c1.47-0.93 3.0289-1.7901 4.6289-2.5801l-2.8594-0.41992-29.49-14.602h-0.0098l-1.8301-0.89844-0.16016-0.08008-1.9688-0.98047 0.0098 0.0098zm64.568 69.67c-0.5 0.31-0.99976 0.61945-1.5098 0.93945-0.01 0-0.01 0.0117-0.0195 0.0117 0.23 0.05 0.39976 0.10898 0.50976 0.20898 0 0 0.01 0.00024 0.01-0.01 0.62-0.39 1.2511-0.76063 1.8711-1.1406-0.28 0-0.57133-0.01-0.86133-0.01zm0.86133 0c0.55 0.33 1.1102 0.67 1.6602 1 0.45 0.01 0.89937 0.0193 1.3594 0.0293 0.12 0 0.23985 0.0112 0.33985 0.0312 0.02 0 0.0403 0.01 0.0703 0.01 0.44 0.08 0.70914 0.27015 0.86914 0.41015 0.04 0.04 0.0909 0.0806 0.13086 0.14063 0.02 0.03 0.0391 0.0488 0.0391 0.0488 0.38-0.31 0.76063-0.61016 1.1406-0.91016-0.01-0.01-0.28969-0.64969-1.4297-0.67969-0.56-0.02-4.1797-0.0801-4.1797-0.0801zm-12.311 0.0195c-2.05 0.03-4.1102 0.0709-6.1602 0.13086 0.55 0.44 1.1102 0.88007 1.6602 1.3301 0.49-0.01 0.98047-0.0193 1.4805-0.0293 0.38-0.01 0.67039 0.0181 0.90039 0.0781 0.02 0 0.0386 0.0115 0.0586 0.0215l0.0605 0.0293c0.05 0.02 0.0909 0.0308 0.13086 0.0508 0.62-0.54 1.2391-1.0713 1.8691-1.6113zm-6.1602 0.12109c-0.29 0.01-0.56938 0.0193-0.85938 0.0293-0.5 0.34-1.0098 0.67976-1.5098 1.0098-0.01 0-0.0115 0.01-0.0215 0.01 0.11 0.02 0.21102 0.0403 0.29102 0.0703h0.01c0.08 0.03 0.15094 0.0613 0.21094 0.11133 0.62-0.41 1.2489-0.82047 1.8789-1.2305zm36.49 0.48047c-0.5 0.29-1.0098 0.58891-1.5098 0.87891-0.01 0-0.01 0.01-0.0195 0.01 0.11001 0.03 0.1993 0.0598 0.2793 0.0898 0.01 0 0.0193 0.0115 0.0293 0.0215 0.08 0.04 0.14117 0.0691 0.20117 0.11914 0.63-0.36 1.2489-0.71031 1.8789-1.0703-0.29-0.02-0.56938-0.0288-0.85938-0.0488zm0.85938 0.0488 1.6504 1.4707c0.49 0.03 0.98047 0.0598 1.4805 0.0898 0.39 0.03 0.68015 0.0802 0.91015 0.16016 0.01 0 0.0291 0.01 0.0391 0.01 0.03 0.01 0.0503 0.0191 0.0703 0.0391 0.04 0.02 0.0909 0.0405 0.13086 0.0606 0.62-0.48 1.2394-0.96922 1.8594-1.4492-2.04-0.13-4.0906-0.26086-6.1406-0.38086zm-49.139-0.01c-1.99 0.11-3.9905 0.24086-5.9805 0.38086 0.55 0.42 1.1002 0.83977 1.6602 1.2598 0.36-0.02 0.73938-0.0503 1.1094-0.0703 0.06 0 0.12945-0.01 0.18945-0.01 0.54-0.03 0.91016-0.001 1.1602 0.12891 0 0 0.01 0.00023 0.01-0.01 0.62-0.56 1.2416-1.1197 1.8516-1.6797zm-5.9805 0.38086c-0.29 0.02-0.56938 0.0386-0.85938 0.0586-0.5 0.34999-1.0017 0.71054-1.5117 1.0605l-0.0195 0.0195c0.11 0.01 0.18953 0.0308 0.26953 0.0508 0.02 0.01 0.0308 0.01 0.0508 0.0195 0.07 0.03 0.13946 0.0496 0.18946 0.0996 0 0 0.01 0.00023 0.01-0.01 0.62-0.44 1.2511-0.86883 1.8711-1.2988zm23.869 0.7793c-0.49 0.31-0.97899 0.61969-1.459 0.92969-0.01 0-0.01 0.01-0.0195 0.01h0.0195c0.2 0 0.38985-0.01 0.58985-0.01 0.82-0.02 1.6507-0.0291 2.4707-0.0391-0.53-0.3-1.0716-0.60062-1.6016-0.89062zm48.621 0.18945c-0.43 0.28-0.87055 0.55008-1.3106 0.83008-0.01 0-0.01 0.01-0.0195 0.01 0.23 0.07 0.39977 0.13976 0.50977 0.25976 0 0 0.01 0.00023 0.01-0.01 0.56673-0.33805 1.1344-0.66604 1.7012-0.99415 0.49941 1.5981 1.0104 3.2064 1.5098 4.8145 0.01 0.01 0.0195 0.031 0.0195 0.041 1.21 2.18 2.4189 4.3684 3.6289 6.5684 1 0.11 2.0002 0.2218 2.9902 0.3418-0.52-0.38-1.0288-0.76063-1.5488-1.1406-0.06-0.01-0.1314-0.0195-0.1914-0.0195-2.04-3.54-4.0789-7.0701-6.1289-10.58-0.0868-0.01-0.18398-0.0196-0.27148-0.0293 0.00077-0.00045 0.001-0.002 0.002-0.002l-0.90039-0.0898zm-84.85 0.0703c-0.27 0.03-0.55031 0.0501-0.82031 0.0801-0.29 0.03-0.58086 0.0598-0.88086 0.0898-0.44 0.36-0.87055 0.72984-1.3105 1.0898l-0.01953 0.0195c0.23 0.02 0.38977 0.0604 0.50977 0.15039l0.0098-0.01c0.56-0.44 1.1314-0.88008 1.6914-1.3301v0.0195c0.58 0.34 1.17 0.68148 1.75 1.0215 0.12-0.11 0.27976-0.19078 0.50976-0.30078h0.0195c-0.49-0.28-0.96899-0.55008-1.459-0.83008zm18.318 0.39063c-0.46 0.32-0.91891 0.65047-1.3789 0.98047-0.01 0.01-0.0193 0.01-0.0293 0.0195h0.0293c0.96-0.05 1.9306-0.11016 2.8906-0.16016-0.5-0.29-1.0017-0.55984-1.5117-0.83984zm73.15 0.23047c-0.44 0.27-0.86859 0.53859-1.3086 0.80859-0.01 0-0.0115 0.01-0.0215 0.01 0.23 0.07 0.38977 0.14976 0.50977 0.25976 0 0 0.0117 0.00024 0.0117-0.01 0.56-0.32 1.1194-0.63899 1.6894-0.95899v0.0195c0.59 0.47 1.17 0.93039 1.75 1.4004 0.1-0.08 0.26-0.12945 0.5-0.18945h0.0195c-0.48-0.38-0.96922-0.76062-1.4492-1.1406-0.27-0.03-0.54031-0.0596-0.82031-0.0996-0.29-0.03-0.58086-0.0696-0.88086-0.0996zm-98.6 0.1582c-0.09 0.01-0.1793 0.0212-0.2793 0.0312 0.5 1.49 0.99977 2.9902 1.5098 4.4902 0.01 0.01 0.0095 0.0191 0.01953 0.0391 1.21 1.92 2.4209 3.851 3.6309 5.791 0.69-0.08 1.3801-0.1507 2.0801-0.2207 0.3-0.03 0.6082-0.0598 0.9082-0.0898-0.52-0.27-1.0288-0.54078-1.5488-0.80078-0.07 0.01-0.12945 0.0115-0.18945 0.0215-2.04-3.1-4.0909-6.1917-6.1309-9.2617zm-0.2793 0.0312c-0.3 0.03-0.60062 0.0694-0.89062 0.10938-0.44 0.36-0.87055 0.72961-1.3105 1.0996l-0.01953 0.0215c0.23 0.02 0.39977 0.0584 0.50977 0.14844l0.0098-0.01c0.57-0.46 1.1312-0.90914 1.7012-1.3691zm80.979-0.0312c-0.49 0.27-0.96898 0.53078-1.459 0.80078-0.01 0-0.01 0.01-0.0195 0.01 0.51 0.03 1.0291 0.0694 1.5391 0.10937 0.51 0.04 1.031 0.0713 1.541 0.11133-0.54-0.35-1.0716-0.69125-1.6016-1.0312zm-19.068 0.70117c-0.18 0.33-0.83164 1.3004-2.1816 1.4004 0.86 0.03 1.7307 0.0586 1.9707 0.0586 0.05 0 0.0906 0.00023 0.14063-0.01 0.1 0 0.1893-0.01 0.2793-0.0195 0.07-0.01 0.14117-0.0191 0.20117-0.0391 0.04-0.01 0.0696-0.0212 0.0996-0.0312 0.52-0.15 0.78906-0.43946 0.78906-0.43946-0.43-0.31-0.86883-0.61992-1.2988-0.91992zm-20.102 1.209c-1.43 0.03-2.8591 0.0616-4.2891 0.10156 0.55 0.34 1.1002 0.67 1.6602 1 0.2 0 0.39985-0.0117 0.58985-0.0117 1.12-0.03 2.2491-0.0484 3.3691-0.0684-0.44-0.34-0.89008-0.68148-1.3301-1.0215zm72.438 0.0527c-0.83625 0.0183-1.4151 0.2825-1.7676 0.6875 0.44 0.36 0.87055 0.71984 1.3106 1.0898 0-0.04 0.021-0.0501 0.041-0.0801s0.0386-0.0501 0.0586-0.0801c0.06-0.08 0.12117-0.14922 0.20117-0.19922 0.05-0.04 0.10039-0.0696 0.15039-0.0996 0.05-0.02 0.0984-0.0308 0.14844-0.0508 0.07-0.02 0.13093-0.0291 0.21093-0.0391 0.05-0.01 0.1004-0.01 0.15039-0.01 0.13 0 0.26969-0.0007 0.42969 0.0293 0.68 0.1 1.1103 0.39062 1.3203 0.89062 0 0 0.01-0.01 0.0195-0.01 0.55-0.29 1.0906-0.5811 1.6406-0.8711v-0.01s-0.88023-0.85969-2.9902-1.1797c-0.3375-0.0525-0.64508-0.0744-0.92383-0.0684zm-128.67 0.0937c-0.275 0.002-0.57117 0.0267-0.88867 0.0742-1.34 0.21-2.2495 0.64961-2.7695 1.3496 0.46 0.24 0.91891 0.49047 1.3789 0.73047 0.02-0.04 0.04055-0.0696 0.06055-0.0996 0.01-0.03 0.02906-0.0503 0.03906-0.0703 0.07-0.12 0.16148-0.22055 0.27148-0.31055 0.03-0.03 0.05961-0.0598 0.09961-0.0898 0.05-0.04 0.10992-0.0696 0.16992-0.0996s0.10992-0.0599 0.16992-0.0898c0.06-0.02 0.11969-0.0503 0.17969-0.0703 0.11-0.03 0.21984-0.0598 0.33984-0.0898 0.02 0 0.04055-0.01 0.06055-0.01h0.0098c0.16-0.02 0.30922-0.0295 0.44922-0.0195h0.01172c0.42 0.03 0.70891 0.20953 0.87891 0.51953 0.01 0 0.0095-0.01 0.01953-0.01 0.45-0.37999 0.91109-0.76062 1.3711-1.1406-0.3975-0.3825-1.0266-0.57984-1.8516-0.57422zm70.371 0.004c0.57 0.43 1.1295 0.87054 1.6895 1.3105h0.0215c0.09 0 0.1893-0.00023 0.2793 0.01 0.29 0 0.57914 0.01 0.86914 0.01 0.16 0 0.29039 0.01 0.40039 0.0195 0.22 0.02 0.39101 0.0516 0.54101 0.10156 0.01 0 0.0291 0.01 0.0391 0.0195 0.05 0.02 0.10039 0.0403 0.15039 0.0703 0.01 0.01 0.0291 0.01 0.0391 0.0195 0.41-0.32 0.83024-0.64117 1.2402-0.95117 0 0-0.58024-0.51906-1.4902-0.53906-0.56-0.02-3.7793-0.0703-3.7793-0.0703zm18.92 0.4707c0.54 0.38 1.1004 0.75867 1.6504 1.1387h0.0195c1.31 0.08 2.6294 0.17172 3.9394 0.26172-0.45-0.38-0.89008-0.76086-1.3301-1.1309-1.43-0.1-2.8493-0.18953-4.2793-0.26953zm-51.039 0.11914c-1.35 0.08-2.701 0.16953-4.041 0.26953 0.55 0.31 1.1102 0.62164 1.6602 0.93164 1.24-0.08 2.4807-0.16047 3.7207-0.23047-0.45-0.33-0.88985-0.6507-1.3398-0.9707zm105.85 1.8008c-0.5 0.23-1.0002 0.44969-1.4902 0.67969-0.01 0-0.01 0.01-0.0195 0.01 0.11 0.04 0.18953 0.0808 0.26953 0.13085 0.01 0.01 0.0191 0.01 0.0391 0.0195 0.07 0.04 0.14141 0.0906 0.19141 0.14062 0.62-0.28 1.2394-0.55031 1.8594-0.82031-0.28-0.05-0.56961-0.11016-0.84961-0.16016zm-11.531 0.0898c-0.49 0.22-0.96922 0.44992-1.4492 0.66992-0.01 0-0.01 0.01-0.0195 0.01h0.0195l2.8496 0.44922 0.17969 0.0312c-0.53-0.38-1.0601-0.77015-1.5801-1.1602zm12.391 0.0605c0.55 0.56 1.0906 1.1195 1.6406 1.6895 0.47 0.1 0.94946 0.19906 1.4395 0.28906 0.38 0.08 0.67062 0.16148 0.89062 0.27148l0.0606 0.0293c0.02 0.01 0.0384 0.0291 0.0684 0.0391 0.04 0.03 0.0909 0.0501 0.13086 0.0801 0.61-0.4 1.2298-0.80898 1.8398-1.209-2.02-0.41-4.0503-0.80946-6.0703-1.1895zm-162.16 0.4375c-0.37641 0.006-0.8232 0.0499-1.3457 0.15235-1.35 0.26-2.1997 0.84883-2.6797 1.5488 0.43 0.20999 0.85883 0.42062 1.2988 0.64062 0-0.04 0.02102-0.0791 0.04102-0.11914 0.01-0.02 0.0193-0.0408 0.0293-0.0508 0.07-0.13 0.14977-0.23985 0.25977-0.33985l0.11133-0.10937c0.05-0.04 0.10016-0.0713 0.16016-0.11133 0.06-0.04 0.11945-0.0696 0.18945-0.0996 0.05-0.03 0.10992-0.0503 0.16992-0.0703 0.1-0.04 0.21031-0.0698 0.32031-0.0898l0.08984-0.0293h0.01953c0.16-0.03 0.29945-0.051 0.43945-0.041h0.02148c0.41 0.01 0.68961 0.16071 0.84961 0.47071 0.01 0 0.0095-0.01 0.01953-0.01 0.54-0.48 1.0909-0.95945 1.6309-1.4394v-0.0117s-0.49578-0.3093-1.625-0.29102zm1.6035 1.6426c-0.48 0.38-0.95945 0.76992-1.4395 1.1699l-0.01953 0.0195h0.01953c1.01-0.19 2.0195-0.38031 3.0195-0.57031-0.53-0.21-1.0501-0.40914-1.5801-0.61914zm85.131 0.25-1.4707 1.0801c1.59 0.01 3.1698 0.0286 4.7598 0.0586-0.54-0.37-1.0694-0.74914-1.6094-1.1191-0.56-0.01-1.1197-0.0195-1.6797-0.0195zm-11.48 0.0195c-2.33 0.04-4.6602 0.0902-6.9902 0.16016l-1.4688 1.1387c3.36-0.11 6.7103-0.18851 10.07-0.22852-0.54-0.35999-1.0713-0.72031-1.6113-1.0703zm18.52 0.11914c-0.49 0.35-0.96898 0.69102-1.459 1.041-0.01 0-0.01 0.01-0.0195 0.01 0.23 0 0.44968 0.01 0.67968 0.0195 0.96 0.02 1.9189 0.0501 2.8789 0.0801-0.54-0.38-1.0696-0.76062-1.5996-1.1406-0.16 0-0.32047-0.01-0.48047-0.01zm11.83 0.48047c-0.49 0.34-0.97875 0.66977-1.4688 1.0098 3.35 0.17 6.7106 0.38062 10.061 0.64062-0.53-0.4-1.0616-0.81094-1.6016-1.2109-2.33-0.17001-4.6602-0.30946-6.9902-0.43946zm62.561 0.0293c-0.48 0.2-0.95946 0.41133-1.4395 0.61133-0.01 0-0.01 0.01-0.0195 0.01h0.0195c1.01 0.2 2.0095 0.39938 3.0195 0.60938-0.53-0.4-1.0501-0.81047-1.5801-1.2305zm-115.71 0.45117-2.1016 0.15039c-0.44 0.35-0.86859 0.68906-1.3086 1.0391-0.01 0.01-0.0215 0.01-0.0215 0.0195h0.0215c1.59-0.13 3.17-0.23985 4.75-0.33985-0.45-0.29-0.88985-0.57914-1.3398-0.86914zm71.439 1.0488c-0.44 0.27-0.88055 0.54031-1.3106 0.82031-0.01 0-0.01 0.01-0.0195 0.01 1.49 0.14 2.9905 0.29117 4.4805 0.45117-0.45-0.37-0.89008-0.72961-1.3301-1.0996-0.61-0.06-1.2203-0.12164-1.8203-0.18164zm38.23 0.25c0.55001 0.45 1.0887 0.90156 1.6387 1.3516 1.3 0.25 2.6102 0.50953 3.9102 0.76953-0.44-0.43-0.88031-0.86078-1.3203-1.3008-1.41-0.28-2.8185-0.55031-4.2285-0.82031zm-129.57 0.51172c-0.61 0.07-1.2203 0.13898-1.8203 0.20898-0.44 0.36-0.87055 0.72961-1.3105 1.0996l-0.01953 0.0195c0.57-0.07 1.1292-0.12922 1.6992-0.19922 0.93-0.11 1.8512-0.22031 2.7812-0.32031-0.44-0.27-0.89008-0.53859-1.3301-0.80859zm111.6 0.55859c-0.51 0.28-1.0291 0.55985-1.5391 0.83985-0.02-0.01-0.0312-0.01-0.0312 0 0.08 0.09 0.16 0.17148 0.25 0.27148 0.69 0.67 1.8795 1.2198 3.2695 1.5098 0.2 0.04 0.40156 0.0794 0.60156 0.10938 1.4 0.21 2.8084 0.17961 4.3984-0.15039 0.09-0.02 0.17172-0.0288 0.26172-0.0488-0.53-0.45-1.0601-0.88984-1.5801-1.3398v0.01s-0.81023 0.67961-2.9902 0.34961c-1.29-0.2-2.1506-0.88078-2.6406-1.5508zm-125.13 0.21c-0.07 0.08-0.15047 0.16024-0.23047 0.24024-0.59 0.55-1.4098 0.87883-2.5098 1.0488-1.23 0.19-2.2098 0.0205-2.7598-0.43946-0.47 0.37-0.94016 0.76992-1.4102 1.1699l-0.0098 0.01c0.04 0.04 0.09867 0.0696 0.13867 0.0996s0.07133 0.0501 0.11133 0.0801c0.1 0.07 0.21984 0.12968 0.33984 0.17969 0.03 0.01 0.05008 0.031 0.08008 0.041 0.16 0.06 0.32953 0.12016 0.51953 0.16016 0.03 0.01 0.05008 0.01 0.08008 0.0195 0.16 0.04 0.32953 0.0698 0.51953 0.0898 0.05 0.01 0.10039 0.01 0.15039 0.0195 0.17 0.02 0.3493 0.0312 0.5293 0.0312h0.16992c0.19 0 0.39961-0.0115 0.59961-0.0215 0.05 0 0.10039 0.00023 0.15039-0.01 0.26-0.02 0.52102-0.0498 0.79102-0.0898h0.0098c1.61-0.25 2.7999-0.69039 3.6699-1.4004 0.2-0.15 0.36024-0.30899 0.49024-0.45899-0.48-0.26-0.95969-0.51953-1.4297-0.76953zm-17.432 3.1191v0.01s-0.79875 0.96086-2.9688 1.3809c-1.29 0.25-2.1409-0.14063-2.6309-0.64063-0.51 0.45-1.0193 0.9111-1.5293 1.3711l-0.0098 0.01c0.07 0.06 0.15 0.11946 0.25 0.18946 0.78 0.49 2.2098 0.58953 3.8398 0.26953h0.01953c1.39-0.28 2.7794-0.78992 4.3594-1.6699 0.08-0.04 0.17-0.0889 0.25-0.12891-0.53-0.27-1.0501-0.53102-1.5801-0.79102zm159.65 0.51954c-0.48 0.26999-0.95922 0.54031-1.4492 0.82031 3.32 0.61 6.6297 1.2494 9.9297 1.9394-0.53-0.47-1.0501-0.93992-1.5801-1.4199-2.3-0.47-4.6004-0.90984-6.9004-1.3398zm-83.6 2.5098c-4.52 0-8.9902 0.0902-13.41 0.24024-1.56 0.05-3.1104 0.10968-4.6504 0.17968-5.13 0.24-10.199 0.59102-15.199 1.041h-0.0195-0.0312c-1.28 0.11-2.5503 0.22937-3.8203 0.35937-1.24 0.12-2.4692 0.25063-3.6992 0.39063-8.88 0.99-17.52 2.3207-25.92 3.9707h-0.0098c-0.71 0.14-1.4209 0.26992-2.1309 0.41992-0.73 0.15-1.4399 0.30899-2.1699 0.45899-6.39 1.36-12.639 2.9004-18.719 4.6504l-2.2305 0.64062 4.6504 3.2988 2.1191-0.60937c5.33-1.53 10.789-2.8894 16.359-4.1094 3.15 5.25 6.8701 10.128 11.08 14.568l0.132-0.18-0.09-2.87c-3.34-3.71-6.3197-7.7205-8.9297-11.98 0.72-0.15 1.4304-0.29922 2.1504-0.44922h0.0098c6.65-1.34 13.469-2.4613 20.439-3.3613 1.28-0.17 2.5694-0.31875 3.8594-0.46875l-12.809 18.199v-0.01l-1.4902 2.1094-0.92969 1.3203 1.3398-1.1699 1.7891-1.5606 0.0098-0.01 4.9707-4.3203 8.7187-11.969 2.2109-3.0312c0.74-0.08 1.4709-0.15851 2.2109-0.22852 11.12-1.08 22.598-1.6308 34.398-1.6308 15.51 0 30.041 0.96054 42.861 2.3105 0.75 0.08 1.4888 0.16024 2.2188 0.24024l2.2207 3.0391 8.0996 11.121 0.0801 0.10938 4.9902 4.3398 0.01 0.01 1.6699 1.4609 1.3633 1.1914-1.8223-0.90234-0.28125-0.11914-1.7188-0.84961-0.0117-0.0117-28.709-14.17-0.80078-0.39844 0.4707 0.58984 2.9297 3.6602 23.65 12.43 0.0703 0.0391h0.01c-0.02 0.02-0.0405 0.0308-0.0605 0.0508l0.56055 2.2598c-12.96 10.93-29.41 18.01-47.48 19.35l-2.4648 2.207 1.0547-4.1973 6.5801-26.07 21.02 19.521 0.19141 0.16992-0.0996-0.21093-3.6406-7.2402-18.189-15.84-0.71094-0.65039-0.2207 0.80078-7.9785 29.59-0.74023 2.7598-0.39063 1.4609-0.74023 2.7598-0.74023-2.7598-0.38868-1.4512-0.74023-2.7598-7.98-29.59-0.2207-0.79883-0.69922 0.60937-18.189 15.84-3.6406 7.2305-0.0996 0.20899 0.18945-0.16992 21.02-19.529 6.5801 26.08 1.0703 4.2598-2.5488-1.9707c-18.48-1.79-34.422-8.6298-47.422-19.59l0.53125-2.1895 0.06055-0.0293 0.0098-0.0117 23.629-12.52 2.9414-3.6797 0.45508-0.57227-0.0957 0.77149-2.6894 21.701 3.75-7.2402 1.5801-13.029 0.31836-2.6602-2.8594 0.41992-0.004 0.0254-0.78516 0.39453-28.691 14.189-0.0098 0.01-1.8203 0.90039-0.19922 0.0996-1.9297 0.96093-0.03125 0.0293-10.859 9.4004 13.35-7.0703c14.18 12.73 32.81 20.8 53.31 21.7l3.8496 15.281 3.8496-15.271v-0.01l0.0156-0.0586c11.239-0.50044 21.907-3.1515 31.596-7.541 5.81-2.63 11.269-5.8895 16.279-9.6895 1.91-1.45 3.7493-2.9703 5.5293-4.5703l13.24 6.9609-10.83-9.2012-0.0586-0.0488-0.0586-0.0293-0.96289-1.3711-1.4102-2-0.01-0.01-12.309-17.48c1.33 0.16 2.6299 0.32024 3.9199 0.49024 7.34 0.95 13.949 1.99 19.639 3h0.01c0.75 0.13 1.4909 0.27039 2.2109 0.40039-2.5 4.06-5.3593 7.8797-8.5293 11.43l-0.0703 3.1797c4.1-4.33 7.7303-9.0894 10.82-14.189 11.41 2.16 18.148 3.9598 18.318 4.0098l2.1211 0.58007 4.7305-3.3008-2.2305-0.60937c-0.16-0.05-7.84-2.1002-20.75-4.4902-0.72-0.13-1.4495-0.27039-2.1895-0.40039-0.7-0.13-1.4204-0.2489-2.1504-0.3789h-0.01c-7.17-1.25-15.631-2.5306-25.111-3.6406-1.23-0.14-2.48-0.27992-3.75-0.41992-1.23-0.13-2.48-0.26062-3.75-0.39062-0.04 0-0.0794-0.01-0.10938-0.01h-0.0195c-7.49-0.74-15.5-1.3507-23.9-1.7207-1.52-0.07-3.0594-0.12969-4.6094-0.17969-4.45-0.15-9.0006-0.23047-13.641-0.23047zm-96.84 2.7305c-10.65 3.97-25.92 10.381-30.65 12.461l-13.18 5.95 7 2.8808 12.539-5.6602c4.14-1.82 16.78-7.1302 26.66-10.91l-2.3691-4.7207zm203.36 1.0801-2.2891 4.6309c5.76 2 11.55 4.1798 17.24 6.5098 2.14 0.88 4.2796 1.3301 6.3496 1.3301 7.3 0.41 12.58-2.9111 16.6-7.8711-2.65 2.95-6.2901 4.6016-10.33 4.6016-2.19 0-4.4297-0.47039-6.6797-1.4004-6.9-2.83-13.931-5.4508-20.891-7.8008zm-79.039 7.0312v0.01l0.33008 2.6602 1.5801 13.029 3.75 7.2402-2.6914-21.701-0.0996-0.8086-2.8594-0.42968h-0.01z"/></g></svg>
