<svg xmlns="http://www.w3.org/2000/svg" height="237.62" width="250" viewBox="0 0 249.99932 237.61434"><g transform="matrix(2.7574 0 0 2.7574 -2.196 -1.7498)"><g><circle cy="43.772" cx="45.423" r="42.724" fill="#001489"/><path fill="#da291c" d="m45.41 2.385c-22.789 0-41.261 18.474-41.261 41.264-0.0002 22.787 18.472 41.261 41.261 41.261 22.788 0 41.261-18.474 41.261-41.261 0-22.79-18.473-41.264-41.261-41.264z"/><path fill="#001489" d="m63.26 19.622c-5.0075-3.7125-11.205-5.91-17.918-5.91-6.7162 0-12.916 2.2-17.926 5.915-15.75-1.2238-21.45-3.725-21.45-3.725l-4.7472 4.992-0.1113 40.046 4.615 4.625s4.0312-1.9862 15.808-3.285c5.51 7.105 14.124 11.684 23.812 11.684 9.615 0 18.171-4.5112 23.688-11.526 13.445 1.4788 20.069 3.7362 20.069 3.7362v-41.385l1.9475-0.60875v-9.4938s-9.2462 3.455-27.786 4.9362"/></g><path fill="#fff" d="m44.398 5.16-0.03125 0.62305 0.60938 0.03125-0.19726 3.8184-0.60938-0.015625-0.04487 0.59375 2.4042 0.07612 0.04488-0.57812-0.44141-0.03125 0.07612-1.627 2.1152 0.12112-0.07612 1.6132h-0.5625l-0.03125 0.60938 2.3868 0.1055 0.04687-0.57812-0.58008-0.044875 0.21484-3.834 0.62305 0.013625 0.01563-0.51759-2.4629-0.18164-0.01563 0.59375 0.54686 0.044875-0.07612 1.582-2.1289-0.1055 0.04487-1.6132 0.59375 0.03125 0.03125-0.59375-2.498-0.137zm-1.3691 0.076125-5.3555 0.59765 0.15235 1.3184 1.1406-0.1055-0.02925-0.73048 0.89648-0.076125 0.45704 3.7578-0.73046 0.09175 0.0605 0.59375 2.6171-0.30469-0.07612-0.57813-0.68555 0.0605-0.42579-3.8048 0.95899-0.1055 0.0605 0.69922 1.0801-0.1055-0.12112-1.3086zm9.2618 0.6543-0.15039 0.58789 0.66211 0.1875-0.98829 3.6777-0.6621-0.17579-0.16211 0.5625 4.1895 1.1641 0.34961-1.2148-1-0.32422-0.22656 0.71289-1.2989-0.42577 0.44922-1.5879 0.70118 0.1875l-0.077 0.3266 1.114 0.3242 0.351-1.1641-1.088-0.3496-0.113 0.3496-0.75-0.2109 0.437-1.5761 1.225 0.3613-0.17384 0.67579 1.0879 0.32618 0.33789-1.2636-4.215-1.1504zm-15.942 0.2735-2.191 0.6835l0.16798 0.5332 0.57812-0.16601 1.0957 3.6191-2.207 0.70117-1.0938-3.6367 0.59179-0.19728-0.16601-0.54882-2.3594 0.7168 0.16798 0.54688 0.5625-0.16798 1.1875 3.7735 1.1719 0.15235 2.4941-0.7754 0.77734-0.74609-1.1562-3.7735 0.53125-0.21289-0.15234-0.50195zm21.868 1.3886-0.25 0.47656 0.56445 0.28906-1.6152 3.4629-0.58789-0.26172-0.21094 0.48632 2.2011 1.0762 0.22461-0.47461-0.55079-0.32421 0.61329-1.2148 0.48828 0.25 0.625 1.8008-0.48828-0.22461-0.21095 0.45118 2.1758 1.0371l0.199-0.424-0.398-0.213-0.727-1.951 0.75-0.162 0.838-1.7133-0.625-0.9883-3.016-1.377zm1.4395 1.2656 1.0996 0.54884-0.79884 1.7011-1.0879-0.57421 0.78711-1.6757zm-31.174 0.13086-2.2364 1.1172-0.5 0.93555 1.8476 3.4688 0.93555 0.09175 2.3281-1.209 0.38868-0.84375-1.666-3.3789-1.0976-0.18164zm0 0.66016 1.7364 3.4239-1.5976 0.82226-1.6895-3.4219 1.5508-0.82421zm36.448 1.1426-0.34375 0.45508 0.48046 0.38867-2.2598 3.0801-0.49609-0.36914-0.33008 0.47851 1.8652 1.375 0.31836-0.44531-0.36524-0.33008 1.7578-2.4316-0.50195 4.0625 1.0391 0.82226 2.5899-3.6406 0.50195 0.37695 0.29688-0.47851-1.8828-1.3926-0.28516 0.46679 0.46875 0.37696-1.4258 1.918 0.27344-3.4239-1.7011-1.289zm-41.855 1.3223-1.916 1.4844-0.41015 1.0039 0.9121 1.1875 0.70704-0.11525 2.0312-1.0723 0.98046 1.3242-1.3671 1.0273-0.45704-0.59375-0.93555 0.73048 0.41016 0.61524 1.0039-0.0215 2.0098-1.4844 0.34179-1.0039-1.0742-1.461-0.63672-0.02337-2.125 1.1641-0.79882-1.0039 1.3926-1.0723 0.45704 0.5918 0.98046-0.70509-0.45508-0.54882-1.0508-0.0235zm65.508 6.1836s-2.2361 0.50298-3.5136 0.73048c-1.2788 0.22875-4.3809 0.91406-4.3809 0.91406l0.08988 3.6952 1.9629-0.27344-0.04488 20.312-6.0254-23.051s-1.8966 0.4325-3.5879 0.78125c-1.2212 0.25-3.625 0.6797-3.625 0.6797l-0.04488 3.789 2.0548-0.45702v24.33l-2.0098-0.13868-0.08987 3.6972 7.8515 1.0976v-3.6524l-1.7812-0.36524 0.04687-19.948 6.0702 24.969 5.0664 0.91211v-33.822l1.916-0.4121 0.04488-3.7891zm-81.701 0.54884-3.1035 3.1952-0.044875 19.125 2.0528 2.0548 7.8516 0.04488 0.09175 14.195-5.9336 1.2344 0.044875-4.8868-4.1542 0.91406 0.046875 5.0215 2.875 3.0136 8.3985-1.918 2.8301-4.291-0.04487-15.656-1.8711-2.375-8.1719-0.13478 0.13672-15.521 5.7969 1.1875 0.13671 4.3828 3.834 0.77539 0.09175-5.0215-2.6934-3.5605-8.1699-1.7792zm33.275 2.4649-3.2871 4.1992 0.04488 30.948 2.9688 3.8809 7.7578-0.04687 3.1035-3.9708-0.04488-7.0292-4.0156 0.04488v7.2129l-5.5235 0.04488 0.09175-31.539 5.6582 0.04488 0.09175 6.709h3.6972l0.04487-6.0702-3.0118-4.4278h-7.5761zm-17.025 0.54688-2.9668 3.7441v24.511l2.6914 3.1035 8.9024-1.0039 2.7382-3.7441v-21.545l-2.922-4.245-8.443-0.822zm41.535 0.59375-8.4452 0.59375-3.0118 4.1542-0.04687 21.27 2.7382 3.6055 8.8105 0.54882 2.7851-3.1952-0.04687-23.371-2.7832-3.6055zm-40.258 3.2402 6.0722 0.68555-0.04687 22.32-6.0254 0.64062v-23.646zm39.07 0.54882v22.639l-6.1172-0.45508 0.09175-21.774 6.0254-0.41016zm-10.225 28.39v3.7441s7.2122 0.1372 17.118 1.461c9.905 1.3238 16.25 3.0586 16.25 3.0586l0.091-3.7s-7.4869-2.0985-16.298-3.1485c-8.808-1.05-17.162-1.417-17.162-1.417zm-18.712 0.1836s-4.9752 0.41125-7.2578 0.59375c-2.2825 0.1825-7.0274 0.82031-7.0274 0.82031l0.04487 3.789s4.9761-0.73024 7.1211-0.95899c2.145-0.2275 7.1191-0.54688 7.1191-0.54688v-3.6972zm3.043 10.033-0.77539 0.23242v0.46289h0.40039v2.7969h-0.40039v0.69531h1.998v-0.69531h-0.40234v-3.4922h-0.82031zm2.4726 0-0.53711 0.42382v1.6289l0.5547 0.3789h2.543v1.0606h-1.9004v-0.46485h-1.1973v0.72658l0.53711 0.43359h3.2208l0.5371-0.42969v-3.3399l-0.5371-0.41796h-3.2208zm5.459 0-0.53711 0.41796v0.7129h1.1973v-0.43555h1.9004v1.0391h-2.6152l-0.48242 0.33789v2.1152h4.2676v-1.1602h-1.1973v0.46485h-1.873v-1.0606h2.543l0.55469-0.3789v-1.6289l-0.53711-0.42382h-3.2208zm5.4746 0-0.77539 0.23242v0.46289h0.40039v2.7969h-0.40039v0.69531h1.998v-0.69531h-0.40039v-3.4922h-0.82226zm19.934 0.09963-3.2285 3.377 0.39844 0.41601 0.50195-0.52344 2.7989 2.6386-0.49804 0.55664 0.39844 0.41406 3.252-3.4805-0.88476-0.83009-0.78516 0.78516 0.46875 0.49805-1.0254 1.0938-1.1875-1.1465 0.57618-0.60351 0.24219 0.1914 0.83984-0.92774-0.89452-0.78905-0.79688 0.8828 0.20312 0.2129-0.59375 0.63281-1.1621-1.1055 0.97265-1.0625 0.54102 0.47071 0.83594-0.81641-0.97266-0.88476zm-52.195 0.14258-2.8184 2.5781 0.25196 1.1426 1.6368 1.7969 1.1934 0.32812 0.45118-0.47265-0.85156-0.94922-0.5332 0.51562-1.1328-1.3222 2.7735-2.625 1.1758 1.3008-0.50195 0.5371 0.84375 0.85548 0.42188-0.4004-0.16016-1.164-1.711-1.8261-1.0391-0.29492zm21.989 0.45312h1.9024v1.0391h-1.9024v-1.0391zm-18.199 3.5664-2.3261 3.0605 0.41016 1.0176 2.1758 1.6582 1.0644 0.16796 2.3125-3.1035-0.39649-1.0508-2.1289-1.627-1.1113-0.123zm44.868 0.41992-1.2109 0.05662-1.9258 1.4726-0.4336 1.1172 2.2011 3.0469 1.1172-0.06838 2.0899-1.5742 0.39845-1.0274-0.44532-0.55859-0.9707 0.76366 0.4004 0.58204-1.3809 1.0508-2.2812-3.0938 1.416-1.0938 0.41992 0.5586 0.9707-0.73048-0.36524-0.50195zm-43.771 0.3418 1.5528 1.1875-2.3281 3.1035l-1.54-1.174 2.313-3.119zm3.7266 2.1914-0.28908 0.5625 0.56446 0.27345-1.6739 3.4688-0.59375-0.3047-0.2578 0.47266 2.2676 1.1562 0.24219-0.47266-0.44141-0.28905 1.293-2.586 0.4121 4.0489 1.2168 0.60741 1.9785-3.9414 0.54688 0.25976 0.22655-0.50195-2.2208-1.1113-0.25781 0.48632 0.51759 0.28906-0.99024 2.1465-0.39454-3.4239-2.1465-1.1406zm35.36 0.2129-2.207 1.1094 0.24414 0.48828 0.56445-0.22851 0.97071 2.084-2.9062-1.7949-2.1739 1.0195 0.22852 0.53125 0.5918-0.27342 1.6601 3.4082-0.60938 0.32031 0.25781 0.5625 2.2676-1.1719-0.27344-0.47071-0.47265 0.22852-1.2461-2.5722 3.5136 2.1152 1.2324-0.59375-1.916-3.9708 0.5625-0.30469-0.28905-0.48632zm-28.878 2.9355-0.13671 0.56445 0.66992 0.19726-1.0195 3.6504-0.66992-0.18164-0.18164 0.51758 2.586 0.75976 0.15234-0.51562-0.625-0.22851 0.44141-1.6289 0.82226 0.24414-0.01563 0.34961 1.0957 0.34961 0.38086-1.2324-1.0644-0.31836-0.22852 0.30274-0.77734-0.24219 0.41211-1.5078 1.414 0.36522-0.16798 0.73048 1.1562 0.28906 0.24414-1.2461-4.4882-1.2188zm22.35 0.09175-4.5195 1.1875 0.12112 0.5625 0.70118-0.18165 1.0039 3.711-0.71484 0.21289 0.12112 0.5625 4.5957-1.2618-0.32032-1.1719-1.0801 0.25976 0.13672 0.66798-1.4452 0.39452-0.41016-1.5958 0.80665-0.21289 0.1055 0.28906 1.2012-0.35156-0.34766-1.1387-1.1406 0.33399 0.05862 0.2871-0.83789 0.23048-0.4082-1.5528 1.3848-0.39649 0.21094 0.68555 1.1426-0.25781-0.36522-1.2636zm-16.902 1.3691-0.0605 0.57812 0.7461 0.07613-0.32031 3.789-0.73046-0.04488-0.0605 0.60742 4.7149 0.36522 0.123-1.2461-1.125-0.123-0.10738 0.69921-1.4765-0.13671 0.1836-1.6426 0.80664 0.07613 0.01563 0.31836 1.2168 0.09175 0.07612-1.2012-1.2012-0.10738-0.07612 0.30469-0.80664-0.0605 0.15235-1.5976 1.3984 0.13672-0.01563 0.74414 1.1875 0.0625 0.1055-1.2774-4.7461-0.4121zm9.6289 0.15234-3.6348 0.33399 0.04487 0.58008 0.65625-0.04687 0.27344 3.789-0.66991 0.04488 0.03125 0.54882 2.7051-0.15235-0.02925-0.59375-0.74414 0.02925-0.04487-1.3222 0.5625-0.01563 1.5039 1.1875-0.4707 0.02925 0.02925 0.57812 2.6172-0.18164-0.0605-0.57812h-0.68555l-1.5215-1.2324 0.625-0.4414-0.13868-1.9492-1.0488-0.60741zm-0.30469 0.6543 0.16798 1.8418-1.3379 0.12112-0.13476-1.8711 1.3048-0.09175z"/></g></svg>
