<svg xmlns="http://www.w3.org/2000/svg" width="247" height="104.87" viewBox="0 0 247 104.87">
 <g transform="matrix(1.3333 0 0 -1.3333 -405.5 599.14)">
  <path d="m457.8 425.37v11.505c0 6.4012-5.2082 11.609-11.609 11.609h-17.111c-6.3228 0-11.472-5.0831-11.598-11.376-0.12598 6.293-5.2514 11.376-11.575 11.376h-29.678v-10.784c-0.42507 6.0179-5.4568 10.784-11.58 10.784h-17.111c-6.4016 0-11.609-5.2082-11.609-11.609v-20.612l13.86-3.855h-13.86v-11.504c0-6.4016 5.2072-11.61 11.609-11.61h17.13c6.0439 0 11.025 4.6432 11.562 10.55v-10.55h29.678c6.1516 0 11.202 4.809 11.587 10.865 0.38468-6.0564 5.4342-10.865 11.586-10.865h17.111c6.4012 0 11.609 5.2082 11.609 11.61v11.504h-17.853v12.962z" fill="#fff"/>
  <path d="m396.87 417.05c-2.8688-1e-3 -5.7372-0.00423-8.606-0.02783-2.8587-0.0168-5.717-0.04057-8.5752-0.07617v-24.195h26.221c4.5027 0 8.1533 3.6506 8.1533 8.1533v13.364l-3.0894 2.7012c-2.6279 0.0327-5.255 0.04949-7.8838 0.06299-2.073 0.0108-4.1468 0.01709-6.2197 0.01757zm-24.048-0.20361c-7.9466-0.13848-15.891-0.34806-23.832-0.62695l12.838-3.5713v-10.479c0-1.0728-0.86959-1.9438-1.9424-1.9438h-7.563c-1.0728 0-1.9424 0.87106-1.9424 1.9438v6.7822h-10.994v-8.0478c0-4.5022 3.6496-8.1519 8.1519-8.1519h17.131c4.5022 0 8.1518 3.6496 8.1518 8.1519v15.943zm48.107-0.04102v-15.901c0-4.5027 3.6511-8.1533 8.1533-8.1533h17.111c4.5022 0 8.1519 3.6506 8.1519 8.1533v8.0464h-10.994v-6.7822c0-1.0728-0.86911-1.9438-1.9424-1.9438h-7.544c-1.0728 0-1.9424 0.87106-1.9424 1.9438v14.344c-3.6636 0.11541-7.3286 0.21456-10.994 0.29296zm-30.248-3.7266h10.446c1.0733 0 1.9424-0.87058 1.9424-1.9438v-8.9663c0-1.0733-0.86911-1.9438-1.9424-1.9438h-10.446v12.854zm-82.601-32.739c-2.1802 0-3.0894-0.69755-3.0894-2.3921v-0.13769c0-1.37 0.39958-1.8316 1.7695-2.2178l2.2178-0.52294c0.8843-0.22408 1.1074-0.43512 1.1074-1.0708v-0.2871c0-0.81024-0.34787-1.0342-1.4692-1.0342h-0.1875c-0.72225 0-1.2332 0.06224-1.7564 0.29882l-0.18604 1.1719h-1.4209v-2.168c1.2469-0.44816 1.9321-0.63574 3.1655-0.63574h0.48487c2.1927 0 3.0894 0.71043 3.0894 2.417v0.53613c0 1.2584-0.43594 1.7931-1.6948 2.1167l-2.5913 0.59912c-0.5602 0.14954-0.74707 0.39785-0.74707 0.89649v0.12451c0 0.72273 0.3737 0.97119 1.333 0.97119h0.37353c0.57269 0 1.0844-0.06167 1.5205-0.26074l0.19922-1.2085h1.3579v2.2925c-1.0713 0.34862-1.9929 0.51123-3.1143 0.51123h-0.36182zm6.4424-0.13769v-1.2202c0.32362-0.04954 0.6339-0.07529 0.958-0.11279v-4.311c0-2.1927 1.0092-3.2256 3.1524-3.2256h0.69726c2.1057 0 3.0908 1.0329 3.0908 3.2256v4.3242c0.26111 0.037 0.54721 0.05011 0.82178 0.09961v1.2202h-3.2768v-1.2202c0.29958-0.0375 0.58577-0.06339 0.85986-0.08789v-4.5601c0-0.97181-0.54792-1.5938-1.5322-1.5938h-0.56103c-0.99682 0-1.5322 0.62194-1.5322 1.5938v4.5352c0.33612 0.02504 0.67336 0.06329 1.0225 0.11279v1.2202h-3.7002zm11.473 0v-1.2202c0.43566-0.06254 0.75952-0.09951 0.9961-0.12451v-6.0425c-0.31159-0.02454-0.63508-0.06279-0.97119-0.11279v-1.2202h3.2768v1.2202c-0.27409 0.0375-0.52309 0.06239-0.78516 0.08789v4.5967l3.7866-5.9048h1.7827v7.3872c0.32362 0.02504 0.64728 0.06329 0.98291 0.11279v1.2202h-3.3135v-1.2202c0.28707-0.0375 0.56118-0.06339 0.82325-0.08789v-4.7593l-3.9756 6.0674h-2.603zm16.869 0v-1.2202c0.42411-0.06254 0.75904-0.08779 0.9961-0.11279v-6.0542c-0.23706-0.02454-0.54852-0.05079-0.97119-0.11279v-1.2202h4.585c2.0177 0.0125 2.852 0.56032 2.852 2.3789v0.1875c0 1.0964-0.46018 1.7062-1.2334 1.9058 0.6982 0.26159 1.0723 0.82245 1.0723 1.7197v0.12451c0 1.6816-0.82324 2.4038-2.8784 2.4038h-4.4224zm10.315 0v-1.2202c0.43614-0.06254 0.7101-0.07529 0.9712-0.11279v-6.0542c-0.22359-0.03754-0.52314-0.06279-0.94629-0.11279v-1.2202h6.9888v2.5283h-1.084l-0.19775-1.1587h-3.0542v2.2808h2.3174v1.4692h-2.3174v2.231h2.9663l0.19922-1.1587h1.084v2.5283h-6.9272zm9.9434 0v-1.2202c0.31159-0.04954 0.63509-0.07529 0.97119-0.11279v-6.0542c-0.21156-0.02454-0.51014-0.05079-0.94628-0.11279v-1.2202h6.9888v2.7275h-1.147l-0.19922-1.3579h-2.9897v6.0059c0.42412 0.0125 0.82217 0.06201 1.1953 0.12451v1.2202h-3.873zm8.3716 0v-2.6528h1.1836l0.11279 1.2451h1.8311v-5.9795c-0.3116-0.03754-0.72307-0.06279-1.0342-0.11279v-1.2202h3.7998v1.2202c-0.31159 0.05004-0.72181 0.08829-1.0459 0.11279v5.9795h1.8179l0.1128-1.2451h1.1836v2.6528h-7.9614zm-25.915-1.4077h1.7564c0.93479 0 1.1587-0.32423 1.1587-1.084v-0.17432c0-0.74773-0.3742-0.97119-1.2715-0.97119h-1.6436v2.2295zm0-3.5376h1.6436c0.88526 0 1.3579-0.21175 1.3579-0.95948v-0.19922c0-0.80929-0.44861-1.2085-1.3579-1.2085h-1.6436v2.3672z" fill="#f6a800"/>
  <path d="m347.54 445.03c-4.5022 0-8.1519-3.6496-8.1519-8.1519v-18.229c9.2247 0.70734 18.457 1.321 27.691 1.8384l-16.698 4.6436v10.481c0 1.0733 0.86911 1.9438 1.9424 1.9438h7.563c1.0728 0 1.9424-0.87058 1.9424-1.9438v-6.7837h10.975v8.0493c0 4.5022-3.6506 8.1519-8.1533 8.1519h-17.111zm32.15 0v-7.1982l10.689-10.017c0.35295 0.26399 0.71888 0.5111 1.1074 0.72363l-3.104 16.491h-8.6924zm9.3633 0 6.1494-15.385c0.25389 0.0207 0.50986 0.03955 0.76904 0.03955s0.51369-0.01895 0.76758-0.03955l6.1494 15.385h-13.835zm14.506 0-3.104-16.491c0.38854-0.21253 0.75544-0.45964 1.1074-0.72363l11.821 11.079c-0.8992 3.5252-4.0856 6.1362-7.8911 6.1362h-1.9336zm25.523 0c-4.5023 0-8.1519-3.6506-8.1519-8.1533v-16.21c3.6646-0.21783 7.3286-0.4556 10.992-0.71045v15.656c0 1.0728 0.8696 1.9424 1.9424 1.9424h7.563c1.0733 0 1.9438-0.86959 1.9438-1.9424v-6.7837h10.973v8.0478c0 4.5027-3.6496 8.1533-8.1519 8.1533h-17.111zm-15.57-6.7236-9.6562-12.961c0.21927-0.34381 0.41528-0.70302 0.58887-1.0752l9.2007 3.085v9.5215c0 0.48903-0.05111 0.96422-0.13331 1.4297zm-33.823-1.6919v-9.7266l7.8062-2.6177c0.17359 0.37218 0.3696 0.73139 0.58887 1.0752l-8.395 11.269zm33.957-10.383-8.1987-4.7637c1.8455-0.0841 3.6901-0.16454 5.5356-0.25782l2.6631 2.3027v2.7188zm-33.957-0.81006v-4.2876c2.2817 0.10627 4.5631 0.21583 6.8452 0.31055l-6.8452 3.977zm10.904-45.081c-2.1312 0-3.189-1.1088-3.189-3.252v-2.6294c0.02452-2.1427 0.98369-3.126 3.0894-3.126h0.85986c1.0718 0 2.1796 0.41028 2.9648 1.1455v1.3081h-1.4209c-0.31111-0.6857-0.82208-1.021-1.6318-1.021h-0.59765c-0.99585 0-1.5454 0.50962-1.5454 1.5439v2.915c0 1.1339 0.53657 1.7197 1.5454 1.7197 0.77274 0 1.3699 4.3e-4 1.9556-0.16114l0.19922-1.3462h1.4194v2.4419c-1.2334 0.36116-2.2045 0.46142-3.1142 0.46142h-0.53467zm10.228 0c-2.1802 0-3.2637-1.259-3.2637-3.3896v-2.2925c0.01202-2.0806 1.1085-3.3252 3.2637-3.3252h1.1587c2.1057 0 3.2022 1.2452 3.2022 3.3384v2.2793c0 2.1182-1.0724 3.3896-3.2022 3.3896h-1.1587zm74.205 0c-2.1312 0-3.1904-1.1088-3.1904-3.252v-2.6294c0.02452-2.1427 0.98417-3.126 3.0894-3.126h0.85986c1.0718 0 2.1796 0.41028 2.9648 1.1455v1.3081h-1.4209c-0.31063-0.6857-0.82159-1.021-1.6318-1.021h-0.59766c-0.99729 0-1.5439 0.50962-1.5439 1.5439v2.915c0 1.1339 0.53414 1.7197 1.5439 1.7197 0.77226 0 1.3714 4.3e-4 1.957-0.16114l0.19922-1.3462h1.4194v2.4419c-1.2334 0.36116-2.2045 0.46142-3.1143 0.46142h-0.53467zm-66.965-0.13769v-1.2202c0.43614-0.06204 0.75951-0.09951 0.99609-0.12451v-6.0425c-0.3116-0.02502-0.63555-0.06279-0.97119-0.11279v-1.2202h3.2768v1.2202c-0.27409 0.0375-0.52308 0.06289-0.78515 0.08789v4.5967l3.7866-5.9048h1.7827v7.3872c0.32362 0.02456 0.64679 0.06329 0.98291 0.11279v1.2202h-3.3135v-1.2202c0.28755-0.0375 0.55972-0.06289 0.82177-0.08789v-4.7593l-3.9741 6.0674h-2.603zm11.798 0v-1.2202c0.43613-0.06206 0.74759-0.08829 0.97119-0.11279v-6.0542c-0.32362-0.03752-0.6212-0.06279-0.94482-0.11279v-1.2202h4.1221v1.2202c-0.33611 0.05002-1.1452 0.07529-1.4692 0.11279v2.0684h2.7158v1.4692h-2.7158v2.48h3.0527l0.19922-1.1587h1.084v2.5283h-7.0151zm9.6812 0v-1.2202c0.43614-0.06206 0.71009-0.07529 0.97119-0.11279v-6.0542c-0.2236-0.03752-0.52314-0.06279-0.94629-0.11279v-1.2202h6.9888v2.5283h-1.084l-0.19922-1.1572h-3.0527v2.2793h2.3174v1.4692h-2.3174v2.231h2.9663l0.19922-1.1587h1.084v2.5283h-6.9272zm9.9404 0v-1.2202c0.42412-0.06206 0.76098-0.08829 0.99756-0.11279v-6.0542c-0.32361-0.02502-0.63508-0.06279-0.97119-0.11279v-1.2202h3.4497v1.2202c-0.2611 0.0255-0.51117 0.05049-0.76025 0.06299v1.7563h1.8955c0.23658-0.37411 0.45901-0.88496 0.7456-1.7197v-1.3198h2.7671v1.2202c-0.38661 0.05002-0.69778 0.07529-0.92138 0.11279-0.3241 0.77225-0.77298 1.545-1.0591 1.9936 0.82225 0.46114 1.3945 1.0708 1.3945 2.2412v0.64893c0 1.7566-0.972 2.5034-2.9531 2.5034h-4.585zm10.516 0v-1.2202c0.43614-0.06206 0.71009-0.07529 0.9712-0.11279v-6.0542c-0.2236-0.03752-0.52362-0.06279-0.94629-0.11279v-1.2202h6.9888v2.5283h-1.084l-0.19922-1.1572h-3.0527v2.2793h2.3174v1.4692h-2.3174v2.231h2.9663l0.19922-1.1587h1.084v2.5283h-6.9272zm9.9419 0v-1.2202c0.43614-0.06204 0.75903-0.09951 0.99609-0.12451v-6.0425c-0.31207-0.02502-0.63507-0.06279-0.97119-0.11279v-1.2202h3.2769v1.2202c-0.27409 0.0375-0.52455 0.06289-0.78662 0.08789v4.5967l3.7881-5.9048h1.7812v7.3872c0.3241 0.02456 0.64876 0.06329 0.98584 0.11279v1.2202h-3.3149v-1.2202c0.28755-0.0375 0.55971-0.06289 0.82178-0.08789v-4.7593l-3.9741 6.0674h-2.603zm21.79 0v-1.2202c0.43614-0.06206 0.71009-0.07529 0.97119-0.11279v-6.0542c-0.2236-0.03752-0.52314-0.06279-0.94629-0.11279v-1.2202h6.9888v2.5283h-1.0825l-0.19922-1.1572h-3.0527v2.2793h2.3159v1.4692h-2.3159v2.231h2.9648l0.19922-1.1587h1.084v2.5283h-6.9272zm-80.807-1.3828h0.88476c1.1209 0 1.6685-0.51086 1.6685-1.7197v-2.5415c-0.0125-1.1959-0.56057-1.6934-1.6685-1.6934h-0.88476c-1.1214 0-1.6567 0.49747-1.6567 1.6934v2.5415c0 1.1088 0.53539 1.7197 1.6567 1.7197zm41.275-0.02491h1.8574c0.89632 0 1.3447-0.43623 1.3447-1.2085v-0.43506c0-0.69772-0.46043-1.1221-1.3447-1.1221h-1.8574v2.7656z" fill="#0a2240"/>
 </g>
</svg>