<?xml version="1.0" encoding="UTF-8" standalone="no"?>
<svg xmlns:rdf="http://www.w3.org/1999/02/22-rdf-syntax-ns#" xmlns="http://www.w3.org/2000/svg" enable-background="new 0 0 538.998 202.01" xml:space="preserve" height="104" viewBox="0 0 272.33106 104.00489" width="272.33" version="1.1" y="0px" x="0px" xmlns:cc="http://creativecommons.org/ns#" xmlns:dc="http://purl.org/dc/elements/1.1/"><g transform="matrix(.5 0 0 .5 1.7106 1.6315)"><path fill="#98002e" d="m32.086 0-32.086 58.723h35.172l23.096 116.01h52.889s15.882-31.807 27.174-54.414c3.052 19.862 8.3594 54.414 8.3594 54.414h109.12l17.279-31.416h40.209l5.9707 31.416h188.59l11.393-64.615h-90.584c0.199-4.327 0.85833-10.648 2.4863-19.896 1.966-11.152 4.1408-19.688 6.4648-25.412h89.619l11.428-64.803h-107.4c-14.363 0-27.377 5.2536-37.635 15.184-8.061 7.69-14.729 18.557-19.828 32.309-2.317 6.287-4.4209 13.491-6.2969 21.539-2.382-12.532-4.1478-21.822-4.6328-24.367 3.4-6.54 23.3-44.674 23.3-44.674h-163.62s-15.935 29.155-27.143 49.652c-2.73-17.412-7.8-49.652-7.8-49.652h-60.096s-16.817 33.891-24.309 48.975c-3.367-17.369-9.509-48.975-9.509-48.975h-61.615zm62.525 184.07c-1.842 0-3.4541 0.48327-4.8301 1.4473-1.38 0.963-2.1571 1.9155-2.3281 2.8535-0.172 0.94-0.23912 1.6116-0.20312 2.0176 0.118 1.367 0.58634 2.3178 1.4023 2.8418 0.814 0.524 1.6472 0.97075 2.4902 1.3438 0.845 0.372 1.4372 0.5912 1.7832 0.6582 1.166 0.375 1.7733 0.83849 1.8223 1.3965 0.015 0.188-0.02962 0.57696-0.14062 1.168-0.109 0.591-0.98305 0.88867-2.623 0.88867-0.999 0-1.9187-0.18021-2.7617-0.53321-0.843-0.356-1.8028-0.90343-2.8848-1.6484l-0.68164 3.8066c1.213 0.726 2.2428 1.1935 3.0898 1.3965 0.845 0.2 1.6398 0.30274 2.3848 0.30274h0.30664c2.097 0 3.8291-0.47193 5.2031-1.4199 1.371-0.948 2.1518-1.9656 2.3438-3.0586 0.191-1.091 0.27233-1.8381 0.23633-2.2441-0.138-1.574-1.1838-2.7829-3.1328-3.6309-1.477-0.622-2.2728-0.95423-2.3848-0.99023-0.111-0.03-0.34145-0.11124-0.68945-0.24024-0.35-0.127-0.68495-0.35826-1.002-0.69726-0.317-0.337-0.44853-0.68597-0.39453-1.043 0.082-0.419 0.36089-0.75672 0.83789-1.0117 0.478-0.254 1.0525-0.37891 1.7285-0.37891 0.794 0 1.6113 0.12958 2.4473 0.39258 0.832 0.261 1.8713 0.72286 3.1113 1.3809l0.65429-3.5762c-1.943-0.948-3.8712-1.4219-5.7852-1.4219zm264.67 0c-2.776 0-5.1882 0.82824-7.2402 2.4902-2.055 1.655-3.2358 3.3658-3.5488 5.1348-0.307 1.767-0.43028 3.0319-0.36328 3.7949 0.171 1.976 0.97158 3.5591 2.3926 4.7442 1.423 1.182 3.2682 1.7754 5.5352 1.7754 2.774 0 5.1843-0.84911 7.2383-2.5371 2.05-1.692 3.315-3.8655 3.793-6.5215 0.158-0.896 0.20462-1.7159 0.14062-2.4609-0.172-1.943-0.96767-3.502-2.3887-4.668-1.423-1.167-3.2746-1.752-5.5586-1.752zm-46.201 0.004c-2.941 0-5.4654 0.82633-7.5684 2.4863-2.108 1.656-3.3204 3.3808-3.6484 5.1738-0.325 1.793-0.45077 3.0814-0.38477 3.8594 0.175 1.979 0.98469 3.5377 2.4297 4.6797 1.444 1.142 3.3404 1.7109 5.6914 1.7109 1.135 0 2.2244-0.13893 3.2734-0.41993 1.051-0.275 2.2002-0.71068 3.4492-1.3047l0.73633-4.0566c-1.367 0.79301-2.5731 1.3545-3.6191 1.6875-1.044 0.33-1.9312 0.49219-2.6562 0.49219-0.188 0-0.38484-0.0158-0.58984-0.0488-1.202 0-2.1729-0.3349-2.9199-1.0039-0.742-0.667-1.1618-1.5652-1.2598-2.7012-0.047-0.508 0.0278-1.3158 0.2168-2.4238 0.192-1.108 0.88312-2.1331 2.0781-3.0801 1.194-0.948 2.6696-1.4219 4.4316-1.4219 0.893 0.00001 1.7348 0.1343 2.5078 0.4043 0.777 0.272 1.7295 0.75327 2.8535 1.4473l0.73828-4.0606c-1.251-0.593-2.3296-0.9763-3.2246-1.1543-0.894-0.177-1.7382-0.26562-2.5352-0.26562zm27.559 0c-2.944 0-5.4692 0.82633-7.5742 2.4863-2.104 1.656-3.3216 3.3808-3.6426 5.1738-0.328 1.793-0.45572 3.0814-0.38672 3.8594 0.174 1.979 0.98083 3.5377 2.4238 4.6797 1.442 1.142 3.3404 1.7109 5.6934 1.7109 1.133 0 2.2283-0.13893 3.2773-0.41993 1.048-0.275 2.1993-0.71068 3.4473-1.3047l0.74023-4.0566c-1.371 0.79301-2.579 1.3545-3.625 1.6875-1.044 0.33-1.9293 0.49219-2.6523 0.49219-0.188 0-0.3848-0.0158-0.5918-0.0488-1.2 0-2.173-0.3349-2.916-1.0039-0.745-0.667-1.1657-1.5652-1.2637-2.7012-0.045-0.508 0.0297-1.3158 0.21875-2.4238 0.191-1.108 0.88512-2.1331 2.0781-3.0801 1.194-0.948 2.6717-1.4219 4.4297-1.4219 0.9 0.00001 1.7328 0.1343 2.5078 0.4043 0.778 0.272 1.7295 0.75327 2.8535 1.4473l0.73632-4.0606c-1.251-0.593-2.3237-0.9763-3.2207-1.1543-0.893-0.177-1.7412-0.26562-2.5332-0.26562zm150.07 0c-2.943 0-5.4683 0.82633-7.5723 2.4863-2.103 1.656-3.3196 3.3808-3.6426 5.1738-0.328 1.793-0.45467 3.0814-0.38867 3.8594 0.177 1.979 0.98278 3.5377 2.4258 4.6797 1.445 1.142 3.3443 1.7109 5.6953 1.7109 1.132-0.00001 2.2224-0.13893 3.2754-0.41993 1.049-0.275 2.1963-0.71068 3.4473-1.3047l0.73828-4.0566c-1.37 0.79301-2.5771 1.3545-3.6211 1.6875-1.046 0.33-1.9312 0.49219-2.6562 0.49219-0.188 0-0.3838-0.0158-0.5918-0.0488-1.199 0-2.1691-0.3349-2.9141-1.0039-0.744-0.667-1.1666-1.5652-1.2656-2.7012-0.044-0.508 0.0307-1.3158 0.22266-2.4238 0.189-1.108 0.88117-2.1331 2.0762-3.0801 1.194-0.948 2.6688-1.4219 4.4258-1.4219 0.898 0.00001 1.7357 0.1343 2.5117 0.4043 0.777 0.272 1.7295 0.75327 2.8535 1.4473l0.73632-4.0606c-1.251-0.593-2.3246-0.9763-3.2226-1.1543-0.892-0.177-1.7382-0.26562-2.5332-0.26562zm-446.02 0.27734 3.8906 17.506h1.7734l5.875-10.861 1.9668 10.861h1.7734l10.191-17.506h-4.5391l-5.0352 9.4609-1.7148-9.4609h-2.8672l-5.1133 9.4141-1.6875-9.4141h-4.5137zm28.16 0.002-3.125 17.354h11.797l0.60156-3.2715h-7.4336l0.73242-4.1133h6.9512l0.58008-3.2188h-6.9512l0.62891-3.5312h7.2305l0.58398-3.2188h-11.596zm30.953 0-0.58203 3.2188h5.6856l-2.5449 14.135h4.5684l2.543-14.135h5.7578l0.58203-3.2188h-16.01zm19.207 0-3.125 17.354h11.797l0.59961-3.2715h-7.4316l0.73047-4.1133h6.9512l0.58008-3.2188h-6.9512l0.63086-3.5312h7.2305l0.58399-3.2188h-11.596zm16.01 0-3.127 17.352h4.3633l1.2637-7.0274h0.40625c0.912 0 1.5763 0.1456 1.9883 0.4336 0.417 0.288 0.72473 0.8157 0.92773 1.5957l1.2754 5h4.8965l-1.6856-5.9375c-0.165-0.559-0.36098-1.0013-0.58398-1.3203-0.224-0.323-0.57374-0.61128-1.0527-0.86328 2.178-1.016 3.3703-2.1044 3.5703-3.2734 0.203-1.166 0.28223-1.9879 0.24023-2.4609-0.1-1.15-0.63933-2.0193-1.6113-2.6133-0.973-0.591-2.4665-0.88476-4.4785-0.88476h-6.3926zm17.785 0-3.127 17.354h4.3125l1.9648-10.91 7.7012 10.91h3.4258l3.125-17.354h-4.3125l-1.8594 10.377-7.4023-10.377h-3.8281zm35.922 0-10.662 17.354h4.6191l2.0117-3.373h7.4883l0.62305 3.373h4.543l-3.6016-17.354h-5.0215zm12.812 0-0.58203 3.2188h5.6856l-2.5449 14.135h4.5645l2.5449-14.135h5.7598l0.58204-3.2188h-16.01zm19.205 0-3.125 17.354h4.3652l1.2598-7.0273h7.7422l-1.2637 7.0273h4.3106l3.125-17.354h-4.3086l-1.2676 7h-7.7383l1.2656-7h-4.3652zm21.111 0-3.127 17.354h11.799l0.61914-3.373h-7.4356l2.5098-13.98h-4.3652zm15.121 0-3.127 17.354h11.799l0.59766-3.2715h-7.4297l0.73047-4.1133h6.9492l0.58203-3.2188h-6.9492l0.62696-3.5312h7.2324l0.58203-3.2188h-11.594zm14.434 0-0.58203 3.2188h5.6856l-2.5449 14.135h4.5684l2.5449-14.135h5.7559l0.58008-3.2188h-16.008zm19.361 0-3.125 17.354h4.4648l3.125-17.354h-4.4648zm77.758 0-3.125 17.354h4.3145l1.9648-10.91 7.7031 10.91h3.4258l3.125-17.354h-4.3184l-1.8535 10.377-7.4062-10.377h-3.8301zm22.1 0-3.125 17.354h4.3652l1.2812-7.1289h6.4394l0.58203-3.2246h-6.4414l0.68164-3.7812h6.9004l0.58008-3.2188h-11.264zm15.223 0-3.125 17.354h11.799l0.59961-3.2715h-7.4336l0.73047-4.1133h6.9531l0.58008-3.2188h-6.9512l0.63282-3.5312h7.2305l0.58007-3.2188h-11.596zm16.01 0-3.125 17.352h4.3633l1.2617-7.0274h0.4082c0.912 0 1.5752 0.1456 1.9922 0.4336 0.413 0.288 0.72082 0.8157 0.92382 1.5957l1.2774 5h4.8965l-1.6875-5.9375c-0.168-0.559-0.36189-1.0013-0.58789-1.3203-0.219-0.323-0.57178-0.61128-1.0508-0.86328 2.177-1.016 3.3712-2.1044 3.5742-3.2734 0.201-1.166 0.28028-1.9879 0.23828-2.4609-0.1-1.15-0.63437-2.0193-1.6094-2.6133-0.975-0.591-2.4665-0.88476-4.4805-0.88476h-6.3945zm17.785 0-3.127 17.354h11.799l0.60156-3.2715h-7.4336l0.73242-4.1133h6.9473l0.58399-3.2188h-6.9531l0.63282-3.5312h7.2285l0.58008-3.2188h-11.592zm15.91 0-3.1289 17.354h4.3164l1.9629-10.91 7.7012 10.91h3.4258l3.125-17.354h-4.3106l-1.8613 10.377-7.4004-10.377h-3.8301zm41.176 0-3.1211 17.354h11.793l0.60157-3.2715h-7.4336l0.73438-4.1133h6.9492l0.58007-3.2188h-6.9512l0.63086-3.5312h7.2305l0.58203-3.2188h-11.596zm-356.42 3.0469c1.688 0 2.5771 0.47931 2.6621 1.4453 0.013 0.133-0.0227 0.43444-0.0977 0.89844-0.08 0.465-0.35703 0.87647-0.83203 1.2305-0.477 0.357-1.0964 0.5332-1.8574 0.5332h-2.0801l0.73242-4.0859 1.4727-0.0215zm286.84 0c1.69 0 2.5771 0.47931 2.6621 1.4453 0.01 0.133-0.0236 0.43444-0.0996 0.89844-0.077 0.465-0.35508 0.87647-0.83008 1.2305-0.477 0.357-1.0965 0.5332-1.8555 0.5332h-2.082l0.73243-4.0859 1.4726-0.0215zm-72.582 0.35156c1.2 0 2.172 0.33496 2.916 1.002 0.743 0.669 1.1627 1.5504 1.2617 2.6504 0.018 0.236 0.0246 0.49811 0.0156 0.78711-0.007 0.288-0.0369 0.53332-0.0859 0.73632-0.346 1.843-1.1018 3.2029-2.2578 4.0859-1.16 0.879-2.379 1.3203-3.666 1.3203-1.166 0-2.1155-0.33962-2.8535-1.0156-0.736-0.678-1.152-1.5641-1.248-2.6641-0.047-0.524 0.0249-1.3141 0.21289-2.3711 0.185-1.058 0.82783-2.0786 1.9238-3.0586 1.099-0.985 2.3582-1.4727 3.7812-1.4727zm-164.24 1.0156 1.2891 6.5957h-5.1524l3.8633-6.5957z"/><path fill="#d1d3d4" d="m345.48 42.103 22.05 116.03h-34.523l-5.971-31.417h-88.386l19.453 9.381-12.115 22.036h-35.577l77.433-141.53h70.943l-13.307 25.5zm-23.296 59.094-11.606-61.148-33.438 61.148h45.044m-89.781-84.594-45.821 83.82-13.159-83.82h-35.602s-41.572 83.766-41.55 83.646l-16.259-83.646h-38.081l-13.945 25.518h20.571l23.359 116.01h28.97l45.921-91.952 14.123 91.952h29.9l77.555-141.53h-35.982m267.06 110.11-5.538 31.417h-87.616c-13.962 0-22.819-7.352-26.589-22.048-2.979-11.816-2.643-28.08 1.011-48.798 2.385-13.521 5.26-24.862 8.636-34.021 4.238-11.444 9.493-20.151 15.767-26.115 7.238-7.023 15.95-10.543 26.129-10.543h87.616l-5.573 31.6h-81.438c-3.622 0-6.8 3.375-9.546 10.124-2.813 6.856-5.317 16.522-7.521 29.013-2.227 12.645-3.136 22.34-2.722 29.089 0.344 6.856 2.326 10.282 5.949 10.282h81.435"/></g></svg>
