<svg xmlns="http://www.w3.org/2000/svg" width="247" height="229.68" viewBox="0 0 247 229.68">
 <g transform="matrix(1.3333 0 0 -1.3333 -577.74 513.62)">
  <g>
   <path d="m528.03 213.67c-26.66 0-50.918 9.379-68.306 26.41-16.118 15.787-25.363 37.281-25.363 58.969 0 22.699 9.0082 43.919 25.365 59.753 17.069 16.525 41.009 25.625 67.408 25.625 32.213 0 64.385-13.085 86.059-35.003l4.9188-4.9733-29.637-28.963-4.8603 4.8603c-14.299 14.299-35.413 22.836-56.48 22.836-14.413 0-27.419-4.6856-36.62-13.193-8.7474-8.0873-13.564-19.076-13.564-30.942 0-10.893 4.9765-21.855 13.653-30.075 9.5703-9.066 22.863-14.059 37.428-14.059 20.199 0 41.497 8.7497 55.583 22.835l4.8603 4.8611 29.637-28.963-4.9188-4.9741c-21.35-21.591-53.983-35.003-85.162-35.003" fill="#821019"/>
   <path d="m585.57 322.38 2.8357-2.8357 25.505 24.925-2.8697 2.9013c-21.141 21.379-52.543 34.143-83.998 34.143-25.643 0-48.867-8.8106-65.394-24.81-15.787-15.284-24.482-35.765-24.482-57.673 0-20.914 8.9276-41.653 24.494-56.899 16.843-16.496 40.381-25.582 66.278-25.582 30.433 0 62.276 13.083 83.102 34.143l2.8697 2.9013-25.505 24.925-2.8357-2.8357c-14.609-14.608-36.692-23.684-57.631-23.684-15.31 0-29.309 5.2753-39.42 14.854-9.2525 8.7655-14.559 20.494-14.559 32.178 0 12.683 5.148 24.428 14.495 33.069 9.7387 9.0043 23.442 13.963 38.587 13.963 21.818 0 43.697-8.8541 58.528-23.684m-115.67-23.349c0-25.543 22.855-51.088 58.035-51.088 22.855 0 45.711 10.083 60.5 24.872l19.719-19.27c-19.943-20.166-50.417-32.938-80.218-32.938-53.553 0-86.716 38.988-86.716 78.424 0 41.454 33.387 78.426 85.82 78.426 30.698 0 61.171-12.772 81.115-32.939l-19.719-19.27c-14.789 14.789-37.644 24.872-61.396 24.872-34.059 0-57.138-23.079-57.138-51.089" fill="#fff"/>
  </g>
 </g>
</svg>
