<?xml version="1.0" encoding="UTF-8" standalone="no"?>
<svg xmlns:rdf="http://www.w3.org/1999/02/22-rdf-syntax-ns#" xmlns="http://www.w3.org/2000/svg" xml:space="preserve" height="104.27" viewBox="0 0 99.988281 104.27242" width="99.988" version="1.1" xmlns:cc="http://creativecommons.org/ns#" xmlns:xlink="http://www.w3.org/1999/xlink" xmlns:dc="http://purl.org/dc/elements/1.1/"><g transform="matrix(1.25 0 0 -1.25 -555.44 494.9)"><g transform="translate(.75834 .75834)"><path d="m467.5 322.03 6.206-0.004c-0.051 0.037-0.078 0.059-0.078 0.059l0.095 0.22c0.561-0.225 1.44-0.24 2.11-0.209 0.044 0.733 0.391 1.38 0.391 1.38-1.87 0.603-2.461 1.784-2.461 1.784l0.144 0.194c0.889-0.631 2.492-0.604 2.492-0.604 0.211 1.339 1.227 2.097 1.227 2.097-2.131 0.585-2.152 1.675-2.152 1.675l0.144 0.195c1.567-0.69 2.21-0.62 2.21-0.62 1.033 4.764 17.155 1.729 17.155 1.729 2.59 0.455 5.004 1.781 5.004 1.781l-0.01-0.749c7.58 3.223 4.37 10.897 4.37 10.897h-10.838v-6.334h-0.435-17.606-0.556v16.049l-0.125-0.31c-2.892 1.848-3.585 4.754-3.468 6.185 0.116 1.428 0.07 2.54 0.07 2.54l-0.736-0.245c-1.418 6.14 2.172 10.301 2.172 10.301-0.362 0.229-3.806 3.446-1.563 7.701 2.361 4.479 6.738 3.169 6.738 3.169h15.076 0.438v-4.277c0.47-0.329 1.002-0.721 1.002-0.721 2.608 0.111 4.227-1.3 4.227-1.3 0.324 0.633 2.767 3.201 5.838 1.827 3.228-1.444 3.101-4.852 3.101-4.852h2.963v10.662l-10.291 9.689h-32.13l-10.319-9.627v-27.291-0.034c8.016 2.037 8.755-1.364 8.755-1.364 1.473 0.055 2.487 0.733 2.487 0.733l0.134-0.187c-0.421-0.96-2.303-1.714-2.303-1.714 0.004-0.305-0.134-0.937-0.134-0.937 0.34-0.243 0.549-0.761 0.549-0.761 2.334 0.206 2.934 0.757 2.934 0.757l0.132-0.187c-0.527-1.215-2.686-1.86-2.686-1.86 0.064-0.442-0.3-1.313-0.3-1.313 0.288-0.269 0.417-0.941 0.417-0.941 1.597-0.209 2.448 0.035 2.448 0.035l0.067-0.217c-0.662-0.757-2.507-0.96-2.507-0.96-0.073-0.938-0.699-1.839-0.699-1.839 1.3-0.338 2.553-0.056 2.553-0.056l0.06-0.22c-0.835-0.783-2.576-0.892-2.576-0.892-0.134-1.133-1.238-2.025-1.238-2.025 1.57-0.382 2.594-0.065 2.594-0.065l0.061-0.218c-0.893-0.839-2.86-0.917-2.86-0.917-1.64-3.766-7.145-3.264-9.076-2.961v-4.215l10.783-10.633z" fill="#b31b1b"/><path d="m40.428 18.783c-3.165 0-5.7305 2.5667-5.7305 5.7305 0 2.2762 1.3327 4.2573 3.2539 5.1836 0.88375-0.61875 1.7402-0.91016 1.7402-0.91016-0.36 0.3625-0.69531 0.72258-1.0078 1.0801-0.4675 0.83-2.3734 4.4883-1.7871 7.832l1.697-1.043s-1.4102 6.4877 1.5098 10.646c0 0 0.66789 1.1312 1.7129 1.8438-0.72125-1.5325-1.2637-3.2135-1.5762-5.0098-0.68875-3.9512-0.16117-7.7614 1.2676-10.848l-1.1992 0.39648c3.0238-5.8325 9.2188-5.2754 9.2188-5.2754-0.41625 0.61625-0.88281 2.084-0.88281 2.084 0.65625-0.51625 2.4609-0.61914 2.4609-0.61914-4.2975 3.9788-0.06055 8.4492-0.06055 8.4492-5.2238-3.0375-2.5918-6.4707-2.5918-6.4707-0.45125-0.02375-1.4512 0.52344-1.4512 0.52344-0.125-0.99375 0.4375-2.1602 0.4375-2.1602-2.645 0.24625-3.5938 1.5176-3.5938 1.5176 0.68375-0.02625 1.6543 0.11133 1.6543 0.11133-1.9388 2.7962-3.1113 6.458-3.1113 10.467 0 3.78 1.0446 7.2485 2.7871 9.9785l0.52148-1.9199s1.2631 3.0663 3.6094 4.3301c1.404 0.75631 2.0932 2.3502 2.4238 3.5098 0.50559-1.7834 0.43359-4.2793 0.43359-4.2793 0.83375 0.98 0.94336 3.7285 0.94336 3.7285 0.1525 1.6212 1.125 2.0078 1.125 2.0078s1.9214 1.0755 4.1914 1.3555c2.27 0.27875 3.0352-0.56836 3.0352-0.56836 1.425-1.3188 1.8027-2.4512 1.8027-2.4512-0.05125 0.61875-0.42188 1.8418-0.42188 1.8418 2.6962-1.1975 4.0135-3.5493 4.916-5.4668 0.9025-1.9138 1.707-3.0391 1.707-3.0391l0.33203 0.77148c0.39-1.5562 2.8984-5.0195 2.8984-5.0195 0.81375-0.955 1.6312-3.2062 1.3887-4.375s0.48438-3.3281 0.48438-3.3281c0.3025-1.02 0.41094-2.5725-0.03906-3.4062-0.3625-0.67625-0.83594-2.0039-0.83594-2.0039-0.1525-0.555-0.875-2.1543-0.875-2.1543-0.635-1.195-1.3361-2.1767-2.0586-2.9805-2.57-2.8625-5.412-3.49-6.5645-3.625 1.1612 1.6825 1.0254 3.2129 1.0254 3.2129-3.5725-7.1012-12.197-6.7852-12.197-6.7852l0.31641 0.45898c-4.8088-0.09125-7.0391 1.5742-7.0391 1.5742l-0.18945 0.08789c-0.36625-2.8125-2.7704-4.9844-5.6816-4.9844zm11.303 39.428c-0.01093 0.03855-0.01782 0.08129-0.0293 0.11914 0.01125-0.0375 0.02-0.07703 0.03125-0.11328-0.000517-0.0018-0.0014-0.004-0.002-0.0059zm-11.803-37.992c0.86316 0.03146 1.8073 0.26797 2.6191 0.94531 2.165 1.8038 1.7637 3.6504 1.7637 3.6504l0.4375-0.11914c-1.5288 0.97875-4.2754 3.0703-4.2754 3.0703 0.105-0.41875 0.64844-1.4453 0.64844-1.4453-1.8312 0.91-2.9785 1.9512-2.9785 1.9512s-1.5302-0.80875-1.6914-3.375c-0.16125-2.57 2.041-3.709 2.041-3.709-0.27-0.29375-1.2168-0.50195-1.2168-0.50195s1.2137-0.51923 2.6523-0.4668zm18.523 6.1328c2.8462 0.3325 4.3289 3.3628 5.1602 5.0391 0.83 1.6762 1.3633 1.7109 1.3633 1.7109 2.015 0.19875 3.6738-3.0586 3.6738-3.0586-0.05875 1.8738-1.0664 3.1797-1.0664 3.1797 3.32-2.6038 3.8555-0.14648 3.8555-0.14648s-1.0077-1.1182-2.8477 1.1543c-2.2012 2.7212-3.1406 2.0449-3.1406 2.0449 0.2375-0.0075 0.53125-0.4043 0.53125-0.4043-3.555 0.135-6.5215-5.041-6.5215-5.041s-1.4217-2.0934-2.6055-2.8184c-1.1862-0.72625-4.8613-0.3125-4.8613-0.3125 0.77125-0.52375 2.6074-0.86914 2.6074-0.86914 3.8512-0.75375 5.8672 2.752 5.8672 2.752l1.8398 2.2969c-2.0762-4.9325-3.8555-5.5273-3.8555-5.5273zm-6.076 4.841s4.8264-0.47016 5.8477 4.6523c0 0-0.44047-0.58422-0.98047-1.168-0.34375 0.76375-1.1459 1.2574-2.0234 1.1699-1.1-0.11-1.9042-1.0909-1.793-2.1934 0.03875-0.38125 0.18344-0.72406 0.39844-1.0078-0.75625-0.46375-2.1035-0.67969-2.1035-0.67969s0.79274-0.20016 1.6465-0.16016c-0.3175-0.19625-0.64344-0.39828-0.99219-0.61328zm18.172 4.1035c0.86453 0.06172 1.4844 0.37109 1.4844 0.37109-0.25875 0.04875-0.52266 0.10867-0.78516 0.16992 0.565 0.1975 1.0273 0.51367 1.0273 0.51367s-0.16344-0.0332-0.39844-0.06445c0.1675 0.16 1.4688 1.4672 0.84375 2.8047-0.6675 1.4275-2.2988 1.5059-2.2988 1.5059 1.7838-1.85 1.4639-4.1638 1.4414-4.3125-0.24125-0.0325-0.55586-0.06133-0.84961-0.04883 0.12 0.30875 0.14719 0.65305 0.05469 0.99805-0.23 0.8475-1.0985 1.3485-1.9473 1.1348l0.10156 0.18359 0.23438 2.0488c1.1238 0.80625 0.47266 2.3652 0.47266 2.3652 1.3688 2.755-1.0176 5.0449-1.0176 5.0449l-1.791 1.75c-0.09-0.485 0.70312-1.5625 0.70312-1.5625 1.9112-2.615 1.4023-3.9512 1.4023-3.9512-0.49 0.31375-1.002 0.23438-1.002 0.23438-0.57875-0.09125-0.17383-1.0195-0.17383-1.0195s0.29617-0.88125-0.42383-0.96875c-0.72-0.08625-0.99609 0.92383-0.99609 0.92383-0.36875 0.76375 0.3125 1.4902 0.3125 1.4902-0.615 0.135-1.7715 0.63672-1.7715 0.63672-1.0888-0.7575-1.5449-1.4258-1.5449-1.4258 1.1588-0.32 1.4199-0.88477 1.4199-0.88477 0.56125-0.73875 0.23094-1.2432-0.22656-1.4082-0.455-0.16-0.78289 0.11445-0.93164 0.31445-0.1075 0.14875-0.26172 0.26367-0.26172 0.26367-1.1925 0.975-1.8613 0.26953-1.8613 0.26953l-0.263-0.25c-0.51-0.535-0.47266-0.86328-0.47266-0.86328 0.1225-0.83875 0.66797-1.4922 0.66797-1.4922 1.4025-1.49 2.9123-1.0262 4.2285-0.35742 1.3175 0.6675 2.3359 0.56445 2.3359 0.56445l-0.15625-0.4668c-0.425-0.93125-1.7227-1.2578-1.7227-1.2578 0.4575-0.1975 1.2324-0.07813 1.2324-0.07813l-0.16016-0.43359c-0.24625-0.6125-1.0723-0.67773-1.0723-0.67773l1.2129-0.94922c0.97938-0.99062 2.0886-1.175 2.9531-1.1133zm-7.8418 0.39648c0.37986 0.0215 0.77164 0.1293 1.1426 0.38086l1.416 1.0938-0.27148 0.11523s-1.258-0.77891-2.2617-0.84766c-1.0075-0.0675-1.7366 0.06383-2.0566 0.14258l-0.13672-0.23047s1.0284-0.71881 2.168-0.6543zm0.91406 1.6777c0.43736 0.023 0.94766 0.20664 1.4609 0.73633l-0.27148 0.11523s-1.3603-0.54836-2.2891-0.25586l-0.15625-0.22656s0.52692-0.40747 1.2559-0.36914zm-5.709 0.002s0.25024 0.91281-2.3223 2.9766c-1.8625 1.4962-2.4043 2.2871-2.4043 2.2871 0.24875-0.16375 1.4102-0.47852 1.4102-0.47852-2.4225 2.62-2.8673 6.5975-2.9336 7.375-0.06 1.4588 0.14648 2.4473 0.14648 2.4473-2.6325-3.2375-1.623-6.6113-1.623-6.6113l-1.1445 0.60547c-0.0675-4.25 3.7793-6.1406 3.7793-6.1406l-0.741-0.268c0.97125-0.175 1.8863-0.45305 2.5488-0.68555-0.50642-0.11236-0.61133-0.24219-0.61133-0.24219 2.6512-0.67875 3.8945-1.2637 3.8945-1.2637zm-44.131 2.3828s-8.0709 5.2441-10.693 10.432l2.3828-0.542s-3.9409 5.3889-2.2422 9.1602c0 0 0.78016 1.1041 1.1289 1.3066 0.3475 0.2025 1.4255 1.5599 1.8105 2.4512l-0.048828-0.58789c-0.46125-1.0525-0.50195-1.9727-0.50195-1.9727 2.7125 4.6238 7.1133 4.7812 7.1133 4.7812l-2.2578 0.48047s-0.09945 0.03383-0.18945 0.04883c4.95 2.9612 9.1992 2.3672 9.1992 2.3672 1.2638-0.4275 2.2065-0.72828 2.0527-1.6445-0.06375-0.38125-0.25734-1.142-0.58984-1.4258 1.4688-0.375 2.4429-1.3127 2.2754-2.3164-0.075-0.43625-0.3568-0.82406-0.7793-1.1328 1.2612-0.42625 2.0639-1.292 1.9102-2.207-0.1125-0.6675-0.70969-1.2231-1.5547-1.5469 0.785-0.46875 1.232-1.1427 1.1133-1.8477-0.12875-0.76-0.88352-1.3678-1.916-1.6641 0.68375-0.4625 1.0624-1.0891 0.95117-1.7441-0.15697-0.9244-1.2644-1.6342-2.6504-1.8184-2.4395 0.23556-5.9428 1.0177-11.023 2.8359 0 0 2.919-2.228 4.584-3.1367v-1.1367c-1.9275 1.065-2.1855 1.4395-2.1855 1.4395 0.445-0.59875 0.6193-1.197 2.1855-2.2832v-0.91797c-2.43 1.9412-4.5332 4.0332-4.5332 4.0332 1.2875-2.3888 2.902-4.8363 4.5332-6.7051v-1.0078s-3.0178 2.0717-5.3828 4.293c0 0 2.6511-4.0504 5.3086-6.9004v-1.0898zm6.5137 10.576c0.01811-0.0017 0.03865-0.0042 0.05664-0.0059-0.02565 0.0024-0.04442 0.0014-0.07031 0.0039 0.0047 0.000606 0.009 0.0013 0.01367 0.002zm0.05664-0.0059c1.0219-0.09574 1.8527-0.09375 2.5273-0.0293-0.6742-0.06471-1.5055-0.06656-2.5273 0.0293zm2.5273-0.0293c0.06572 0.0063 0.12471 0.01402 0.1875 0.02148-0.06314-0.0075-0.1214-0.01517-0.1875-0.02148zm0.1875 0.02148c0.26514 0.03141 0.50853 0.0722 0.72461 0.12109-0.2167-0.04935-0.45833-0.08944-0.72461-0.12109zm0.72461 0.12109c0.04702 0.01071 0.09579 0.01985 0.14063 0.03125-0.045-0.01137-0.09342-0.02057-0.14063-0.03125zm0.14063 0.03125c0.24368 0.06157 0.46233 0.13198 0.64648 0.20898-0.18393-0.07746-0.40278-0.14703-0.64648-0.20898zm0.64648 0.20898c0.19973 0.08351 0.36802 0.17395 0.50781 0.26562-0.13966-0.09252-0.30758-0.1813-0.50781-0.26562zm0.50781 0.26562c0.13181 0.08644 0.23467 0.1731 0.32227 0.25781-0.08682-0.08492-0.19133-0.17107-0.32227-0.25781zm0.32227 0.25781c0.01355 0.01325 0.02647 0.02598 0.03906 0.03906-0.01294-0.0133-0.02513-0.02559-0.03906-0.03906zm0.03906 0.03906c0.05425 0.05576 0.09433 0.10706 0.13281 0.1582-0.03905-0.0531-0.07677-0.1-0.13281-0.1582zm0.13281 0.1582c0.07418 0.10088 0.13969 0.20238 0.16797 0.26953-0.02937-0.06872-0.08971-0.16551-0.16797-0.26953zm32.498-5.52s1.7381 0.18227 2.4844 0.38477c0.74625 0.2025 3.3159 0.63688 4.3184-0.14062 0 0-0.06469 0.71219 1.0391 1.5234 0 0 0.90531 0.71391 1.0391 0.94141 0 0-0.05781 0.29141-1.2578 1.9414-1.199 1.652-1.311 3.143-1.508 3.971-0.196 0.828-0.941 2.76-0.941 2.76s-0.71055 1.7862-3.4668 1.5938c-2.755-0.18875-4.0059-1.127-4.0059-1.127 0.08125 0.52375 0.86719 1.1816 0.86719 1.1816-2.055-0.48-2.2432-1.2935-2.1582-4.5098 0.08125-3.2175-0.77734-6.1348-0.77734-6.1348-0.42625 0.2125-0.89844 1.4355-0.89844 1.4355s-1.1181-4.0403 5.2656-3.8203zm26.609 5.2734s0.04906 0.04219 0.13281 0.11719l0.12305 0.0078c-0.085-0.04125-0.16586-0.0825-0.25586-0.125zm0.13476 0.11914c0.69875 0.6225 3.983 3.7433 5.4355 8.6445 0 0-3.9175-5.2424-9.9062-6.9199 0 0 7.3061 3.9177 6.8711 12.271 0 0-1.6514-3.4188-3.4727-4.7676 0 0 3.9695 7.9487-2.2617 14.357 0 0 2.8417-8.1387-1.6133-14.014 0 0 1.2952 4.2661-0.77734 7.9336 0 0 0.69758-5.8509-2.5137-9.1309 0 0-0.28266 0.40883-0.81641 0.95508 0.0075 0.03 0.01328 0.05789 0.01953 0.08789 8.45 17.855-7.8613 21.395-7.8613 21.395l0.14844-0.85742c-0.61875 0.395-4.6895 1.5234-4.6895 1.5234s-2.968-1.3439-9.7617-1.6602c-2.1538-0.10125-3.828-0.05367-5.1367 0.08008 0.085-0.0037 0.16977 0.0027 0.25977 0.03516 0.0925 0.03375 0.18414 0.06711 0.27539 0.09961-0.65125 0.1675-1.3609 0.53148-1.6484 1.1777-0.2625 0.58875-0.1232 1.4761 0.4043 1.8711-0.76875 0.16375-1.7987 0.55547-2.1074 1.3555-0.28125 0.72125 0.17398 1.5484 0.80273 1.8984-0.6675 0.28375-1.7191 0.90125-1.4941 1.7812 0.215 0.84875 1.2644 1.3517 2.0156 1.6055-0.4725 0.3175-0.54438 0.8443-0.51563 1.373 0.02125 0.39 0.28266 0.7218 0.56641 0.9668 0.78875 0.6875 1.9329 1.0329 2.9629 1.0879-0.58375 0.53-0.72891 1.4745-0.19141 2.0957 0.50875 0.59 1.4584 0.68266 2.1797 0.75391 14.755-0.725 18.807-9 18.807-9-0.01125 0.67375-0.04961 1.349-0.09961 2.0215-0.05 0.65125-0.11562 1.3024-0.20312 1.9512-0.02 0.14125-0.0443 0.22148-0.0293 0.30273 4.7612-1.4812 5.1601-4.1405 7.0801-6.6055l-0.66016 2.4375c3.5388-1.3812 2.8832-3.5611 6.2832-8.6523 0 0 0.42984 2.7387-1.6602 6.1699 2.7412-2.9862 5.2515-6.8541 6.0527-11.494 0 0 0.71274 4.4353 0.02148 8.1641-1.0288 1.0238-1.7165 5.0562-7.8965 8.5625 23.11-11.047 12.41-32.506 12.41-32.506-2.48-4.2275-7.2355-7.326-7.2793-7.3535zm6.0723 10.75s1.4209 2.1587 2.5547 5.6074c-0.05625 3.395-0.76109 7.3945-2.9336 11.346-0.04 0.05875-0.08055 0.11898-0.12305 0.17774-0.02 0.02625-0.03859 0.05133-0.05859 0.08008-0.13875 0.19125-0.28273 0.37906-0.42773 0.57031-0.01 0.0087-0.01398 0.01859-0.02148 0.02734 1.675-3.5325 3.161-9.4386 1.0098-17.809zm-73.027 7.7695c0.0625 0.0037 0.34125 0.02219 0.75 0.02344-0.40875-0.0012-0.6875-0.01969-0.75-0.02344zm29.612 11.509c-0.23125 0.0375-0.45875 0.0775-0.6875 0.125-0.1125 0.02375-0.22664 0.04992-0.33789 0.07617 0.305-0.0725 0.64539-0.14242 1.0254-0.20117zm-1.8457 0.43945c-0.1125 0.03875-0.22203 0.08-0.33203 0.125-0.13457 0.05563-0.25971 0.12873-0.38867 0.19531 0.20631-0.10788 0.42362-0.21689 0.7207-0.32031zm-0.7207 0.32031c-0.06874 0.03594-0.1511 0.06971-0.21094 0.10547 0.06778-0.04018 0.14102-0.06937 0.21094-0.10547zm-0.21094 0.10547c-0.01506 0.0089-0.03193 0.01429-0.04687 0.02344-0.02161 0.01303-0.06911 0.05685-0.10547 0.08789 0.0545-0.03763 0.08835-0.07308 0.15234-0.11133zm-0.15234 0.11133c-0.11871 0.08197-0.25294 0.16625-0.33203 0.24219 0.06201-0.000954 0.21489-0.14217 0.33203-0.24219zm-0.33398 0.24219c-0.175 0.16875-0.26234 0.31211-0.30859 0.41211 0.0925-0.1575 0.28484-0.38711 0.30859-0.41211zm-0.35156 0.54297c-0.0012 0.0075-0.0039 0.01172-0.0039 0.01172h0.0078c-0.005-0.0012-0.0014-0.0067-0.0039-0.01172zm-1.7832 3.6973c-0.06625 0.14125-0.0918 0.23438-0.0918 0.23438 0.02375-0.08 0.05805-0.15812 0.0918-0.23438zm0.62891 2.1445c0.0975 0.07375 0.16797 0.10742 0.16797 0.10742-0.05875-0.02875-0.11422-0.06867-0.16797-0.10742zm-1.2383 1.5762c-0.01125 0.05125-0.01172 0.08008-0.01172 0.08008 0.0025-0.0275 0.008-0.05258 0.01172-0.08008zm0.69141 1.582c0.02125 0.01375 0.0425 0.02726 0.0625 0.04102-0.01875-0.0125-0.03789-0.02656-0.05664-0.03906-0.0012 0-0.0034-0.002-0.0059-0.002zm1.2832 0.72461c0.1375 0.0675 0.22266 0.10742 0.22266 0.10742-0.07375-0.035-0.14766-0.07117-0.22266-0.10742zm-0.08008 0.53516c-0.0429 0.09438-0.07515 0.18876-0.0957 0.28125 0.02218-0.09672 0.05454-0.19088 0.0957-0.28125zm-0.113 0.944c0.015 0.10375 0.0332 0.16797 0.0332 0.16797-0.015-0.05375-0.02445-0.11172-0.0332-0.16797zm3.7363 2.3984c0.22875 0.0175 0.36859 0.01563 0.37109 0.01563-0.12125 0-0.24734-0.0056-0.37109-0.01563zm-0.33594 1.2598c-0.0087 0.05-0.0078 0.07813-0.0078 0.07813 0.0012-0.025 0.0041-0.05187 0.0078-0.07813z" transform="matrix(.8 0 0 -.8 444.35 394.32)" stroke="#89572e" stroke-width="0.3" fill="#89572e"/><path d="m73.283 24.035c-1.4912 0-2.8018 0.79156-3.5293 1.9766l1.1719 0.85156s2.3771-3.3377 5.4746 0.07227h-0.55469s0.98469 2.1859-1.9453 3.8184c0 0 0.44125 0.84758 0.65625 1.4238 1.6775-0.52875 2.875-2.1416 2.875-3.9941 0-2.2912-1.8559-4.1484-4.1484-4.1484zm-14.83 2.3184s1.7773 0.59359 3.8535 5.5273l-1.8398-2.2988s-2.0147-3.5045-5.8672-2.752c0 0-1.8374 0.34414-2.6074 0.86914 0 0 3.6731-0.4157 4.8594 0.31055 1.1838 0.72625 2.6074 2.8203 2.6074 2.8203s2.9665 5.176 6.5215 5.041c0 0-0.29375 0.3968-0.53125 0.4043 0 0 0.93938 0.67758 3.1406-2.0449 1.8388-2.2725 2.8457-1.1543 2.8457-1.1543s-0.53352-2.4585-3.8535 0.14648c0 0 1.0096-1.3059 1.0684-3.1797 0 0-1.6608 3.2566-3.6758 3.0566 0 0-0.53398-0.03398-1.3652-1.709-0.83125-1.6762-2.31-4.7046-5.1562-5.0371zm-9.1973 2.043c-1.2273-0.02673-6.3006 0.18562-8.9453 5.2891l1.1992-0.39648c-1.43 3.0862-1.9583 6.8964-1.2695 10.848 0.3125 1.7962 0.85297 3.4773 1.5742 5.0098-1.0438-0.7125-1.7109-1.8438-1.7109-1.8438-2.92-4.1588-1.5098-10.646-1.5098-10.646l-1.6953 1.043c-0.5875-3.3438 1.3189-7.0008 1.7852-7.832 0.06375-0.11125 0.09961-0.17578 0.09961-0.17578-5.31 5.8338-4.3359 10.615-4.3359 10.615 0.42-0.39125 1.2109-0.91992 1.2109-0.91992 0.2325 0.7825 0.2325 1.9098 0 5.7598-0.23625 3.8525 1.4863 5.377 1.4863 5.377 0.18625-0.59125 0.79297-1.4902 0.79297-1.4902s0.87336 2.4448 2.0371 3.2773c1.1638 0.83625 2.1992 2.375 2.1992 2.375 0.0925-0.4225 0.79102-1.4102 0.79102-1.4102 1.35 1.9962 3.8269 2.8061 5.8281 3.2461 2 0.445 2.9082 1.8086 2.9082 1.8086 0.01125-0.0375 0.0207-0.07703 0.0332-0.11328-0.33125-1.16-1.0215-2.7581-2.4277-3.5156-2.3462-1.2638-3.6074-4.3301-3.6074-4.3301l-0.52344 1.9199c-1.7425-2.73-2.7871-6.1985-2.7871-9.9785 0-4.0088 1.1719-7.6705 3.1094-10.467 0 0-0.96859-0.13758-1.6523-0.11133 0 0 0.94875-1.2713 3.5938-1.5176 0 0-0.56375 1.1664-0.4375 2.1602 0 0 0.99867-0.54719 1.4512-0.52344 0 0-2.6339 3.4332 2.5898 6.4707 0 0-4.2338-4.4705 0.0625-8.4492 0 0-1.8059 0.10289-2.4609 0.61914 0 0 0.46852-1.4677 0.88477-2.084 0 0-0.09811-0.0099-0.27344-0.01367zm22.604 7.8887c0.0225 0.14875 0.3443 2.4645-1.4395 4.3145 0 0 1.6326-0.08031 2.2988-1.5078 0.62625-1.3375-0.67555-2.6447-0.8418-2.8047-0.005 0-0.01133-0.002-0.01758-0.002zm-17.23 2.5938c-0.66375 0.23125-1.5795 0.5118-2.5508 0.68555l0.74023 0.27148s-3.8468 1.8887-3.7793 6.1387l1.1445-0.60742s-1.0095 3.3758 1.623 6.6133c0 0-0.20648-0.99047-0.14648-2.4492-0.0066 0.08355-0.01172 0.13867-0.01172 0.13867-1.0775-2.08-0.04102-5.1641-0.04102-5.1641-0.37125 0.16875-0.99414 0.61524-0.99414 0.61524 0-1.965 2.3244-4.1703 3.4844-4.9453 1.16-0.7775 1.4082-1.1699 1.4082-1.1699-0.09125-0.0087-0.17976-0.01734-0.25976-0.02734-0.01125 0-0.02125-0.0027-0.03125-0.0039-0.07-0.0075-0.13602-0.01664-0.19727-0.02539-0.01125-0.0012-0.02195-0.0034-0.0332-0.0059-0.06-0.01-0.11742-0.01859-0.16992-0.02734l-0.02344-0.0039c-0.05875-0.01125-0.11211-0.02195-0.16211-0.0332zm22.805 2.0645c2.2825 1.9512 4.4512 4.9219 4.4512 4.9219-1.7312-1.5412-4.8223-3.002-4.8223-3.002 3.0888 2.2912 6.125 6.6562 6.125 6.6562-3.3288-2.9062-7.2441-4.8555-7.2441-4.8555-0.48125 2.1838-1.8962 3.9012-3.4824 6.2324-1.71 2.5162-2.5664 5.8691-2.5664 5.8691l-0.75-1.2246c-1.3512 3.1962-3.9241 5.1545-6.5879 6.3945-5.7325 3.085-11.277-1.6641-11.277-1.6641v1.207s-1.5521-2.959-5.3496-3.4902c-2-0.28-3.2255-1.4814-3.5117-1.7227l-0.18164 1.1855s-0.8518-0.35274-0.99805-0.70898v13.764h17.176v-1.5137c-2.7112-0.28875-4.6152-1.6934-4.6152-1.6934 3.4862 0.175 4.8223-0.49062 5.0098-0.57812l0.0332-0.01563c-0.365-0.08375-5.4934-1.3068-8.2559-3.9043 9.9462 4.2925 17.496-1.6426 17.496-1.6426-0.2025 0.745-0.9375 2.3711-0.9375 2.3711 4.3575-0.945 5.8887-3.0547 5.8887-3.0547-0.09125 1.0712-1.0234 2.5957-1.0234 2.5957 1.7275-0.61875 2.9971-1.6895 3.7559-2.4707 0.5325-0.54625 0.81641-0.95117 0.81641-0.95117 3.21 3.28 2.5137 9.1289 2.5137 9.1289 2.0712-3.6675 0.77734-7.9355 0.77734-7.9355 4.4562 5.875 1.6133 14.016 1.6133 14.016 6.2312-6.4075 2.2617-14.355 2.2617-14.355 1.8212 1.3475 3.4727 4.7637 3.4727 4.7637 0.43375-8.3538-6.8711-12.27-6.8711-12.27 5.9888 1.6788 9.9062 6.9219 9.9062 6.9219-1.4538-4.9025-4.7361-8.0259-5.4336-8.6484h-0.0039c-0.08375-0.075-0.13281-0.11719-0.13281-0.11719 0.09 0.0425 0.17086 0.08375 0.25586 0.125l-0.11914-0.0078c0.04375 0.02875 4.7973 3.126 7.2773 7.3535l0.29102 0.08789 1.9922 0.60742c-1.4825-3.2725-4.8848-7.8086-4.8848-7.8086-6.1712-8.0288-12.064-10.566-12.064-10.566zm-63.582 3.5176c-1.63 1.87-3.245 4.3183-4.5312 6.707 0 0 2.1025-2.0952 4.5312-4.0352v-2.6719zm0 3.5898c-1.5662 1.0862-1.7398 1.6845-2.1836 2.2832 0 0 0.25609-0.37445 2.1836-1.4395v-0.84375zm7.9062 2.1973c-0.44247 0.0034-0.93414 0.02891-1.4785 0.08203 1.3938 0.18125 2.5066 0.89281 2.6641 1.8203 0.11125 0.655-0.26742 1.2816-0.95117 1.7441 1.0337 0.29625 1.7892 0.90406 1.918 1.6641 0.1175 0.705-0.32953 1.3789-1.1133 1.8477 0.84375 0.32375 1.4402 0.87938 1.5527 1.5469 0.15375 0.915-0.64766 1.7808-1.9102 2.207 0.4225 0.30875 0.7043 0.69656 0.7793 1.1328 0.1675 1.0038-0.80859 1.9414-2.2773 2.3164 0.33375 0.28375 0.52805 1.0445 0.5918 1.4258 0.15375 0.91625-0.78898 1.217-2.0527 1.6445 0 0-4.2492 0.59406-9.1992-2.3672 0.09125-0.015 0.18945-0.04883 0.18945-0.04883l2.257-0.482s-4.4008-0.1575-7.1133-4.7812c0 0 0.03875 0.92016 0.5 1.9727l0.048828 0.58789s3.7838 6.6991 11.687 7.2266c0 0 0.0037 0.002 0.01367 0.002 0.0725 0.005 0.42414 0.02719 0.93164 0.02344 1.4625-0.0075 4.217-0.23211 5.332-1.7246l-1.127-0.38672 1.5449-0.66016s-0.0048-0.6532-0.62109-1.252c0 0 1.5412-0.42398 2.0625-1.3965l-1.2988-0.45508 1.541-0.63867v-0.0098c-0.0025-0.0775-0.04109-0.72094-0.77734-1.2422 0 0 1.2147-0.28414 1.7734-1.4629l-1.4375-0.58398 1.5195-0.5918s-0.05875-0.73688-1.4688-1.4219c0 0 0.86961-0.52984 1.0684-1.2461l-1.9375-0.60742 1.8164-0.72266s-0.28711-0.74133-1.7246-1.2051c0 0 0.6857-0.60008 0.8457-1.1113l-1.7188-0.42578 1.5996-0.86914s-0.0068-0.0357-0.0293-0.0957c-0.0038-0.0075-0.0053-0.01398-0.0078-0.02148-0.0025-0.0037-0.0053-0.0087-0.0078-0.01367-0.16078-0.37625-0.88902-1.4454-3.9863-1.4219zm69.135 11.773c2.15 8.37 0.66398 14.276-1.0098 17.809 0.0063-0.01 0.01344-0.01859 0.02344-0.02734 0.14375-0.19125 0.28578-0.37781 0.42578-0.57031 0.01875-0.0275 0.04055-0.05383 0.06055-0.08008 0.0425-0.05875 0.08109-0.11969 0.12109-0.17969 2.1712-3.95 2.8761-7.9475 2.9336-11.344-1.1338-3.4488-2.5547-5.6074-2.5547-5.6074zm-3.3281 12.381c-0.8025 4.6412-3.3095 8.5072-6.0508 11.492 2.09-3.4312 1.6562-6.168 1.6562-6.168-3.3988 5.09-2.7412 7.2691-6.2812 8.6504l0.66016-2.4375c-1.9188 2.465-2.3188 5.1262-7.0801 6.6074-0.01625-0.08 0.01125-0.16023 0.03125-0.30273 0.08625-0.6475 0.15242-1.2987 0.20117-1.9512 0.05125-0.6725 0.08836-1.3458 0.09961-2.0195 0 0-4.0504 8.2723-18.807 8.9961-0.72-0.07125-1.6716-0.1607-2.1816-0.75195-0.53625-0.62125-0.39164-1.567 0.19336-2.0957-1.03-0.055-2.1761-0.39844-2.9648-1.0859-0.2825-0.24625-0.54445-0.57875-0.56445-0.96875-0.03-0.52875 0.04438-1.0543 0.51563-1.373-0.75-0.25375-1.7994-0.75672-2.0156-1.6055-0.225-0.87875 0.82539-1.4975 1.4941-1.7812-0.62875-0.35125-1.0859-1.1759-0.80469-1.8984 0.31-0.8 1.3426-1.1905 2.1113-1.3555-0.5275-0.39375-0.66875-1.283-0.40625-1.873 0.2875-0.645 0.99719-1.007 1.6484-1.1758-0.0925-0.0325-0.18289-0.06711-0.27539-0.09961-0.09-0.0325-0.17352-0.03961-0.25977-0.03711-0.09125 0.0037-0.18727 0.02-0.29102 0.03125-0.0012 0.0012-0.0027 0-0.0039 0-0.47125 0.055-0.93859 0.12906-1.4023 0.22656-0.50625 0.10375-1.0108 0.24-1.4883 0.4375-0.22375 0.09375-0.44023 0.19797-0.64648 0.32422-0.09125 0.055-0.35625 0.32688-0.4375 0.32812l-0.0039 0.002c-0.0225 0.025-0.21414 0.25461-0.30664 0.41211-0.035 0.0625-0.05422 0.10961-0.04297 0.13086 0.0025 0.005-0.0011 0.01047 0.0039 0.01172v0.002c0.17875 0.0625 0.3557 0.1257 0.5332 0.18945 0.4375 0.15625 0.87766 0.3125 1.3164 0.46875l-2.0332 0.52734c-0.0025 0.075 0.0044 0.14891 0.01563 0.22266 0.005 0.03125 0.01133 0.06055 0.01758 0.0918 0.01 0.03875 0.01875 0.08039 0.03125 0.11914 0.01625 0.05375 0.03609 0.1057 0.05859 0.1582 0.0125 0.035 0.02477 0.06906 0.04102 0.10156 0.015 0.03 0.02992 0.05844 0.04492 0.08594 0.035 0.06375 0.07203 0.12609 0.11328 0.18359-0.31375 0.095-0.63664 0.24024-0.93164 0.42774-0.0075 0.005-0.01398 0.0094-0.02148 0.01563-0.07625 0.0475-0.14945 0.1032-0.2207 0.1582-0.3225 0.25125-0.59 0.5668-0.75 0.93555-0.03375 0.07625-0.07 0.15117-0.09375 0.23242l1.807 0.69-1.545 0.632c0.02875 0.065 0.06477 0.12891 0.10352 0.19141 0.0125 0.02125 0.02602 0.04125 0.04102 0.0625 0.02375 0.03625 0.05062 0.07047 0.07813 0.10547 0.02 0.02625 0.04195 0.04977 0.06445 0.07227 0.03625 0.04 0.07523 0.07828 0.11524 0.11328 0.0175 0.01375 0.03594 0.02797 0.05469 0.04297 0.05375 0.04 0.10922 0.07742 0.16797 0.10742-0.51625 0.2925-1.2925 0.80875-1.4062 1.4688-0.0037 0.0275-0.01117 0.05383-0.01367 0.08008l2.0039 0.65234-1.4355 0.62891-0.10742 0.04297c0.08 0.065 0.16625 0.12094 0.25 0.17969 0.01875 0.0125 0.03664 0.02852 0.05664 0.04102 0.3825 0.2625 0.8007 0.48289 1.2207 0.68164 0.075 0.035 0.14891 0.07242 0.22266 0.10742-0.04875 0.045-0.09352 0.09469-0.13477 0.14844-0.0037 0.005-0.0067 0.01133-0.01172 0.01758-0.12125 0.16125-0.2057 0.34797-0.25195 0.54297 0 0.0025 0.0012 0.0053 0 0.0078-0.0125 0.0575-0.02305 0.11773-0.0293 0.17773-0.0025 0.02625-0.0046 0.05258-0.0059 0.08008-0.0025 0.01875-0.0039 0.04266-0.0039 0.06641-0.0025 0.055 0.000156 0.10976 0.0039 0.16602 0.0012 0.01125 0.000703 0.02195 0.002 0.0332 0.0037 0.04375 0.0081 0.08641 0.01563 0.12891 0.01 0.05625 0.01695 0.11422 0.0332 0.16797l2.1094 0.46094-1.3477 0.67383c0.0975 0.08 0.19898 0.15531 0.30273 0.22656 0.055 0.0375 0.11367 0.07242 0.16992 0.10742 0.04375 0.0275 0.08711 0.05242 0.13086 0.07617 0.70625 0.40625 1.5316 0.63305 2.3379 0.68555 0.12375 0.01 0.24984 0.01563 0.37109 0.01563-0.02875 0.03375-0.05648 0.06781-0.08398 0.10156-0.0175 0.02-0.03383 0.03859-0.04883 0.05859-0.02625 0.0325-0.05047 0.06516-0.07422 0.09766-0.015 0.0175-0.02922 0.03594-0.04297 0.05469-0.25625 0.34625-0.42508 0.67414-0.45508 0.93164-0.0037 0.02625-0.0098 0.05438-0.0098 0.07813l1.9961 0.09766-1.1973 1.0996c2.3862 0.76375 4.896 0.88922 7.3848 0.66797 5.2588-0.4675 10.31-2.4549 14.887-5.0137l0.27539-0.15625c4.2338-0.98375 7.3599-2.237 9.7012-3.5645 6.18-3.5062 6.8665-7.5368 7.8965-8.5605 0.69125-3.73-0.02148-8.166-0.02148-8.166z" transform="matrix(.8 0 0 -.8 444.35 394.32)" stroke="#5e3920" stroke-width="0.3" fill="#5e3920"/><path d="m28.645 0-14.703 13.604v23.736s-12.774 7.0317-13.941 15.543l1.4355-0.30078s-1.8575 3.991 0 6.9473c1.8588 2.9562 1.6029 1.876 3.2129 4.8848 2.0275 3.7913 7.7715 6.5781 7.7715 6.5781v7.7168l15.209 14.955 13.002 0.0078s-0.09031 0.31008 0.17969 1.1113c-0.85875 0.05875-2.1534 0.07391-2.9434-0.24609l-0.12109 0.27734s1.6662 1.3297 4.4375 1.6797c0.5375 0.57125 1.3005 1.1377 2.3867 1.6289 0 0 0.04555 0.17367 0.1543 0.45117-0.8575 0.05125-2.0977 0.0593-2.8652-0.25195l-0.11719 0.27734s1.6394 1.3866 4.0469 1.6016c8.6525 6.2375 25.508-3.6016 25.508-3.6016s30.874-5.6213 24.629-34.486l2.0625 0.69141s-5.3596-16.879-21.1-24.189c0 0 0.81711-2.0597-0.93164-4.6484 0 0 2.1148-0.92734 2.791-2.2148h7.0977v-17.979l-14.7-13.773h-42.5zm0.89258 2.1816h40.76l13.373 12.482v14.568h-4.6211c0.05625-0.23125 0.11523-0.80859 0.11523-0.80859s0.16-4.2602-3.875-6.0664c-3.8388-1.7162-6.8919 1.4939-7.2969 2.2852 0 0-2.0252-1.7657-5.2852-1.627 0 0-0.66445-0.48719-1.252-0.89844v0.0098c-0.3625-0.26-0.85938-0.48633-0.85938-0.48633v-4.0898h-17.281c-0.57-0.515-1.3066-0.78125-1.3066-0.78125h0.05469s-5.4706-1.6378-8.4219 3.9609c-2.8038 5.3175 1.5006 9.3407 1.9531 9.627 0 0-4.4873 5.202-2.7148 12.877l0.91992-0.30664s0.05711 1.3876-0.08789 3.1738c-0.14625 1.7888 0.72094 5.4217 4.3359 7.7305l0.15625-0.38672v-0.43555s0.36539 0.37688 0.65039 0.67188c0.015 0.01125 0.03117 0.02656 0.04492 0.03906v0.0059c0.05625 0.05875 0.10859 0.11391 0.15234 0.16016v18.807h21.57v-7.916h14.076s0.18133 0.3225 0.29883 0.8125c0 0 4.0121 9.5923-5.4629 13.621l0.01367-0.9375s-3.0184 1.6598-6.2559 2.2285c0 0-20.152-3.7948-21.443 2.1602 0 0-0.80297 0.08836-2.7617-0.77539l-0.18164 0.24414s0.02766 1.3625 2.6914 2.0938c0 0-1.2714 0.94859-1.5352 2.6211 0 0-2.004 0.03484-3.1152-0.75391l-0.17969 0.24219s0.73867 1.4767 3.0762 2.2305c0 0-0.43328 0.80836-0.48828 1.7246-0.8375 0.03875-1.9355 0.01758-2.6367-0.26367l-0.11914 0.27734s0.03391 0.02672 0.09766 0.07422c0.19875 0.14125 0.69234 0.46883 1.4336 0.79883l-9.5137 0.0039-14.006-13.811v-0.61328-5.1016s0.53211 0.06555 0.84961 0.06055v0.0957c2.4138 0.38 9.2957 1.0063 11.346-3.7012 0 0 2.458-0.09898 3.5742-1.1465l-0.07617-0.27344s-1.2797 0.39867-3.2422-0.08008c0 0 1.3794-1.115 1.5469-2.5312 0 0 2.177-0.13648 3.2207-1.1152l-0.07617-0.27344s-1.5664 0.35219-3.1914-0.07031c0 0 0.78375-1.1276 0.875-2.2988 0 0 2.3053-0.25492 3.1328-1.2012l-0.08398-0.26953s-1.0623 0.30422-3.0586 0.04297c0 0-0.16148-0.83953-0.52148-1.1758 0 0 0.455-1.0901 0.375-1.6426 0 0 2.6987-0.80672 3.3574-2.3242l-0.16602-0.23438s-0.74977 0.68852-3.666 0.94727c0 0-0.2625-0.64938-0.6875-0.95312 0 0 0.17297-0.78938 0.16797-1.1719 0 0 2.3527-0.94188 2.8789-2.1406l-0.166-0.234s-1.2681 0.84852-3.1094 0.91602c0 0-0.92336-4.2506-10.943-1.7031v-0.04492s-0.58133 0.13024-0.76758 0.17774v-34.656l13.361-12.471zm10.89 16.601c2.9112 0 5.3166 2.1719 5.6816 4.9844l0.18945-0.08789s2.2316-1.6655 7.0391-1.5742l-0.31641-0.45703s8.6228-0.31805 12.195 6.7832c0 0 0.13656-1.5304-1.0234-3.2129 1.1512 0.13375 3.9945 0.76055 6.5645 3.623 0.7225 0.805 1.4236 1.7874 2.0586 2.9824 0 0 0.7225 1.5993 0.875 2.1543 0 0 0.47414 1.3277 0.83789 2.0039 0.44875 0.83375 0.33891 2.3862 0.03516 3.4062 0 0-0.72297 2.1581-0.48047 3.3281 0.24125 1.1688-0.57562 3.4188-1.3906 4.375 0 0-2.5077 3.4633-2.8965 5.0195l-0.33398-0.77148s-0.80453 1.1273-1.707 3.041c-0.9025 1.9175-2.2178 4.2673-4.9141 5.4648 0 0 0.36867-1.2211 0.41992-1.8398 0 0-0.37774 1.1298-1.8027 2.4473 0 0-0.76391 0.85031-3.0352 0.57031-2.27-0.27875-4.1914-1.3555-4.1914-1.3555s-0.97375-0.38656-1.125-2.0078c0 0-0.10961-2.7498-0.94336-3.7285 0 0 0.07961 2.609-0.46289 4.3965 0 0-0.9082-1.3597-2.9082-1.8047-2.0012-0.44-4.4781-1.2518-5.8281-3.248 0 0-0.69852 0.98766-0.79102 1.4102 0 0-1.0355-1.54-2.1992-2.375-1.1638-0.83375-2.0371-3.2773-2.0371-3.2773s-0.60672 0.89898-0.79297 1.4902c0 0-1.7213-1.5225-1.4863-5.375 0.2325-3.85 0.2325-4.9799 0-5.7637 0 0-0.79289 0.53062-1.2129 0.92188 0 0-0.97211-4.7795 4.3379-10.613 0 0-0.03781 0.06133-0.10156 0.17383 0.31375-0.3575 0.64976-0.71758 1.0098-1.0801 0 0-0.85719 0.28945-1.7422 0.9082-1.92-0.925-3.25-2.9054-3.25-5.1816 0-3.1638 2.5648-5.7305 5.7285-5.7305zm5.4941 0.86914h12.129 0.44336v0.44141 0.89062c-3.4788-1.2462-7.0371-0.83008-7.0371-0.83008l0.24219 0.59375c-1.43-0.105-4.1602 0.42383-4.1602 0.42383-0.39625-0.79125-1.6172-1.5195-1.6172-1.5195zm-5.9941 0.56641c-1.4385-0.05249-2.6523 0.46484-2.6523 0.46484s0.94555 0.21016 1.2168 0.50391c0 0-2.2023 1.1383-2.041 3.707 0.16 2.5675 1.6914 3.377 1.6914 3.377s1.1453-1.0419 2.9766-1.9531c0 0-0.54148 1.0285-0.64648 1.4473 0 0 2.7479-2.0916 4.2754-3.0703l-0.4375 0.11914s0.40008-1.8454-1.7637-3.6504c-0.81234-0.67688-1.756-0.91382-2.6191-0.94531zm33.355 3.8164c2.2925 0 4.1484 1.8552 4.1484 4.1465 0 1.8538-1.1975 3.4654-2.875 3.9941-0.215-0.57625-0.65625-1.4219-0.65625-1.4219 2.93-1.6338 1.9453-3.8184 1.9453-3.8184h0.55469c-3.0975-3.41-5.4746-0.07227-5.4746-0.07227l-1.1738-0.85156c0.7275-1.1862 2.04-1.9766 3.5312-1.9766zm-20.908 7.159c0.34875 0.215 0.67469 0.41703 0.99219 0.61328-0.8525-0.04-1.6465 0.16016-1.6465 0.16016s1.3473 0.21594 2.1035 0.67969c-0.215 0.28375-0.36094 0.62852-0.39844 1.0098-0.1125 1.1012 0.69297 2.0827 1.793 2.1914 0.8775 0.08875 1.6797-0.40812 2.0234-1.1719 0.54 0.58375 0.98242 1.168 0.98242 1.168-1.022-5.122-5.85-4.65-5.85-4.65zm2.3828 1.9961c0.16875 0.1025 0.36227 0.22555 0.57227 0.37305-0.12 0.1125-0.18398 0.28203-0.14648 0.45703 0.055 0.2625 0.31438 0.43055 0.57812 0.37305 0.1475-0.0325 0.26438-0.13281 0.32812-0.25781 0.17 0.1375 0.34344 0.28742 0.52344 0.45117-0.16375 0.23125-0.41023 0.4057-0.70898 0.4707-0.62875 0.13625-1.2537-0.26578-1.3887-0.89453-0.075-0.36 0.03219-0.70766 0.24219-0.97266zm15.789 2.1074c-0.86453-0.06172-1.9738 0.12461-2.9531 1.1152l-1.2129 0.94727s0.82477 0.06523 1.0723 0.67773l0.1582 0.43359s-0.77172-0.11742-1.2305 0.08008c0 0 1.2989 0.32586 1.7227 1.2559l0.1543 0.4668s-1.0165 0.105-2.334-0.5625c-1.3175-0.66875-2.826-1.1352-4.2285 0.35352 0 0-0.54742 0.65539-0.66992 1.4941 0 0-0.03664 0.32828 0.47461 0.86328l0.26367 0.25s0.66758 0.70742 1.8613-0.26758c0 0 0.15297-0.11492 0.26172-0.26367 0.1475-0.20125 0.47594-0.47445 0.92969-0.31445 0.45875 0.165 0.78977 0.66945 0.22852 1.4082 0 0-0.26242 0.56352-1.4199 0.88477 0 0 0.45617 0.66828 1.5449 1.4258 0 0 1.1565-0.50242 1.7715-0.63867 0 0-0.68125-0.72578-0.3125-1.4883 0 0 0.27609-1.0101 0.99609-0.92383 0.72 0.0875 0.42383 0.96875 0.42383 0.96875s-0.40492 0.92703 0.17383 1.0195c0 0 0.51195 0.07937 1.002-0.23438 0 0 0.51016 1.3362-1.4023 3.9512 0 0-0.79188 1.0775-0.70312 1.5625l1.791-1.75s2.3876-2.2899 1.0176-5.0449c0 0 0.65234-1.559-0.47266-2.3652l-0.233-2.046-0.102-0.186c0.85 0.21375 1.7166-0.28727 1.9453-1.1348 0.09375-0.345 0.06852-0.69-0.05273-1 0.29375-0.01125 0.60711 0.01828 0.84961 0.05078 0.005 0.0012 0.0087 0.002 0.01367 0.002 0.23375 0.03125 0.39844 0.06445 0.39844 0.06445s-0.46305-0.31617-1.0293-0.51367c0.26375-0.0625 0.52711-0.12117 0.78711-0.16992 0 0-0.61984-0.30938-1.4844-0.37109zm-7.8418 0.39648c-1.1392-0.06451-2.166 0.65625-2.166 0.65625l0.13477 0.22852c0.32-0.0775 1.0491-0.21008 2.0566-0.14258 1.005 0.06875 2.2617 0.84766 2.2617 0.84766l0.26953-0.11719-1.4141-1.0918c-0.37094-0.25156-0.76283-0.35936-1.1426-0.38086zm7.2344 0.79102c0.07 0.205 0.04937 0.43852-0.07813 0.63477-0.225 0.345-0.68609 0.4418-1.0273 0.2168-0.1625-0.105-0.2707-0.26641-0.31445-0.44141 0.1425-0.055 0.27836-0.10664 0.41211-0.15039 0.01 0.09 0.05742 0.17602 0.13867 0.22852 0.1425 0.0925 0.33469 0.05391 0.42969-0.08984 0.06-0.0975 0.06063-0.21234 0.01563-0.30859 0.1625-0.04 0.30133-0.06734 0.42383-0.08984zm-12.029 0.88672s-1.2433 0.58688-3.8945 1.2656c0 0 0.10328 0.12844 0.61328 0.24219 0.05 0.01125 0.10461 0.02195 0.16211 0.0332 0.0075 0.0012 0.01469 0.0027 0.02344 0.0039 0.0525 0.0087 0.10992 0.01734 0.16992 0.02734 0.01125 0.0025 0.02266 0.0046 0.03516 0.0059 0.06 0.0087 0.12531 0.01789 0.19531 0.02539 0.01125 0.0012 0.02125 0.0039 0.03125 0.0039 0.08125 0.01 0.16726 0.01859 0.25976 0.02734 0 0-0.24891 0.39367-1.4102 1.1699-1.16 0.775-3.4824 2.9816-3.4824 4.9453 0 0 0.62094-0.44648 0.99219-0.61524 0 0-1.0338 3.0821 0.04492 5.1621 0 0 0.0025-0.05356 0.0098-0.13477 0.065-0.7775 0.51109-4.7562 2.9336-7.375 0 0-1.1614 0.31477-1.4102 0.47852 0 0 0.54055-0.78961 2.4043-2.2871 2.5725-2.0625 2.3223-2.9785 2.3223-2.9785zm5.709 0c-0.72894-0.03833-1.2559 0.37109-1.2559 0.37109l0.15625 0.22461c0.92875-0.2925 2.2891 0.25586 2.2891 0.25586l0.27148-0.11523c-0.51328-0.52969-1.0236-0.71333-1.4609-0.73633zm-49.84 2.3848v1.0898c-2.6575 2.85-5.3086 6.9004-5.3086 6.9004 2.365-2.2212 5.3809-4.293 5.3809-4.293v1.0078 2.6719 0.91992 0.8418 1.1367c-1.664 0.91-4.5815 3.138-4.5815 3.138 14.108-5.049 16.19-2.172 16.474-1.498 0.0025 0.0038 0.0053 0.008 0.0078 0.01172l0.0059 0.02344c0.02375 0.06 0.03125 0.0957 0.03125 0.0957l-1.5996 0.86719 1.7188 0.42773c-0.16 0.51-0.8457 1.1113-0.8457 1.1113 1.4375 0.46375 1.7246 1.207 1.7246 1.207l-1.8164 0.7207 1.9375 0.60742c-0.19875 0.71625-1.0684 1.2461-1.0684 1.2461 1.41 0.685 1.4688 1.4219 1.4688 1.4219l-1.5195 0.5918 1.4375 0.58398c-0.55875 1.1787-1.7734 1.4609-1.7734 1.4609 0.73625 0.5225 0.77484 1.1659 0.77734 1.2422v0.01172l-1.541 0.63867 1.2988 0.45508c-0.52125 0.9725-2.0625 1.3945-2.0625 1.3945 0.61625 0.59875 0.62109 1.2539 0.62109 1.2539l-1.5449 0.66016 1.1289 0.38672c-1.115 1.4938-3.8715 1.7171-5.334 1.7246-0.50875 0.005-0.85789-0.01969-0.93164-0.02344-0.0088-0.0012-0.01367-0.002-0.01367-0.002-7.9042-0.526-11.688-7.226-11.688-7.226-0.385-0.89-1.4611-2.2474-1.8086-2.4512-0.34875-0.2025-1.1289-1.3066-1.1289-1.3066-1.6988-3.7725 2.2422-9.1602 2.2422-9.1602l-2.3828 0.544c2.6225-5.189 10.693-10.432 10.693-10.432zm50.344 0.18359c0.40576 0.01355 0.92195 0.13359 1.5332 0.48047 1.4025 0.7925 2.584 0.70117 2.584 0.70117s0.90984-0.08086 1.0273 0.61914c0 0-0.65672-0.22469-1.8555-0.21094-1.1975 0.015-2.1953-0.75-2.1953-0.75s-0.40312-0.43609-2.1406-0.58984c0 0 0.3706-0.27258 1.0469-0.25zm13.309 1.0039s5.8952 2.5377 12.066 10.566c0 0 3.4023 4.5361 4.8848 7.8086l-1.9922-0.60742-0.29102-0.08789s10.699 21.46-12.41 32.506c-2.34 1.3275-5.4674 2.5807-9.7012 3.5645l-0.27539 0.15625c-4.5762 2.5575-9.628 4.5462-14.887 5.0137-2.4888 0.2225-4.9966 0.09578-7.3828-0.66797l1.1973-1.0996-1.998-0.09766s-0.000937-0.02813 0.0078-0.07813c0.03125-0.25625 0.20148-0.58539 0.45898-0.93164 0.0125-0.01875 0.02727-0.03914 0.04102-0.05664 0.02375-0.0325 0.04797-0.0632 0.07422-0.0957 0.01625-0.02 0.03258-0.04055 0.04883-0.06055 0.0275-0.03375 0.05328-0.06586 0.08203-0.09961-0.0025 0-0.14234 0.0031-0.37109-0.01563-0.80625-0.0525-1.6309-0.2793-2.3359-0.68555-0.045-0.02375-0.08906-0.04867-0.13281-0.07617-0.05625-0.035-0.11297-0.07188-0.16797-0.10938-0.1025-0.07-0.20594-0.14336-0.30469-0.22461l1.3496-0.67383-2.1094-0.46094s-0.0182-0.06422-0.0332-0.16797c-0.0075-0.0425-0.01313-0.08516-0.01563-0.12891l-0.0039-0.0332c-0.0025-0.055-0.0032-0.11297-0.002-0.16797 0.0012-0.0225 0.000703-0.0432 0.002-0.06445 0.0025-0.0275 0.0053-0.05383 0.0078-0.08008 0.0063-0.0575 0.01484-0.11773 0.02734-0.17773 0.0012-0.0025 0.0027-0.0066 0.0039-0.0078 0.04-0.18 0.115-0.36992 0.25-0.54492 0.0037-0.0062 0.008-0.01063 0.01172-0.01563 0.04-0.0525 0.08352-0.10219 0.13477-0.14844 0 0-0.08641-0.03992-0.22266-0.10742-0.42-0.19875-0.8382-0.42109-1.2207-0.68359-0.02046-0.01324-0.03933-0.02582-0.05859-0.03906l-0.002-0.002c-0.08183-0.05818-0.1661-0.11456-0.24414-0.17774l0.10547-0.04492 1.4375-0.62695-2.0039-0.65234s0.000469-0.02953 0.01172-0.08203c0.11375-0.66 0.89-1.1743 1.4062-1.4668 0 0-0.07172-0.03562-0.16797-0.10938-0.02-0.01375-0.03719-0.02852-0.05469-0.04102-0.03625-0.0325-0.07523-0.06953-0.11524-0.11328-0.02125-0.0225-0.0425-0.04602-0.0625-0.07227-0.02625-0.0325-0.05383-0.06797-0.08008-0.10547-0.01375-0.02-0.02851-0.04125-0.04102-0.0625-0.036-0.058-0.071-0.119-0.103-0.191l1.5449-0.63281-1.8086-0.68945s0.02555-0.09313 0.0918-0.23438c0.16125-0.36875 0.42945-0.68234 0.75195-0.93359 0.0675-0.055 0.1407-0.10695 0.2207-0.1582 0.0063-0.0062 0.01523-0.01063 0.02148-0.01563 0.2525-0.165 0.55789-0.31524 0.93164-0.42774 0 0-0.05078-0.06984-0.11328-0.18359-0.01625-0.0275-0.02922-0.05719-0.04297-0.08594-0.015-0.0325-0.02922-0.06781-0.04297-0.10156-0.0225-0.05375-0.04164-0.1057-0.05664-0.1582-0.0125-0.03875-0.0225-0.07789-0.03125-0.11914-0.0075-0.03125-0.01383-0.05984-0.01758-0.08984-0.0125-0.0725-0.02008-0.14711-0.01758-0.22461l2.0312-0.52734c-0.43875-0.15625-0.8757-0.3125-1.3145-0.46875-0.1775-0.06375-0.35445-0.12695-0.5332-0.18945v-0.002l-0.0059-0.002v-0.0098c-0.01-0.02125 0.0087-0.06836 0.04492-0.13086 0.045-0.1 0.13359-0.24336 0.30859-0.41211l0.002-0.002c0.46375-0.4425 1.5309-1.0327 3.9746-1.3164h0.0059c0.10375-0.0125 0.19656-0.0275 0.28906-0.03125 1.3075-0.1325 2.983-0.17867 5.1367-0.07617 6.7938 0.31625 9.7617 1.6582 9.7617 1.6582s4.0707-1.1297 4.6895-1.5234l-0.14844 0.85742s16.311-3.5408 7.8613-21.395c-0.0062-0.03-0.01203-0.05789-0.01953-0.08789-0.75875 0.78-2.0303 1.85-3.7578 2.4688 0 0 0.93414-1.5257 1.0254-2.5957 0 0-1.5312 2.1097-5.8887 3.0547 0 0 0.735-1.6261 0.9375-2.3711 0 0-7.5498 5.9351-17.496 1.6426 2.7625 2.5975 7.8909 3.8218 8.2559 3.9043l-0.0332 0.01563c-0.1875 0.0875-1.5235 0.75312-5.0098 0.57812 0 0 1.9052 1.4046 4.6152 1.6934v1.5137h-17.176v-13.764c0.14625 0.35625 1 0.70898 1 0.70898l0.17969-1.1855c0.285 0.24125 1.5117 1.4439 3.5117 1.7227 3.7975 0.5325 5.3496 3.4902 5.3496 3.4902v-1.207s5.5448 4.7491 11.277 1.6641c2.6638-1.24 5.2366-3.1983 6.5879-6.3945l0.75 1.2246s0.85641-3.3522 2.5664-5.8672c1.5862-2.3325 3.0012-4.0519 3.4824-6.2344 0 0 3.9154 1.9492 7.2441 4.8555 0 0-3.0362-4.365-6.125-6.6562 0 0 3.0923 1.4607 4.8223 3.002 0 0-2.1694-2.9706-4.4531-4.9219zm-19.355 4.9375c-6.3838-0.22-5.2656 3.8184-5.2656 3.8184s0.47344-1.2238 0.89844-1.4375c0 0 0.85664 2.9192 0.77539 6.1367-0.08375 3.215 0.10641 4.0285 2.1602 4.5098 0 0-0.78594-0.65984-0.86719-1.1836 0 0 1.2509 0.93891 4.0059 1.1289 2.7562 0.1925 3.4668-1.5938 3.4668-1.5938s0.74391-1.9335 0.94141-2.7598c0.19625-0.8275 0.30906-2.3202 1.5078-3.9727 1.2-1.6488 1.2578-1.9375 1.2578-1.9375-0.135-0.22875-1.0391-0.94141-1.0391-0.94141-1.1025-0.8125-1.0391-1.5254-1.0391-1.5254-1.0012 0.7775-3.5721 0.34188-4.3184 0.14062-0.74625-0.2025-2.4844-0.38281-2.4844-0.38281zm0.04687 0.83203s4.5345 1.0332 6.0957 0.4707c0 0 0.49461 0.56078 1.0371 0.83203 0.54 0.26875 0.77078 0.71742 0.39453 1.3887 0 0-0.31195 0.74531-1.002 1.2578 0 0-0.3125 0.34812-0.3125-0.10938 0 0 0.23047-1.1983 0.26172-1.5508 0 0 0.05008-0.30766-0.23242-0.06641 0 0-0.19516 0.26547-0.44141 0.19922l-0.21094-0.07031s-0.18242-0.02234-0.23242-0.37109c0 0 0.06453-0.24648-0.23047-0.05273 0 0-0.16266 0.26422-0.44141 0.23047l-0.29688-0.08008s-0.16727-0.02375-0.19727-0.375c0 0 0.000078-0.22953-0.26367-0.05078 0 0-0.16578 0.25047-0.36328 0.19922l-0.31055-0.08203s-0.19719-0.07195-0.21094-0.3457c-0.01875-0.2725-0.19766-0.14188-0.31641-0.07813 0 0-0.1457 0.22109-0.37695 0.18359l-0.2793-0.06641s-0.21039-0.09805-0.24414-0.3418l-0.03516-0.18164s-0.04898-0.44312-0.45898 0.04687c0 0-0.54172 0.72266-0.82422 1.1289 0 0-0.50734 0.67781-0.58984 0.03906 0 0-0.18297-0.96805 0.08203-2.1543zm-1.75 6.5137c0.15504-0.03375 0.18555 0.32031 0.18555 0.32031l0.112 0.642c0.075 0.595 0.2832 1.1582 0.2832 1.1582 0.1375 0.3 0.33008 0.06055 0.33008 0.06055 0.155-0.23625 0.33594-0.2207 0.33594-0.2207l0.41992 0.10742c0.25125 0.075 0.2168 0.27148 0.2168 0.27148 0.03 0.2675 0.19531 0.10352 0.19531 0.10352l0.07813-0.08984c0.1275-0.15 0.28711-0.10742 0.28711-0.10742l0.39648 0.10547c0.1825 0.06875 0.14648 0.25195 0.14648 0.25195 0.07 0.23875 0.22461 0.08789 0.22461 0.08789l0.07617-0.0625c0.11625-0.1275 0.28711-0.09766 0.28711-0.09766l0.31641 0.08594c0.1725 0.08 0.16211 0.27539 0.16211 0.27539 0.055 0.20375 0.22266-0.03516 0.22266-0.03516 0.11375-0.15 0.3125-0.04687 0.3125-0.04687l0.25 0.08789c0.185 0.06625 0.14844 0.25 0.14844 0.25-0.0087 0.22 0.22266 0.10156 0.22266 0.10156 0.36-0.34125 1.1523-1.4316 1.1523-1.4316 0.39625-0.49125 0.31641 0.09766 0.31641 0.09766-0.27375 1.46-1.0059 2.2539-1.0059 2.2539-0.30375 0.425-0.62891 0.3125-0.62891 0.3125-0.27-0.04125-0.27539-0.44726-0.27539-0.44726-0.2525 0.22-0.50977 0.14258-0.50977 0.14258-0.2775-0.08375-0.32031-0.40625-0.32031-0.40625-0.19125 0.2625-0.55859 0.19922-0.55859 0.19922-0.42-0.11-0.46875-0.51172-0.46875-0.51172-0.29375 0.375-0.64648 0.27734-0.64648 0.27734-0.47125-0.155-0.45703-0.54102-0.45703-0.54102-0.41375 0.42875-0.81836 0.30859-0.81836 0.30859-0.38375-0.09875-0.41992-0.45508-0.41992-0.45508-0.19125 0.34875-0.69336 0.33984-0.69336 0.33984-0.4425 0.0175-0.62305-0.45117-0.62305-0.45117-0.3375-1.585 0.54688-2.7461 0.54688-2.7461 0.08313-0.125 0.14754-0.1782 0.19922-0.18945z" transform="matrix(.8 0 0 -.8 444.35 394.32)"/><path d="m29.537 2.1816-13.361 12.473v34.656c0.1875-0.04875 0.76758-0.17774 0.76758-0.17774v-34.115l12.898-12.033h40.164l12.863 12.111v13.328h-3.7051s-0.05898 0.57734-0.11523 0.80859h4.6211v-14.568l-13.373-12.482h-40.76zm12.471 14.588s0.73469 0.2675 1.3047 0.78125h17.285v4.0879s0.49617 0.22828 0.85742 0.48828v-0.0098-5.3477h-0.54688-18.846-0.05469zm12.75 16.42c-0.21 0.265-0.31719 0.61461-0.24219 0.97461 0.13625 0.62875 0.75992 1.0276 1.3887 0.89258 0.29875-0.065 0.54523-0.2375 0.70898-0.46875-0.18-0.16375-0.35344-0.31492-0.52344-0.45117-0.06375 0.125-0.18062 0.22336-0.32812 0.25586-0.26375 0.0575-0.52312-0.11055-0.57812-0.37305-0.0375-0.175 0.02648-0.34453 0.14648-0.45703-0.21-0.1475-0.40352-0.2718-0.57227-0.37305zm15.182 3.2949c-0.1225 0.0225-0.26133 0.05055-0.42383 0.0918 0.045 0.095 0.04438 0.21039-0.01563 0.30664-0.095 0.14375-0.28914 0.18234-0.43164 0.08984-0.08-0.0525-0.12672-0.13852-0.13672-0.22852-0.135 0.045-0.26961 0.09539-0.41211 0.15039 0.045 0.175 0.15 0.33445 0.3125 0.43945 0.3425 0.225 0.8043 0.13016 1.0293-0.21484 0.1275-0.195 0.14938-0.42977 0.07813-0.63477zm-5.8164 3.457c-0.67621-0.02258-1.0469 0.24805-1.0469 0.24805 1.7375 0.1525 2.1406 0.58984 2.1406 0.58984s0.99781 0.76375 2.1953 0.75 1.8555 0.21094 1.8555 0.21094c-0.1175-0.7-1.0273-0.61914-1.0273-0.61914s-1.1815 0.09133-2.584-0.70117c-0.61172-0.34688-1.1275-0.46497-1.5332-0.47852zm-6 6.7715c-0.26375 1.1875-0.08203 2.1562-0.08203 2.1562 0.08125 0.6375 0.58984-0.04102 0.58984-0.04102 0.28125-0.405 0.82227-1.1289 0.82227-1.1289 0.41-0.49 0.46094-0.04883 0.46094-0.04883l0.03516 0.18359c0.03375 0.24375 0.24414 0.3418 0.24414 0.3418l0.2793 0.06445c0.23 0.0375 0.37695-0.17969 0.37695-0.17969 0.11875-0.065 0.29891-0.19633 0.31641 0.07617 0.015 0.27375 0.21094 0.3457 0.21094 0.3457l0.3125 0.08203c0.1975 0.05125 0.36133-0.19922 0.36133-0.19922 0.26375-0.1775 0.26367 0.04883 0.26367 0.04883 0.03125 0.35125 0.19727 0.375 0.19727 0.375l0.29688 0.08203c0.27875 0.03375 0.44336-0.23047 0.44336-0.23047 0.29375-0.195 0.22852 0.05273 0.22852 0.05273 0.04875 0.3475 0.23047 0.37305 0.23047 0.37305l0.21484 0.06641c0.24625 0.0675 0.44141-0.19726 0.44141-0.19726 0.28125-0.24125 0.22852 0.06641 0.22852 0.06641-0.03125 0.35125-0.25976 1.5508-0.25976 1.5508 0 0.45875 0.3125 0.11133 0.3125 0.11133 0.69-0.51375 1.002-1.2598 1.002-1.2598 0.3775-0.67125 0.14547-1.1187-0.39453-1.3887-0.5425-0.27125-1.0371-0.83203-1.0371-0.83203-1.5612 0.5625-6.0957-0.4707-6.0957-0.4707zm-19.92 6.2969v0.43555 20.061h0.69531 22.006 0.54492v-7.916h13.547c-0.1175-0.49-0.29883-0.8125-0.29883-0.8125h-14.076v7.916h-21.57v-18.807c-0.04375-0.04625-0.09609-0.10141-0.15234-0.16016-0.015-0.01375-0.02992-0.02992-0.04492-0.04492-0.285-0.295-0.65039-0.67188-0.65039-0.67188zm18.17 0.21484c-0.05156 0.01113-0.11609 0.06641-0.19922 0.19141 0 0-0.88562 1.1611-0.54688 2.7461 0 0 0.18125 0.46992 0.625 0.45117 0 0 0.50016 0.01016 0.69141-0.33984 0 0 0.03742 0.35508 0.41992 0.45508 0 0 0.40586 0.12141 0.81836-0.30859 0 0-0.01547 0.38727 0.45703 0.54102 0 0 0.35078 0.09641 0.64453-0.27734 0 0 0.04945 0.40047 0.4707 0.51172 0 0 0.36734 0.06398 0.55859-0.19726 0 0 0.04281 0.32055 0.32031 0.4043 0 0 0.25922 0.07813 0.51172-0.14062 0 0 0.0027 0.40281 0.27148 0.44531 0 0 0.32586 0.1118 0.63086-0.31445 0 0 0.73281-0.79391 1.0078-2.2539 0 0 0.07984-0.5857-0.31641-0.0957 0 0-0.79359 1.0891-1.1523 1.4316 0 0-0.23406 0.11844-0.22656-0.10156 0 0 0.03852-0.18375-0.14648-0.25l-0.25-0.08789s-0.19945-0.10117-0.31445 0.04883c0 0-0.16695 0.23625-0.2207 0.03125 0 0 0.0091-0.19344-0.16211-0.27344l-0.31641-0.08594s-0.17086-0.02984-0.28711 0.09766l-0.07617 0.0625s-0.15461 0.15211-0.22461-0.08789c0 0 0.03406-0.18445-0.14844-0.25195l-0.39453-0.10743s-0.16156-0.04133-0.28906 0.10742l-0.07617 0.09375s-0.16602 0.16203-0.19727-0.10547c0 0 0.03516-0.19648-0.21484-0.27148l-0.422-0.107s-0.18219-0.0175-0.33594 0.21875c0 0-0.19188 0.23945-0.32812-0.06055 0 0-0.21016-0.56445-0.28516-1.1582l-0.11523-0.64062s-0.02891-0.35566-0.18359-0.32227zm-41.764 18.432v5.1016 0.61133l14.006 13.811 9.5137-0.002c-0.742-0.334-1.236-0.662-1.435-0.805l-7.757-0.004-13.479-13.291v-5.2695-0.0957c-0.3175 0.0037-0.84961-0.05859-0.84961-0.05859z" transform="matrix(.8 0 0 -.8 444.35 394.32)" fill="#fff"/></g></g></svg>
