<svg xmlns="http://www.w3.org/2000/svg" height="89.396" viewBox="0 0 250 89.396233" width="250"><g transform="matrix(1.25 0 0 -1.25 -140.01 299.14)"><g><path d="m114.11 238.65 6.6303-12.793-8.2614-30.175v-0.80722h22.627l0.92002-1.9119-7.0162-24.23h23.974l113.52 0.26428 6.3683 4.7826 0.008 0.007 0.007 0.0354 5.3587 21.2h20.735l11.895 43.628h-196.77z" fill="#ffd200"/><path d="m8.3105 4.2812l6.2875 12.135-6.7914 25.354-2.7871 10.406-0.0078 0.01 0.0039 0.005v0.004l0.0098-0.004 25.952-0.086 2.574 5.426-7.729 27.221h166.35l6.18-4.414 7.26-28.192 25.74 0.047 12.74-47.912-235.78 0.0002zm8.5705 4.2129h21.422l4.072 5.9179-7.963 28.68-6.689 4.888h-16.338l8.847-33.021-3.351-6.4649zm27.668 0h24.631l-3.108 11.598h-7.109l1.363-5.082h-4.346l-2.568 9.572h9.039l-1.838 6.861h-9.033l-2.742 10.217h4.494l1.385-5.18h7.064l-3.082 11.5h-19.646l8.832-34-3.336-5.4859zm26.025 0h13.127l-8.889 33.166h4.247l1.388-5.18h7.01l-3.082 11.5h-19.346l8.83-32.97-3.285-6.5159zm29.546 0h15.3l-2.97 39.486h-8.05l1.11-11.498h-5.778l-5.011 11.498h-7.696l14.805-32.97-1.71-6.5159zm17.78 0h13.4l-2.96 23.889 9.86-23.889 9.23 0.0001-2.94 23.84 10.46-23.84 7.89 0.0001-17.94 39.486h-9.28l3.21-25.076-10.18 25.076h-9.67l2.26-32.97-3.34-6.5159zm46.96 0h15.3l-2.98 39.486h-8.05l1.11-11.498h-5.77l-5.01 11.498h-7.7l14.81-32.97-1.71-6.5159zm21.13 0h21.32l4.17 5.9179-3.2 10.914-4.07 2.862 2.52 2.912-4.52 16.88h-8.2l3.96-14.761-1.41-1.729h-3.51l-4.42 16.49h-8.18l8.95-33.416-3.41-6.0699zm27.62 0h24.63l-3.11 11.598h-7.11l1.36-5.082h-4.34l-2.57 9.572h9.04l-1.84 6.861h-9.04l-2.73 10.217h4.49l1.39-5.178h7.06l-3.09 11.498h-19.64l8.84-34-3.34-5.4859zm-185.3 6.5159l-7.128 26.601h4.134l1.723-1.234 6.457-24.09-1.055-1.277h-4.131zm169.16 0l-2.55 9.523h3.5l2.32-1.676 1.78-6.615-1.05-1.232h-4zm-90.47 5.033l-4.93 11.4h3.7l1.23-11.4zm64.74 0l-4.94 11.4h3.7l1.24-11.4z" transform="matrix(.8 0 0 -.8 112.01 239.31)" fill="#00539f"/><path d="m56.02 52.205l2.425 3.361-6.521 25.762h14.271l2.276-8.48h-5.17l-1.028 3.818h-3.13l6.556-24.461h-9.679zm17.46 0l2.465 4.805-5.549 20.717 3 3.601h8.083l4.933-3.601 6.873-25.522h-6.008l-6.308 23.557-1.262 0.904h-2.041l-0.773-0.904 6.308-23.557h-9.721zm24.284 0l-1.268 4.805-6.517 24.318h14.491l2.27-8.478h-5.21l-1.02 3.816h-3.311l2.014-7.533h6.667l1.35-5.059h-6.66l1.89-7.064h3.21l-1.01 3.754h5.25l2.29-8.559h-14.436zm24.276 0l2.43 4.77-6.52 24.353h5.97l3.27-12.195h3.86l-3.28 12.195h5.98l7.81-29.123h-5.98l-3.17 11.83h-3.86l3.17-11.83h-9.68zm24.55 0l-1.27 4.805-6.52 24.318h14.49l2.27-8.478h-5.21l-1.02 3.816h-3.31l2.02-7.533h6.66l1.35-5.059h-6.66l1.9-7.064h3.2l-1 3.754h5.24l2.29-8.559h-14.43zm18.76 0l-1.09 4.77-6.52 24.353h5.42l3.97-14.816 1.97 14.816h4.88l7.8-29.123h-5.46l-3.9 14.565-2.04-14.565h-5.03zm23.8 0l-4.55 4.772-2.43 9.062 2.66 3.131h5.86l0.5 0.582-1.61 6.01-1.27 0.904h-2.15l-0.77-0.904 0.78-2.914h-5.97l-1.31 4.879 3.04 3.601h8.11l4.98-3.601 2.81-10.489-2.61-3.164h-5.9l-0.49-0.623 1.46-5.457 1.29-0.982h1.96l0.78 0.908-0.76 2.844h5.97l1.33-4.957-3.05-3.602h-8.66zm-153.89 0.002l2.465 4.805-6.516 24.316h12.016l4.966-3.601 2.311-8.629-1.959-2.33 3.189-2.258 2.33-8.703-3.039-3.6h-15.763zm8.433 4.805h3.059l0.777 0.908-1.406 5.244-1.615 0.873h-2.694l1.879-7.025zm-3.25 12.121h2.701l1.028 1.31-1.432 5.352-1.256 0.873h-3.054l2.013-7.535z" transform="matrix(.8 0 0 -.8 112.01 239.31)" fill="#fff"/></g></g></svg>
