<svg xmlns="http://www.w3.org/2000/svg" width="272" height="295.18" viewBox="0 0 276 299.18">
 <g transform="matrix(1.3333 0 0 -1.3333 -589.51 559.95)">
  <g transform="translate(0 -.81495)">
   <path d="m598.73 266.55c-3.0903-8.4485-9.1627-16.57-16.689-22.748l15.8 43.674c0.14554-0.18786 0.28771-0.37571 0.4231-0.56865 3.2985-4.7168 3.4661-12.135 0.46541-20.358m39.765 40.32c-7.8172 10.647-19.571 17.454-33.748 19.754 8.1236 5.8744 8.8192 13.233 8.8682 14.741 8.2996 4.3563 6.0064 10.999 5.5359 12.133 0.68543 2.0817 1.0256 4.2446 1.0154 6.4278-0.0237 6.4549-3.0836 12.427-8.4028 16.413-1.2101 14.929-13.949 20.207-18.1 21.534-2.3304 3.7098-6.1214 6.1418-6.9981 6.6698-1.4436 9.3387-4.6118 14.072-9.4081 14.072-3.6979 0-7.4568-2.85-10.017-5.3159-2.3118 0.67189-4.8064 1.0138-7.4314 1.0138-0.54157 0-1.0476-0.0152-1.5113-0.0389-3.923 3.2308-7.7208 4.8691-11.29 4.8691-4.8064 0-8.1845-2.9059-10.209-5.414-7.1589-0.0812-10.561-3.5761-12.5-6.2095-0.7582-1.029-1.8887-2.2966-3.3628-3.7707-58.336-11.552-68.942-63.75-70.475-74.102l0.0322-0.0728c-0.15909-0.22171-15.8-22.519 1.1712-70.78-0.95621-1.2236-5.4851-7.8917 0.89867-17.4-0.18617-1.0188-1.3252-6.6275-4.5983-9.271-2.102-1.6975-3.3188-4.7354-3.1039-7.7377 0.2251-3.1293 1.9175-5.8168 4.7692-7.5888 0.0542-1.2845 0.84621-6.7155 10.528-7.6886 0.5128-0.64988 2.6012-2.9092 6.9084-2.9092 2.1561 0 4.5526 0.57711 7.1166 1.7161 0.19801-0.0355 0.59234-0.088 1.1204-0.088 3.0582 0 10.456 1.6958 13.688 17.258 1.3692-0.68881 3.3087-1.3979 5.524-1.3979 1.4182 0 2.7925 0.29448 4.0923 0.87159 0.40617-0.16078 1.425-0.49926 2.9126-0.49926 3.1986 0 8.193 1.5299 13.803 8.8124 8.7396 11.349 15.406 17.572 21.208 22.46l-8.132-22.487h-7.6311l-13.851-35.089h53.252c37.858 0 73.444 25.843 84.617 61.453 5.5393 17.669 3.3087 34.598-6.2907 47.662" fill="#1b4677"/>
   <path d="m553.07 316.82c-16.103 3.5304-27.691-3.2054-27.691-3.2054 8.9681 13.103 21.819 8.7785 34.369 8.7785 12.554 0 18.661 8.9342 18.661 8.9342 1.4335-1.0882 12.309-5.3345 20.812 0.0135 8.4976 5.348 7.6378 12.184 7.6378 12.184-6.2602 4.6355-13.165 2.6909-13.165 2.6909 5.6256 6.7409 14.118 1.6467 17.032 1.9835 2.916 0.33679 6.3736 6.3499-5.7271 6.3499-12.102 0-18.845-4.8843-28.385-15.196-9.5401-10.308-20.077-11.336-27.769-11.336-7.6954 0-12.207 3.0734-12.207 3.0734-14.699-4.5154-19.889-15.022-19.889-15.022 0.41294 12.312 11.843 17.87 15.821 19.436-1.0087 2.9109-0.32833 5.4733-0.32833 5.4733 3.6725-6.4582 11.226-6.6935 11.226-6.6935-5.2126 14.077 3.9399 17.608 3.9399 17.608-4.3596-12.322 3.3984-17.55 8.4891-17.55 5.0942 0 12.214 2.4269 20.504 11.282 8.2877 8.8564 13.602 10.476 13.602 10.476 1.7229 4.4138-0.55849 10.127-0.55849 10.127 8.8632-1.0628 9.8769-7.5617 9.8769-7.5617 5.0485 0.87498 11.045-0.65496 11.045-0.65496 1.0138 2.7688-0.0609 6.8356-0.0609 6.8356 1.5942-0.31818 3.6201-1.8126 3.6201-1.8126-0.0711 3.1648-2.6808 6.3736-2.6808 6.3736-0.97483-1.2761-3.6065-2.2611-3.6065-2.2611-8.9833 0.97482-12.576 5.2397-12.576 5.2397 4.0195 2.2848 10.623 1.5435 10.623 1.5435-5.3125 2.9262-17.247 3.18-27.608-5.6103-10.363-8.7921-9.2744-19.058-9.2744-19.058-5.1991 9.3083 0.14555 16.856 0.14555 16.856-14.497 5.2499-20.739-5.8202-20.739-5.8202 0.98499 10.804 10.154 12.37 14.277 12.527-0.80051 2.3744-0.5568 4.649-0.15232 6.2365-5.1043 1.645-8.9444 1.3404-8.9444 1.3404 4.121 5.0976 11.483 3.9806 20.969-0.61434 9.4877-4.5932 14.187-1.0307 14.524 1.9564 0.34018 2.9888-4.187 6.2416-4.187 6.2416s7.3248 0.24032 11.431-6.2484c0.7362-1.4961 2.3169-2.5877 3.9653-2.5877 2.0309 0 3.3814 1.645 3.0176 3.6776-0.11509 0.65158-0.39603 1.2642-0.78528 1.7923-4.6355 6.592-12.693 7.6226-12.693 7.6226-9.2169 12.889-23.675 5.3582-23.675 5.3582 1.2067 4.2056 5.9505 5.5139 5.9505 5.5139-5.2752 6.0436-14.829 4.556-14.829 4.556-10.869 8.0593-12.309 4.512-13.849 3.0108-1.5384-1.5012-2.278-2.8196-7.1132-3.3831-4.8403-0.56357-5.4259-2.5505-6.1553-3.5016-0.73112-0.95283-1.359-1.9903-3.197-3.5084s-3.6421-3.2054-3.6421-3.2054c-3.395-3.2714-9.3556-8.1557 4.4494-7.3349 13.803 0.81913 20.407 15.326 20.673 15.888 0.2674 0.56188 0.65666 0.42649 0.65666 0.42649 0.39095 0 0.49926-0.51788 0.49926-0.51788-0.75312-15.789-16.256-22.6-26.586-22.6-10.325 0-11.728 6.6173-11.728 6.6173-13.228-24.467 3.3628-38.43 3.3628-38.43-14.448 8.2471-14.511 20.449-13.599 26.155-4.9588-6.4007-7.8646-16.069-7.8646-16.069-1.0053 20.124 15.027 32.339 15.027 32.339s-21.326-5.9234-37.55-30.597-11.805-46.524-11.805-46.524c-2.5945 2.6249-3.8875 7.3518-3.8875 7.3518-11.331-26.666 4.2936-65.869 4.2936-65.869-7.3942-7.2791 0.36725-13.907 0.36725-13.907 0.0863-11.561-7.7919-17.616-7.7919-17.616 0.65158-7.4043 8.2607-3.6184 8.7413-3.3611 0.47895 0.25894 0.71589 0.42141 1.1762 0.0948 0.46203-0.33002 0.0322-0.95622 0.0322-0.95622-1.6992-2.9211-5.0298-4.4443-5.0298-4.4443 5.7847-4.3512 10.935 1.821 10.935 1.821s0.50773 0.67696 0.99176 0.40448c0.48233-0.27248 0.30632-0.78866 0.30632-0.78866-0.29448-2.4388-2.4523-5.6154-2.4523-5.6154 6.7798-0.88344 9.332 5.5951 9.4047 5.7576 0.0762 0.15909 0.19801 0.83774 0.82928 0.83774 0.63466 0 0.66512-0.81743 0.66512-0.81743 0.26402-1.1898-0.1337-3.5304-0.1337-3.5304 3.0683 2.7637 4.9097 7.648 6.0131 12.849-8.347 1.5418-7.3772 9.4623-7.3772 9.4623s-4.4629 4.4206 0.16416 12.075c3.1073 5.1432 6.9524 5.6306 8.7379 5.5393-0.26232 3.9162-1.0611 9.1323-3.224 14.265-4.2903 10.188-4.1786 15.403-4.1786 15.403 0.68204 1.4132 2.8602 2.8026 2.8602 2.8026-8.1913 5.8744-6.1807 15.034-6.1807 15.034 0.18447-3.2545 5.9167-13.07 16.293-11.618 10.371 1.4487 15.558-1.3759 15.558-1.3759-1.1441 0-3.0379 0.84959-12.36-2.5149-4.3986-1.5875-7.3146-1.8414-9.183-1.6721 3.1208-3.8993 10.241-8.7481 18.373-6.3499 10.561 3.1157 10.706-5.6307 19.911-2.5065 3.0413 1.0324 5.5308 2.6808 7.5177 4.4223l-9.9768 6.8086s11.85 16.826 33.021 28.402" fill="#fff"/>
   <path transform="matrix(.75 0 0 -.75 442.14 419.96)" d="m139.3 9.623c-2.5022 0.11198-3.4929 1.768-4.5117 2.7598-2.049 2.0016-3.0352 3.7583-9.4844 4.5098-6.4515 0.75143-7.2325 3.4017-8.2051 4.6699-0.97483 1.2704-1.8111 2.6539-4.2617 4.6758-2.4506 2.0264-4.8555 4.2754-4.8555 4.2754-4.5266 4.3619-12.475 10.871 5.9316 9.7793 18.404-1.0922 27.21-20.436 27.562-21.186 0.35879-0.74917 0.87695-0.56836 0.87695-0.56836 3.0621-4.6056 8.7009-3.0668 10.533-2.4102-7.0698-5.1855-11.084-6.6178-13.586-6.5059zm40.209 0.033203c-1.4923-0.057754-3.4388 0.85209-5.9785 3.3828 0 0 2.759 2.3132 5.1035 5.1406 0 0 2.1239-0.20756 5.7344 0.53711 0 0-0.38252-8.8873-4.8594-9.0605zm-91.676 25.561s-28.435 7.8986-50.066 40.797c-21.631 32.898-15.738 62.031-15.738 62.031-3.4593-3.4999-5.1836-9.8027-5.1836-9.8027-15.108 35.554 5.7246 87.824 5.7246 87.824-9.8589 9.7054 0.49024 18.545 0.49024 18.545 0.11507 15.414-10.387 23.488-10.387 23.488 0.86652 9.8724 11.014 4.8235 11.652 4.4805 0.6386-0.34526 0.95684-0.56048 1.5684-0.125 0.61831 0.44002 0.04492 1.2734 0.04492 1.2734-2.2656 3.8948-6.709 5.9258-6.709 5.9258 7.7129 5.8016 14.58-2.4277 14.58-2.4277s0.67914-0.90237 1.3223-0.53906 0.4082 1.0508 0.4082 1.0508c-0.39037 3.2517-3.2695 7.4883-3.2695 7.4883 9.0397 1.1779 12.442-7.4611 12.539-7.6777 0.1016-0.21211 0.26378-1.1172 1.1055-1.1172 0.84621 0 0.88867 1.0918 0.88867 1.0918 0.35203 1.5863-0.17969 4.707-0.17969 4.707 4.0911-3.685 6.5463-10.198 8.0176-17.133-11.127-2.0557-9.8359-12.615-9.8359-12.615s-5.951-5.8949 0.2207-16.104c4.143-6.8577 9.2678-7.5086 11.648-7.3867-0.34976-5.2194-1.415-12.175-4.2988-19.02-5.7204-13.582-5.5684-20.535-5.5684-20.535 0.90713-1.8842 3.8105-3.7363 3.8105-3.7363-10.922-7.8325-8.2402-20.045-8.2402-20.045 0.24596 4.3371 7.8878 17.426 21.723 15.492 4.0753-0.56864 7.537-0.63725 10.414-0.45899-3.5135-7.4353 1.0089-14.663 3.0195-18.01 2.5995-4.3236 7.9114-6.7013 4.2129-31.016-3.6985-24.312 14.668-29.885 14.668-29.885-19.264-10.996-19.347-27.264-18.131-34.871-6.6117 8.5343-10.486 21.426-10.486 21.426-1.3381-26.833 20.035-43.117 20.035-43.117zm119.12 23.729c-7.606-0.02148-17.061 2.5932-25.693 9.9199-13.817 11.721-12.365 25.408-12.365 25.408-6.9321-12.411 0.19336-22.475 0.19336-22.475-19.332-6.9998-27.65 7.7598-27.65 7.7598 1.3133-14.406 13.538-16.494 19.033-16.701-0.14893-0.44455-0.26819-0.88285-0.36523-1.3184-1.8504-0.34525-3.7975-0.50463-5.8262-0.41211-11.908 0.54383-22.108 8.898-23.729 19.055-6.7651 3.0576-11.619 8.8434-12.271 15.76-0.30915 3.2743 0.35751 6.4202 1.7949 9.2363l0.0566 0.19922c4e-3 -0.0159 0.0176-0.0586 0.0176-0.0586 4.8967 8.611 14.969 8.9238 14.969 8.9238-6.9502-18.768 5.252-23.475 5.252-23.475-5.8129 16.428 4.5306 23.398 11.318 23.398 6.7922 0 16.287-3.2367 27.34-15.043 11.05-11.809 18.135-13.969 18.135-13.969 2.2972-5.8851-0.74414-13.502-0.74414-13.502 11.815 1.4171 13.168 10.084 13.168 10.084 6.729-1.1689 14.725 0.87305 14.725 0.87305 1.3539-3.6917-0.0781-9.1152-0.0781-9.1152 2.1257 0.42424 4.8242 2.418 4.8242 2.418-0.0948-4.2197-3.5723-8.5-3.5723-8.5-1.2998 1.7014-4.8086 3.0137-4.8086 3.0137-11.98-1.2998-16.771-6.9844-16.771-6.9844 5.3593-3.0441 14.168-2.0586 14.168-2.0586-2.6562-1.4622-6.5555-2.4246-11.119-2.4375zm-0.42383 38.852c-2.682 0.04044-4.4453 0.53711-4.4453 0.53711 3.2923 1.5841 5.5938 4.1127 5.5938 6.7168 0 5.7136-7.5321 10.342-16.822 10.342-3.7955 0-7.2815-0.77837-10.098-2.0781-3.2788 4.7207-12.066 14.577-31.459 12.869-24.416-2.1505-36.545 4.0907-38.301 15.617 11.957-17.468 29.096-11.703 45.83-11.703 16.739 0 24.877-11.914 24.877-11.914 1.9136 1.4532 16.415 7.1153 27.75-0.0176 11.332-7.1307 10.186-16.244 10.186-16.244-4.6952-3.4754-9.6631-4.177-13.111-4.125zm-60.893 39.289c-14.261 3.7188-56.516 18.007-42.73 54.168 1.2569-0.0723 2.6542-0.33674 4.2676-0.88282 4.055-1.3765 7.3746-3.5745 10.021-5.8965l-13.301-9.0781s15.788-22.413 43.99-37.846c-0.75143-0.16021-1.5079-0.33396-2.248-0.46484zm-23.562 50.719c-11.903 12.183-28.273 11.652-28.555 11.656-2.7191 5.6526-5.4056 12.039-13.385 14.609l-0.56445 0.18946c-1.0651 11.973-0.11799 30.904 18.814 20.361 0.0632-0.0339 0.12239-0.0612 0.18555-0.0996 8.004-9.6355 16.833-16.695 25.814-23.959 1.5029-1.2163 4.5285-3.3589 6.3789-4.6113l3.5449-9.7988z" fill="#B3B3B0"/>
   <path d="m467.81 335.99s-0.94945-15.21 4.2141-26.801c0 0-13.145 11.204-4.2141 26.801" fill="#1b4677"/>
   <path transform="matrix(.75 0 0 -.75 442.14 419.96)" d="m167.75 55.4c-0.44453 0.93196-0.69921 1.9805-0.69921 3.084 0 3.9828 3.232 7.2168 7.2148 7.2168 2.5522 0 4.7863-1.3333 6.0703-3.3281-0.90939-0.56188-1.7896-1.0923-2.6719-1.6113-0.67471 0.94097-1.7717 1.5586-3.0195 1.5586-2.0534 0-3.7246-1.6653-3.7246-3.7188 0-0.51675 0.10726-1.0044 0.29687-1.4512-1.1779-0.61604-2.343-1.2062-3.4668-1.75zm32.836 21.588s1.8167 3.0343 1.3496 7.0352c1.1147-0.30239 2.3825-0.59536 3.7793-0.85938-1.0042-4.4838-5.1289-6.1758-5.1289-6.1758zm28.049 2.5293s-0.0842 2.1387-1.041 5c0.90714 0.30464 2.0193 0.74007 3.1543 1.3223 0.18956-4.2175-2.1133-6.3223-2.1133-6.3223zm-26.254 51.457c-52.977 0-86.391 42.678-86.391 42.678l28.217 19.049-23.324 64.49h-10.35l-12.217 30.959h59.373c47.112 0 91.385-32.128 105.27-76.396 6.6162-21.09 4.0557-41.152-7.209-56.492-11.499-15.663-30.454-24.287-53.367-24.287zm-2e-3 7.3496c41.927 0 65.903 31.896 53.566 71.234-12.343 39.35-52.795 71.242-98.258 71.242h-48.566l6.416-16.26h10.508l32.055-88.65c10.649-6.1829 22.172-9.8144 33.168-9.8144 1.4013 0 2.7598 0.0803 4.0957 0.19531l-35.289 97.553c26.228-4.2198 53.367-26.894 63.363-54.252 11.084-30.344-3.148-54.945-31.795-54.945-18.418 0-38.307 10.17-53.117 25.508l-11.5-7.8477c19.749-20.379 47.993-33.963 75.354-33.963zm1.5918 25.756 1.1113 0.49219c4.0686 1.8052 7.3935 4.5254 9.8848 8.084 5.9009 8.4395 6.4718 20.977 1.5684 34.395-6.8216 18.666-23.416 36.245-42.268 44.777l-2.4394 1.1055zm-150.06 40.068c-2.0489 7.8934-6.0452 17.165-13.756 20.139-14.257 5.506-17.58-8.2188-17.58-8.2188-9.8589 9.7032 0.49024 18.541 0.49024 18.541 0.11507 15.414-10.387 23.488-10.387 23.488 0.86876 9.8724 11.014 4.8254 11.652 4.4824 0.6386-0.34526 0.95683-0.56243 1.5684-0.12696 0.61829 0.44003 0.04492 1.2754 0.04492 1.2754-2.2656 3.8948-6.709 5.9258-6.709 5.9258 7.7129 5.8016 14.58-2.4277 14.58-2.4277s0.67914-0.90237 1.3223-0.53906c0.64312 0.36329 0.41016 1.0508 0.41016 1.0508-0.39264 3.2517-3.2715 7.4863-3.2715 7.4863 9.0397 1.1779 12.442-7.4592 12.539-7.6758 0.1016-0.21212 0.26378-1.1172 1.1055-1.1172 0.84621 0 0.88672 1.0898 0.88672 1.0898 0.35203 1.5864-0.17578 4.707-0.17578 4.707 4.0889-3.685 6.5444-10.196 8.0156-17.131-11.127-2.0557-9.8359-12.617-9.8359-12.617s-5.951-5.8932 0.2207-16.1c4.1385-6.8486 9.249-7.506 11.639-7.3887-0.28207-4.1588-1.0177-9.4145-2.7598-14.844zm25.66 10.111c-8.2061 2.692-9.4087 4.1284-11.328 6.4629-0.63635 0.76948-1.3863 1.6759-2.4785 2.75-5.5443 4.9644-8.7252 6.0071-10.449 5.9688-1.3359-0.0271-1.7943-0.70191-1.7988-0.71094-4e-3 9e-3 -3.7617 5.2298-2.7012 9.6504 0 0 0.0241-4.3e-4 0.0625-0.01h0.0039c0.31817 1.8639 1.6312 3.4299 3.5605 4.3145-0.04293 0.4355-0.03833 0.86047 0.01367 1.2734 0.37911 2.8794 3.0967 5.0979 6.8516 5.2559 0.57767 0.0293 1.1566-3.1e-4 1.7207-0.0703 1.0538 1.9609 3.344 3.3359 6.2617 3.4668 2.0557 0.0903 4.0507-0.45729 5.707-1.4141h2e-3c1.0132 0.51901 2.2163 0.84202 3.5566 0.89843 2.7598 0.1196 5.437-0.89778 7.2852-2.5586 0.0136 4e-3 0.02156 0.015 0.03516 0.0195 2.9132-2.85 6.2629-6.6546 10.074-11.736 0.82589-1.1012 1.6319-2.1544 2.4375-3.1992-4.143 2.3062-7.4215 3.2015-10.01 3.0684-9.2406-0.47162-9.6393-14.074-8.8066-23.43z" fill="#fff"/>
  </g>
 </g>
</svg>
