<svg width="87" height="65" fill="none" xmlns="http://www.w3.org/2000/svg"><g clip-path="url(#a)"><path fill-rule="evenodd" clip-rule="evenodd" d="M34.509 3.698c1.161-.361 3.83-.361 4.992 0h-4.992ZM48.615 5.651c.446-.36 2.378-.36 2.823 0h-2.823Z" fill="#EE7623"/><path fill-rule="evenodd" clip-rule="evenodd" d="M83.34 11.945c-.577 1.702.832 2.953.436 4.558-.498 2.008-3.757 2.61-5.642 1.302-.288-.637.137-1.121 0-2.171-.826.26-.215 1.956-1.087 2.171-1.517-.59-2.96.332-4.123 0-.609-.404-.412-1.613-.434-2.604 2.697-2.006 6.95-2.454 10.85-3.256Zm-.65 4.125c-.346.739-1.317.855-1.954 1.302 1.208.195 1.553-.475 2.173-.868.004-.948.08-1.96-.434-2.388-.151.873.207 1.24.216 1.955l-.002-.001Z" fill="#1D5732"/><path fill-rule="evenodd" clip-rule="evenodd" d="M55.778 13.68h2.17c-.232.36-1.936.36-2.17 0ZM83.774 19.54c.36.875.36 3.25 0 4.125v-4.124ZM72.707 19.975c.358.235.358 1.937 0 2.17v-2.17Z" fill="#EE7623"/><path fill-rule="evenodd" clip-rule="evenodd" d="M39.935 29.958c-.12-.385-.112-.9-.433-1.085.585-1.49 1.763-1.997 4.123-1.737 4.135.459 9.993 3.63 11.72 5.86-.308-.018-.616-.037-.652.218 1.331.983 3.303 1.327 4.34 2.604-.342-1.076-1.85-1.991-2.82-3.256-1.339-1.742-4.269-2.991-4.991-4.123-2.624-4.11 2.028-6.32 5.425-6.945-1.86 2.004-6.004 3.578-3.688 6.729 2.107 2.866 6.947 6.077 9.116 8.245-1.503.308-3.852-.315-5.21-.868-1.904 3.58 1.338 7.038 3.69 8.465-.062-1.203-1.956-2.357-2.387-3.906.305-.49.88-.713 1.086-1.303 1.876.658 2.028 2.557 3.256 4.34.715 1.041 2.028 1.412 2.17 3.039.926-.085 1.065-.96 1.953-1.086.165 1.324-.147 2.168-.65 2.821.97.672 2.16-.29 2.604-.867.105-.684-.995-.161-1.085-.652V45.15c.89.632 1.507.029 2.17.218-.157 1.278-.333 2.439-.651 2.821-2.826 3.392-6.302-1.296-9.116-2.17.18-.613-.305-.562-.216-1.086-1.158-.143-1.69-.914-3.04-.867.181-1.465-2.173-1.737-3.472-2.387-.066-1.67-1.538-1.934-2.822-2.388v-.867c-3.61-2.613-7.862-4.581-10.417-8.247v-.218h-.003Z" fill="#1D5732"/><path fill-rule="evenodd" clip-rule="evenodd" d="M69.45 44.932c-1.826-.634-2.015-2.904-4.124-3.256.727-1.724-1.284-1.848-2.17-2.602-.29.516 1.075 1.233 1.737 1.519-.474 2.715 2.999 1.485 2.604 4.121-.952-.59-1.164.278-1.953.433-1.64-2.05-3.532-3.844-4.34-6.727 5.094-.86 6.884 3.735 8.248 6.51l-.001.002Z" fill="#1D5732"/><path fill-rule="evenodd" clip-rule="evenodd" d="M27.997 51.662c.442-.5 1.802-.078 2.604-.218-.442.498-1.801.08-2.604.218ZM27.348 52.53h3.689c-.732.36-2.96.36-3.69 0ZM11.722 57.086c-.019-.343.105-.827-.218-.867.231-.203.068-.801.652-.65-.264.386-.041 1.261-.434 1.517ZM72.054 3.698c.654.1 1.043 1.929.218 2.17.482-.592.134-1.742-.218-2.17ZM68.364 5v.218c.341-.126 2.531.156 1.52 1.302v-.867c-.403-.651-1.556.275-1.736-.217-.037-.251.047-.385.215-.434L68.364 5ZM67.063 5.867c-.389.028-.457-.265-.868-.216.02-.776.102-1.492.652-1.737-.17.483-.456.847-.434 1.52.255.106.492.23.65.433ZM42.538 23.447c-.173.8-.892.181-1.3 0-.16-1.097.239-1.642.65-2.17.858.214 1.575.3 2.17-.217-.244.702-1.265.758-1.954.434-.567.228-.71.88-.65 1.735.198.377.76.56 1.084.217v.001ZM51.002 22.145c-.182.321-.545.468-1.083.434.075-.794.742-.995 1.301-1.301-.15.571-.989.458-1.084 1.083.39.03.457-.265.866-.216ZM58.817 19.107c.12-.53.838-.462.65-1.302-.682-.103-.574.584-1.086.65.28-.37.45-.852 1.087-.868.57.633-.16 1.285-.65 1.52ZM64.676 15.202c.98-.013 3.088-2.77 2.603-.869.019-.308.035-.616-.217-.652-.537.768-1.18 1.428-2.388 1.52h.002ZM84.209 8.473c.588.09.895 1.03.434 1.52-.924.124-1.007-.586-1.304-1.086.612.038.27 1.032 1.086.867.63-.301-.061-1.07-.218-1.3h.002ZM40.153 33.65c-.701-.749-1.786-1.11-1.954-2.388.672-.517 1.422.343 1.736.867-.544-.25-.727-.866-1.52-.867.06 1.315 1.328 1.42 1.738 2.388ZM38.85 25.835c.445-.93 2.063-.686 2.387-1.737.401.915-1.735 1.155-2.387 1.737ZM36.679 25.4c.11-.9 1.953-.072 2.387-.65-.113.899-1.953.072-2.387.65ZM29.734 24.75c.198-.378.762-.56 1.086-.218.159-.591-.43-.437-.434-.867.38.198.754.404.652 1.085-.635-.197-.667-.197-1.303 0h-.001ZM30.385 21.928a1.109 1.109 0 0 1-.653-.65c-.522-.07-1.05.946-1.519.216.9.248.848-.457 1.52-.434.063.442.588.425.652.868ZM30.602 21.928c1.388.585 1.65-1.502 2.171-.434-.441-.454-1.249 1.399-2.17.434ZM37.763 19.54c-.263.678-1.979.95-2.387.217-.681-.1-.575.585-1.085.652.277-.372.448-.853 1.085-.867.433.776 1.815.33 2.387 0v-.002ZM55.127 5c.276-.6 2.273-.61 2.822-.217-1.003.01-2.123-.096-2.822.218ZM51.438 3.698c.736.893-.906 1.255-1.955 1.085.345-.453 1.52-.074 1.955-.435v-.65ZM48.615 3.046c.513-1.516 2.447-.608 2.823.434-.643-.75-2.03-1.633-2.823-.434ZM60.769 3.046c.477-.463 1.627-.255 1.953-.867-.132-.012-.256-.034-.216-.217 1.126.453-.9 1.184-1.737 1.085v-.001ZM45.577 4.566c-.514-.12-.9-.84-.433-1.302.556.225 1.495.783 2.17.218-.159.792-1.711.43-1.954 0-.656.265.154.828.217 1.084ZM42.756 10.425c.85-1.03 1.79-1.97 2.82-2.822a20.74 20.74 0 0 1-2.82 2.822ZM44.276 15.634c-.068.294-.544.18-.87.216-.22-1.016.871-.72.65-1.737.78.587-.587.843-.434 1.52h.654ZM27.997 21.494c-.273-.055-.218-.433 0-.434.155-.59-1.022.155-.867-.436.576.256 1.279-.416 1.301 0-.003.431-.592.277-.434.868v.002ZM24.308 20.191c-.209 1.367.972 1.343 1.52 1.954-.944-.287-1.783-.675-1.738-1.954h.218ZM23.874 9.556a12.288 12.288 0 0 1 2.17-2.17 12.288 12.288 0 0 1-2.17 2.17Z" fill="#EE7623"/><path fill-rule="evenodd" clip-rule="evenodd" d="M20.618 16.719c-.233 1.101.4 1.334.869 1.737h.432c.372-.642.323-1.705 1.303-1.737-.25.608-.25 1.127 0 1.737.605.19 1.32.27 1.735.65-.38.198-.396.762-.652 1.087-.209 1.366.972 1.342 1.52 1.953.552-.024 1.116-.041 1.084-.65-.477-.682-1.726-.59-1.735-1.74.253-.322.27-.886.65-1.082.046-.77-1.018-.43-.868-1.303.079-.645.376-1.071.868-1.303.118-.77-.768-.535-.65-1.303.36-.507 1.152-.583 1.085-1.519-.678-.312-2.96.58-3.039-.867-.05-.772.313-1.135 1.085-1.086-.091.415-.62.393-.433 1.086.47.182.741.563 1.52.435.274-.521.278-1.312.65-1.737-.847-.02-1.58-.157-1.737-.869-.065-.571.453-.559.869-.65.02.592-.361.438 0 .868.69.322 2.023.002 2.604.436-.308.704-1.443.58-1.302 1.735.485.529 1.891.133 2.17.867-.648.617-3.22 1.562-1.085 2.39" fill="#EE7623"/><path fill-rule="evenodd" clip-rule="evenodd" d="M28.215 18.021c-.47.616-1.504.668-2.17 1.085-.052.92.45 1.286 1.085 1.52.576.255 1.278-.417 1.301 0-.003.43-.593.277-.434.868h.218c.899.248.847-.457 1.519-.434.064.442.588.425.652.868h.216c1.388.585 1.65-1.502 2.171-.434.913.044 1.815.078 1.954-.652-2.32.605-8.653-.064-4.993-2.604-.182.47-.562.739-.433 1.517 1.119.838 2.683.262 3.256-.65-.067 1.08.54 1.485 1.737 1.302.277-.371.448-.853 1.085-.866.433.775 1.815.33 2.388 0 .859-.483.193-1.296.652-1.954 1.088 1.085 3.711.39 4.123-1.085-.576-.586-1.788.863-2.604 0 .477-.824 2.081-.522 2.604-1.3.233-.813-.538-.62-.433-1.303.431-.386 1.881-.806 1.953.216.78.586-.586.842-.434 1.52h.652c2.255-1.331.596-3.543-1.086-3.472-2.594.11-9.045 9.166-13.457 4.774-.058-.927.794-.944 1.086-1.518-.75-.19-1.504-.378-1.953-.868-.056-.707.257-1.046.867-1.087-.002.433-.591.28-.433.87.636-.056.668.49 1.301.434h1.52c-.433.651-.816 1.357-1.52 1.736v.434c5.786.427 8.777-3.807 12.154-6.51a21 21 0 0 1 2.82-2.822c1.945-1.848 5.052-.98 8.248-.867 2.718-2.648 7.413.77 9.983 0-2.046-.558-3.728-1.48-5.858-1.953-1.003.01-2.123-.096-2.822.218-.978.467-2.106.787-3.689.652h-2.823c-1.535-.086-2.627 1.418-3.471 1.302.661-1.508 2.438-1.901 4.34-2.17.344-.453 1.518-.074 1.954-.435v-.867c-.643-.75-2.03-1.633-2.823-.434-.49 1.031-1.477 1.561-3.038 1.52-.514-.12-.9-.84-.433-1.302.556.225 1.495.783 2.17.217.492-.231.789-.658.868-1.302-2.13-.713-4.163 1.092-4.34 2.387-1.485-.253-2.77-.702-4.34-.868h-4.992c-3.725.326-6.156 1.946-8.463 3.69a12.288 12.288 0 0 1-2.17 2.17c-2.595 3.41-6.425 8.247-8.171 11.782.4-.612 2.514-1.016 3.614-.93-.07.511-.343.816-.218 1.521.456.267.846.6 1.301.867.593.16.439-.431.869-.432v-.217c-1.731-.32-1.286-2.313-.651-3.47-.02-.343-.553-.171-.434-.653" fill="#EE7623"/><path fill-rule="evenodd" clip-rule="evenodd" d="M34.293 15.201h-.435c-.096-1.498-2.72-.463-2.387-2.388-2.87 1.018-3.755-2.137-1.52-2.605-.037-.184.084-.203.219-.216.635.158-2.071 2.485 1.086 1.953.315-.335 1.11-.192 1.735-.216.15.726-.364.792-.868.868-.158.591.431.437.434.867 1.454.08 2.129-.617 3.256-.867-.108.904-.981 1.044-1.737 1.303.082 1.101 1.315.848 2.17.65.024-.41.718-.15.65-.65.416.716-1.595 2.008-2.603 1.301Z" fill="#231F20"/><path fill-rule="evenodd" clip-rule="evenodd" d="M37.547 12.596c-.856-.881-3.23-.244-3.254-1.954-1.116.307-2.932.44-3.256-.65.038-.686.152-1.295.868-1.303.095-.267.277-.445.65-.434.007.734-1.139.966-.434 1.737 1.577.202 2.373-.378 3.69-.436.094.744-.65.652-.868 1.085 1.09 1.16 2.811-.412 4.123-.434-.236.777-1.3.726-1.735 1.302.16 1.113 1.31.393 2.171.435.195-.383.798-.359.867-.869.34.783-1.664 2.232-2.82 1.52h-.002ZM33.206 5.651h.434c1.913-.004-.371.693-1.302.434v-.217c-.454.09-.575-.148-.869-.217-.597-1.511 1.132-.334 1.737 0ZM22.139 13.679c.697.049.917-.384 1.735-.218.105.902-1.25.341-1.303 1.086.165.922 1.202.968 1.954 1.303-1.558.833-3.543-.849-2.386-2.171Z" fill="#231F20"/><path fill-rule="evenodd" clip-rule="evenodd" d="M60.769 3.046c.477-.463 1.627-.255 1.953-.867-.132-.012-.256-.034-.216-.217-1.962-.007-2.992.916-5.21.653.2 1.325 2.528.39 3.473.432v-.001ZM68.8 7.82c.83.037.706-.885 1.085-1.3v-.868c-.402-.65-1.556.276-1.736-.216-.036-.251.048-.385.215-.434.32-.55 1.391-.346 1.52-1.086 0-.218.175-.258.216-.433-.796-.88-2.763-.305-3.255.433-.169.483-.455.847-.434 1.52.256.105.492.23.65.433 1.16.071 1.4 1.06 1.738 1.953l.001-.001ZM57.949 13.68c-.233.36-1.937.36-2.171 0-2.98-.492-4.19-2.754-5.208-5.207-.797 7.553 12.978 7.874 12.152-.434-.832 2.64-1.831 5.113-4.773 5.642v-.002ZM44.276 11.511c1.26.188 1.804 1.088 1.951 2.388 1.08-.221 1.256-1.35 1.521-2.388-.413-1.359-3.041-1.406-3.472 0ZM68.364 14.55c.777-.164 1.38-.502 1.52-1.304-.476-.478-.887.215-1.736 0-.05.17-.006.429-.218.433-.158.593.431.437.433.869l.001.001ZM67.28 14.333c.02-.308.036-.616-.217-.652-.536.768-1.18 1.427-2.388 1.52-.152.427-1.21-.053-1.302.434 1.24 1.235 3.42.097 3.908-1.302ZM62.506 16.286c-.352.805-1.653.661-1.737 1.736.87-.153 2.84-.994 1.737-1.736ZM59.468 17.805c-.683-.104-.575.584-1.087.65-.256.406-1.685.758-1.084 1.302.288-.434.964-.482 1.52-.65.12-.531.838-.462.65-1.302ZM55.777 18.89c-.385.846-1.607.852-1.735 1.953 1.027.03 2.985-1.129 1.735-1.953ZM23.006 21.494c.172-.623.438-1.153.65-1.738-1.036-.046-1.162-1.006-2.604-.651-.13.52-.312.99-.218 1.737.68.262 1.076.804 2.172.652ZM52.956 20.843c-.549-.484-.97.474-1.737.434-.151.572-.989.459-1.085 1.084.39.029.457-.265.867-.217.56-.525 2.065-.106 1.955-1.3ZM24.09 24.098c-.169.987-1.677.637-1.3 2.17.23.156.999.848 1.3.217-.515-.458.384-1.339 1.087-1.302-.022-.614-.947-1.436 0-1.736.321-.271 1.103.4 1.55-.94-.615-.036-1.732.113-2.637-.145-.59.159-.435-.43-.867-.432-.461.55-1.79.233-1.735 1.3.131 1.496 2.083.693 2.604.87l-.002-.002ZM37.981 24.098c1.265.885 3.275-1.408 2.388-1.953-1.138.309-2.55.342-2.388 1.953ZM48.833 22.145c-.943-.002-1.56.321-1.736 1.084.724-.214 1.928.05 1.736-1.084Z" fill="#EE7623"/><path fill-rule="evenodd" clip-rule="evenodd" d="M29.518 23.665c-.736-.638-1.353-1.397-2.822-1.303-.584-.134-.75.256-.867 1.085-.605 2.807 2.695 1.122 3.69.218h-.001Z" fill="#EE7623"/><path fill-rule="evenodd" clip-rule="evenodd" d="M37.764 22.362c-1.005.56-2.242 1.274-3.471.433-.716 1.336-2.89.878-3.907.87.381.198.754.404.652 1.085-.635-.197-.667-.197-1.302 0-.681-.102-.887.27-1.085.65.189.548 1.78.811 1.3 1.303-1.834.276-4.002-2.643-4.556.217 1.045.763 2.686.265 4.124.216-.9 1.694-4.036.995-5.643.434.004.512-.374.639-.217 1.301.687.66 1.603.34 2.388 0-.102 1.766 2.064 1.264 3.254 1.737-1.059.799-2.447.198-3.472-.218-.113.322-.322.547-.434.869.612.833 2.054 1.001 2.604.216.66.907 2.293 1.856 3.256.65.117-.768-.77-.532-.652-1.3.382-.197.671-.486.868-.87-.218 0-.258-.175-.433-.217-1.546-.184-1.583-2.204-.218-2.604.799-.568 1.813-1.608 3.255-.868.54.034 1.053.041 1.085-.433-.314-.119-1.122.253-1.085-.216-1.083-.11-.611-1.722.218-1.737v1.085c1.723.463 2.86-1.262 3.47-2.606v.003ZM16.713 24.75h1.301v-.868c.012-.278.277-.302.218-.652-.899.25-.846-.456-1.519-.435-1.492.174-1.629 1.82 0 1.955ZM21.704 24.532c-.551-.027-.842-.317-.868-.867-.22-.141-.224-.5-.65-.434-.574-.065-.714.3-.651.868.297.717 1.223.802 1.953 1.085.277.013.3.278.65.218.157-.592-.432-.439-.434-.87ZM42.973 24.098h1.083c.069-1.018-1.004-.58-1.083 0Z" fill="#EE7623"/><path fill-rule="evenodd" clip-rule="evenodd" d="M54.258 45.584c-.698-.746-1.793-1.1-2.387-1.953-1.82-1.073-3.63-2.158-5.208-3.473-.935-.583-1.455-1.583-2.171-2.387-2.129-2.3-10.786-5.208-7.597-10.635.35-.594 1.077-.856 1.953-1.303.445-.93 2.063-.685 2.388-1.737-1.108-.69-1.27.518-2.171.652-.113.9-1.954.072-2.388.651h-.216c-.089 1.7-1.838 1.967-3.473 1.52-.598.662.764.68.653 1.518.525.198.574.873.65 1.52-.524-.417-.862-1.02-1.303-1.52h-.216c-.352-.326-1.601-.326-1.953 0-.159.593.43.437.434.869.8.502 2.03.574 2.17 1.737-.714-.01-1.08-.368-1.954-.217-.265.99.762.684.869 1.301-1.207-.265-.887.995-1.303 1.521-.481-.456-1.446-.172-1.737.216 1.854 1.39 4.07 2.313 6.076 3.473 2.114 1.22 4.224 2.284 6.077 3.69.623.535 1.543.773 1.953 1.52.792.148 1.059.823 1.737 1.085.312.122.529.337.65.651 3.785 2.51 7.232 5.356 11.504 7.379.77.462 1.741.72 2.387 1.303 4.107 1.836 10.156 1.63 11.502-2.606-1.266.24-1.846 1.673-3.688 1.737-4.637.162-9.282-5.308-13.238-6.512Z" fill="#EE7623"/><path fill-rule="evenodd" clip-rule="evenodd" d="M34.075 34.298c-1.027.157-1.427-.31-1.954-.65V32.56c.777-.752 2.08-.257 3.038 0-.373 1.05-1.802-.262-2.17.653-.013.737 1.116.332 1.086 1.084ZM34.509 34.95c.427.432 1.239.14 1.736 0 .469-1.011-.394-1.887-.651-2.821 1.313.495 1.732 1.885 1.953 3.472-.678.765-3.012.558-3.038-.65ZM37.33 37.119c.557.492 1.53.088 1.954-.217-.032-1.053-.419-1.75-.868-2.386 1.07-.128 1.965 1.79 1.953 3.471-1.026.38-2.951.354-3.038-.868ZM41.672 40.158c-.555-.026-1.116-.04-1.087-.65.83.105 1.385-.063 1.737-.433.049-1.063-.661-1.364-.65-2.389.835.54 1.333 1.417 1.519 2.604.874.68-.977 1.604-1.52.868ZM43.407 41.461c.488.462 1.43.154 1.52-.434-.071-.798-.536-1.2-.65-1.953 1.112.404 1.517 1.519 1.517 3.038-.673.404-2.446.369-2.387-.65ZM46.445 43.85c.134-.516 1.335.034 1.52-.435.066-.863-.504-1.091-.435-1.954.775.598 1.315 1.436 1.303 2.822-.857.44-1.829.04-2.388-.433ZM50.135 46.236c-.82-.492.747-.385.867-.652.06-.782-.4-1.045-.432-1.734.696-.192.447.56.867.65v.217c.167.483.454.847.432 1.52-.315.319-1.42.319-1.735 0h.001ZM54.475 48.406c-.821-.048-1.958.22-1.953-.65.534.029 1.045.032 1.3-.218.14-.864-.572-.873-.432-1.737.763.484 1.394 1.703 1.085 2.605ZM55.127 49.492c.315-.118 1.121.255 1.085-.217.057-.782-.401-1.047-.435-1.736.372-.01.564.161.651.433.27.6.635 1.103.652 1.955-.452.342-2.023.414-1.953-.435ZM58.817 51.662c-.693.186-.672-.343-1.086-.434.318-.477 1.676.085 1.302-1.085-.3-.133-.03-.837-.434-.869.712-.411 1.323 1.13 1.303 2.17-.253.183-.584.288-1.085.218ZM61.42 52.963c.388-.481.72-1.017 1.304-1.302.49.649-.314 1.453-1.303 1.302ZM65.76 53.4c-.509.066-.815.34-1.517.215.341-.452 1.165-.425 1.083-1.302.73-.223.338.675.434 1.086ZM17.798 26.702c1.044-.364-.386 1.357-.65 1.737.097.77.732 1.002.866 1.737-.68.621-1.175 1.43-1.085 2.82.366.358.976.47 1.302.868-.314.843-.841 1.475-.651 2.82 1.443 1.563 2.904-.49 3.254-1.953-1.43-.17-1.58-2.131-.866-3.256-2.609-.649-.907-4.027.866-4.557-.36 1.087-1.426 1.468-1.517 2.822.24 1.112 2.054 1.022 2.822.434.01-.132.032-.257.216-.218.064-.426-.293-.43-.434-.65-.297-.277-.297-1.024 0-1.301.7-.811-.724-.884-.65-1.737.25-.275.762-1.15 0-.65-.429.353-1.58.698-2.17.217-.77.117-.534-.768-1.303-.652-.59 1.22-3.209.407-3.038 2.387 1.206.398 2.308-.18 3.038-.868ZM14.108 25.835c-.592.158-.438-.432-.869-.435-.56 1.009-2.51 2.281-1.301 3.69 1.923-.356 1.329-2.055 2.17-3.255Z" fill="#EE7623"/><path fill-rule="evenodd" clip-rule="evenodd" d="M14.107 29.523c.203.956 1.683.634 2.388 1.087-1.851.39-2.244 2.241-4.124 2.604-.028.534-.032 1.045.217 1.302 1.33.241 1.23-.943 1.954-1.302.135.66 1.167.425 1.303 1.084-2.137-.446-2.935 2.18-1.954 3.473 1.047.242 1.481-1.254 2.17-.652-.258 1.028-2.39 1.153-1.737 2.389.838.105.964-1.626 1.519-1.085-.43 1.275-1.18 3.658-.218 4.991 1.122-.108.937-1.525 1.953-1.737-.062 1.01-.668 1.209 0 1.954 1.404.102 1.748-.856 2.172-1.737h-1.52c-.679-.512-.863-2.065-.434-3.038-1.433-.51-1.572-2.682-.65-3.907v-.433c-.465-.405-1.295-.443-1.303-1.302.08-1.222.396-2.21 1.303-2.604-.71-.726-.605-1.93-1.085-2.388-.302.494-1.512.08-2.17.216-.07.505.034.832.216 1.085Z" fill="#EE7623"/><path fill-rule="evenodd" clip-rule="evenodd" d="M13.891 31.044c.159-.174-.525-1.345-1.086-1.52-.596.415-1.009 1.016-.867 2.17.59.43 2.011.244 1.953-.65ZM8.466 54.916c.454.125.618.541 1.302.436 1.05-.326 1.112-1.636 1.736-2.387.52-.086-.12.988.652.65.181-1.34 1.616-1.421 2.17-2.387-.194-.063-.95-.587-.433-.651 1.059.562 1.971-.146 2.387-.867.066-1.514.054-2.948-1.086-3.257-.518.287-.954 1.784-1.736 1.086 1.16-.895 1.32-2.964.651-4.557-.736.205-1.164 1.764-1.953.65 1.34-.711 1.213-3.297.65-4.775-.829.111-.531 1.349-1.735 1.085-.319-.189-.689-.326-.65-.867 1.544.212 1.418-2.819 1.084-4.557-.806-.084-.567.877-1.519.649-.318-.189-.689-.323-.65-.869 2.063-.076 2.578-3.7.867-4.558-1.872 1.01-2.07 5.322-.217 6.512-.623 2.186.354 3.95 1.52 4.991-.242.41-.277 1.024-.434 1.52 1.238 1.44 1.104 4.25 2.17 5.86-1.741 1.584-2.339 4.316-5.208 4.776-.682.692-.592 2.154-1.953 2.17-.928.3-1.114 1.343-1.953 1.735-1.015.47.1 1.702 0 2.604 1.659.018 2.378-1.397 2.387-2.388 2.316.05 2.313-1.493 1.954-2.604h-.003ZM21.704 31.044c-.693.392-1.29.88-1.302 1.954.306.056.248.477.434.652 1.48.103 2.46-.29 2.822-1.305-.561-.472-1.12-1.284-.651-2.17-.762-.039-.715.734-1.303.87ZM38.416 31.262c.059 1.315 1.327 1.42 1.737 2.388 1.295.583 2.497 1.263 3.47 2.17 1.032.85 1.972 1.79 2.822 2.82 3.218 2.08 5.865 4.562 10.417 7.38 2.743 1.697 11.877 8.417 13.457 2.388-1.577.314-2.587 1.78-4.775 1.519-1.902-.229-3.319-1.809-4.557-2.606-.68-.26-1.448-.432-2.17-.649-.193-.387-.606-.554-.436-1.304-1.016-.067-1.706-.463-2.604-.65-1.101-2.009-3.775-2.446-4.775-4.558-.71-.012-.829-.617-1.734-.435-.022-2.256-3.669-1.681-3.256-3.69-2.878-.449-3.928-2.728-6.076-3.906-.544-.25-.727-.865-1.519-.867h-.002ZM23.658 34.518c-.19.84.53.771.65 1.301.626-.025 1.42.118 1.737-.217-.529-.916-1.048-1.844-1.303-3.038-1.493.461-1.773 2.133-3.472 2.389-.15.796-.375 1.648 0 2.387.98.526 1.786-.17 2.604-.434-.15-.664-1.755-2.033-.216-2.388ZM26.48 35.818c-.846.747-2.059 1.124-2.605 2.171 1.286-.164 2.69-1.357 2.604-2.171ZM29.3 58.172c1.668-1.008 4.805-.547 4.993-3.038-1.903-.826-4.72 1.593-6.078 0 .349-.736 1.514-.655 2.604-.652.495-.59 2.323-.76 1.519-1.95h-1.303c-.731.36-2.96.36-3.689 0-.553-.026-1.116-.041-1.084-.652.315-.335 1.11-.19 1.735-.217.442-.5 1.802-.077 2.604-.217h.218c1.325-.234 1.237-1.445 0-1.734-1.43-.09-3.322.281-4.125-.436-.996-.732 1.152-1.283 1.52-.65 1.311-.205 3.636.6 3.69-.868-.32-1.778-4.015-.181-4.558-1.737 1.075-.59 3.46.133 4.558-.434.272-.088.443-.279.434-.65-.596-1.213-3.47-.148-3.907-1.52 1.155-.81 3.779 1.116 4.341-.434.227-1.318-2.819-1.23-3.256-2.604.919-.053 1.536.2 2.17.433.713.067 1.776.501 2.387 0 .102-.683-.583-.574-.65-1.086-.918-.166-1.794-.377-2.17-1.085 1.2-.116 1.877.292 2.604.652.664.641 1.91-.454 1.301-1.085-1.837-.62-3.183-1.734-5.208-2.17-.534-.028-1.045-.033-1.3.218-.191.697.561.45.65.867.68-.102.886.273 1.085.652-1.384.354-3.278.195-4.341.867-.172 1.113 1.257.625 1.735 1.085-.376 1.765-3.225-.285-3.69 1.303.256 1.045 2.275.329 2.387 1.519-.708.957-3.513-.186-3.472 1.52.765.755 2.581.46 2.605 1.954-.289.31-1.23.31-1.52 0-.958-.089-1.678.06-2.17.433-.029.537-.032 1.045.218 1.302.433.867 2.735-.13 2.82 1.085-.758.689-2.238.655-3.69.652-.858 1.31.85 1.689 1.737 1.952h.216c.255.035.616-.037.651.218.39-.027.507.215.433.65-.67.704-2.366.381-3.255.869-.891.68-.04 1.621.434 2.171.947.79 3.255.217 3.69 1.52-1.118.63-2.906-.878-3.907.216.186 2.53 4.15 1.811 5.86 2.17-.816.993-2.949.67-4.34 1.086-.096.193-.19.388-.434.434-.064 1.077.864 1.16 1.301 1.737 2.665 1.108 6.726.577 9.549 0 1.059-.605 2.066-1.262 2.604-2.388.41-1.112.085-2.073-.434-2.822-2.385-.335-4.098 2.24-6.077.869l.005-.005ZM21.054 44.282h.216c.431-.293-.068-1.515.65-1.52.05-1.833 1.136-2.626 1.738-3.906-1.509-.466-2.71-.136-3.689-1.301-.145 1.011-1.437.876-1.519 1.953.044.68.56.888.868 1.303 1.446.283 2.283-1.181 3.039-.869-.762 1.265-2.115 1.937-2.388 3.69.337.243.451.704 1.085.65ZM5.86 44.065c-.632-.598-.718-1.741-1.303-2.387-.568 1.601-.838 3.503-1.3 5.21 1.203.214 2.064-1.663 2.603-2.823Z" fill="#EE7623"/><path fill-rule="evenodd" clip-rule="evenodd" d="M20.618 46.236c-.041-1.054 1.266-.758 1.303-1.735-.613-.18-.562.305-1.085.216h-.434c-.683.105-.49-.666-1.302-.434-.073.724-.629.963-.434 1.953.244.046.339.24.434.436 3.252.448-3.156 1.397-1.302-1.956-.841-.026-1.096-.64-1.52-1.085-1.425 2.238 1.306 3.352 1.084 5.21.227.497 1.551-.104 1.737.432-.93.89-3.433 1.08-2.387 3.257.687.593 1.707-.437 1.953.433-.29.216-.427.585-.869.65-1.624.179-1.782-1.11-2.821-1.518-.33.684-.723 1.302-.869 2.168.376.567.782 1.103 1.737 1.088.783-.157.62-1.262 1.518-1.303-1.19 2.063-1.162 5.647 1.736 4.991-1.409 2.44-4.503-.734-3.472-2.82-2.147.41-2.424-1.048-2.822-2.387-2.387 2.24-4.747 4.511-6.728 7.16.59.595 1.57 1.236 2.387.433.9-.475-.059-2.806 1.303-2.82-.202 1.649.201 2.69 1.52 2.82.426-.368.926-.665 1.084-1.3-1.197-.48-1.723-2.638-.867-3.907.232-.203.069-.802.652-.65-.263.386-.04 1.26-.432 1.517.18.978.511 1.802 1.517 1.954.71-.161.727-1.011 1.52-1.084-.9 1.305-.971 4.042 1.085 4.123.982.176 1.287-1.45 1.954-.869-.131.81-.998.885-1.085 1.737 1.226.47 2.938.028 3.472-.868.25-.88-.454-1.545.217-2.603-.146-.506-.72-.582-.867-1.086-.681-.95.326-1.757.434-2.606-.136-.588-.907-.54-.869-1.304-.356.038-.356-1.338 0-1.3-.228-.952.735-.713.651-1.519-.222-.5-.746-.702-.65-1.519.413-.527.458-1.423 1.3-1.52.507-.611-.25-1.356 0-2.386h.219l-.002.001Z" fill="#EE7623"/><path fill-rule="evenodd" clip-rule="evenodd" d="M13.239 61.427c-.044-.244-.24-.338-.433-.433-.091.704-.902.689-1.085 1.303.392.474.729 1.006 1.736.867.024-.41.717-.15.65-.65-.371-.28-.853-.45-.868-1.087ZM84.209 8.473c-.546-.396-.398-1.484-1.302-1.52-.72.7-1.925 1.92-1.302 3.255-.447.36-1.698 1.04-2.388.435 1.59-1.28 1.08-3.394 1.518-4.99.94-.072.535 1.2 1.52 1.084.704-1.65-.82-2.977-1.736-2.823-1.44.247-1.5 4.896-3.907 3.256 1.105-.702 2.2-1.418 2.171-3.256-1.399-1.316-2.835.08-3.256 1.52.032.281 1.003 2.282 0 3.039.198 2.168-3.849 2.858-3.689.216.936.078.823 1.204 2.172.869.418-.303.642-.803.866-1.303V6.302h-.434c-.07.25-.946.748-1.085.218.838-.319 1.247-1.068 1.954-1.52V3.915c-2.635-1.827-1.314 3.642-4.125 3.04.151-.573.987-.459 1.086-1.087.482-.59.135-1.741-.217-2.17-.819-.095-1.018.427-1.521.651 1.016 4.424-4.033 6.13-6.727 8.248.418-.885 1.013-1.59 1.303-2.604.413.091.391.62 1.083.433 1.475-.63 2.61-3.508.218-3.907-.547.322-.704 1.033-1.735.869-.717 4.42-3.52 6.752-6.727 8.681-2.408-.382-2.322 1.731-4.341 1.737-.3.354-1.408-.318-1.737.434-2.177 1.366-5.121 1.969-7.813 2.822-.244.703-1.265.759-1.954.434-.566.229-.71.881-.65 1.736.198.376.76.56 1.085.216.864-.15.516-1.51 1.519-1.517-.172.75.24.914.434 1.3 2.538.008 2.76-2.303 4.34-3.255.06.899-.284.845 0 1.52 2.785.47 1.937-2.693 3.907-3.038.18.779-.489 1.05 0 1.52 2.542.3 2.14-2.347 3.69-3.04-.028.536-.033 1.046.217 1.304 2.104-.067 2.042-2.3 3.472-3.038 1.245.353-.649 1.374.217 1.952 1.63-.83 2.387-2.533 3.256-4.122.57.288.414.962.216 1.52 2.764.056 2.802-2.658 3.69-3.907.316.481.147 1.447.653 1.737 2.433.118 2.258-2.373 2.82-4.125.941 1.65-.084 3.59-.869 4.775 2.292.41 2.028-1.735 3.474-2.17.35.37.907.538 1.737.433 1.03-.492.884-3.306 1.952-3.038-.122.79-.526 1.297-.216 1.953.52.614 1.311-.298 1.735.217-.312.7-1.06.963-1.735 1.302-.791-.963-2.21.99-3.69 0 .037.762-.735.715-.87 1.303 3.626-.79 7.913-.916 10.636-2.605.276-1.056-1.263-1.015-.65-1.736.286-.003.197-.38.433-.434.273.09.442.279.433.652.613.038.271 1.032 1.087.867.63-.302-.061-1.071-.218-1.301v-.003Z" fill="#EE7623"/><path fill-rule="evenodd" clip-rule="evenodd" d="M74.442 6.302c-.07.25-.946.748-1.085.218.838-.319 1.246-1.069 1.954-1.52-.07.526-1.337.96-.87 1.302h.001ZM74.658 6.302c.471-.735.695 1.74.218 1.953V6.302h-.218Z" fill="#EE7623"/><path fill-rule="evenodd" clip-rule="evenodd" d="M75.527 5.435c.032.28 1.003 2.281 0 3.038.061-.736.346-1.248.218-2.171-.383-.193-1.074-.602-.218-.867Z" fill="#EE7623"/><path fill-rule="evenodd" clip-rule="evenodd" d="M55.995 7.388c.168-.745.6-1.22 1.302-.868.03 1.113-.032 2.139-.435 2.82-.38-.993-.161 2.074-.216 2.822-1.24-.745-.264-3.742-.65-4.774Z" fill="#fff"/><path fill-rule="evenodd" clip-rule="evenodd" d="M18.014 24.75c.31.416.67.776 1.086 1.085-.77.117-.533-.768-1.302-.652.097-.605-1.183.17-1.085-.433h1.301ZM4.125 57.304c.711-.516.73-1.73 1.953-1.735-.928.3-1.114 1.344-1.953 1.735ZM6.078 60.994c.59.594 1.57 1.236 2.387.433-.51 1.146-2.085.439-2.387-.433ZM23.658 62.514c-.924-.18-2.228-1.63-.867-2.172-.096.194-.19.389-.434.434-.064 1.078.863 1.161 1.3 1.737Z" fill="#EE7623"/><path fill-rule="evenodd" clip-rule="evenodd" d="M77.047 20.844c-1.112 5.037-2.251 10.048-6.512 11.936 1.76-3.773 3.127-8.979 2.824-14.106.998-.3 2.392-.718 3.254 0 1.83.296 1.091.826.434 2.17Z" fill="#fff"/><path fill-rule="evenodd" clip-rule="evenodd" d="M34.075 25.619c.534-.03 1.046-.034 1.302.216-.03.425-.969 1.03-1.302.433.54.033 1.052.04 1.084-.433-.313-.119-1.12.253-1.084-.216ZM31.037 29.742c-1.547-.185-1.583-2.205-.218-2.604-1.087.678-1.007 2.137.218 2.604ZM44.492 37.771c.919.6 1.42 1.62 2.171 2.387-.935-.583-1.455-1.583-2.171-2.387ZM51.87 43.63c.83.618 1.866 1.03 2.388 1.954-.697-.746-1.793-1.1-2.387-1.953Z" fill="#EE7623"/><path fill-rule="evenodd" clip-rule="evenodd" d="M31.255 29.307c-.319-.188-.69-.324-.653-.868.253-.459 1.992-.79 2.171 0-.351-.326-1.6-.326-1.953 0-.158.593.431.437.434.868ZM21.92 29.307c.81-.231.345.815 1.085.65v.218c-.761-.04-.714.733-1.302.869-.063-.382 1.022-.672.434-.869.01-.132.032-.257.216-.217.064-.427-.292-.43-.434-.65h.002ZM17.798 26.702c1.044-.365-.386 1.357-.65 1.737-.194-.857 1.262-1.18.65-1.737ZM14.107 29.524c-.473-.03-.466-.547-.432-1.085.466-.402 1.589-.146 2.387-.217-.302.494-1.511.08-2.17.217-.07.504.034.832.217 1.085h-.002ZM15.844 33.214c.33.536.82.917 1.518 1.085.02.307.036.614-.216.65v-.432c-.465-.406-1.296-.444-1.303-1.303h.001ZM29.3 37.119c-.552-.026-.841-.317-.869-.867.218-.24 1.184-.815 1.52-.218-.536-.029-1.046-.034-1.302.218-.19.696.562.45.65.867ZM46.445 38.638a20.734 20.734 0 0 1-2.822-2.82c1.032.85 1.972 1.79 2.822 2.82ZM35.16 38.205c.175.041.216.218.434.218-.223.72-.6 1.28-1.52 1.301-.04-.175-.216-.215-.216-.433.665.642 1.91-.455 1.302-1.086ZM33.424 39.724c.372.28.853.45.869 1.087-.428.64-2.141.559-2.604 0 .713.066 1.776.5 2.387 0 .102-.683-.585-.575-.652-1.087ZM27.348 46.019c1.074-.59 3.46.132 4.557-.434-.803.862-3.078.25-4.557.434ZM30.819 49.709c1.522-.151 1.723 1.984 0 1.734 1.325-.233 1.237-1.445 0-1.734ZM32.34 52.53c.175.04.216.216.434.216-.026 1.203-1.043 1.418-1.954 1.735.495-.59 2.324-.76 1.52-1.95ZM21.054 53.181c-.892.68-.041 1.621.434 2.171-.567-.374-1.1-.783-1.086-1.737.195-.096.39-.19.434-.434h.218ZM21.27 49.492c-.858 1.309.85 1.688 1.737 1.952-1.388.306-2.87-1.125-1.737-1.952ZM22.139 47.755c-.557-.024-.432-.727-.435-1.303.393-.412 1.678-1.057 2.388-.432-.958-.089-1.678.06-2.17.432-.029.538-.032 1.046.218 1.303h-.002ZM41.672 40.158c.812.019 1.755.167 1.519-.868.874.68-.977 1.604-1.52.868ZM21.054 44.282h.216c.431-.293-.068-1.515.65-1.52-.18.254-.286.583-.216 1.087v.216c.041.176.218.215.217.435-.613-.18-.563.304-1.085.216.041-.174.218-.215.218-.434ZM20.4 44.716c-.682.105-.489-.666-1.301-.434-.073.724-.63.963-.434 1.953.244.046.338.24.434.436-1.192-.366-.43-1.995 0-2.606.733-.082.926.377 1.301.651ZM20.618 46.236c-.317 1.027.722 2.06-.218 2.386.506-.61-.25-1.356 0-2.386h.218ZM19.533 58.39c.454.269.815.63 1.085 1.085-.844 1.017.373 2.01-.434 2.603.25-.88-.454-1.545.216-2.603-.146-.505-.719-.581-.867-1.086Z" fill="#EE7623"/><path fill-rule="evenodd" clip-rule="evenodd" d="M33.64 5.651c1.913-.004-.371.694-1.302.435v-.218c.38-.125 1.275.262 1.303-.217ZM40.585 5.651c3.078-.224 1.128.7-.867.434v-.218c.325-.036.8.078.867-.216ZM37.547 6.736c.546.012 3.107-.096 1.954.216-.685-.02-1.637.806-2.172.217.514.181.998-.305.217-.217l.001-.216ZM29.95 7.169h1.737c-.21.442-.832.47-1.519.434 0-.216-.175-.257-.218-.434ZM33.858 8.255h2.17c-.233.36-1.936.36-2.17 0ZM27.564 8.907c.544.178 1.868-.423 1.736.433h-.651c.037-.47-.77-.1-1.085-.216v-.217ZM30.602 16.501c.302-.494.752-.84 1.087-1.301.097-.605-1.184.169-1.087-.434h1.52c-.433.65-.816 1.356-1.52 1.735ZM27.348 17.805c-.568.622-1.522-.204-1.52-.87.463-.766 1.764-.695 3.039-.649.035-.615-1.338.18-1.303-.434.701.18 1.877-.271 1.954 0-.304 1.216-2.895.142-3.473 1.083.028.697.492.957 1.303.87ZM20.185 18.021c-.54-.278.064-1.217.434-1.302-.233 1.101.401 1.334.869 1.737-.628-.096-.989-.457-1.087-1.085-.21.004-.166.265-.216.434v.216Z" fill="#231F20"/><path fill-rule="evenodd" clip-rule="evenodd" d="M79.868 31.477s4.484-4.585 3.256-12.805c-.99.296-2.516.617-2.836.375 0 0 .081 8.273-.16 10.122-.24 1.846-.259 2.306-.259 2.306l-.001.002Z" fill="#fff"/><path fill-rule="evenodd" clip-rule="evenodd" d="M20.412 22.799c.593.158.438-.432.869-.435-.194.386-.607.552-.434 1.303-.221-.142-.224-.498-.651-.434-.571-.064-.713.3-.652.868-.748-.624.52-1.057.868-1.302ZM41.68 9.343c-1.828-.227-4.66 1.099-5.425-1.085h-.218c-.233.358-1.935.358-2.17 0h-.216c-.318-.189-.689-.324-.652-.868.431 0 .276-.591.869-.433-.28 1.22 1.081.8 1.953.867.388.028.457-.265.867-.216.778 1.612 2.773.86 4.342.434.628.122-.334.34-.218.652.747.73 1.571-.302 2.388-.218-.434.361-.803.786-1.52.867ZM39.077 4.566c.475.394.83.907 1.52 1.087 3.078-.223 1.128.7-.868.434v-.218c-.709.058-1.045-.257-1.085-.868.194-.096.389-.19.433-.435ZM37.558 6.74c.547.011 3.106-.097 1.953.215-.684-.02-1.636.806-2.17.217-1.036.282-2.133-.838-1.084-1.301.714.009.373 1.072 1.3.868ZM35.387 4.35c.28.3.943.215 1.519.217.06.583-1.529.618-1.736.217-.454.092-.574-.147-.868-.217.023-.552.809-.512 1.085-.217ZM29.744 6.088c-.065.506-.461.934.218 1.084H31.7c-.21.442-.833.469-1.519.434-.77.049-1.3-.145-1.519-.65-.032-.683.556-.744 1.083-.868ZM27.575 7.822c.06.637-.87.808 0 1.087.545.178 1.87-.424 1.737.432h-.65c-1.028.014-2.137.113-2.388-.65.007-.716.617-.83 1.3-.869ZM16.723 22.798c.392-.585.796.634 1.737.218.092.453-.149.576-.218.869h-.216c.01-.278.277-.3.216-.652-.899.25-.845-.456-1.519-.435ZM21.715 24.535c.285.075.341.381.652.433.038.763-.733.715-.868 1.303-.075.784 1.58 1.202.432 1.736.703-.81-.722-.883-.65-1.736.25-.273.762-1.15 0-.651.04-.175.218-.216.218-.436.277.014.3.28.65.218.157-.593-.431-.437-.434-.867ZM59.695 52.966c-.904-.326-1.844-.617-2.388-1.302ZM33 28.442c.42.329 1.184 1 .653 0 .524.198.572.873.65 1.519-.522-.416-.86-1.018-1.302-1.52ZM16.29 49.712c-.086 1.071-1.218 1.097-1.956 1.517-.192-.063-.949-.588-.432-.652 1.06.563 1.971-.144 2.387-.865ZM26.706 49.276c-.996-.733 1.154-1.283 1.52-.65h-1.52v.65ZM62.733 51.664c.492.649-.313 1.453-1.303 1.302.387-.48.72-1.017 1.303-1.302ZM65.338 52.314c.729-.222.337.675.434 1.087-.51.068-.815.342-1.517.216.341-.453 1.164-.427 1.083-1.303Z" fill="#231F20"/><path fill-rule="evenodd" clip-rule="evenodd" d="M82.7 16.07c-.346.74-1.316.854-1.953 1.302 1.208.195 1.55-.473 2.171-.868.006-.948.08-1.96-.434-2.388-.15.873.207 1.24.216 1.954Zm3.4-6.427C84.83 6.827 84.507 2.8 81.398 2.18c-2.748-.548-5.86 0-5.86 0-2.247.623-2.972.179-5.209-.216-1.169-.165-1.336-.165-2.386-.216-1.665-.144-3.274-.311-5.21-.218-.298.009-1.267-.174-1.442-.288-1.89-.57-2.999-.8-5.5-1.015-1.167-.1-2.426-.27-4.123-.216-3.63.43-6.226 1.08-8.432 3.026a82.433 82.433 0 0 0-3.245-.39h-1.43c-1.699.047-2.156-.142-4.286.158-3.501.492-5.598 1.706-7.783 3.065-1.706 1.066-2.488 2.071-3.69 3.69C14.805 22.767 1.11 31.387 0 51.26l.006 3.832c.207 2.415.81 6.33 1.525 7.64 2.325 1.535 5.918.83 8.03 1.3.704.157 1.23.782 1.953.869 1.635.198 3.052-.846 4.341-.216 1.1-.014 1.284.531 3.038.216 1.883-.815 3.959-.853 6.294-.434 2.077.123 3.758-.15 5.642-.217 2.252-.68 4.38-.886 5.426-2.389 2.98-4.269-3.323-7.883-3.038-12.15-.361-.734-.361-2.96 0-3.693.216-3.257 1.75-5.194 3.472-6.944 3.33 2.314 6.928 4.359 9.768 7.16 1.367 1.287 1.844 1.194 2.604 1.954 4.658 3.012 9.294 6.041 15.625 7.38 1.2.112 2.048-.124 3.038-.217 2.898-1.04 5.364-3.406 4.34-7.597-.361-.434-.787-.803-.867-1.52-.256-2.781-2.09-3.985-3.256-5.858-.634-.652-1.925-1.618-1.736-2.389.562-.538 1.064.21 1.954 0 8.72-1.749 13.77 3.47 17.363 8.248-.412-1.544-1.012-2.434-1.955-3.907-.815-1.039-.983-1.205-1.952-2.171-1.674-1.583-4.807-1.965-6.818-3.641 0 0 6.197.419 8.12-.05 1.077-.261 2.841-.482 3.472-1.518-2.624 1.372-5.898.897-9.55.432h-2.171c-2.435.172-3.89.633-6.727 1.087-.92.212-2.828.842-3.474 0-3.886-2.913-8.357-5.242-10.634-9.767C58 21.317 64.825 18.593 71.63 15.847c-.183 1.413.358 2.101.867 2.822.48.026.043 1.441.17 1.822.046.864.046 1.533 0 2.009-.136.588-.215 1.203-.17 1.595-.63 3.711-1.738 6.364-2.604 9.55.796.142.884-.229 1.722-.648.972-.691 1.515-1.398 2.403-2.174 1.734-2.528 2.826-5.841 3.472-9.114.175-.895.136-2.385 1.085-3.04 1.385.349 1.007 2.464 1.085 4.123.16 2.168.119 3.596-.09 5.6.02 1.218-.085 1.506-.337 3.265l-.224.9c1.172-.346 1.649-1.152 2.388-2.17 1.155-1.883 2.109-3.672 2.723-7.063l-.125-3.42c0-1.168.382-2.378.44-3.624.06-1.26-1.11-3.162-.434-3.905.157-1.074 1.438-1.024 1.953-1.737l.146-1.003.002.008Zm-27.274 9.466c-.556.168-1.23.217-1.519.651-.599-.544.829-.896 1.085-1.301.279-.373.448-.855 1.086-.869.569.633-.161 1.283-.652 1.52Zm1.953-1.084c.083-1.076 1.385-.931 1.737-1.737 1.105.743-.865 1.583-1.736 1.737Zm6.513-3.69c-.487 1.398-2.667 2.536-3.907 1.302.091-.488 1.15-.006 1.301-.434.404-.006 1-.477 1.528-.896-.001.008-.007.02-.007.027.003-.013.012-.021.015-.035.748-.594 1.355-1.079 1.07.035Zm1.084.216c-.001-.431-.592-.276-.434-.869.21-.006.168-.265.218-.434.849.215 1.26-.48 1.736 0-.14.8-.743 1.138-1.52 1.303Zm8.682 6.292c-1.112 5.038-2.252 10.05-6.512 11.936 1.76-3.772 3.123-8.978 2.822-14.105.998-.3 3.108-.451 3.97.265 1.25.213-.53.279-.28 1.904Zm6.076 2.822c-.2 3.49-1.504 5.875-3.256 7.812.361-2.913.556-3.928.433-6.076v-4.558c-.155-.652-.072-1.238-.216-1.735 1.385.225 1.843-.472 3.04-.434.094 1.427.203 3.36 0 4.991Zm.651-7.162c-.497 2.008-3.757 2.61-5.642 1.302-.287-.635.139-1.12 0-2.17-.826.26-.215 1.955-1.085 2.17-1.518-.59-2.96.332-4.124 0-.61-.402-.412-1.612-.435-2.604 2.697-2.006 6.951-2.454 10.852-3.254-.578 1.702.832 2.953.434 4.556ZM66.857 3.914c.494-.739 2.461-1.313 3.255-.433-.041.176-.218.215-.218.433-.128.74-1.2.536-1.52 1.085v.218c.342-.127 2.532.157 1.52 1.303-.38.416-.256 1.336-1.083 1.3-.339-.89-.578-1.88-1.737-1.953-.389.03-.457-.265-.867-.216.021-.774.1-1.49.65-1.737Zm-2.17 3.473c1.03.164 1.19-.547 1.736-.867 2.392.396 1.257 3.275-.216 3.905-.694.185-.672-.342-1.085-.433-.29 1.013-.885 1.72-1.303 2.602 2.694-2.117 7.742-3.824 6.727-8.247.501-.223.7-.747 1.52-.65.654.1 1.041 1.927.217 2.169-.097.626-.934.513-1.086 1.085 2.81.602 1.49-4.865 4.123-3.04v1.085c-.067.526-1.335.96-.869 1.303h.217c.472-.735.696 1.74.217 1.953-.224.498-.448.998-.867 1.301-1.348.335-1.235-.79-2.17-.867-.16 2.64 3.888 1.952 3.69-.218.06-.736.344-1.248.216-2.17-.381-.196-1.074-.603-.217-.868.421-1.441 1.856-2.837 3.256-1.52.03 1.837-1.066 2.553-2.17 3.256 2.405 1.64 2.465-3.01 3.906-3.256.916-.154 2.44 1.171 1.735 2.823-.984.117-.579-1.157-1.519-1.085-.436 1.597.072 3.71-1.517 4.992.69.604 1.94-.075 2.387-.435-.624-1.336.582-2.553 1.302-3.254.903.036.755 1.124 1.3 1.519.59.088.898 1.031.436 1.519-.923.125-1.008-.584-1.304-1.085.01-.373-.16-.562-.433-.652-.236.053-.147.431-.434.434-.612.72.927.68.65 1.736-3.682 1.436-7.008 1.817-10.634 2.605.135-.59.906-.54.868-1.303 1.481.99 2.9-.963 3.689 0 .673-.34 1.422-.603 1.735-1.302-.423-.517-1.214.397-1.735-.218-.31-.655.094-1.163.216-1.952-1.068-.268-.923 2.546-1.953 3.038-.829.105-1.385-.062-1.735-.434-1.445.436-1.181 2.58-3.473 2.171.785-1.187 1.81-3.126.869-4.775-.564 1.752-.387 4.242-2.822 4.124-.506-.29-.335-1.257-.652-1.736-.887 1.249-.926 3.962-3.689 3.906.197-.556.352-1.231-.216-1.519-.869 1.59-1.628 3.293-3.256 4.123-.866-.577 1.027-1.6-.217-1.952-1.432.74-1.368 2.971-3.472 3.038-.25-.257-.245-.768-.216-1.304-1.55.693-1.148 3.34-3.69 3.038-.49-.469.18-.74 0-1.517-1.97.343-1.122 3.507-3.907 3.038-.285-.674.06-.62 0-1.52-1.58.951-1.803 3.261-4.341 3.255-.194-.387-.605-.55-.434-1.3-1.004.007-.656 1.367-1.52 1.517-.175.8-.892.181-1.3 0-.159-1.097.237-1.643.65-2.17.858.213 1.574.3 2.168-.216 2.693-.854 5.636-1.457 7.813-2.822.328-.753 1.436-.08 1.736-.436 2.02-.005 1.933-2.118 4.34-1.737 3.21-1.927 6.013-4.26 6.728-8.682l.004.007ZM54.052 20.843c.128-1.1 1.351-1.106 1.737-1.951 1.249.824-.707 1.98-1.737 1.951ZM49.93 22.58c.074-.794.743-.993 1.302-1.3.767.039 1.189-.92 1.736-.435.11 1.194-1.393.777-1.955 1.303-.183.321-.545.466-1.083.434v-.002Zm-2.822.65c.175-.762.794-1.087 1.737-1.084.192 1.132-1.012.869-1.737 1.085Zm-3.04.87h-1.085c.081-.581 1.154-1.019 1.085 0Zm.218-12.589c.433-1.406 3.061-1.36 3.472 0-.263 1.038-.438 2.165-1.517 2.388-.15-1.299-.695-2.202-1.955-2.388Zm12.37.87c-1.41-.358-.877-3.71-.65-4.993.166-.745.317-1.18 1.301-.867.03 1.114-.03 2.138-.433 2.82-.14.947.282 2.453-.218 3.04Zm-.866 1.301h2.17c2.943-.529 3.94-3.001 4.773-5.642.826 8.31-12.95 7.989-12.153.434 1.02 2.454 2.228 4.716 5.21 5.208Zm6.727-11.72c1.125.453-.901 1.183-1.738 1.085-.944-.044-3.27.893-3.472-.433 2.219.264 3.248-.658 5.21-.652ZM17.807 25.184c.098-.603-1.182.17-1.084-.433-1.63-.137-1.492-1.78 0-1.954.391-.585.533.993 1.473.576.091.452.114.216.046.508h-.217v.869a5.23 5.23 0 0 0 1.085 1.085c.591.481 1.741.134 2.17-.218.04-.175.218-.216.218-.436-.73-.283-1.657-.369-1.954-1.085-.748-.624.52-1.057.869-1.302-.456-.267-.846-.6-1.303-.866-.126-.705.15-1.012.218-1.52-1.1-.087-3.026.141-3.427.755 2.726-3.506 5.388-8.197 7.983-11.607a12.243 12.243 0 0 1 2.17-2.17c2.308-1.743 4.738-3.362 8.465-3.688 1.962-.145 3.83-.363 4.991 0 1.57.166 2.857.615 4.34.867.18-1.294 2.212-3.1 4.342-2.388-.08.645-.377 1.071-.869 1.303-.158.792-1.71.428-1.953 0-.658.265.154.829.216 1.085 1.562.042 2.55-.488 3.038-1.52.514-1.515 2.447-.607 2.822.435v.218c.736.893-.906 1.255-1.953 1.085-1.902.268-3.678.662-4.34 2.17.845.118 1.937-1.387 3.473-1.302.446-.361 2.377-.361 2.822 0 1.584.137 2.71-.184 3.689-.652.275-.6 2.273-.61 2.821-.216 2.13.475 3.812 1.395 5.86 1.954-2.57.771-7.265-2.648-9.983 0-3.196-.112-6.303-.98-8.247.867a20.65 20.65 0 0 1-2.82 2.822c-3.378 2.703-6.37 6.939-12.154 6.51v-.432c.301-.494.75-.84 1.086-1.301.096-.605-1.184.169-1.087-.434-.633.057-.665-.49-1.3-.433-.16-.593.43-.437.432-.869-.61.041-.923.378-.867 1.087.45.49 1.202.678 1.953.868-.294.576-1.144.591-1.086 1.518 4.411 4.392 10.864-4.664 13.457-4.774 1.682-.073 3.341 2.14 1.086 3.473-.068.295-.544.18-.868.216-.22-1.015.87-.72.65-1.736-.071-1.022-1.52-.603-1.951-.216-.106.684.667.492.434 1.303-.523.778-2.127.477-2.604 1.301.816.86 2.026-.588 2.604 0-.412 1.475-3.035 2.17-4.123 1.086-.459.657.209 1.47-.652 1.954-.264.678-1.98.949-2.388.216-.681-.102-.573.585-1.085.65-1.196.185-1.802-.222-1.735-1.3-.573.912-2.138 1.488-3.256.65-.128-.779.253-1.048.432-1.518-3.66 2.54 2.672 3.21 4.993 2.604-.138.73-1.04.697-1.953.652-.442-.454-1.248 1.4-2.171.435H30.4a1.107 1.107 0 0 1-.652-.652c-.523-.069-1.052.946-1.518.216h-.218c-.273-.053-.22-.433 0-.434.155-.59-1.024.154-.868-.434-.634-.235-1.137-.6-1.085-1.52.666-.417 1.702-.467 2.17-1.084-.008-.212-.267-.17-.435-.218h-.434c-.568.623-1.522-.204-1.52-.869.463-.766 1.764-.696 3.04-.65.034-.614-1.339.18-1.304-.435-2.136-.825.438-1.77 1.087-2.387-.28-.734-1.685-.34-2.17-.869-.142-1.153.994-1.03 1.301-1.735-.58-.433-1.913-.113-2.604-.434-.362-.43.02-.276 0-.869-.416.093-.934.08-.868.65.157.714.89.85 1.737.87-.373.423-.378 1.214-.65 1.736-.78.128-1.05-.253-1.521-.432-.186-.694.34-.672.434-1.087-.773-.05-1.135.313-1.085 1.087.08 1.446 2.362.554 3.038.867.066.935-.725 1.011-1.085 1.519-.119.769.768.533.65 1.302-.491.232-.787.659-.867 1.303-.15.873.914.533.868 1.303-.381.196-.398.76-.65 1.083.009 1.147 1.258 1.057 1.735 1.737.032.61-.53.626-1.085.65-.943-.286-1.783-.674-1.737-1.953h.216c.255-.323.27-.886.652-1.084-.416-.38-1.132-.46-1.735-.651-.25-.61-.25-1.13 0-1.739-.981.034-.93 1.096-1.303 1.739h-.432c-.628-.098-.99-.457-1.087-1.087-.21.007-.167.266-.216.435v.218c-.119.48.414.307.434.65-.635 1.16-1.08 3.151.65 3.473v.216c-.193.385-.606.552-.434 1.303.028.551.316.84.867.868.285.075.342.381.653.433.038.763-.733.714-.869 1.303-.075.784 1.58 1.202.433 1.736-.297.278-.297 1.024 0 1.302.81-.23.344.815 1.086.652v.216c-.47.887.09 1.696.65 2.171-.362 1.014-1.343 1.407-2.821 1.303-.187-.175-.13-.596-.434-.652.012-1.074.61-1.56 1.302-1.952-.062-.382 1.021-.672.435-.868-.767.59-2.581.68-2.82-.433.09-1.354 1.157-1.735 1.518-2.822-1.775.529-3.477 3.907-.868 4.557-.712 1.125-.564 3.086.868 3.256-.352 1.462-1.811 3.514-3.256 1.954-.19-1.347.337-1.978.651-2.82-.326-.398-.936-.513-1.301-.869-.088-1.391.405-2.199 1.085-2.822-.137-.733-.771-.964-.869-1.735-.193-.857 1.263-1.18.652-1.737-.73.686-1.831 1.266-3.04.868-.171-1.982 2.45-1.167 3.04-2.389l-.003-.006ZM37.992 24.1c-.165-1.61 1.248-1.645 2.388-1.953.886.544-1.123 2.837-2.388 1.953Zm-3.907 1.52c.535-.03 1.046-.034 1.301.217-.03.424-.967 1.03-1.3.433-1.442-.742-2.457.3-3.257.869-1.086.679-1.008 2.137.217 2.605.175.041.216.218.432.216a1.943 1.943 0 0 1-.867.869c-.117.768.77.533.653 1.302-.962 1.206-2.595.255-3.256-.652-.552.786-1.992.616-2.604-.216.112-.323.32-.549.432-.869 1.026.415 2.414 1.017 3.473.217-1.192-.473-3.358.03-3.255-1.737-.784.338-1.7.661-2.387 0-.157-.663.222-.79.216-1.301 1.606.56 4.743 1.26 5.644-.434-1.437.047-3.078.546-4.123-.217.554-2.861 2.722.06 4.557-.216.478-.492-1.114-.756-1.301-1.303.198-.38.403-.753 1.083-.649.198-.378.76-.562 1.086-.216.157-.593-.43-.438-.434-.869 1.018.008 3.192.466 3.907-.87 1.23.84 2.468.125 3.472-.434-.61 1.344-1.748 3.069-3.472 2.604v-1.085c-.828.015-1.3 1.627-.217 1.737v-.002Zm-10.2 11.285c-.82.264-1.625.96-2.604.434-.375-.737-.151-1.59 0-2.387 1.699-.256 1.979-1.928 3.472-2.39.253 1.195.773 2.121 1.303 3.039-.316.335-1.113.192-1.737.218-.12-.53-.84-.462-.65-1.301-1.541.354.065 1.721.216 2.386v.001Zm2.605-1.085c.085.814-1.32 2.005-2.605 2.17.545-1.044 1.76-1.423 2.605-2.17Zm-4.991-12.588c-.055-1.067 1.273-.751 1.735-1.301.431 0 .276.59.868.432.873.278 1.072.258 2.604 0 1.47-.093 2.086.665 2.822 1.303-.993.904-4.295 2.589-3.689-.218-.16-.387-.394-.03-.65 0-.946.302-.023 1.122 0 1.736-.703-.038-1.6.842-1.087 1.302-.301.63-1.07-.062-1.302-.218-.375-1.534 1.132-1.183 1.302-2.17-.52-.176-2.472.628-2.603-.866Zm-.653-2.388c-.094-.746.086-1.216.217-1.735 1.44-.357 1.566.603 2.604.65-.212.586-.479 1.113-.65 1.737-1.095.154-1.492-.39-2.172-.652h.001Zm-4.775 7.38c.479.458.375 1.662 1.085 2.387-.906.396-1.222 1.382-1.301 2.604.33.538.82.917 1.52 1.086.017.306.034.614-.219.65-.92 1.226-.783 3.397.652 3.907-.43.974-.245 2.526.433 3.038h1.52c-.423.88-.767 1.838-2.172 1.737-.669-.746-.063-.943 0-1.954-1.018.213-.832 1.628-1.953 1.736-.963-1.334-.212-3.717.218-4.992-.555-.54-.682 1.19-1.521 1.084-.654-1.234 1.48-1.359 1.737-2.387-.689-.602-1.123.893-2.17.65-.98-1.292-.183-3.918 1.954-3.47-.136-.662-1.168-.425-1.303-1.087-.726.361-.627 1.545-1.954 1.303-.25-.258-.245-.77-.216-1.303 1.88-.362 2.272-2.212 4.123-2.604-.705-.45-2.185-.13-2.388-1.085-.473-.03-.466-.546-.432-1.084.466-.403 1.589-.145 2.387-.215Zm-4.123 3.472c-.14-1.154.273-1.754.869-2.17.559.175 1.245 1.345 1.085 1.52.056.895-1.362 1.08-1.954.65ZM13.25 25.4c.43.003.275.592.868.434-.841 1.2-.247 2.9-2.17 3.253-1.21-1.408.74-2.68 1.302-3.688ZM4.568 41.678c.585.647.67 1.788 1.303 2.389-.541 1.158-1.4 3.035-2.604 2.821.463-1.708.733-3.61 1.302-5.209l-.001-.001Zm-.434 18.231c.102-.903-1.015-2.136 0-2.603.713-.518.73-1.731 1.953-1.737 1.36-.016 1.27-1.48 1.953-2.17 2.87-.459 3.465-3.19 5.208-4.775-1.066-1.61-.932-4.422-2.17-5.86.157-.494.194-1.11.435-1.518-1.166-1.043-2.143-2.805-1.52-4.993-1.852-1.187-1.656-5.5.217-6.51 1.711.858 1.196 4.482-.867 4.559-.037.542.334.68.65.867.953.228.714-.733 1.52-.65.333 1.739.458 4.771-1.085 4.556-.037.543.333.68.65.867 1.204.265.907-.972 1.737-1.085.561 1.477.689 4.064-.65 4.775.788 1.113 1.217-.444 1.953-.65.67 1.593.509 3.661-.65 4.556.781.699 1.217-.799 1.736-1.084 1.14.308 1.15 1.743 1.085 3.256-.085 1.071-1.217 1.097-1.955 1.518-.553.964-1.988 1.048-2.17 2.387-.77.338-.13-.737-.65-.65-.623.75-.687 2.061-1.735 2.387-.684.105-.849-.31-1.303-.434.358 1.11.361 2.654-1.953 2.605-.01.99-.729 2.406-2.388 2.388l-.001-.002Zm9.55 3.255h-.218c-1.006.139-1.342-.393-1.736-.867.183-.614.994-.599 1.087-1.303.192.096.388.19.433.433.434.218.342.961 1.084.87.037.542-.332.68-.65.867Zm6.51-1.085c-.534.895-2.247 1.336-3.472.867.088-.853.954-.926 1.085-1.738-.67-.58-.972 1.046-1.953.87-2.057-.083-1.986-2.82-1.085-4.125-.794.073-.81.925-1.52 1.085-1.007-.152-1.339-.975-1.519-1.955-.018-.344.106-.827-.216-.868-.856 1.267-.33 3.426.869 3.906-.16.637-.659.934-1.087 1.301-1.316-.13-1.721-1.171-1.519-2.82-1.362.014-.404 2.347-1.303 2.82-.51 1.146-2.087.44-2.387-.432 1.98-2.65 4.34-4.92 6.728-7.163.395 1.342.674 2.799 2.82 2.388-1.03 2.085 2.065 5.26 3.473 2.821-2.898.656-2.927-2.928-1.736-4.993-.898.042-.734 1.148-1.518 1.303-.956.015-1.363-.52-1.737-1.086.144-.867.539-1.486.868-2.17 1.04.408 1.198 1.697 2.822 1.52.442-.065.577-.435.867-.65-.244-.871-1.266.16-1.954-.433-1.046-2.174 1.457-2.367 2.388-3.256-.186-.538-1.512.064-1.736-.434.221-1.856-2.51-2.97-1.084-5.208.423.445.676 1.06 1.519 1.084-1.856 3.353 4.554 2.404 1.301 1.956-1.192-.364-.43-1.994 0-2.605.734-.084.926.374 1.303.649h.434c.041-.174.218-.215.216-.433-.634.055-.748-.408-1.085-.65.273-1.754 1.626-2.426 2.388-3.69-.754-.313-1.592 1.153-3.038.87-.31-.417-.824-.624-.869-1.304.081-1.077 1.373-.941 1.52-1.953.98 1.166 2.181.835 3.69 1.301-.602 1.28-1.689 2.074-1.737 3.907-.182.253-.285.582-.217 1.088v.216c.041.175.217.217.217.433-.035.978-1.343.68-1.301 1.737-.319 1.027.72 2.061-.218 2.387-.844.098-.889.994-1.303 1.52-.096.818.428 1.019.652 1.518.082.808-.88.569-.652 1.521-.357-.036-.357 1.338 0 1.301-.038.762.734.715.868 1.301-.108.85-1.115 1.655-.434 2.606.454.27.817.63 1.087 1.085-.846 1.018.371 2.01-.435 2.605Zm13.89-22.355c-.041-.175-.218-.215-.217-.434-.725-.358-1.403-.768-2.603-.65.377.708 1.252.917 2.17 1.084.371.28.852.451.868 1.087-.428.638-2.14.559-2.604 0-.634-.235-1.251-.486-2.171-.435.437 1.375 3.483 1.288 3.256 2.604-.561 1.55-3.188-.376-4.341.434.437 1.37 3.31.305 3.905 1.518.01.372-.162.562-.433.652-.803.861-3.078.25-4.557.433.542 1.555 4.237-.04 4.557 1.737-.053 1.467-2.377.663-3.689.868h-1.52v.65c.803.718 2.695.347 4.124.437 1.522-.151 1.724 1.983 0 1.734h-.218c-.441.498-1.802.08-2.604.217-.624.026-1.42-.118-1.735.217-.032.61.532.626 1.085.652h4.99c.177.04.216.216.434.216-.026 1.202-1.042 1.417-1.953 1.736-1.09-.005-2.257-.086-2.604.65 1.357 1.593 4.175-.825 6.076 0-.184 2.491-3.323 2.03-4.991 3.038 1.979 1.372 3.692-1.203 6.076-.866.521.746.844 1.708.434 2.82-1.466 1.845-1.214 1.763-2.604 2.389-2.823.577-6.885 1.106-9.548 0-.924-.18-2.228-1.63-.869-2.171 1.393-.416 3.526-.092 4.341-1.085-1.711-.36-5.674.36-5.86-2.171 1.001-1.094 2.79.413 3.907-.217-.436-1.3-2.743-.73-3.689-1.519-.567-.373-1.1-.781-1.086-1.735.193-.096.388-.19.434-.434h.216c.889-.488 2.584-.165 3.255-.869.074-.437-.044-.676-.434-.65-.036-.257-.395-.183-.651-.218h-.216c-1.39.304-2.871-1.125-1.737-1.952 1.45.003 2.931.035 3.69-.652-.087-1.215-2.388-.217-2.822-1.085-.555-.024-.431-.727-.434-1.301.395-.413 1.677-1.06 2.387-.436.29.31 1.23.31 1.52 0-.025-1.495-1.841-1.198-2.604-1.952-.042-1.706 2.764-.564 3.472-1.52-.113-1.19-2.132-.473-2.388-1.52.465-1.587 3.314.462 3.69-1.302-.48-.459-1.909.029-1.735-1.085 1.064-.675 2.958-.515 4.34-.869-.198-.379-.404-.752-1.085-.65-.552-.028-.841-.316-.867-.869.216-.237 1.182-.815 1.519-.216 2.025.434 3.37 1.55 5.21 2.17.174.04.215.218.433.216-.222.72-.6 1.28-1.519 1.301l-.001.003Zm25.608 13.24c-.904-.325-1.844-.616-2.388-1.302-4.27-2.022-7.717-4.87-11.502-7.379a1.102 1.102 0 0 0-.65-.65c-.678-.264-.944-.94-1.737-1.087-.41-.745-1.33-.984-1.954-1.519-1.852-1.408-3.963-2.47-6.078-3.689-2.008-1.16-4.222-2.084-6.076-3.472.291-.389 1.256-.672 1.737-.216.415-.526.096-1.786 1.301-1.52-.106-.617-1.133-.313-.868-1.302.874-.15 1.24.207 1.955.218-.14-1.163-1.37-1.236-2.17-1.739-.317-.187-.687-.324-.652-.867.253-.458 1.991-.792 2.171 0h.217c.419.33 1.44 1.38.652 0 .11-.84-1.251-.856-.652-1.519 1.634.447 3.384.181 3.472-1.519h.216c.113-.9 1.953-.073 2.388-.649.9-.134 1.063-1.342 2.172-.652.401.916-1.735 1.155-2.389 1.737-.876.445-1.602.705-1.953 1.301-3.189 5.426 5.468 8.333 7.597 10.635.919.6 1.422 1.618 2.171 2.387 1.58 1.317 3.387 2.399 5.21 3.473.828.617 1.864 1.028 2.387 1.953 3.955 1.202 8.602 6.672 13.237 6.51 1.844-.062 2.424-1.497 3.69-1.735-1.346 4.236-7.394 4.442-11.503 2.606l-.001-.003Zm-2.82-6.946c-4.553-2.817-7.198-5.299-10.416-7.377a20.57 20.57 0 0 1-2.822-2.822c-.975-.906-2.177-1.584-3.472-2.17-.7-.748-1.786-1.109-1.954-2.387.672-.517 1.423.343 1.736.868 2.15 1.177 3.2 3.456 6.076 3.907-.413 2.008 3.233 1.432 3.256 3.689.905-.181 1.025.422 1.735.434 1 2.112 3.674 2.55 4.777 4.556.896.189 1.588.583 2.604.652-.17.75.242.915.434 1.302.722.217 1.49.39 2.17.65 1.239.797 2.656 2.377 4.557 2.605 2.188.262 3.197-1.205 4.774-1.519-1.579 6.03-10.713-.689-13.456-2.388Zm12.153 2.172c-2.826 3.391-6.3-1.298-9.116-2.172.18-.612-.304-.56-.216-1.086-1.156-.143-1.688-.914-3.038-.865.181-1.466-2.173-1.737-3.472-2.39-.064-1.67-1.538-1.933-2.82-2.387v-.867c-3.61-2.613-7.863-4.581-10.418-8.247v-.217c-.12-.385-.111-.902-.434-1.085.587-1.49 1.764-1.996 4.124-1.736 4.136.46 9.993 3.629 11.72 5.86-.309-.019-.615-.037-.652.217 1.332.983 3.303 1.329 4.34 2.604-.345-1.076-1.85-1.993-2.82-3.256-1.34-1.741-4.27-2.992-4.99-4.123a5.447 5.447 0 0 1-.45-.86.073.073 0 0 1 .015-.008c0 .12-.047-.087-.08-.182-1.27-3.437 2.846-5.326 5.94-5.895-1.86 2.004-6.005 3.578-3.689 6.729 2.108 2.866 6.948 6.078 9.116 8.246-1.502.306-3.853-.317-5.21-.869-1.905 3.58 1.337 7.04 3.691 8.466-.062-1.204-1.958-2.359-2.387-3.907.304-.49.877-.713 1.086-1.303 1.876.659 2.028 2.557 3.255 4.341.716 1.04 2.029 1.411 2.17 3.038.925-.085 1.064-.96 1.953-1.084.164 1.32-.148 2.168-.651 2.821.97.67 2.16-.292 2.605-.867.105-.685-.996-.163-1.086-.652v-1.303c.891.633 1.507.026 2.171.217-.157 1.278-.332 2.438-.65 2.82l-.007.002Zm.435-3.256c-1.827-.634-2.016-2.903-4.125-3.255.727-1.726-1.286-1.848-2.17-2.604-.289.517 1.075 1.234 1.736 1.52-.474 2.714 2.999 1.486 2.604 4.12-.95-.589-1.163.278-1.952.436-1.638-2.05-3.533-3.845-4.34-6.728 5.094-.86 6.885 3.736 8.248 6.51h-.001ZM35.172 4.784c.405.012.458-.166.216-.434-.276-.296-1.062-.335-1.085.216.294.069.415.31.869.218ZM32.35 5.871c.382-.125 1.277.262 1.303-.217h-.435c-.944.221-.998-.45-1.519-.652-.21.006-.169.267-.218.436v.216c.294.067.416.31.869.216Zm7.38 0c.325-.036.802.077.869-.217-.69-.18-1.044-.693-1.52-1.086-.045.244-.24.338-.433.434.04.611.376.926 1.084.869Zm-2.387 1.3c.513.18.998-.304.216-.216V6.74c-.928.204-.588-.86-1.302-.869-1.047.464.048 1.584 1.084 1.302h.002Zm-7.163.435c0-.216-.175-.258-.216-.434-.68-.15-.284-.578-.218-1.084-.527.124-1.117.185-1.083.867.218.506.745.698 1.517.65Zm3.474.652h2.604c.765 2.185 3.597.86 5.426 1.085-.055-.451-.954-.06-1.085-.433-.159-.593.43-.437.434-.868-1.57.425-3.564 1.177-4.342-.435-.41-.048-.479.244-.867.217-.556.472-2.36.344-2.17-.65-.763.171-.251.758 0 1.084Zm-4.991 1.085c.035-.47-.77-.098-1.087-.216V8.91c-.87-.279.06-.45 0-1.086-.684.04-1.293.152-1.3.87.249.762 1.358.663 2.387.649Zm5.642 1.303c.026 1.71 2.4 1.072 3.256 1.953.92.053 1.718-.017 1.953-.65-.86-.042-2.01.677-2.17-.435.436-.576 1.5-.526 1.736-1.303-1.312.025-3.035 1.594-4.123.435.218-.433.96-.343.868-1.087-1.318.058-2.111.639-3.69.436-.175-.043-.216-.218-.433-.218-.29-.786 1.274-1.476.217-1.085-.715.006-.83.616-.869 1.301.325 1.091 2.141.959 3.255.653Zm-4.992 1.086c-.333-.93 1.19-1.108.65-1.52-2.234.467-1.352 3.623 1.518 2.605-.33 1.924 2.294.891 2.39 2.387h.432c.92.052 1.719-.018 1.954-.65-.857.198-2.088.45-2.17-.652.754-.26 1.629-.398 1.735-1.303-1.126.25-1.8.948-3.254.868-.003-.43-.593-.275-.434-.868.504-.073 1.017-.14.868-.867-.625.026-1.422-.119-1.735.218-.409.532-1.731.154-1.954-.218Zm-4.775 4.123c-.75-.334-1.79-.381-1.953-1.301.05-.745 1.408-.185 1.301-1.087-.817-.166-1.037.265-1.735.218-1.155 1.323.83 3.005 2.387 2.17Zm11.068 16.278c.257.934 1.12 1.809.65 2.82-.496.138-1.31.432-1.736 0 .025 1.209 2.361 1.416 3.038.651-.223-1.586-.64-2.977-1.952-3.47Zm-.434.433c-.96-.257-2.261-.751-3.04 0v1.087c.527.34.928.807 1.953.65.03-.754-1.1-.349-1.086-1.086.367-.913 1.795.399 2.171-.652l.002.001Zm3.254 1.955c.45.634.835 1.335.869 2.386-.424.305-1.398.709-1.954.216.087 1.22 2.013 1.248 3.038.867.013-1.679-.882-3.597-1.953-3.469Zm3.255 2.168c-.011 1.024.7 1.326.65 2.388-.35.372-.908.54-1.735.434-.032.61.53.626 1.085.65.813.019 1.756.167 1.519-.868-.185-1.188-.683-2.065-1.52-2.604Zm2.605 2.388c.114.752.58 1.155.65 1.953-.088.588-1.03.894-1.518.434-.06 1.018 1.714 1.056 2.387.65 0-1.518-.405-2.632-1.519-3.037Zm3.255 2.387c-.067.864.5 1.091.432 1.955-.182.468-1.383-.082-1.517.436.559.472 1.53.871 2.386.431.014-1.386-.526-2.221-1.303-2.82l.002-.002Zm3.69 4.123c-.258.322-.821.338-1.087.65.316.32 1.42.32 1.738 0 .02-.671-.266-1.037-.435-1.52-.788-.472-.132.26-.216.87Zm2.17.217c-.14.865.574.873.434 1.736-.256.252-.767.247-1.303.218-.003.872 1.134.604 1.953.651.308-.9-.32-2.12-1.084-2.605Zm2.821 3.472c.037.47-.77.099-1.084.218-.07.85 1.5.777 1.954.432-.018-.851-.384-1.352-.652-1.953-.775.185.56 1.12-.218 1.303Zm2.388 0c.402.033.134.736.433.868.578.317-.09 1.19-.651 1.085.053.236.431.147.434.434.503.07.834-.034 1.085-.217.021-1.041-.59-2.581-1.301-2.17Z" fill="#231F20"/><path fill-rule="evenodd" clip-rule="evenodd" d="M13.251 61.429c.434.218.343.961 1.085.87.036.542-.332.68-.65.867h-.219c.025-.41.718-.15.651-.65-.372-.281-.852-.452-.867-1.087Z" fill="#231F20"/><path d="M38.217 64.18V62.18h-.761v-.35h1.92v.35h-.767v2.002h-.392Zm1.422 0v-2.352h.577l.595 1.879.572-1.879h.566v2.353h-.358v-1.973l-.607 1.973h-.355l-.632-2.002v2.002h-.361.003Z" fill="#231F20"/></g><defs><clipPath id="a"><path fill="#fff" d="M0 0h86.39v65H0z"/></clipPath></defs></svg>