<svg xmlns="http://www.w3.org/2000/svg" height="250.05" viewBox="0 0 225 250.05409" width="225"><g transform="matrix(1.25 0 0 -1.25 9.4847 899.26)"><g transform="matrix(1.0411 0 0 1.0411 -2.2849 -24.7)"><path d="m159.79 602.17c2.1581 3.4634 1.9442 7.4801 1.3909 11.356-0.39128 2.742-1.5804 7.0155 0.43713 9.4212l3.5765 4.2582-5.2333 1.8769c-4.2123 1.5101-8.1862 0.40656-11.246-2.7573-3.2036-3.3075-6.1443-7.1133-10.182-9.4854-0.0734 0.39739-0.11004 0.8009-0.12838 1.1738 4.087 4.4905 7.3334 9.623 9.7422 15.189 1.9839 4.5822 3.6529 9.7299 3.6957 14.758 0.0367 3.9433-1.4581 8.229-5.8539 8.9749-5.1538 0.87732-9.0605-4.3163-11.439-8.1006-2.2865-3.6376-4.1237-7.5351-5.4993-11.601-0.60525 0.50132-6.5936 3.9311-6.5936 3.9311l-0.57774-0.79173c-6.2879 3.5949-13.915 0.24761-18.347-4.6678 2.6136 7.4404 5.5451 15.859 6.3949 18.794l1.5896 5.4901s-1.8127-0.11922-4.3193-0.5105v19.821h20.285v34.594h-90.571v-34.594h20.285v-40.852c-4.0778-1.1952-7.3456-2.8948-7.3456-2.8948l0.17118-0.59608c-0.53189 0.14367-4.3927 0.92928-4.3927 0.92928l-0.26594-0.92317c-4.6831 1.8677-9.3417-0.0214-12.958-3.2005 2.207 13.41 5.0407 26.671 8.0242 39.922l-25.158-16.87c-3.1027-2.3507-4.4019-4.5486-4.0503-8.3849l3.1944-17.684 2.5708 2.3416c-0.38822-3.6407-0.71836-7.1163-0.99653-10.476-2.58 7.2233-4.9949 15.052-6.0587 20.077l-2.7512 13.004-11.249-26.118 0.82535-1.7302c4.7499-9.95 11.927-22.34 18.16-32.3l0.6022-0.96291 4.6678-2.4638 1.4979 0.84369c-0.99042-2.259-1.6996-4.894-1.7577-7.8683 11.081 5.5971 22.761 10.042 34.873 12.833 0.79784 0.18035 1.5987 0.35459 2.3996 0.52577v-38.605h-20.285v-34.594h90.571v34.594h-20.285v40.139c2.0236-0.32708 4.0381-0.70919 6.0373-1.1555 6.0648-1.3542 11.995-3.2678 17.708-5.701 5.1447-2.1948 10.069-4.8482 15.138-7.2019 4.8482-2.2468 10.882-4.1726 15.929-1.342 3.2892 1.8494 5.5023 5.8019 5.2608 9.5985-0.35765 5.5574-4.2398 8.4186-7.4801 9.9562" fill="191919"/><path d="m61.375 10.414v30.84h25.352v56.402l0.31445 2.4453c0.70308-0.52348 1.4404-0.99985 2.2695-1.4316 1.1807-0.61136 2.7087-0.98692 4.0117-1.1016 3.5421-0.30569 6.8199 1.2612 9.166 3.8672l0.63086 0.83789c4.8413-7.2103 13.152-11.948 21.119-9.457 1.4444-4.3675 4.4473-16.033 4.4473-16.033 2.2697-1.4482 5.2156-2.5074 8.1387-3.2754v-32.254h25.354v-30.84h-100.8zm59.25 136.75c-1.8028-0.026-3.6046-0.0248-5.4043 0.004-9.5526 0.15284-19.087 0.99715-28.494 2.6211v55.654h-25.354v30.832h100.8v-30.832h-25.354v-57.244c-5.3762-0.62761-10.791-0.95724-16.199-1.0352z" transform="matrix(.8 0 0 -.8 -7.2198 717.26)" fill="#f1b300"/><path d="m51.508 68.721-20.336 13.615c-2.8008 2.1207-3.1237 2.9202-2.8906 5.4727l2.2617 12.482 6.6172-6.0371c-2.4034 18.67-3.5915 33.682-4.1914 48.072l-0.51562 0.28321c-4.7572-8.3146-13.568-33.507-16.178-45.822l-6.5426 15.192c5.8615 12.262 14.726 27.542 22.414 39.834l2.0293 1.0742c3.672-2.0748 5.5684-4.7461 5.5684-4.7461 0.38593-28.902 11.764-79.418 11.764-79.418zm90.281 8.3867s-4.8182 0.47376-8.8418 2.8008c-1.3985 6.3277-4.4403 15.776-6.0566 19.93-8.4675-7.8332-24.794 2.5646-23.338 18.865-1.024 2.3538-2.6712 4.5697-4.6582 3.8398-1.9526-0.71835-0.09967-7.046 0.24805-8.6738 0.56552-3.2441 1.5821-6.7365-0.25586-9.1973-1.8341-2.4646-5.0928-2.7466-7.5039-1.6309-4.4745 2.0634-6.0645 4.3867-6.0645 4.3867l-0.5918-4.7949c-1.6316-0.39357-5.7664 1.3167-7.3789 2.207 1.1578 3.3664 0.42462 15.985-0.32812 18.984-0.42032 1.6813-1.1393 4.6305-3.4473 5.3144-5.3151 1.5705-4.2564-4.1224-2.3535-10.312 0.9247-3.011 2.3044-6.0004 3.5195-8.9082-2.7015-2.2506-5.873-2.7461-5.873-2.7461l-1.5547 3.0371s-0.7039-2.9041-4.418-3.6836c-6.4079-1.345-13.175 6.527-14.543 9.0527-1.6927 3.1256-2.1965 4.8746-3.0371 8.0996-0.88266 3.3702 0.03293 9.4579 2.123 12.301 1.4788 2.0022 3.3598 2.9622 5.3926 3.3672 7.218 1.4482 11.67-6.0957 11.67-6.0957 3.5421 3.2097 7.1976 2.411 8.9668 2.0977 7.7224-1.3526 9.6174-7.8061 10.24-10.408 0.71454-2.9919 1.9082-11.746 1.9082-11.746s1.9824-2.7592 5.1348-3.4356c3.8363-0.81771 1.5829 10.416 1.2695 12.625-0.2178 1.5017-0.07348 6.3544 4.3398 7.3555 4.314 0.97819 6.9086-1.6084 8.9414-4.6309 0 0 2.5686 5.7702 9.1484 3.4356 2.9269-1.0393 5.3262-3.3557 6.4648-5.0293-0.39357 0.58463 2.4597 4.4794 5.8223 4.957 4.7152 0.66869 7.5166-0.3213 10.715-3.5195 0.14902 1.2877 0.75354 3.8024 5.293 5.4492 6.9238 2.5143 12.41-3.9785 12.41-3.9785 0.64194 3.565 2.1434 6.2013 7 7.084 6.1634 1.1196 9.793-3.1797 9.793-3.1797 0.59608 2.755 2.1966 5.7898 4.707 6.8711 4.8336 2.0748 9.4383-1.2995 12.889-3.6074 2.9269-1.9526 7.2949-6.7812 7.2949-6.7812 0.833 1.8914 1.9074 4.8097 1.7852 7.2246-0.11087 2.2162-0.70456 4.2726-1.9082 6.252-1.6087 1.8112-4.2285 2.5295-6.418-1.3145 0 0-0.4505 0.13318-0.68359 0.5-2.1856 3.4466 2.1084 6.3433 5.1309 7.5508 6.1978 2.4646 14.661 5.8349 10.916 10.168-2.136 2.476-6.4916 1.2267-14.439-2.9726-4.2758-2.2621-30.22-18.822-72.592-18.822-33.698 0-70.521 11.103-79.619 25.527 30.756-16.06 54.984-18.627 79.756-18.627 14.382 0.2178 35.74 1.3636 60.24 12.854 15.556 7.2982 20.163 10.852 27.201 9.8965 5.2272-0.70689 7.2673-5.5599 7.0801-8.4219-0.63429-9.9195-15.12-9.911-16.824-12.49 6.6295 1.41 8.9181-2.9545 9.5371-6.4316 1.1654-6.5837-3.9081-16.659 1.3535-22.922-4.9674-1.7768-7.6072 0.57308-10.137 3.5879-2.071 2.476-3.3411 3.641-6.8144 6.9004-1.7882 1.6813-7.443 6.534-10.053 5.6055-3.4351-1.2266-3.2056-7.3704-3.1406-8.7383 4.0809-4.1917 8.0736-9.7126 10.588-14.779 2.6709-5.3762 3.4352-7.6694 5.1738-13.604 0.69161-2.3652 2.4849-11.6-1.3477-13.293-4.2376-1.8647-9.0331 5.2578-11.746 10.076-2.5601 4.5394-4.0848 8.1727-5.6973 13.377-1.3297 4.2987-1.9765 11.827-2.0605 16.404 0 0-3.6264 8.1571-8.418 6.8809-5.3571-1.4214-2.8467-7.9441 0-13.76 1.387-2.8276 3.2146-5.5675 4.8691-8.2461-0.93234-1.6966-5.0215-3.8438-5.0215-3.8438l-2.0137 2.7559s-0.17238-3.1685-3.7871-4.3301c-8.2841-2.6595-14.707 4.0351-16.461 6.3086-2.969 3.8478-4.6263 8.3066-4.9473 11.986-1.4329 2.4073-2.8827 4.4748-6.6465 4.3106-3.3664-0.14903-1.7684-4.9826-1.0156-7.1797 2.178-6.3659 11.329-31.94 13.113-38.092zm46.057 11.791c-0.16812 1.5781-0.94873 5.1748-1.2773 6.2715-2.9231 9.7819-6.7293 14.788-8.4297 17.355 0.28658-2.5869 1.1435-9.2599 6.0039-18.113 1.0661-1.9373 2.3887-4.0082 3.7031-5.5137zm-68.479 14.721c0.22584-0.0248 0.43358-0.0192 0.61914 0.0176 5.5902 1.1043 2.4008 14.448-4.2402 18.15-2.0825 1.1578-4.7155 1.4705-5.4453-2.041-1.7947-8.626 5.6788-15.754 9.0664-16.127zm33.525 2.627c0.21972-0.0204 0.42197-0.0113 0.60156 0.0273 5.403 1.1654 2.0814 14.066-4.4297 17.547-2.0366 1.089-4.5965 1.3475-5.2461-2.0762-1.5977-8.4004 5.7784-15.192 9.0742-15.498zm-92.361 7.582c5.4756 0.78333 3.0598 13.888-3.1914 17.812-1.9602 1.2304-4.5116 1.1436-5.3828-1.7031-2.6633-8.7235 5.6664-16.526 8.5742-16.109z" transform="matrix(.8 0 0 -.8 -7.2198 717.26)" fill="#fff"/></g></g></svg>
