<svg xmlns="http://www.w3.org/2000/svg" height="152.8" viewBox="0 0 250 152.79733" width="250"><g transform="matrix(1.25 0 0 -1.25 -16.923 865.28)"><g><path d="m208.73 629.56c-1.0637 1.5844-2.2296 2.9567-3.3249 4.1896-0.64342 0.72151-1.2664 1.4002-1.8335 2.0548 0.27707 0.53556 0.44444 1.0655 0.54857 1.4839 0.12645 0.5151 0.1841 1.2329 0.21385 1.735 0.0298 0.54114 0.0688 3.1873 0.0688 3.1873l-1.1418-0.58763c0.0167 0.81264 0.006 1.6848-0.0669 2.4472-0.61552 6.4825-4.9539 11.286-9.5415 14.702-2.317 1.7276-4.7698 3.1557-6.9976 4.3198-2.2017 1.1511-4.2175 2.0604-5.7052 2.7559-15.241 7.1147-28.883 9.7832-44.089 17.253-3.4588 1.6996-7.5926 3.7396-10.36 6.1161l-2.2203 1.9042-0.47234-1.4765-2.7317 1.9191s-1.3222-6.2128-0.48906-9.3425c-1.787 0.74011-3.5146 1.6959-3.5146 1.6959s-0.3682-6.2128 1.1232-9.1919c-0.0763 0.0297-3.2933 1.2162-3.2933 1.2162s1.0469-5.9134 2.0232-8.5261l-2.7559 0.80706s-0.22128-5.5118 2.2408-8.1208c-1.5081 0.0725-2.3617 0.3217-2.3617 0.3217s0.7085-2.4174 0.91119-2.7838l-72.347-0.009 1.4282 5.8205h-29.32l7.0943-5.8353c0.05765-0.18038 0.11901-0.40539 0.17294-0.62854 0.05579-0.22872 0.106-0.45745 0.17294-0.59134l-7.9218-32.208h39.925c-0.6899-1.4988-1.1957-3.1092-1.6773-4.6489-0.56345-1.7982-5.7926-26.06-5.7926-26.06h13.341c-0.26406-0.60064-0.43514-1.1697-0.54671-1.6662-0.2529-1.1362-0.06509-3.8065-0.06509-3.8065l3.2542 1.4226c-0.21013-0.66573-0.34402-1.3928-0.42956-1.9563-0.12273-0.79589-0.37191-4.1561-0.37191-4.1561l2.2631 1.5434c0.01674 0.0112 3.0088 2.0362 5.6364 2.5699 1.4951 0.30497 2.6127 0.437 3.3268 0.49279 2.7075-0.004 25.006-0.0335 46.685-0.0465 10.912-0.007 24.314-0.0205 39.862-0.0297l6.2798-16.92 3.1259 3.8289c4.6954 5.6457 12.294 18.345 12.201 26.923l0.0335 0.45188c2.41-0.17108 6.4211-0.38308 9.3406-0.1748 4.5299 0.32356 10.347 1.8372 12.515 2.3896 0.61179-0.53556 1.1641-1.616 1.2031-1.9879l0.42583-4.1301 2.8935 2.9772c4.4574 4.5857 4.9409 9.5731 4.9725 15.291 0.0316 5.6624-1.7238 9.8111-3.9107 13.065" fill="#fff"/><path d="m135.61 3.6777s-1.04 7.4433 0.65 11.994c-0.33-0.193-4.99-2.518-4.99-2.518s-0.42 5.639 2.71 12.215l-4.83-2.285s1.46 7.378 3.47 11.076c-2.56-0.527-4.56-1.359-4.56-1.359s-0.71 3.449 4.28 9.609c-2.65-0.095-4.24-0.559-4.25-0.359 0 0 0.95 2.479 1.11 2.83l-94.96 0.012 1.785-7.274h-29.937l5.607 4.613c0.247 0.268 0.778 2.589 0.725 2.803l-9.4356 38.36h50.584c-1.506 2.264-2.398 5.067-3.304 7.957-0.7 2.236-6.772 30.428-6.772 30.428h17.596c-2.434 2.86-2.246 6.04-2.246 6.04l5.666-2.48-0.49 1.63c-0.289 0.41-0.556 0.87-0.782 1.39-0.692 1.57-0.91 4.48-0.91 4.48s3.993-2.72 7.645-3.46c2.006-0.41 3.494-0.58 4.424-0.65 5.546 0 92.195 0.12 109.24 0.03 2.86 6.61 7.34 19.66 7.34 19.66l2.15-2.64c5.85-7.03 15.02-22.56 14.87-32.65l0.05-0.64 0.03-1.65c2.28 0.19 8.74 0.67 13.17 0.35 6.14-0.44 14.2-2.67 16.06-3.11 1.54 0.74 2.74 3.1 2.85 4.09l0.17 1.64 1.15-1.19c5.1-5.24 5.71-10.9 5.75-17.966 0.04-6.692-2.03-11.559-4.61-15.404-1.28-1.913-2.69-3.571-4.02-5.059-1.12-1.264-2.2-2.421-3.11-3.539 0.63-0.741 0.96-1.656 1.13-2.379 0.24-0.95 0.27-3.023 0.27-3.023s-0.98 0.508-1.52 0.762c0.09-1.137 0.24-3.708 0.06-5.662-0.71-7.418-5.69-13.051-11.27-17.211-2.8-2.09-5.79-3.831-8.53-5.26-2.73-1.427-5.22-2.552-7.06-3.412-19.06-8.898-36.13-12.238-55.14-21.58-4.27-2.099-9.65-4.7396-13.3-7.8753l-0.89-0.7597-0.53 1.6542-3.1-2.2285zm80.14 50.845c2.88 0.433 4.56 3.781 6.65 5.459 2.76 3.324 5.82 8.145 9.96 8.891-0.75 0.897-1.92 0.913-2.98 1.227-3.75-0.33-6.13-5.011-8.76-7.094-0.32-0.34-5.84-5.59-7.97-5.627l-4.07 0.195c-0.97-0.018-2.37 0.546-3.53 0.967 2.59-2.731 6.93-2.874 10.7-4.018zm-2.25 6.051l0.49 0.209c1.19 0.818 2.32 1.56 3.6 2.287 1.2 0.863 1.43 1.385 2.14 2.133l0.1 0.098-0.42 0.433c-0.82 0.521-0.84 0.882-1.82 1.817l-0.42 0.726c0.64 0.31 1.49 0.908 2.18 1.389l0.62 0.48 0.7 0.536-1.03 0.062-3.27-0.103c0.26 0.225-0.22 0.408 0.07 1.812 0.34 2.257 1.27 2.94 2.11 4.014 1.75 1.678 4.52 0.947 4.52 0.947l1.73 0.029c-0.82 1.246-2.59 3.11-4.27 3.082-0.34-0.007-0.75-0.412-1.26-0.617-0.72-1.52-1.96-2.755-2.93-4.105-1.29-1.09-3.13-2.899-3.81-4.498-0.27-0.649-0.36-1.572-0.53-2.36 0 0-0.12-2.204 0.06-3.591 0.26-1.93 1.02-3.98 1.44-4.78zm-14.1 19.963c1.11-0.03 2.26 0.188 2.26 0.188 0.33 0.004 0.54 0.275 0.86 0.298 0 0-3.34 1.454-5.05 2.098 0.12 0.214 0.32 0.444 0.65 0.451 1.48 0.026 3.67-1.787 5.33-1.76 0.72 0.014 2.05 1.028 2.47 1.405l0.44 0.402c-1.36 0.393-3.14 0.833-4.43 1.184l-0.01 0.324c0.24 0.107 0.47 0.104 0.8 0.111 0.33 0.005 4.18-1.195 4.18-1.195s2.04 2.114 2.41 2.133c-0.8 0.511-2.14 1.16-2.14 1.16 0.24 0.107 0.24 0.295 0.57 0.303 0.33 0.004 1.63-1.023 1.87-0.795 0.88 0.841 3.49 3.258 3.58 3.584-6.15-2.838-12.66-4.309-18.36-7.219 0.42-1.425 1.89-2.111 3.53-2.543 0.31-0.082 0.67-0.119 1.04-0.129zm4.48 28.803l-0.01 2.75c-0.21 11.64-6.98 21.65-11.36 27.35 0 0-2.1-6.1-3.26-9.18 2.64-2.25 5.03-5.09 6.25-8.38l0.21-0.29c1.45-3.83 3.37-7.25 4.22-11.26 0.71-0.21 3.01-0.6 3.95-0.99zm-30.72 8.04c0.82 0 1.74 0.23 2.35 0.59l-1.26 1.47c-0.3-0.29-0.74-0.48-1.25-0.48-0.39 0-0.96 0.2-1.08 0.61-0.13 0.42 0.39 0.59 0.72 0.69l0.5 0.15c1.03 0.29 1.74 0.81 1.4 1.98-0.22 0.73-0.63 1.47-1.42 1.96-0.77 0.48-1.67 0.69-2.49 0.69-1.01 0-1.91-0.31-2.58-0.83l1.34-1.53c0.41 0.42 0.93 0.76 1.64 0.76 0.49 0 1.08-0.23 1.24-0.74 0.15-0.53-0.62-0.71-1.03-0.83-1.22-0.34-1.99-0.64-1.58-2.05 0.44-1.48 1.89-2.44 3.5-2.44zm-92.285 0.19h3.135c1.592 0 2.596 0.69 2.138 2.24-0.297 1-1.174 1.87-2.371 2.05l1.653 2.99h-2.612l-1.15-2.8h-0.022l-0.826 2.8h-2.095l2.15-7.28zm39.315 0h2.99 0.01c1.43 0 2.24 0.5 1.83 1.89-0.19 0.66-0.59 1.19-1.33 1.49v0.01c1.11 0.14 1.4 0.85 1.1 1.86-0.45 1.52-2.04 2.02-3.52 2.02h-3.23l2.15-7.27zm22.79 0h3.13c1.59 0 2.6 0.69 2.14 2.24-0.3 1-1.17 1.87-2.37 2.05l1.65 2.99h-2.61l-1.15-2.8h-0.02l-0.83 2.8h-2.09l2.15-7.28zm-48.794 0h4.587l-0.474 1.6h-2.49l-0.36 1.22h2.363l-0.474 1.6h-2.361l-0.372 1.25h2.491l-0.473 1.61h-4.586l2.149-7.28zm11.924 0h2.97c2.25 0 3.62 1.59 3.02 3.64-0.6 2.04-2.94 3.64-5.17 3.64h-2.97l2.15-7.28zm27.36 0h2.1l-2.15 7.28h-2.1l2.15-7.28zm22.82 0h2.97c2.25 0 3.62 1.59 3.02 3.64-0.61 2.04-2.94 3.64-5.17 3.64h-2.97l2.15-7.28zm-73.745 1.45l-0.537 1.81h0.201c0.686 0 1.488-0.12 1.723-0.91 0.234-0.79-0.503-0.9-1.186-0.9h-0.201zm39.315 0l-0.42 1.41h0.24c0.55 0 1.16-0.09 1.34-0.71 0.2-0.67-0.45-0.7-1.01-0.7h-0.15zm22.79 0l-0.54 1.81h0.2c0.69 0 1.49-0.12 1.73-0.91 0.23-0.79-0.51-0.9-1.19-0.9h-0.2zm-36.92 0.15l-1.2 4.07h0.47c1.25 0 2.5-0.62 2.92-2.03 0.39-1.31-0.35-2.04-1.7-2.04h-0.49zm50.18 0l-1.2 4.07h0.47c1.25 0 2.5-0.62 2.92-2.03 0.39-1.31-0.35-2.04-1.7-2.04h-0.49zm-36.88 2.66l-0.47 1.57h0.27c0.62 0 1.66 0.03 1.9-0.77 0.26-0.88-0.8-0.8-1.49-0.8h-0.21z" transform="matrix(.8 0 0 -.8 13.539 692.22)" fill="#231f20"/><path d="m207.68 612.76s-0.47047-2.9307-0.93164-4.0706l-1.4319 2.0232c0.47419 0.93537 0.75312 3.6355 0.74197 5.9897-0.0186 3.4681-1.2701 5.8056-1.7201 8.727 2.2761-3.946 3.5648-8.104 3.3416-12.669m-10.598 13.229c-0.45745-0.11344-0.79589-0.21014-1.2069 0.0205-0.36633 0.20455-0.63039 0.87214-0.63039 0.87214 0.1748 0.90561 0.8647 2.092 1.7536 2.477 0.33101 0.20827 0.70664-0.0707 0.70664-0.0707s-1.456-1.1808-1.0265-1.9098c0.50394-0.85169 2.1645 1.3184 2.1645 1.3184s-0.53742-2.4081-1.761-2.7075m5.973 3.7024s-3.0237 3.5239-5.1733 5.1547c0 0-1.3147-5.1585-3.7805-7.0943-1.6476-1.2924-2.9084-2.4732-4.9576-2.053-1.6532 0.33658-3.3919 2.6852-3.3919 2.6852-1.7666 5.0041-6.5587 7.0571-11.851 6.6777-3.085-0.22129-5.376-0.66759-7.3063-3.085-8.5875-10.756 3.4346-22.644 15.129-24.998 3.814-0.76614 9.9617-0.55787 9.9617-0.55787 1.443-0.18224 9.2737 1.6439 10.635 2.2836-5.5322 3.4179-34.227 16.119-34.331 16.255l-0.68432 0.26406c-0.48535-0.82193-0.42398-2.0176-0.29939-2.9456l-0.53928-0.004-0.27149 1.4988-0.0298 0.88887c0.13389 7.6317 10.743 7.3713 15.777 4.3923-0.11157-0.0948-1.748 0.10785-2.8563-0.0149-1.0451-0.11343-2.6406-0.55601-2.6406-0.55601 3.6373-1.5472 15.617-13.294 25.967-17.993 2.0214-0.91862 4.3607-4.5541 4.3607-4.5541 0.54672 1.1399 1.8149 4.0408 2.1757 6.8023 0.91119 6.9399-2.118 13.32-5.893 16.954" fill="#f6da17"/><path d="m140.1 7.7266c-1.17 7.3474 7.57 15.365 10.5 18.421 0.1 0.231-13.01-7.641-13.59-8.164-0.54 5.126 3.55 9.047 7.2 12.006 2.14 1.732 4.63 3.535 4.63 3.535s-9.54-4.072-13.85-6.052c-1.13 4.565 9.82 11.809 13.25 12.781 0 0-8.83-1.816-12.9-3.529 0 0-0.02 2.582 0.77 3.935 1.03 1.776 4.35 2.967 4.35 2.967s0.66 0.182 3.35 1.269h37.11l-4.03-3.781c-1.78-2.138-4.24-3.955-5.82-6.07l39.13 17.508c2.5-0.572 5.03-0.526 7.32-0.487 5.99 3.824 8.85 9.657 13.34 14.338 0.95-0.934 0.8-3.235 0.85-5.343 0.23-10.602-17.09-19.784-20.01-21.397-3.03-1.678-9.71-4.406-9.71-4.406-17.25-6.439-31.91-10.773-51.53-19.692-5.23-2.378-8.36-5.6382-10.36-7.8394zm3.33 5.7774c0.23-0.174 8.16 5.632 13.58 8.154 4.75 2.206 12.61 4.572 12.61 4.572s-11.77 0.07-21.02-5.966c0 0-4.06-4.373-5.17-6.725-0.01-0.018-0.01-0.029 0-0.035zm-2.41 9.549c0.01-0.003 0.04 0.007 0.07 0.031 5.45 3.187 10.01 6.275 16.12 7.939 1.9 0.516 6.18 1.295 8.06 1.983 0 0-5.84 0.702-9.47 0.008-4.91-0.942-8.08-1.964-11.56-5.553-1.37-1.417-3.38-4.362-3.22-4.408zm-127.91 17.215c3.694 2.036 2.459 5.029 1.936 7.117l-8.0041 32.416h14.547l9.883-39.533h-18.362zm123.5 7.441c-11.75-0.244-16.44 7.555-18.79 16.941-2.59 10.37-1.28 16.091 11.67 16.002 13.15-0.093 16.75-7.377 19.16-16.986 2.64-10.595 1.77-15.669-12.04-15.957zm-91.374 0.803l-13.945 0.027c1.446 1.811 2.171 1.991 1.086 5.789l-6.475 25.475h20.809l3.394-13.535c-1.629 3.256-5.683 7.056-8.142 7.056h-2.994l6.267-24.812zm22.616 0.002l-13.948 0.025c1.448 1.808 2.172 1.991 1.086 5.789l-6.474 25.473h20.808l3.395-13.533c-1.63 3.256-5.684 7.054-8.141 7.054h-2.994l6.268-24.808zm8.517 0c1.595 1.652 1.646 3.798 1.233 5.453l-6.446 25.834h11.514l7.82-31.287h-14.121zm14.723 0c2.069 1.834 2.613 3.463 1.527 7.08l-6.015 24.207h10.767c-2.403-2.499-1.435-4.693-0.73-7.508 0.704-2.817 1.452-5.632 2.156-8.449l4.143 15.957h9.68l7.83-31.287h-8.21l-3.42 13.677-3.55-13.677h-14.178zm59.618 0c2.51 1.652 2.56 3.979 2.15 5.634l-6.64 25.653h11.51l7.82-31.287h-14.84zm24.17 0c-6.7 0-7.84 3.227-9.7 9.162-1.19 3.798-1.19 9.136 4.14 9.406 3.22 0.165 6.06-0.452 4.88 3.647-0.94 3.277-3.19 3.228-5.96 3.228-4.07 0-4.98-2.08-5.52-4.977l-2.45 10.821h17.01c6.79 0 7.84-4.775 9.36-10.28 1.59-5.697-0.74-8.589-4.2-8.589-4.16 0-6.15-0.681-5.25-3.889 0.77-2.706 1.81-3.076 4.49-3.076 3.67 0 5.64 1.446 6.36 4.793l2.47-10.246h-15.63zm-38.72 4.736c3.67 0 1.1 8.674 0.48 11.131-0.71 2.861-1.91 10.861-6.15 10.861-3.89 0-1.26-8.94-0.6-11.576 0.76-3.04 1.94-10.416 6.27-10.416zm83.67 12.053l-0.42 0.431c-0.82 0.521-0.84 0.882-1.82 1.819l-0.42 0.724c0.63 0.309 1.49 0.908 2.18 1.389l0.62 0.48c0.01 0.003 0.01 0.002 0.01 0.002-0.05-0.213 0.4-0.925 0.76-1.429 0.43-0.605 1.33-1.364 1.33-1.364-0.78-0.692-1.78-1.641-2.24-2.052zm-3.46 5.338c0.26 0.225-0.22 0.409 0.07 1.81 0.34 2.26 1.27 2.944 2.11 4.016 1.75 1.68 4.52 0.945 4.52 0.945-1.7-0.646-3.79-1.552-3.75-3.867l-0.02-1.406c0.01-0.33 0.36-1.228 0.34-1.393l-3.27-0.105zm-58.75 11.136c2.03 1.293 1.6 3.713 1.12 5.633l-6.33 25.65h23.22l2.47-9.82c-2.44 3.71-5.41 4.33-7.87 4.33h-4.93l2.01-8.199h9.97l1.45-5.809h-9.96l1.63-6.421c1.57 0 3.14-0.045 4.75-0.045 3.8 0 4.58 0.312 5.84 4.113l2.37-9.432h-25.74zm-91.653 0.024c-7.799 0-9.131 3.752-11.295 10.656-1.383 4.417-1.384 10.623 4.822 10.933 3.738 0.2 7.051-0.52 5.68 4.25-1.097 3.81-3.718 3.75-6.942 3.75-4.73 0-5.786-2.42-6.416-5.78l-2.849 12.58h19.783c7.901 0 9.11-5.56 10.891-11.96 1.841-6.622-0.869-9.988-4.893-9.988-4.837 0-7.153-0.79-6.1-4.523 0.886-3.145 2.104-3.578 5.223-3.578 4.261 0 6.557 1.682 7.399 5.576l2.867-11.916h-18.17zm47.093 0c1.99 1.29 1.27 2.92 0.63 4.275-0.46 1.002-0.02 0.149-0.59 1.176l-14.366 25.838h9.716c-2.36-1.32-1.58-3.26-1.27-4.13 0.54-1.54 0.36-0.72 1-2h8.71l0.17 6.13h12.28l-1.26-31.289h-15.02zm-27.533 0.045l-2.316 9.297c1.808-2.804 3.736-3.579 6.06-3.579h1.354l-6.381 25.526h13.531c-1.901-1.14-1.162-3.83-0.816-5.21l5.221-20.316h0.66c2.89-0.311 4.52 0.231 5.43 3.579l2.36-9.297h-25.103zm46.853 0l-2.32 9.297c1.82-2.804 3.74-3.579 6.06-3.579h1.36l-6.38 25.526h13.53c-1.9-1.14-1.16-3.83-0.82-5.21l5.23-20.316h0.65c2.9-0.311 4.53 0.231 5.43 3.579l2.36-9.297h-25.1zm-15.88 10.056l0.26 9.518h-5.55l5.29-9.518z" transform="matrix(.8 0 0 -.8 13.539 692.22)" fill="#ce142b"/><path d="m16.477 41.619l1.394 2.943-8.3144 33.956 12.494-36.899h-5.574zm121.8 7.494c-4.34 0.156-8.89 0.528-12.08 3.717-1.86 1.857-3.72 3.794-6.35 12.775-2.63 8.982 1.08 11.227 1.08 11.227s-2.17-4.104 1.7-13.627c3.29-8.087 4.44-9.324 9.92-11.769 5.13-2.288 14.4 0.013 14.4 0.013s-4.34-2.491-8.67-2.336zm38.56 0.692c-2.19 0.031-4.33 0.266-5.58 0.933-3.01 1.611-4.49 7.279-4.88 9.68-0.38 2.401 0.7 4.334 0.7 4.334s-0.26-6.847 4.8-11.768c2.71-2.633 12.39-2.722 12.39-2.722s-3.78-0.51-7.43-0.457zm-82.543 0.158l1.238 2.014-6.736 26.326 10.297-28.34h-4.799zm-60.164 0.002l1.549 1.547-7.356 26.328 10.529-27.875h-4.722zm22.687 0l1.239 2.012-6.969 25.939 10.529-27.951h-4.799zm22.455 0l1.239 2.012-6.504 25.398 10.064-27.41h-4.799zm34.535 0l-4.03 16.724 6.97-16.724h-2.94zm40.34 0l1.24 2.012-6.51 25.398 10.07-27.41h-4.8zm-14.25 5.806s-0.48 5.337-1.86 11.459c-1.39 6.195-2.86 8.053-4.95 9.059-2.09 1.007-3.87-0.309-3.87-0.309s1.43 2.309 3.79 1.858c3.25-0.618 4.37-3.025 5.34-5.963 2.64-7.975 1.55-16.104 1.55-16.104zm-39.56 7.961l4.1 14.713 1.86-1.084-5.96-13.629zm75.49 5.254s0.77 2.865-1.24 5.034c-2.01 2.168-5.65 1.238-5.65 1.238s4.28 2.041 6.66-0.233c3.56-3.405 0.23-6.039 0.23-6.039zm-127.86 2.078c-0.816 0.777-2.106 2.568-4.026 3.174-2.943 0.93-7.433 0.465-7.433 0.465l9.058 1.393s2.498-5.125 2.401-5.032zm22.642 0c-0.816 0.777-2.027 2.335-3.949 2.942-2.943 0.93-7.512 0.697-7.512 0.697l8.596 1.084s2.963-4.816 2.865-4.723zm92.545 1.821l-0.03 0.129-1.44 6.218 2.78-4.644-1.31-1.703zm-76.873 10.138l-1.316 5.034 3.793-4.955-2.477-0.079zm46.923 0l-1.32 5.034 3.8-4.955-2.48-0.079zm-63.749 0.057c-3.58-0.009-7.509 0.209-8.906 1.115-3.31 2.148-4.957 7.587-5.336 11.176-0.293 2.794 0.806 5.009 0.806 5.009s-0.781-8.427 5.379-13.782c3.564-3.099 14.867-3.274 14.867-3.274s-3.23-0.235-6.81-0.244zm46.169 0.022l0.78 1.703-15.02 26.635 18.73-28.338h-4.49zm44.76 0.154l1.24 2.014-6.82 26.48 10.38-28.494h-4.8zm-65.199 3.408l-3.095 0.928-6.35 24.308 9.445-25.236zm46.929 0l-3.1 0.928-6.35 24.308 9.45-25.236zm-24.47 4.953l1.08 20.133 2.01-1.55-3.09-18.583zm-51.334 13.243s0.896 3.31-1.431 5.81c-2.327 2.51-6.531 1.44-6.531 1.44s4.935 2.81 7.699 0.19c4.309-4.07 0.263-7.44 0.263-7.44zm-14.47 5.2l-0.035 0.15-1.489 6.74 2.721-4.88-1.197-2.01z" transform="matrix(.8 0 0 -.8 13.539 692.22)" fill="#fff"/></g></g></svg>
