<?xml version="1.0" encoding="UTF-8" standalone="no"?>
<svg xmlns:rdf="http://www.w3.org/1999/02/22-rdf-syntax-ns#" xmlns="http://www.w3.org/2000/svg" xml:space="preserve" height="132.71" viewBox="0 0 226.43945 132.71002" width="226.44" version="1.1" xmlns:cc="http://creativecommons.org/ns#" xmlns:dc="http://purl.org/dc/elements/1.1/"><g transform="matrix(1.25 0 0 -1.25 -583.86 404.01)"><g transform="matrix(.5 0 0 .5 279.11 135.57)"><path d="m219.2 0c-28.95-0.034653-50.78 6.5758-59.87 9.7266l11.016 3.082c-18.968 3.5676-34.211 10.258-34.211 10.258l9.5293 4.2969c-25.447 9.539-44.43 38.664-44.43 38.664 9.508-3.4469 20.968-6.37 31.914-7.8105-6.6558 7.7785-11.73 16.813-15.996 26.084-3.2598 1.4384-11.693 5.5486-21.07 14.262h-9.5352v10.324c-7.5061 9.4439-14.725 22.136-19.6 39.037 5.3115-5.2429 12.521-9.8986 19.6-13.654v7.3008l0.98242 4.1094c-1.0242 3.8699-2.0493 7.7402-3.0723 11.611h-22.451v-37.299l-6.1621-21.436h-55.836v41.139l4.986 12.74v29.471l-5 1.1426v41.59l35.207 33.91 5.166-1.0801c57.366-12.023 116.83-18.352 177.79-18.352 65.672 0 129.6 7.3436 191.05 21.236l4.7402 1.0762 34.924-33.6v-41.787l-8.0781-1.9492-5.4746-12.391 5.8281-17.16v-32.467l-21.639-23.504h-69.041l-4.6562 21.578v13.529l-9.2539-35.107h-35.961c14-10.915 34.226-26.341 39.611-29.898-3.2045-5.6769-9.3163-14.743-13.652-19.607-4.6948-5.265-10.21-10.554-16.91-13.111-0.4795-1.0609-1.2118-2.2456-2.3457-3.4082-2.271-2.1636-5.2781-3.2932-8.2422-4.1523-2.87-9.867-14.55-15.352-23.44-18.614-13.8-5.062-28.97-8.3057-43.6-9.3188-4.41-0.30562-8.69-0.44625-12.82-0.4512zm2.6641 4.6055c5.1439 0.083415 10.34 0.43395 15.363 1.1602 28.641 4.1346 43.238 9.851 50.49 15.365 3.6108 2.747 5.4944 5.1976 6.3438 6.9316 0.79713 1.6409 1.1035 4.127 1.1035 4.127s6.6636 1.3633 8.877 3.6211c1.8348 1.8668 1.9024 3.8301 1.9024 3.8301 10.864 2.4748 23.654 19.578 28.131 27.535-2.8259 1.8702-31.764 23.893-46.328 35.635h45.541l18.055 68.467c0.92675 0.062 3.541 0.45118 3.541 0.45118v-16.137h-4.8066v-34.998l3.832-17.783h63.746l19.25 20.914v30.111l-6.1367 18.059 6.9942 15.828 6.8711 1.6582v36.588l-31.975 30.799-2.5039-0.56836c-61.75-13.966-126-21.34-191.99-21.34-61.254 0-123.33 6.6445-181.63 19.062l-32.28-31.09v-36.4l5.002-1.1387v-33.662c-1.9355-4.9416-4.9902-12.732-4.9902-12.732v-36.084h48.385l5.1113 17.783v35.01h-4.8516v5.9395h31.785l1.5078 5.8008c1.9055-7.2016 3.8102-14.405 5.7168-21.611l-1.1133-4.6562v-14.811c-6.5108 2.952-11.487 5.9724-13.229 7.3652 3.7259-9.0774 8.3753-16.487 13.229-22.514v-8.3047h7.625c11.662-11.111 22.372-14.953 22.372-14.953s5.5431-12.817 12.641-22.416c4.1755-5.6438 11.404-12.854 11.404-12.854s-15.139 0.30424-30.607 4.8496c8.6011-10.726 17.351-17.657 24.42-21.637 7.1196-4.027 17.154-7.0039 17.154-7.0039s-3.4943-3.5646-7.6797-5.4492c15.395-6.1475 38.236-7.832 38.236-7.832s-5.8356-4.6664-10.414-5.9453c2.2824-0.6955 23.616-5.3361 45.906-4.9746zm23.822 28.842c-1.1978-0.0027-2.4073 0.09019-3.6973 0.27344-5.7501 0.82262-9.8095 7.4167-11.25 10.936 1.2822-0.80612 5.1229-2.777 9.9902-1.0918 3.0949 1.0751 5.4995 2.8816 7.4316 5.1504 4.2364 4.9472 6.9853 6.1189 9.707 6.6348 1.2158-0.82712 3.082-2.3711 3.082-2.3711s-1.1692 0.22388-1.6641 0.17188c-1.187-0.08413-2.3542-0.32919-3.457-0.74219-1.9122-0.73862-3.632-1.9568-4.9375-3.5137-1.5768-1.6908-2.7614-3.7831-3.2695-6.166-0.67337-3.1159 0.16748-6.5015 1.6934-8.9785-1.2446-0.20212-2.4311-0.29998-3.6289-0.30273zm18.443 4.998c-0.0886 1.5212-0.41665 4.4657-1.6445 5.293 0 0 3.7065-1.0536 4.0742-4.1816-0.83375-0.37875-1.6479-0.74708-2.4297-1.1113zm-252.96 71.27v22.271h4.9902v58.82c-1.6698 0.37213-3.3377 0.74816-5.002 1.1289v22.18c1.7429-0.4085 3.4902-0.80462 5.2363-1.2031v-22.131c1.4815-0.25925 3.1361-0.52511 4.9688-0.84961v-57.945h-4.9375v-22.271h-5.2559zm160.84 0v22.275h4.9727v0.91016 36.145 0.66406c-1.6599 0.0696-3.3162 0.14652-4.9727 0.22852v21.436c1.7372-0.0898 3.484-0.14599 5.2246-0.22461v-21.451c1.3564-0.0554 3.7555-0.11402 4.9746-0.16602v-37.541h-4.9746v-22.275h-5.2246zm-74.297 0.002v22.221h5.0039s-9.8531 37.228-12.049 45.521c-1.6676 0.22925-3.3348 0.4611-5 0.69922v21.777c1.7106-0.249 3.453-0.49466 5.207-0.73828v-21.75c2.084-0.23813 3.9631-0.41872 4.9941-0.52735 2.1945-8.2979 12.055-44.982 12.055-44.982h-5v-22.221h-5.2109zm135 0-14.461 25.297 5.9824-0.006 14.475-25.291h-5.9961zm51.365 0v22.338h4.959l-10.174 38.713c-1.6531-0.10863-3.3078-0.2101-4.9609-0.3086v21.51c1.6674 0.10638 3.4225 0.22561 5.2285 0.34961v-21.562c1.2644 0.0952 2.9895 0.23644 5.0312 0.35156l10.266-39.053h-5.1367v-22.338h-5.2129zm76.738 0v22.258h4.9551v48.439c-1.6652-0.26562-3.3314-0.53023-5-0.78711v21.852c1.744 0.27675 3.478 0.58351 5.2188 0.86914v-21.912l4.9902 0.75976v-49.221h-4.9551v-22.258h-5.209zm-84.576 3.7129c-1.7052 2.0596-3.3655 4.4033-4.9434 7.0176v18.445l-1.3809 16.713h-3.6035v7.5195l7.3106 0.39844 1.9922-7.5762v-35.354l0.625-7.1641zm-150.86 18.508 4.4688 16.777-1.4688 1.9609-8.8105 3.7402h5.3672l8.8106-3.7402 1.4688-1.9609-4.4707-16.777h-5.3652zm186.33 0 4.4727 16.777-1.4727 1.9609-8.8105 3.7402h5.3613l8.8086-3.7402 1.4727-1.9609-4.4727-16.777h-5.3594zm87.566 0.0977 5.3965 2.6797 2.6992 5.3555v2.7637l-2.6855 5.332-2.8867 1.8984-12.473 3.877h5.2227l12.471-3.877 2.8848-1.8984 2.6875-5.332v-0.0918-2.6719l-2.7012-5.3555-5.3945-2.6797h-5.2207zm-243.94 2.5195 7.6309 28.949s5.3467-0.32614 7.1074-0.38477v-7.5137h-3.1992l-1.6348-15.402c-3.4814-1.7828-6.7597-3.7019-9.9043-5.6484zm82.639 6.6289v49.32c1.744 0.0366 3.4812 0.10081 5.2207 0.14843v-49.469h-5.2207zm-39.541 0.125 19.697 34.119h0.0742l2.9551-5.1191-16.752-29h-5.9746zm-60.527 24.717-5.3672 0.002 1.5918 1.041 6.1953 26.553c1.7429-0.1495 3.5083-0.29675 5.2754-0.4375l-6.1016-26.115-1.5938-1.043zm180.96 0.002 1.5918 1.041 6.6055 29.721c1.8292 0.22038 3.5944 0.44221 5.3262 0.65821l-6.7461-30.379-1.5937-1.041h-5.1836zm-262.24 2.4199v14.301l5.2344-0.95508v-13.346h-5.2344zm338.57 0.66992 2.8887 1.4355 18.082 41.52c2.1338 0.48062 4.2812 0.96606 6.4238 1.4609l-18.811-42.98-2.8867-1.4355h-5.6973zm-177.03 28.234c-70.888 0-139.87 8.163-206.05 23.594l25.996 25.592c58.115-12.18 118.34-18.59 180.07-18.59 66.304 0 130.88 7.3939 192.95 21.389l25.75-25.35c-70.034-17.398-143.29-26.639-218.7-26.639zm178.06 5.2031v1.1699l1.1445 0.23828v4.1562l1.3848 0.28711v-4.1543l1.1465 0.23438v-1.1719l-3.6758-0.75976zm4.7656 0.98437-0.9043 5.1426 1.377 0.28516 0.44531-2.9746 0.0156 0.002 1.2227 3.3203 0.55078 0.11524 1.2793-2.8047 0.0156 0.004 0.38672 3.1484 1.3867 0.28516-0.80664-5.4961-1.3789-0.28516-1.1445 2.6133-1.0801-3.0742-1.3652-0.28125z" transform="matrix(.8 0 0 -.8 377.31 373.89)" fill="#fff"/><path d="m590.64 334.65c2.0321 1.3013 3.4556 3.5734 3.2989 6.206-0.7627 0.3083-1.5272 0.6308-2.2739 0.9656 0.3003-2.2535-1.5388-4.5221-4.1014-4.911-2.5671-0.3968-4.8782 1.2473-5.1962 3.5123-0.2533 1.8194 0.8912 3.5742 2.6938 4.3866-1.133 0.4154-3.4662 1.1798-3.6779 1.2348-2.0595-1.4731-3.274-4.1004-2.7327-6.6923 0.5376-2.5432 2.5919-4.5009 4.972-5.3105 2.4466-0.8203 5.0323-0.66 7.0174 0.6085" fill="#c8df8e"/><path d="m293.88 38.48s-9.7738 3.9873-21.494 13.857l-2.2832 1.9238 2.9883-0.12109c0.0221 0 31.218-1.0422 52.592 9.6816 0 0-3.6066-5.3657-7.9492-9.457-4.1999-3.9551-11.531-8.471-17.25-10.471-0.0531-0.11738 0.0522-5.2093-6.6035-5.4141zm-14.131 21.25-3.6719 0.24805 3.2793 1.6777c7.4995 3.8221 3.4831 14.448-2.1406 23.449-3.1579 5.048-3.4952 9.2755-2.9805 12.287 0.25575 1.4938 0.71892 2.6682 1.123 3.4766 0.42413 0.8515 1.4609 2.1426 1.4609 2.1426l46.471-34.928s-18.383-8.4986-43.541-8.3535z" transform="matrix(.8 0 0 -.8 377.31 373.89)" fill="#fcb034"/><path d="m219.72 11.461c-5.7714-0.06669-11.377 0.18133-16.627 0.74023 7.5206 2.7538 12.539 11.965 12.539 11.965-23.205-4.8531-44.709 0.5293-44.709 0.5293 5.7544 2.179 8.0566 7.8828 8.0566 7.8828-25.176-1.0352-47.654 15.045-47.654 15.045 17.564-6.4042 33.754-0.96875 33.754-0.96875-13.462 6.6602-23.194 18.423-28.996 27.127 6.0556-6.9691 16.421-16.118 32.984-23.248 11.562-4.9839 22.233-7.0942 30.896-7.8262 4.7016-6.0456 14.318-14.938 30.857-16.217 23.167-1.7839 39.925 8.0331 43.043 9.1094 3.1135 1.0729 10.151 3.3636 13.045-0.46094 1.9102-2.5422 2.6737-7.2742-15.914-14.531-15.157-5.9195-33.961-8.9464-51.275-9.1465zm11.373 21.678c-7.5848 1.487-13.337 7.0856-15.023 9.6523 3.5864 0.37975 5.6074 0.85938 5.6074 0.85938 1.3796-2.3939 4.6901-7.5098 9.416-10.512zm-29.516 16.748c-9.5364-0.14517-21.586 1.0015-33.705 5.6934-20.904 8.0896-32.335 22.729-36.287 28.656 9.9632-4.1112 29.447-3.5156 29.447-3.5156-25.001 4.5785-41.433 13.757-51.781 22.09h37.711l5.4453 20.654c4.7325 3.1246 8.8373 5.7896 12.689 8.0274v-28.682h42.707l10.449 18.281 10.449-18.281h37.807c-0.84713-3.9673-0.444-10.076 5.0469-18.219 5.7412-8.5105 5.7736-15.524 3.8535-17.227-3.841-3.375-9.5859-5.4366-25.926 3.582-11.296 6.2439-18.633 6.8922-24.393 3.8262-7.0422-3.7459-3.3789-14.916-3.3789-14.916-40.358 3.3849-49.953 27.367-49.953 27.367 4.2675-26.221 38.742-34.258 46.357-35.715-3.2258-0.61573-9.1219-1.5101-16.539-1.623zm-185.15 59.828v22.271h4.9375v57.945c-1.8325 0.32438-3.4853 0.58949-4.9668 0.84961v22.131c20.219-4.6128 40.686-8.5603 61.387-11.789v-32.676h-15.924v13.344l-5.2344 0.95703-13.646 2.4844-2.2422-1.7402v-51.506h5.002v-22.271h-29.312zm160.8 0v22.273h4.9746v37.541c-1.2192 0.0521-3.6182 0.10951-4.9746 0.16601v21.451c7.0478-0.31337 14.112-0.56517 21.197-0.71679v-49.121h5.9766l16.75 29 16.814-29.125h5.2207v49.469c7.0865 0.18813 14.158 0.43813 21.203 0.79688v-21.502c-1.6632-0.0841-3.3261-0.16168-4.9902-0.23243v-37.725h4.9844v-22.273h-25.678l-14.477 25.291-5.9805 0.004-14.459-25.297h-26.562zm-74.311 0.002v22.221h5.002s-9.8609 36.685-12.057 44.982c-1.0298 0.10838-2.9093 0.28922-4.9922 0.52735v21.75c5.9416-0.8215 12.065-1.6148 17.936-2.3301l4.6367-22.254 1.3711-1.8848 17.717-6.7012 5.3652-0.004 1.5977 1.0469 6.0976 26.113c5.7235-0.46175 11.528-0.87798 17.172-1.2246v-21.527c-1.6796 0.0953-3.3575 0.20791-5.0352 0.31641l-16.094-61.031h-38.717zm186.37 0v22.338h5.1367l-10.266 39.053c-2.0405-0.11512-3.7659-0.25631-5.0293-0.35156v21.562c5.502 0.38637 11.473 0.8482 16.896 1.2988l3.7422-19.002 1.375-1.8867 17.717-6.7012h5.1836l1.5937 1.041 6.7461 30.379c6.5551 0.82812 12.498 1.6392 18.396 2.5039v-21.775c-1.6489-0.23587-3.2972-0.46844-4.9492-0.69531l-17.869-67.764h-38.674zm76.736 0v22.258h4.9531v49.221l-4.9922-0.75976v21.912c7.2804 1.2026 14.538 2.4693 21.76 3.8379v-33.244l1.4726-1.4648 5.9746-2.3594h5.6973l2.8867 1.4355 18.811 42.98c5.1644 1.1914 10.298 2.42 15.133 3.627v-22.34c-1.6332-0.39525-3.2628-0.79851-4.9004-1.1816l-13.939-31.555 11.113-11.109v-24.555l-15.373-16.703h-48.596zm-242.49 22.221h1.8457 5.3652l4.4707 16.777-1.4688 1.9609-8.8106 3.7402h-5.3672l-1.6934-1.1211 5.6582-21.357zm186.33 0h1.8457 5.3594l4.4707 16.777-1.4707 1.9609-8.8086 3.7402h-5.3613l-1.6895-1.1211 5.6543-21.357zm79.412 0.0977h10 5.2207l5.3945 2.6777 2.6992 5.3574v2.6719 0.0918l-2.6855 5.332-2.8848 1.8984-12.471 3.877h-5.2227l-1.5781-1.5684v-18.822l1.5273-1.5156z" transform="matrix(.8 0 0 -.8 377.31 373.89)" stroke="#e31937" stroke-width=".5" fill="#e31937"/><path d="m221.86 4.6055c-22.29-0.36147-43.624 4.2792-45.906 4.9746 4.5786 1.279 10.414 5.9434 10.414 5.9434s-22.841 1.6884-38.236 7.8359c4.1854 1.8846 7.6797 5.4473 7.6797 5.4473s-10.035 2.9758-17.154 7.0039c-7.0689 3.9785-15.819 10.911-24.42 21.637 15.468-4.5455 30.605-4.8496 30.605-4.8496s-7.2257 7.2098-11.402 12.854c-7.0975 9.5989-12.641 22.416-12.641 22.416s-10.714 3.8431-22.373 14.943h-7.625v8.3047c-4.8531 6.028-9.5026 13.437-13.229 22.514 1.7418-1.3919 6.7178-4.4114 13.229-7.3633v14.809l1.1133 4.6562c-1.9066 7.206-3.8112 14.41-5.7168 21.611l-1.5078-5.8008h-31.785v-5.9375h4.8535v-35.012l-5.1133-17.783h-48.385v36.084s3.0547 7.7898 4.9902 12.73v33.664l-5.002 1.1387v36.4l32.287 31.096c58.294-12.418 120.37-19.063 181.63-19.062 65.989 0 130.24 7.3728 191.99 21.34l2.5039 0.5664 31.975-30.797v-36.588l-6.8711-1.6582-6.9922-15.828 6.1348-18.059v-30.109l-19.25-20.916h-63.744l-3.8359 17.783v34.998h4.8086v16.137s-2.6143-0.38805-3.541-0.45118l-18.055-68.467h-45.541c14.564-11.74 43.502-33.765 46.328-35.637-4.4766-7.9556-17.266-25.058-28.131-27.533 0 0-0.0675-1.9633-1.9024-3.8301-2.2132-2.2578-8.877-3.6211-8.877-3.6211s-0.30627-2.4861-1.1035-4.127c-0.84925-1.734-2.7329-4.1834-6.3438-6.9316-7.2524-5.513-21.85-11.231-50.49-15.365-5.0236-0.72621-10.219-1.0767-15.363-1.1602zm-2.1406 6.8555c17.315 0.20038 36.118 3.228 51.275 9.1465 18.588 7.2571 17.824 11.99 15.914 14.531-2.8955 3.8256-9.9302 1.5349-13.045 0.46094-3.1169-1.0751-19.876-10.893-43.043-9.1094-16.539 1.279-26.156 10.172-30.857 16.217-8.6632 0.733-19.334 2.8424-30.896 7.8262-16.564 7.1296-26.927 16.279-32.982 23.248 5.8021-8.7042 15.532-20.468 28.994-27.127 0 0-16.189-5.4358-33.754 0.96875 0 0 22.478-16.08 47.654-15.045 0 0-2.3021-5.7048-8.0566-7.8828 0 0 21.504-5.3825 44.709-0.5293 0 0-5.0206-9.211-12.541-11.965 5.2506-0.55888 10.857-0.80703 16.629-0.74023zm11.373 21.678c-4.7258 3.0018-8.0356 8.1166-9.4141 10.512 0 0-2.0229-0.47962-5.6094-0.85938 1.6876-2.5668 7.4387-8.1642 15.023-9.6523zm14.588 0.30859c1.1981 0.0029 2.3863 0.10123 3.6309 0.30273-1.5259 2.477-2.3655 5.8626-1.6934 8.9785 0.50825 2.3829 1.692 4.4751 3.2676 6.166 1.3066 1.5558 3.0283 2.775 4.9394 3.5137 1.1029 0.413 2.2712 0.65889 3.457 0.74414 0.496 0.05087 1.6621-0.17383 1.6621-0.17383s-1.8644 1.5459-3.0801 2.373c-2.7229-0.516-5.4687-1.6895-9.7051-6.6367-1.9334-2.2688-4.3388-4.0753-7.4336-5.1504-4.8688-1.6852-8.7081 0.28455-9.9902 1.0918 1.4416-3.52 5.4992-10.112 11.248-10.936 1.2899-0.18331 2.4992-0.27633 3.6973-0.27344zm9.4082 1.3613c0.26575 0.0675 3.1824 1.0237 4.5996 1.543-2.2534 1.0143-3.6838 3.2069-3.3672 5.4824 0.39637 2.8302 3.2841 4.8856 6.4941 4.3906 3.2021-0.48612 5.5023-3.3229 5.127-6.1387 0.93337 0.41738 1.8896 0.82095 2.8418 1.2051 0.197 3.292-1.5842 6.1331-4.123 7.7598-2.4824 1.5855-5.7142 1.7851-8.7715 0.75977-2.9764-1.0121-5.5435-3.4577-6.2168-6.6367-0.67538-3.2399 0.84151-6.5239 3.416-8.3652zm9.0371 3.6367c0.78275 0.36425 1.5979 0.7327 2.4316 1.1113-0.36775 3.1281-4.0762 4.1816-4.0762 4.1816 1.228-0.826 1.5559-3.7717 1.6445-5.293zm29.752 0.03516c6.6558 0.20375 6.5504 5.2968 6.6035 5.4141 5.719 1.9998 13.05 6.5145 17.25 10.471 4.3416 4.0902 7.9492 9.457 7.9492 9.457-21.374-10.725-52.57-9.6816-52.592-9.6816l-2.9883 0.12109 2.2832-1.9258c11.72-9.869 21.494-13.855 21.494-13.855zm-92.301 11.406c7.4172 0.11307 13.313 1.0093 16.539 1.625-7.6158 1.456-42.09 9.4937-46.357 35.715 0 0 9.5955-23.984 49.953-27.369 0 0-3.6633 11.171 3.3789 14.918 5.76 3.066 13.096 2.4158 24.393-3.8281 16.34-9.0186 22.085-6.9582 25.926-3.582 1.9201 1.7019 1.8877 8.7151-3.8535 17.227-5.4909 8.1429-5.894 14.251-5.0469 18.219h-37.807l-10.449 18.281-10.449-18.281h-42.707v28.682c-3.8521-2.239-7.957-4.9027-12.689-8.0274l-5.4453-20.654h-37.711c10.348-8.3322 26.78-17.511 51.781-22.09 0 0-19.484-0.59562-29.447 3.5156 3.9519-5.9271 15.383-20.566 36.287-28.654 12.119-4.6924 24.169-5.8407 33.705-5.6953zm78.17 9.8438c25.158-0.14512 43.541 8.3535 43.541 8.3535l-46.471 34.928s-1.0357-1.2912-1.4609-2.1426c-0.403-0.80837-0.86605-1.9827-1.123-3.4766-0.51375-3.0118-0.17671-7.2391 2.9824-12.287 5.6236-9.0009 9.6373-19.627 2.1367-23.449l-3.2774-1.6777 3.6719-0.24805zm-268.58 49.984h5.2559 29.312v22.271h-5.0039v51.506l2.2461 1.7402 13.645-2.4844v-14.301h5.2344 15.922v32.676c-20.7 3.2288-41.167 7.1763-61.387 11.789-1.7461 0.39762-3.4935 0.7945-5.2363 1.2031v-22.18c1.6642-0.381 3.3322-0.75691 5.002-1.1289v-58.82h-4.9902v-22.271zm86.539 0.002h5.2109 38.717l16.094 61.031c1.6764-0.1085 3.3554-0.22128 5.0352-0.31641v21.527c-5.6438 0.34663-11.447 0.76399-17.17 1.2246-1.7684 0.14063-3.5326 0.28618-5.2754 0.43555l-6.1953-26.549-1.5918-1.043-17.717 6.7012-1.3711 1.8848-4.6367 22.254c-5.8708 0.71525-11.994 1.5086-17.936 2.3301-1.754 0.24475-3.4984 0.4882-5.209 0.73632v-21.777c1.6652-0.238 3.3314-0.46997 5-0.69922 2.1956-8.2935 12.049-45.52 12.049-45.52h-5.0039v-22.221zm74.297 0h5.2246 26.562l14.459 25.295 14.457-25.295h6 25.678v22.271h-4.9844v37.725c1.6642 0.072 3.3291 0.15025 4.9922 0.23438v21.502c-7.0465-0.35875-14.117-0.60863-21.205-0.79688-1.7395-0.0465-3.4757-0.11193-5.2207-0.14843v-49.318l-16.814 29.123-2.9551 5.1191h-0.0742l-19.699-34.119v49.121c-7.0852 0.15162-14.147 0.40537-21.195 0.71875-1.7405 0.0775-3.4862 0.13598-5.2246 0.22461v-21.438c1.6565-0.082 3.3129-0.15682 4.9727-0.22657v-0.66601-36.145-0.91016h-4.9727v-22.271zm112.07 0h5.2129 38.674l17.869 67.764c1.652 0.227 3.3004 0.45944 4.9492 0.69531v21.775c-5.8985-0.86475-11.841-1.6756-18.396-2.5039-1.7318-0.21588-3.4959-0.43671-5.3262-0.65821l-6.6055-29.719-1.5918-1.043-17.715 6.7012-1.377 1.8867-3.7422 19.002c-5.4232-0.4495-11.395-0.91133-16.898-1.2988-1.806-0.12288-3.5611-0.24141-5.2285-0.34766v-21.514c1.6531 0.0996 3.3078 0.20317 4.9609 0.31055l10.174-38.713h-4.959v-22.338zm76.74 0h5.209 48.596l15.373 16.703v24.555l-11.113 11.109 13.939 31.555c1.6388 0.382 3.267 0.78627 4.9004 1.1816v22.34c-4.8332-1.2069-9.9684-2.4356-15.133-3.627-2.1426-0.49612-4.2902-0.98226-6.4238-1.4629l-18.082-41.518-2.8867-1.4355-5.9785 2.3594-1.4707 1.4629v33.246c-7.2205-1.3685-14.479-2.6355-21.758-3.8379-1.7418-0.28575-3.475-0.59227-5.2188-0.86914v-21.852c1.6686 0.258 3.3346 0.52136 5 0.78711v-48.439h-4.9531v-22.258zm-84.576 3.7129-0.62891 7.1641v35.354l-1.9902 7.5762-7.3106-0.39844v-7.5195h3.6035l1.3809-16.713v-18.445c1.5791-2.6142 3.2401-4.958 4.9453-7.0176zm-152.71 18.508-5.6543 21.357 1.6914 1.1211 8.8105-3.7402 1.4688-1.9609-4.4688-16.777h-1.8476zm186.33 0-5.6523 21.357 1.6875 1.1211 8.8105-3.7402 1.4727-1.9609-4.4727-16.777h-1.8457zm79.412 0.0977-1.5273 1.5156v18.82l1.5781 1.5703 12.473-3.877 2.8867-1.8984 2.6875-5.332v-2.7637l-2.7012-5.3555-5.3965-2.6797h-10zm-233.94 2.5176c3.1435 1.9466 6.4219 3.8689 9.9043 5.6504l1.6348 15.402h3.1992v7.5117c-1.7605 0.0586-7.1074 0.38672-7.1074 0.38672l-7.6309-28.951zm62.834 62.799c75.417 0 148.67 9.2402 218.7 26.639l-25.752 25.35c-62.06-14-126.64-21.4-192.94-21.4-61.726 0-121.95 6.4104-180.06 18.586l-25.999-25.59c66.187-15.44 135.17-23.6 206.06-23.6zm178.06 5.2031 3.6777 0.75976v1.1738l-1.1465-0.23633v4.1543l-1.3848-0.28516v-4.1582l-1.1465-0.23633v-1.1719zm-175.18 0.70508-19.441 0.15234v18.994l19.621-0.15625v-3.5742l-15.201 0.1211v-4.709l8.7695-0.0703v-3.2324l-8.7695 0.0684v-4.2402l15.021-0.11914v-3.2344zm179.94 0.27929 1.3652 0.28125 1.0801 3.0742 1.1465-2.6133 1.377 0.28516 0.80664 5.4961-1.3867-0.28516-0.38867-3.1504-0.0137-0.002-1.2793 2.8047-0.55078-0.11524-1.2227-3.3203-0.0137-0.002-0.44531 2.9746-1.3789-0.28711 0.9043-5.1406zm-160.55 0.008v18.992l4.3457 0.15625v-7.1699l4.1836 0.15039 7.6484 7.4453 6.3379 0.23047-8.7617-7.4863 2.4766 0.0879c1.5082 0.0565 2.6007-0.19951 3.2774-0.75976 0.67537-0.56475 1.0156-1.4878 1.0156-2.7656v-4.457c0-1.2955-0.34025-2.2443-1.0156-2.8476-0.67663-0.60688-1.7691-0.93599-3.2774-0.99024l-16.23-0.58593zm-55.018 0.26171-4.3965 0.2168-7.3223 14.088-7.6816-13.346-5.0391 0.25 10.963 18.449 3.0508-0.15235 10.426-19.506zm99.094 2.0195c-1.1548 0.0249-1.9749 0.25379-2.459 0.69141-0.6445 0.58475-0.96679 1.7379-0.96679 3.4609v2.1016c0 1.724 0.32229 2.9294 0.96679 3.6191 0.6455 0.6865 1.8865 1.1061 3.7246 1.2578l11.803 0.96094v4.3301l-13.377-1.0918v-2.2461l-3.8867 0.49219v0.52148c0 1.7251 0.32657 2.9296 0.97657 3.6172 0.64987 0.68987 1.8998 1.1101 3.75 1.2617l11.695 0.95312c1.8492 0.15163 3.0998-0.0662 3.752-0.64648 0.65-0.58125 0.97461-1.7369 0.97461-3.4609v-2.6035c0-1.7262-0.32461-2.9315-0.97461-3.6192-0.65212-0.68975-1.9027-1.1091-3.752-1.2598l-11.801-0.96289v-4.0801l12.391 1.0137v2.1524l3.8867-0.59571v-0.39648c0-1.5569-0.33734-2.6675-1.0117-3.334-0.67437-0.66562-1.9021-1.0739-3.6816-1.2168l-10.744-0.87696c-0.45953-0.0371-0.88068-0.0513-1.2656-0.043zm-139.68 0.43555-4.4062 0.36719v18.994l4.4062-0.37109v-18.99zm99.947 0.72852 9.9297 0.35742c0.765 0.0265 1.2889 0.15942 1.5703 0.38867 0.28012 0.23363 0.42187 0.62245 0.42187 1.1738v2.2812c0 0.56475-0.14175 0.95144-0.42187 1.1641-0.28138 0.20938-0.80531 0.30106-1.5703 0.27344l-9.9297-0.35742v-5.2812zm-124.97 1.5918-3.9414 0.48047v9.9746c0 0.24025 0.0119 0.57949 0.0352 1.0215 0.0254 0.43837 0.0727 1.1868 0.14453 2.2441-0.28675-0.311-0.60218-0.61156-0.94531-0.89844-0.3455-0.28787-0.74256-0.59045-1.1953-0.9082l-13.27-9.5664-2.9961 0.36719v18.992l3.9414-0.48438v-10.256c0-0.38537-0.0141-0.83651-0.043-1.3535-0.0299-0.51938-0.076-1.0651-0.13476-1.6465 0.21362 0.227 0.44506 0.44422 0.69531 0.65234 0.249 0.20926 0.54175 0.4443 0.875 0.70118l13.838 10.041 2.9961-0.36914v-18.992zm201.75 0.73633v18.992l4.3887 0.52148v-18.99l-4.3887-0.52344zm20.689 2.5918v3.3965l8.6152 1.3164v15.596l4.3672 0.66797v-15.594l8.6504 1.3203v-3.3945l-21.633-3.3086zm-265.11 2.4082-4.3398 0.74414v15.416l-12.412 2.1289v-15.414l-4.3574 0.7461v14.498c0 1.7362 0.32034 2.8655 0.96484 3.3848 0.64438 0.517 1.8688 0.6225 3.6758 0.3125l11.828-2.0312c1.8182-0.31125 3.0467-0.83489 3.6855-1.5723 0.63675-0.73975 0.95508-1.9768 0.95508-3.7129v-14.5zm298.47 2.9102 9.6856 12.369v8.498l4.375 0.84765v-8.6074l9.6465-8.5156-5.0938-0.98829-6.4238 6.0527-6.4023-8.5352-5.7871-1.1211z" transform="matrix(.8 0 0 -.8 377.31 373.89)"/></g></g></svg>