<?xml version="1.0" encoding="UTF-8" standalone="no"?>
<svg
   xmlns:dc="http://purl.org/dc/elements/1.1/"
   xmlns:cc="http://creativecommons.org/ns#"
   xmlns:rdf="http://www.w3.org/1999/02/22-rdf-syntax-ns#"
   xmlns:svg="http://www.w3.org/2000/svg"
   xmlns="http://www.w3.org/2000/svg"
   xmlns:sodipodi="http://sodipodi.sourceforge.net/DTD/sodipodi-0.dtd"
   xmlns:inkscape="http://www.inkscape.org/namespaces/inkscape"
   width="199.78825"
   height="97.81826"
   viewBox="0 0 199.78825 97.81826"
   version="1.1"
   id="svg36"
   sodipodi:docname="La-lafayette_logo_from_NCAA.svg"
   inkscape:version="1.0.1 (3bc2e813f5, 2020-09-07)">
  <metadata
     id="metadata42">
    <rdf:RDF>
      <cc:Work
         rdf:about="">
        <dc:format>image/svg+xml</dc:format>
        <dc:type
           rdf:resource="http://purl.org/dc/dcmitype/StillImage" />
      </cc:Work>
    </rdf:RDF>
  </metadata>
  <defs
     id="defs40" />
  <sodipodi:namedview
     pagecolor="#ffffff"
     bordercolor="#666666"
     borderopacity="1"
     objecttolerance="10"
     gridtolerance="10"
     guidetolerance="10"
     inkscape:pageopacity="0"
     inkscape:pageshadow="2"
     inkscape:window-width="1920"
     inkscape:window-height="1136"
     id="namedview38"
     showgrid="false"
     inkscape:zoom="3.675"
     inkscape:cx="100"
     inkscape:cy="48.788532"
     inkscape:window-x="0"
     inkscape:window-y="27"
     inkscape:window-maximized="1"
     inkscape:current-layer="svg36" />
  <!-- Generator: Sketch 54.1 (76490) - https://sketchapp.com -->
  <title
     id="title2">la-lafayette</title>
  <desc
     id="desc4">Created with Sketch.</desc>
  <g
     id="g34"
     stroke="none"
     stroke-width="1"
     fill="none"
     fill-rule="evenodd"
     transform="translate(0,-51.211468)">
    <g
       id="la-lafayette_BGL">
      <g
         id="la-lafayette"
         transform="translate(0,51)">
        <g
           id="g10"
           transform="matrix(1,0,0,-1,0,98.029725)"
           fill-rule="nonzero">
          <g
             id="g12">
            <path
               d="m 177.06666,15.775286 v 2.254381 c 0,3.787176 -1.1431,6.428365 -1.1431,6.428365 v 4.2661 c 0,5.288323 2.06115,7.819108 5.96575,11.151309 l 9.82194,7.786271 h -21.00694 c 0,0 0,8.926822 0.003,16.962207 6.70885,1.616136 13.76108,9.329936 13.76108,16.900495 0,8.576362 -5.98387,12.605803 -7.2552,12.980608 0,0 -2.19505,3.313235 -6.62251,3.313235 -5.7656,0 -6.76546,-5.254919 -6.92512,-6.527672 -1.35627,0.587403 -2.87247,0.929653 -4.51692,0.984289 H 1.725053 C 9.9962347,87.273883 20.554111,81.477422 20.554111,76.563055 V 74.911817 C 19.688605,71.722857 8.2502758,69.211605 8.2502758,69.211605 15.661259,65.819107 20.556319,64.141258 20.556319,60.922575 V 58.79094 c 0,-5.255485 -9.46644,-10.511819 -16.4886333,-15.295683 C 1.1415201,41.164613 -0.04555923,37.681811 0.00221161,33.885633 L 0,14.427402 C 0,7.3370133 5.1055059,0 13.648266,0 H 193.51677 c -9.95159,6.6862277 -16.45011,11.122717 -16.45011,15.775286"
               id="path14"
               fill="#d11c2e" />
            <path
               d="m 175.37013,84.817549 c 0.92795,-0.414154 1.07884,-1.688322 1.07884,-1.688322 0.38952,-1.08252 0.0478,-5.938854 -6.02661,-10.219958 0.004,0.0068 6.29979,5.551026 4.94777,11.90828 z m -5.09582,-13.035527 c 2.16956,1.338146 8.51266,5.381458 7.14451,12.799151 -0.26836,0.963906 -0.7012,1.847983 -1.4293,2.428308 0.49229,-0.916631 0.59222,-1.926964 0.59222,-1.926964 -1.44431,2.444162 -2.92598,1.583015 -2.92598,1.583015 0.8954,-1.402689 -0.29412,-3.269356 -0.29412,-3.269356 -0.25959,1.995188 -1.53093,2.768861 -1.53093,2.768861 -1.74749,-0.249965 -1.3087,-2.852371 -1.3087,-2.852371 -0.47304,0.610333 -0.76377,1.137721 -0.93843,1.604812 -0.22534,-0.972682 -0.15202,-2.302335 0.45067,-4.142958 0.33857,-0.996744 1.37579,-3.601415 -1.88479,-7.96518 -0.87445,-1.187827 -0.16419,-2.407643 2.12485,-1.027318 z"
               id="path16"
               fill="#d11c2e" />
            <path
               d="m 40.364896,76.112949 c 0,0 -0.01331,0.166455 -0.02463,0.307997 -0.0954,0.01132 -0.191649,0.02321 -0.191649,0.02321 0,0 -1.367587,0 -2.579193,0 0,-1.357112 0,-2.583156 0,-3.941401 1.116773,0 2.441896,0 2.797169,0 0,0.146922 -0.0017,3.610191 -0.0017,3.610191"
               id="path18"
               fill="#181210" />
            <path
               d="m 70.403395,69.363056 c -0.415003,-2.502477 -0.680538,-4.093702 -0.848973,-5.111395 0.765463,0 0.934182,0 1.698796,0 -0.168719,1.017693 -0.434253,2.608918 -0.849823,5.111395"
               id="path20"
               fill="#181210" />
            <path
               d="m 43.387402,86.839347 c 2.752441,0.0091 5.155555,-0.916065 6.760367,-2.606087 1.218401,-1.280962 1.89809,-2.946355 1.89809,-4.538995 -0.0031,-0.205237 0.02095,-6.987968 0.02095,-6.987968 -0.08747,-2.589667 -1.382024,-4.230998 -2.732909,-5.293418 1.641331,-1.193206 2.645435,-2.864261 2.730644,-4.923425 L 53.90658,50.049822 h -7.679547 c -2.438782,0 -4.247416,1.776362 -4.600424,4.480396 0,0 -0.875018,5.393347 -0.887757,5.502901 -0.146921,1.594622 -0.888605,1.87431 -1.100353,1.925832 -0.174098,0 -1.006653,0 -1.964615,0 0,-2.359236 0,-11.909129 0,-11.909129 H 21.100155 l 2.996405,2.750743 c 0.01713,0.01359 1.566709,1.471196 1.566709,5.771833 v 4.29724 c 0,3.653786 -5.153942,5.79363 -5.153942,5.79363 0,0 5.153942,1.220665 5.153942,5.594055 v 2.985987 c 0,5.965747 -7.019108,9.596103 -7.019108,9.596103 z m 26.365179,0 c 5.80637,0 9.369569,-3.05591 10.58712,-9.081953 L 85.99377,50.049822 H 73.618399 c 0,0 -0.479264,2.870205 -0.679972,4.078981 -1.439773,0 -3.625761,0 -5.066383,0 -0.199293,-1.208776 -0.674593,-4.078981 -0.674593,-4.078981 H 54.868222 l 2.361501,12.816985 c 0.365463,2.071903 -1.066101,3.106015 -1.228875,3.216418 l -2.146638,1.467799 2.27799,1.221798 c 0.08493,0.04643 2.083227,1.150743 2.851521,4.098514 l 1.199717,5.290304 c 0.01132,0.03963 0.841614,4.120877 -1.894409,5.781458 l -4.771125,2.896249 z m 34.480679,0 c 6.59561,-0.0603 9.80382,-2.820948 9.80382,-8.443312 v -4.395188 l -10.89002,-0.01047 0.03,2.279972 c 0,0.173814 -0.015,0.29271 -0.03,0.412456 -0.0744,0.0099 -0.15513,0.02038 -0.29837,0.02038 0,0 -1.86582,0 -3.303611,0 0,-2.589101 0,-15.835244 0,-15.835244 0.0051,-0.396886 0.09993,-0.568436 0.125973,-0.593631 0.01698,-0.0099 0.103609,-0.0419 0.313942,-0.03737 l 2.372826,-0.0014 c 0.32951,-0.0045 0.48181,0.05435 0.5104,0.07502 0.0252,0.03001 0.094,0.190517 0.094,0.534466 0,0 0,1.067799 0,2.092003 -0.28676,0 -2.2392,0 -2.2392,0 v 9.465817 h 13.7305 V 59.860154 c 0.0399,-5.825336 -3.15612,-9.769285 -7.96377,-9.810332 H 94.707429 c -4.711678,0 -7.173673,4.104741 -7.173673,8.158528 v 6.064826 c 0.0201,1.628025 -2.035386,2.871055 -2.055485,2.884359 l -2.902477,1.710121 3.182166,1.122151 c 0.183439,0.06483 1.795895,0.693843 1.775796,2.775372 v 3.641047 c 0,4.086341 -0.88804,6.402831 -2.875584,7.507148 l -5.275584,2.925973 z m 19.95216,0 c 7.1264,0 7.1264,-3.650389 7.1264,-7.176504 v -29.5615 l 2.66978,2.621656 c 2.19787,2.161359 2.53503,4.596745 2.54267,5.849399 v 5.438358 c 0.006,1.898655 -1.61161,3.122151 -1.62944,3.133475 l -1.71323,1.29087 1.7339,1.248124 c 0.0657,0.04614 1.60113,1.17424 1.60877,3.123001 v 5.461288 c 0.009,2.762916 -0.87728,4.560226 -2.79207,5.654069 l -5.10319,2.917764 h 13.34494 c 3.80326,0 6.75018,-1.895542 8.52314,-5.491861 0,0 1.3339,-2.762633 2.65874,-5.509979 0,4.555697 0,10.89823 0,10.89823 l 5.80779,-0.0023 c 6.34168,-0.217693 6.3179,-6.272895 6.30601,-10.277141 v -26.40651 h -11.43467 c 0,0 -3.00807,6.347629 -5.30305,11.194904 0,-4.690446 0,-11.194904 0,-11.194904 h -17.22009 -0.0521 -18.3298 l 3.78118,2.545789 c 0,0 2.69186,1.749469 2.69186,5.976787 v 5.538853 c 0.003,2.112385 -1.52215,3.206794 -1.58754,3.250955 l -1.87148,1.32937 1.9012,1.268507 c 0.0597,0.04105 1.52923,1.040623 1.55782,2.805096 l 0.003,5.544232 c 0.0388,1.38259 -0.48832,4.332625 -2.77565,5.603963 l -5.27332,2.925973 z m 42.85378,-13.15414 c 2.76377,3.68719 2.03227,5.723991 1.71918,6.649115 -0.0105,0.02774 -0.0209,0.05096 -0.0269,0.0753 h -0.003 c -0.62363,1.872894 -0.73404,3.263411 -0.57126,4.416136 -0.22222,0.754989 -0.2344,1.436376 -0.0224,2.10191 0.37,1.119038 1.22661,1.727106 1.95924,2.082095 -0.15825,0.342817 -1.39844,1.107431 -0.85067,2.550319 0.29695,0.524557 0.82802,0.797735 1.64897,0.836235 0.44445,0.01868 1.37863,0.07841 3.2351,-2.596462 1.89809,-0.07162 2.64261,-1.500354 2.92003,-1.957537 3.48705,-3.900637 2.70092,-12.760368 -6.00453,-17.245293 -4.34225,-2.422364 -5.86581,1.054494 -4.00368,3.088181 z M 23.248181,77.473742 v -2.430856 c 0,-3.872046 -4.617608,-4.856051 -9.064261,-6.08436 4.954763,-1.957537 9.078415,-3.205661 9.078415,-7.421372 v -2.414155 c 0,-5.621797 -4.291408,-8.017551 -9.114904,-11.486765 h 25.937777 c 0,0 0,3.526114 0,3.815994 1.197452,-2.356688 3.432979,-3.815994 6.141825,-3.815994 h 23.019108 c 0,0 0.633546,3.852795 0.671479,4.079547 0.481246,0 0.496816,0 0.976646,0 0.0402,-0.229583 0.680538,-4.079547 0.680538,-4.079547 h 17.373531 l -0.498514,2.441896 c 1.654069,-1.534607 3.820807,-2.441896 6.257608,-2.441896 h 56.237221 c 0,0 0,1.732484 0,2.882095 0.0178,-0.04331 1.36391,-2.882095 1.36391,-2.882095 h 15.3724 v 19.563198 c 0,0 0.35669,-0.08351 0.63241,-0.08351 6.20467,0 13.22689,7.411465 13.22689,15.03213 0,7.621514 -5.86581,10.056617 -5.86581,10.056617 0,0 -1.90545,2.919462 -4.96136,2.919462 -5.05846,0 -4.18712,-5.395896 -4.18712,-5.395896 -1.16518,-0.977211 -1.28606,-3.242462 -1.28606,-3.242462 -1.27756,1.498089 -3.21868,2.557678 -6.19137,2.659023 l -8.30375,0.0017 c 0,0 0,-3.53121 0,-3.818542 -2.20863,2.55598 -5.22859,3.923566 -8.77084,3.923566 H 11.307714 c 7.163397,-4.713658 11.940467,-7.403255 11.940467,-11.777778 z"
               id="path22"
               fill="#181210" />
            <path
               d="m 46.791223,19.638499 c 0.767728,0 0.936164,0 1.701062,0 -0.170135,1.020552 -0.432838,2.611154 -0.849823,5.115018 -0.41557,-2.503864 -0.680538,-4.094466 -0.851239,-5.115018"
               id="path24"
               fill="#181210" />
            <path
               d="m 154.08436,5.4358102 c -2.42945,0 -4.34226,0.6833687 -5.67644,2.0322434 -1.25633,1.270007 -1.93687,3.1275304 -1.91592,5.2136164 v 6.321019 h 11.54366 c 0,0 0,-2.420071 0,-3.276943 0.5758,0 1.17255,0 1.17255,0 0.53729,0.0031 0.69412,0.08968 0.71054,0.09874 0.0326,0.05628 0.13871,0.31029 0.13871,1.256079 l 0.001,1.653503 c 0,0.377296 -0.0759,0.558216 -0.1223,0.605775 -0.045,0.04478 -0.23439,0.128266 -0.64741,0.122632 h -2.21741 c -3.22944,-0.0078 -6.15089,1.132569 -8.23128,3.212343 -1.98443,1.981599 -3.02902,4.622817 -3.02279,7.629497 v 2.836801 c -0.009,2.696391 0.83397,4.955697 2.4351,6.531069 1.77268,1.750601 4.36603,2.608634 7.68181,2.553432 h 20.7799 c -3.02024,-2.895117 -5.89412,-5.328804 -5.89412,-9.506581 v -3.489031 c 0,0 -3.93914,0 -6.13871,0 4.72441,-1.617211 7.24303,-6.371408 7.28181,-11.143722 v -4.342137 c 0,-3.09758 1.78174,-4.908988 2.54862,-5.5462703 l 3.33192,-2.7620665 z m -22.25733,0 c 0,0 -2.96674,5.8749048 -5.22887,10.3558388 0,-4.303468 0,-10.3558388 0,-10.3558388 H 114.48917 V 23.162915 l -0.66554,-0.488096 c -0.57013,-0.419193 -2.2007,-1.923539 -2.20382,-3.281246 0,0 -0.006,-6.047756 -0.006,-6.074734 0,-1.965124 -0.79066,-3.8465392 -2.2293,-5.3000989 -1.62633,-1.6400283 -3.95414,-2.5829299 -6.38953,-2.5829299 h -8.958244 c -5.872329,0 -8.635244,4.6972118 -8.71649,9.0904738 v 8.618514 l -0.63949,-0.469979 C 84.109835,22.255626 82.48181,20.75128 82.47813,19.393573 l -0.0099,-6.583382 c 0,-3.4810759 -3.440623,-7.3743808 -8.046992,-7.3743808 h -6.202407 c -2.971832,0 -4.834819,2.0830007 -5.914224,4.4302901 L 63.211888,5.4358102 H 50.855767 c 0,0 -0.47983,2.8724132 -0.679689,4.0780749 -1.442887,0 -3.634819,0 -5.073461,0 C 44.899645,8.3082234 44.408774,5.4358102 44.408774,5.4358102 H 13.648266 c -5.1404389,0 -8.2122576,4.5734748 -8.2122576,8.9915918 v 19.523906 c -0.027516,2.330927 0.7767303,4.446709 2.2681103,5.955273 1.5003538,1.517905 3.5529513,2.320453 5.9352013,2.320453 H 37.799008 L 34.71111,39.497805 C 31.792497,36.914932 31.236517,35.55697 31.264826,34.058881 V 28.24685 h -11.22845 c 0,0 0,2.806794 0,3.94678 -0.852003,0 -1.705704,0 -1.705704,0 -0.534098,-0.0059 -0.680396,-0.07332 -0.70494,-0.08662 -0.0396,-0.05379 -0.22913,-0.393773 -0.22913,-1.851664 l -0.0014,-12.884953 c -0.02842,-1.331041 0.147091,-1.57874 0.168634,-1.605605 0.003,-0.0031 0.190205,-0.137353 0.931097,-0.138797 0,0 0.770757,0 1.541486,0 0,1.553121 0,5.301684 0,5.301684 h 11.644019 l -0.0051,-7.789073 c -0.01868,-1.337013 -0.01104,-2.38477 1.152725,-3.7888176 1.566029,7.6384426 4.879263,23.8018116 4.884642,23.8224766 1.384006,6.261288 4.648266,9.054777 10.579476,9.054777 h 19.426185 l -7.027601,-2.999293 c -3.502901,-1.484501 -2.848407,-5.565746 -2.818683,-5.73588 0,0 0.764048,-4.255627 0.797735,-4.446993 0.728096,-2.760368 2.9908,-3.40351 3.089314,-3.430148 l 3.181316,-0.861203 -2.663553,-1.921784 c -0.02095,-0.01647 -2.238924,-1.629724 -1.857608,-3.7784 l 0.667799,-3.252965 h 8.315074 c 1.044586,0 1.085634,0 1.108564,2.64719 v 13.376079 c 0.06143,2.845294 0.226185,10.403397 7.502901,10.403397 H 88.11695 l -3.769851,-2.814155 c -1.551875,-1.152158 -1.879972,-4.396036 -1.879972,-5.609058 v -0.06879 h 0.0028 l -0.0017,-0.101628 h -0.01246 c 0.01642,-0.241472 0.02236,-0.484925 0.02236,-0.699787 l 0.0059,-4.739165 c 0,-1.220382 1.596037,-2.584487 2.153433,-2.966115 l 0.682519,-0.469073 v 8.91632 c -0.01585,2.999009 0.764615,5.382024 2.260722,6.883227 1.087049,1.090729 2.48804,1.668224 4.057183,1.668224 h 5.380892 V 16.118301 c 0.0074,-0.240283 0.02463,-0.377636 0.04076,-0.492314 0.277707,0 2.457183,0 2.54862,0 0.01953,0.119547 0.0419,0.284869 0.04558,0.553461 v 15.644189 c 0.06115,2.845294 0.229016,10.403397 7.501204,10.403397 h 10.4484 l -4.06029,-2.838217 c -1.58896,-1.115923 -1.92951,-4.42293 -1.92951,-5.622364 v -0.02406 h 0.001 l -0.001,-0.107289 h -0.0147 c 0.0178,-0.243171 0.0224,-0.486624 0.0224,-0.701486 l 0.004,-4.739165 c 0,-1.220382 1.59689,-2.584487 2.15485,-2.966115 l 0.70885,-0.488323 v 7.092683 c -0.0269,3.80467 -0.073,10.173248 6.35527,10.394338 H 126 c 0,0 2.96475,-5.885068 5.22547,-10.373673 0,0.993913 0,2.596461 0,2.649964 0,2.531069 0.71763,4.589951 2.07559,5.96603 1.13687,1.150177 2.68591,1.757679 4.47954,1.757679 h 11.78231 l -4.6259,-2.886058 c -1.61132,-1.004105 -1.72343,-2.939561 -1.70701,-5.362774 l 0.003,-5.213588 c 0.006,-2.10845 1.76673,-3.8231 1.78429,-3.840906 l 1.16121,-1.12218 -1.14763,-1.126709 c -0.0192,-0.01922 -1.80382,-1.796377 -1.79787,-3.851069 v -4.85857 c 0.009,-2.25925 0.17608,-4.5451661 1.35173,-5.9779757 l 2.08917,-2.5513941 z m 42.54919,10.5047978 v 2.144374 c -0.0266,3.397565 -1.0293,6.371634 -2.68564,8.733729 0.73263,0 1.54112,0 1.54112,0 v 5.821062 c 0,0 -0.11918,2.12937 1.56999,4.08719 1.69059,1.960651 4.73631,5.138853 8.39349,7.909696 l -45.41458,0.0017 c -2.45322,0 -4.59589,-0.853503 -6.19561,-2.473885 -0.68025,-0.688182 -1.1966,-1.522152 -1.63227,-2.423496 -0.39717,0.78811 -2.46822,4.897381 -2.46822,4.897381 h -20.32951 c -2.70092,0 -5.72852,-0.856334 -7.723428,-3.945364 0,0.04926 0,3.945364 0,3.945364 H 13.63932 c -2.997056,0 -5.7158099,-1.078556 -7.6497377,-3.038075 C 4.0409341,39.630855 2.9895258,36.905873 3.0247133,33.924415 V 14.427402 c 0,-5.6058594 3.9737012,-11.4045854 10.6235527,-11.4045854 H 46.44416 c 0,0 0.654494,3.842576 0.696108,4.0784429 0.488605,0 0.503609,0 0.992215,0 0.03822,-0.2284784 0.681387,-4.0784429 0.681387,-4.0784429 h 25.60736 c 4.230148,0 8.06058,2.6397735 9.662278,6.1924981 1.765605,-3.8123707 5.38712,-6.1924981 9.953008,-6.1924981 h 8.958244 c 3.07431,0 6.02689,1.2028025 8.10559,3.2993913 0.35839,0.3640198 0.67771,0.7549328 0.9758,1.1592073 V 3.0228166 h 16.93503 c 0,0 0,1.4610049 0,2.6369143 l 1.32965,-2.6369143 h 54.82831 c -9.34975,5.9956687 -10.79292,7.8770844 -10.79292,12.9177914 z"
               id="path26"
               fill="#181210" />
            <path
               d="m 157.79985,32.123424 c -0.0198,-0.08662 -0.0405,-0.219391 -0.0478,-0.484925 v -1.099788 c 0,-0.162774 0.0597,-0.676008 0.79972,-0.680538 0,0 0.77169,0 1.50573,0 0,0.449257 0,1.637084 0,2.335457 -0.70148,0 -1.41005,0 -1.41005,0 -0.54635,0 -0.74933,-0.03878 -0.84756,-0.07021"
               id="path28"
               fill="#181210" />
            <path
               d="m 176.44897,83.129227 c 0,0 -0.15089,1.274168 -1.07884,1.688322 1.35202,-6.357254 -4.94352,-11.901486 -4.94777,-11.90828 6.07445,4.281104 6.41613,9.137438 6.02661,10.219958"
               id="path30"
               fill="#181210" />
            <path
               d="m 197.23793,0.26837848 c -1.40835,0 -2.54862,1.14306942 -2.54862,2.55142042 0,1.4072357 1.14027,2.5486652 2.54862,2.5486652 1.41033,0 2.55032,-1.1414295 2.55032,-2.5486652 0,-1.408351 -1.13999,-2.55142042 -2.55032,-2.55142042 m 0,4.55423992 c -1.10404,0 -2.00368,-0.8967869 -2.00368,-2.0028195 0,-1.1085689 0.89964,-2.00393763 2.00368,-2.00393763 1.10743,0 2.00566,0.89536873 2.00566,2.00393763 0,1.1060326 -0.89823,2.0028195 -2.00566,2.0028195"
               id="path32"
               fill="#928b8a" />
            <path
               d="m 198.28563,1.3622392 h -0.60411 l -0.55088,1.1833205 h -0.39236 V 1.3622392 h -0.54607 v 2.9126935 h 1.22944 c 0.47587,0 0.86398,-0.3864968 0.86398,-0.8657325 0,-0.3727672 -0.23864,-0.6921302 -0.57297,-0.8129964 l 0.57297,-1.2339646 m -1.54735,2.3665364 V 3.0930502 h 0.68337 c 0.17466,0 0.31621,0.1417692 0.31621,0.31615 0,0.1763623 -0.14155,0.3195754 -0.31621,0.3195754 h -0.68337"
               id="path34"
               fill="#928b8a" />
            <path
               d="m 170.27431,71.782022 c -2.28904,-1.380325 -2.9993,-0.160509 -2.12485,1.027318 3.26058,4.363765 2.22336,6.968436 1.88479,7.96518 -0.60269,1.840623 -0.67601,3.170276 -0.45067,4.142958 -0.96844,2.575796 1.95017,3.126115 1.95017,3.126115 0.30885,1.442321 -1.07006,2.68167 -1.07006,2.68167 0,0 -0.15655,0.268365 0.58372,0.307997 0.7431,-0.0218 2.3799,-2.593347 2.3799,-2.593347 1.33843,0.16787 2.11295,-0.593348 2.56221,-1.430432 0.7281,-0.580325 1.16094,-1.464402 1.4293,-2.428308 1.36815,-7.417693 -4.97495,-11.461005 -7.14451,-12.799151 z m 6.7731,16.060297 c -0.27742,0.457183 -1.02194,1.885916 -2.92003,1.957537 -1.85647,2.674876 -2.79065,2.615145 -3.2351,2.596462 -0.82095,-0.0385 -1.35202,-0.311678 -1.64897,-0.836235 -0.54777,-1.442888 0.69242,-2.207502 0.85067,-2.550319 -0.73263,-0.354989 -1.58924,-0.963057 -1.95924,-2.082095 -0.21203,-0.665534 -0.19985,-1.346921 0.0224,-2.10191 -0.16278,-1.152725 -0.0524,-2.543242 0.57126,-4.416136 h 0.003 c 0.006,-0.02435 0.0164,-0.04756 0.0269,-0.0753 0.31309,-0.925124 1.04459,-2.961925 -1.71918,-6.649115 -1.86213,-2.033687 -0.33857,-5.510545 4.00368,-3.088181 8.70545,4.484925 9.49158,13.344656 6.00453,17.245293 z"
               id="path36"
               fill="#ffffff" />
            <path
               d="m 36.007925,78.00566 c 0,0 2.417269,0.01585 4.155698,0 1.737579,-0.01784 1.737579,-1.0862 1.765038,-1.889031 v -3.69087 c 0,0 0.0076,-1.50092 -1.48167,-1.48535 -1.489879,0.01925 -4.439066,0 -4.439066,0 z m -8.783835,0.153715 v -5.448549 c -0.0723,-3.123284 -2.837367,-4.164756 -2.837367,-4.164756 0,0 2.81271,-1.323708 2.837367,-4.445293 v -5.528379 c 0,-5.269639 -2.11649,-6.961642 -2.11649,-6.961642 h 11.00535 v 11.910261 h 3.6954 c 0,0 2.199575,-0.223637 2.484359,-3.346638 l 0.875301,-5.395895 c 0.260439,-1.985279 1.399859,-3.167728 3.059023,-3.167728 h 5.871763 l -1.594339,10.813588 c -0.104458,2.547204 -1.818259,4.157395 -4.415286,4.882378 2.076433,0.937296 4.310828,2.339136 4.415286,5.452512 l -0.02831,6.619391 c 0.155697,2.864827 -2.365181,5.91564 -7.081104,5.900071 l -19.989271,5.9e-5 c 3.754961,-2.335233 3.818316,-7.11938 3.818316,-7.11938 z"
               id="path38"
               fill="#ffffff" />
            <path
               d="m 67.7121,62.690161 2.691295,16.199858 2.692711,-16.199858 z m 2.040481,22.588535 H 59.099503 C 62.852935,82.99929 61.7121,77.829014 61.7121,77.829014 l -1.207077,-5.303326 c -0.981175,-3.780325 -3.650672,-5.135173 -3.650672,-5.135173 0,0 2.480962,-1.578202 1.911394,-4.793772 L 56.744797,51.610756 h 9.12753 l 0.676008,4.079547 h 7.712951 l 0.679972,-4.079547 h 9.138853 l -5.268223,25.832413 c -1.004105,4.962208 -3.649823,7.835527 -9.059307,7.835527 z"
               id="path40"
               fill="#ffffff" />
            <path
               d="m 86.255624,68.510119 c 0,0 2.873319,-1.633688 2.838783,-4.258458 V 58.20835 c 0,-3.323992 1.922151,-6.597594 5.613022,-6.597594 h 11.782301 c 3.79732,0.0334 6.43398,3.134041 6.40142,8.23949 V 70.840479 H 102.2845 v -6.340551 h 2.23864 v -3.654919 c -0.006,-1.348337 -0.63298,-2.199575 -2.19505,-2.169002 h -2.343096 c -1.491295,-0.03057 -1.98443,1.035527 -2.001699,2.169002 v 17.417409 h 4.865395 c 2.08153,0.01047 1.89214,-1.236801 1.87997,-2.70007 h 7.74749 v 2.833687 c 0,2.886624 -0.6862,6.813305 -8.25789,6.882661 h -18.8034 c 3.193206,-1.772683 3.679547,-5.600283 3.679547,-8.87247 v -3.641047 c 0.03454,-3.331918 -2.838783,-4.25506 -2.838783,-4.25506"
               id="path42"
               fill="#ffffff" />
            <path
               d="m 120.96673,78.262418 v -5.497239 c -0.0447,-2.694975 -2.26949,-4.113235 -2.26949,-4.113235 0,0 2.26949,-1.515074 2.26949,-4.540693 v -5.538853 c -0.0447,-3.544799 -1.65944,-6.159094 -3.26482,-6.961642 h 12.04784 v 28.052087 c 0,3.59632 0,5.615853 -5.56433,5.615853 h -6.79689 c 3.10942,-1.72569 3.62322,-5.491862 3.5782,-7.016278"
               id="path44"
               fill="#ffffff" />
            <path
               d="m 163.70729,51.610756 v 24.845576 c 0.0167,4.439066 -0.0671,8.554565 -4.79576,8.718471 h -4.19476 V 69.013162 l -5.62548,11.657749 c -1.77863,3.602831 -4.49285,4.607785 -7.11734,4.607785 h -7.46582 c 3.11281,-1.781175 3.58585,-4.84586 3.57679,-7.016278 v -5.456192 c -0.0102,-2.839632 -2.27091,-4.401132 -2.27091,-4.401132 0,0 2.27997,-1.631139 2.27091,-4.398868 v -5.433828 c -0.0102,-2.261288 -0.84133,-4.832272 -3.00976,-6.961642 h 11.8944 v 16.577211 l 7.85478,-16.577211 h 8.88295"
               id="path46"
               fill="#ffffff" />
            <path
               d="m 29.702759,29.808916 v 4.249965 c -0.04133,2.21741 0.999009,3.975088 3.97424,6.607502 H 13.63932 c -4.1549607,0 -6.6865955,-2.916065 -6.6409055,-6.694126 V 14.427402 c 0,-3.584118 2.3904034,-7.4309974 6.6498515,-7.4309974 h 19.307996 c -3.233404,2.8413871 -2.820948,4.7349464 -2.837084,6.8165034 v 5.552357 H 21.597876 V 14.063382 H 18.49489 c -2.222675,0.0091 -2.720283,0.934183 -2.659788,3.344176 v 12.774748 c -0.0135,2.93022 0.651324,3.54678 2.470913,3.573673 h 3.291861 v -3.947063 h 8.104883"
               id="path48"
               fill="#ffffff" />
            <path
               d="m 44.949751,18.077565 2.692711,16.199292 2.691861,-16.199292 z m 16.42208,6.025506 c 0,0 -3.239348,0.787799 -4.220523,4.56586 l -0.817551,4.545505 c 0,0 -0.990234,5.443171 3.747487,7.451947 H 48.292143 c -5.488181,0 -7.890446,-2.565322 -9.056758,-7.832697 L 33.940551,6.9964046 h 9.149894 l 0.696107,4.0798864 h 7.713234 l 0.67799,-4.0798864 h 9.12017 L 58.888887,18.739929 c -0.566171,3.217353 2.482944,5.363142 2.482944,5.363142 z"
               id="path50"
               fill="#ffffff" />
            <path
               d="m 80.920309,28.194451 c 0,0 0.0028,6.6984 -0.01274,5.458202 0,0 -0.120878,5.055909 2.505307,7.01373 h -5.399292 c -4.554848,0 -5.827034,-3.578486 -5.941967,-8.875867 V 18.447558 c -0.02066,-2.551734 -0.02066,-4.209455 -2.669498,-4.209455 h -6.71932 c 0,0 0.850672,-7.2416984 5.536022,-7.2416984 h 6.202407 c 3.592356,0 6.486341,3.0097944 6.486341,5.8137864 l 0.0096,6.584826 c 0.0031,2.481529 2.842746,4.54075 2.842746,4.54075 0,0 -2.839632,1.91615 -2.839632,4.258684"
               id="path52"
               fill="#ffffff" />
            <path
               d="m 110.06482,28.194451 c 0,0 0,6.6984 -0.0133,5.458202 0,0 -0.0985,5.12753 2.59476,7.01373 h -5.49129 c -4.554,0 -5.82562,-3.578486 -5.94254,-8.875867 V 16.179448 c -0.0192,-1.892145 -0.69299,-2.107007 -1.534038,-2.116066 h -2.777636 c -0.959377,0.0091 -1.404954,0.409031 -1.442887,2.018967 v 24.584034 h -3.819958 c -2.662703,0 -4.781882,-2.250248 -4.755555,-6.983723 V 14.526284 c 0.06936,-3.788818 2.322434,-7.5298794 7.15414,-7.5298794 h 8.958244 c 3.97113,0 7.09101,2.8889172 7.05676,6.3804954 l 0.007,6.018117 c 0.006,2.481529 2.84388,4.54075 2.84388,4.54075 0,0 -2.83794,1.91615 -2.83794,4.258684"
               id="path54"
               fill="#ffffff" />
            <path
               d="m 144.11181,40.666383 h -6.33121 c -3.45902,0 -5.03467,-2.736872 -4.99448,-6.303185 v -9.083085 l -7.7489,15.38627 h -4.19278 c -4.72866,-0.16419 -4.82265,-4.622789 -4.79462,-8.822081 V 6.9964046 h 8.9874 V 22.35128 l 7.7489,-15.3548754 h 10.59024 c -1.56094,1.9057608 -1.69512,4.6975794 -1.70418,6.9611604 v 4.866185 c -0.0105,2.769484 2.26837,4.968719 2.26837,4.968719 0,0 -2.25931,2.128012 -2.26837,4.964784 v 4.8954 c -0.0105,2.167021 -0.1656,5.38712 2.43963,7.01373"
               id="path56"
               fill="#ffffff" />
            <path
               d="m 170.40254,13.744147 v 4.342137 c -0.043,5.384062 -3.37806,10.209795 -9.24529,10.209795 h -2.60552 c -1.60878,0.01475 -2.3666,1.214748 -2.36065,2.255937 v 1.086483 c 0.0447,1.63397 0.54324,2.118896 2.45945,2.11748 h 2.96928 v -2.962208 h 7.6368 v 3.558953 c -0.0328,1.747487 1.00892,4.540693 3.97509,6.313659 h -17.2971 c -6.13135,0.09851 -8.56673,-3.193489 -8.55626,-7.519321 v -2.842746 c -0.0105,-5.699985 4.34083,-9.293163 9.6903,-9.278131 h 2.22053 c 1.32484,0.01503 2.36489,-0.583751 2.33064,-2.381571 v -1.492173 c 0.0119,-1.984685 -0.34338,-2.976928 -2.40255,-2.987431 h -2.74253 v 3.276716 h -8.4218 V 12.68167 c -0.0241,-2.458854 1.08762,-5.6852654 6.03143,-5.6852654 h 19.43099 c -1.71578,1.4253928 -3.11281,3.7871764 -3.11281,6.7477424"
               id="path58"
               fill="#ffffff" />
            <path
               d="m 175.98952,87.009481 c -0.44926,0.837084 -1.22378,1.598302 -2.56221,1.430432 0,0 -1.6368,2.57155 -2.3799,2.593347 -0.74027,-0.03963 -0.58372,-0.307997 -0.58372,-0.307997 0,0 1.37891,-1.239349 1.07006,-2.68167 0,0 -2.91861,-0.550319 -1.95017,-3.126115 0.17466,-0.467091 0.46539,-0.994479 0.93843,-1.604812 0,0 -0.43879,2.602406 1.3087,2.852371 0,0 1.27134,-0.773673 1.53093,-2.768861 0,0 1.18952,1.866667 0.29412,3.269356 0,0 1.48167,0.861147 2.92598,-1.583015 0,0 -0.0999,1.010333 -0.59222,1.926964"
               id="path60"
               fill="#181210" />
          </g>
        </g>
      </g>
    </g>
  </g>
</svg>
