<?xml version="1.0" encoding="utf-8"?>
<!-- Generator: Adobe Illustrator 22.1.0, SVG Export Plug-In . SVG Version: 6.00 Build 0)  -->
<svg version="1.1" id="Layer_1" xmlns="http://www.w3.org/2000/svg" xmlns:xlink="http://www.w3.org/1999/xlink" x="0px" y="0px"
	 width="250px" height="192.73px" viewBox="0 0 250 192.73" enable-background="new 0 0 250 192.73" xml:space="preserve">
<path fill="#492F92" d="M246.98,177.69c0,0-13.72-6.04-14.24-6.25c-0.41-0.31-6.15-3.99-7.37-4.81c-0.41-0.72-0.92-1.54-1.43-2.46
	c0.1-0.92,0.1-1.64,0.2-2.87c1.84-1.23,5.84-3.69,5.84-3.69s5.12-6.76,5.84-7.89c0.92-0.51,4.4-2.46,4.4-2.46l0.92-4.51
	c0,0-1.13-1.54-1.13-1.64c0.31-0.72,1.33-3.38,1.33-3.38l-2.87-4.4l-3.58-0.1c0,0-3.07,1.74-3.48,1.95c-0.51,0.2-8.4,3.18-8.4,3.18
	s-2.77,5.02-3.38,6.15c-0.31,0.2-0.51,0.31-0.92,0.72c-0.72-0.2-1.13-0.41-1.43-0.51c-0.41-0.2-0.92-0.61-1.74-1.13
	c-0.1-0.31-0.1-0.41-0.31-0.92l2.66-1.95l1.64-3.18l-1.02-3.28l4.51,0.92c-0.1-0.72-1.84-12.5-1.84-12.5s-6.04-5.94-7.78-7.58
	c0-2.25,0-8.6,0-9.53c0.31-0.92,2.46-7.89,2.46-7.89l-2.97-3.99h-75.79V78.03h5.12V66.66c5.33-2.46,10.45-4.81,14.95-6.96
	c12.09-5.63,20.28-9.42,20.28-9.42V35.73c-0.1,0-8.24,3.87-20.37,9.47c0.31-1.21,0.6-2.21,0.81-2.92c0.31-0.41,0.51-0.82,0.92-1.33
	c1.13-0.61,5.84-3.07,5.84-3.07l0.2-6.45c0,0-2.36-2.25-2.97-2.77c-0.41-0.72-1.74-3.28-2.36-4.3c0-1.54-0.31-9.12-0.31-9.12
	s-3.89-7.58-4.61-9.12c-0.1-0.82,0.31-5.94,0.31-5.94H36.2v50.6l1.84,3.89c0,0,4.92,4.3,5.84,5.12c0.51,0.92,2.05,3.99,2.97,5.94
	c-0.61,1.43-2.15,4.92-2.15,4.92l1.33,2.87c0,0,1.95,1.54,2.77,2.15c0.51,1.23,1.84,4.51,1.84,4.51s0.61,0.82,0.92,1.23
	c-0.1,0.72-0.31,3.18-0.31,3.18s1.54,1.54,1.74,1.84c0.31,0.61,1.95,3.38,2.46,4.2c0.1,0.4,0.2,1.1,0.3,1.89
	c-0.03,0.02-0.06,0.03-0.09,0.05c-1.64,0.82-2.77,1.33-3.28,1.54c-1.74-3.38-6.15-12.09-6.15-12.09l-3.18,1.43l-27.35,12.5
	l-1.54,0.72l-9.63,4.51l-4.3,1.95c0,0,26.42,4.51,28.37,4.92c-0.2,0.31-4.4,6.25-4.4,6.25l3.89,0.31c0.31-0.51,0.51-0.92,0.61-1.13
	c0-0.1,0.1-0.51,0.1-1.02h-0.41l0.41-0.61v-6.25c-0.61-1.13-1.23-2.25-1.54-2.87c0.51-0.2,1.02-0.51,1.54-0.72v-0.1h0.31
	c1.64-0.82,3.48-1.74,6.45-3.18c-0.51,0.72-1.95,2.77-3.48,4.81c0.1,0.1,0.1,0.1,0.2,0.2c0.1,0.1,0.2,0.2,0.31,0.2
	c0.31,0,0.61,1.02,0.72,1.74l3.48-4.81c0,0,1.43,1.84,1.74,2.25c1.33-0.61,5.74-2.66,7.37-3.48c-0.82-1.54-2.66-5.22-3.48-6.76
	c-1.95,0.92-16.18,7.99-18.33,9.01c0.31,0.61,2.05,3.69,2.05,3.69l-18.44-3.18L45.42,84.9c0,0,5.22,10.24,6.15,12.09
	c0.41-0.2,5.74-2.66,13.83-6.45v1.43l-14.54,6.56L44.7,86.43l-32.67,15.16l11.57,1.95l-1.33-2.46l20.69-10.14l4.61,9.12l-7.58,3.58
	h0.1c1.33-0.2,2.87,0.51,4.2,1.54l0.1,0.1c0.72,0.61,1.43,1.23,2.15,1.95l3.58-1.64l3.99,9.42l-21.1,9.32L32,121.67l-5.94,10.14
	l32.57-15.26l-5.33-12.5l11.88-5.53v1.43c-6.04,2.77-9.83,4.51-10.14,4.71c0.82,1.95,5.33,12.5,5.33,12.5l-37.59,17.51l7.17-12.19
	l-3.58,1.64l-9.12,15.57l31.55-14.65l0.07-0.03c0.02,0.51,0.13,1.19,0.13,1.57c-0.2,0.61-0.82,1.95-0.82,1.95l-0.1,4.3
	c0,0,1.54,2.56,2.36,3.89c-0.82,2.25-2.77,7.89-3.18,9.01c-0.82,0.82-3.18,3.28-3.18,3.28s-0.82,2.15-1.13,2.87
	c-0.2,0.2-1.84,2.15-1.84,2.15l1.74,4.51l2.15,2.66c0,0,27.14-3.28,28.99-3.58c1.64,0.72,11.57,4.81,11.57,4.81l21.61,4.81
	l13.21-0.82l3.79-2.15c-1.64-1.84-3.99-4.51-4.1-4.61c2.46-2.15,4.71-4.2,5.74-5.12c0.31,0,0.41,0,0.72,0
	c0.2,0.51,0.61,1.74,0.61,1.74l1.33,1.95l5.43,1.13c0,0,1.43-0.61,1.74-0.72c0,0,0,0,0.1,0c-0.1,0.2-0.1,0.41-0.2,0.61l1.02,2.25
	l1.33,0.92c0,0,0.61,0.31,0.82,0.41c0.61,1.02,1.95,3.38,1.95,3.38l6.15,3.07c0,0,3.79,0.72,5.53,1.13
	c1.43,1.95,9.32,12.39,9.32,12.39s5.43,1.23,6.96,1.54c0.51,0.51,2.25,2.05,2.25,2.05l8.09-0.41c0,0,4.3-4.51,5.63-5.94
	c0.1,0,0.1,0,0.2,0c0.2,0.2,2.25,2.46,2.25,2.46s3.58-1.54,4.61-1.95c0.31,0.1,0.31,0.1,0.61,0.2c0.82,1.43,3.07,5.12,3.07,5.12
	l4.2,0.51l7.99-5.02l-0.51-3.89c-0.41-0.31-0.72-0.61-0.82-0.72c0.61-2.25,1.33-4.81,1.74-6.56c0.51-0.31,0.61-0.31,1.33-0.72
	c0.41,0.41,0.61,0.51,0.92,0.72c0.41,0.92,1.84,3.89,1.84,3.89s14.24,6.45,17.41,7.89c0.31,2.25,1.23,10.55,1.23,10.55
	s13.21-5.12,13.52-5.33c0.31-0.1,3.38-0.92,3.38-0.92l2.15-4.92L246.98,177.69z M175.08,39.32v9.53c0,0-14.24,6.66-32.98,15.36
	v-1.43l31.65-14.75v-6.66L142,56.12h-3.18C159.21,46.69,175.08,39.32,175.08,39.32z M41.32,95.65c0.61,1.23,0.72,1.54,1.43,2.77
	c-1.64,0.82-2.25,1.02-3.69,1.74c-0.51-0.61-1.23-1.64-1.84-2.46C39.07,96.67,40.3,96.16,41.32,95.65z M209.09,133.96
	c0,0-2.97,1.95-3.18,2.05c-0.2,0.1-3.18,1.84-4.3,2.46c-1.43,0.1-6.45,0.2-7.37,0.31c-0.51-0.1-1.54-0.41-2.66-0.61
	c-0.72-0.92-1.23-1.54-1.95-2.56c0.1-0.82,0.1-1.02,0.2-1.84c1.64-1.43,5.94-5.22,6.45-5.74c0.31-0.2,0.92-0.51,1.74-0.92
	c0.82,0.31,1.33,0.41,1.64,0.51c0.51,0.2,9.32,4.71,9.32,4.71s4.2,0.92,7.48,1.64l-2.05,0.41L209.09,133.96z M40.3,115.52
	c-0.1-0.61-0.31-1.43-0.61-2.25l-1.95-0.2c0.2,0.41,0.31,1.13,0.31,1.74c0,0.1,0,0.31,0,0.51L40.3,115.52z M33.74,122.48
	c2.15-0.92,16.69-7.37,18.64-8.19c-0.61-1.54-2.25-5.33-2.97-6.96c-0.51,0.2-1.23,0.51-1.95,0.92c0.82,0.92,1.54,1.95,2.15,2.77
	c0.72,1.13,1.23,1.84,1.23,1.84l-17.62,8.19C33.43,121.67,33.64,122.28,33.74,122.48 M37.94,104.46l-1.33-1.64l-2.56,3.58
	c0.92,0.51,2.36,1.74,2.36,1.74s-0.2,2.15-0.1,3.48l2.97,0.2c-0.31-1.23-0.61-2.46-0.82-3.58c0-0.1,0-0.2-0.1-0.41
	c-0.31-1.74-0.2-3.18,0.61-3.99L37.94,104.46z"/>
<path fill="#FFFFFF" d="M160.85,33.07l-0.1,2.46l-4.71,2.46l-1.84,2.77l-1.73,6.61c-0.04,0.02-0.07,0.03-0.11,0.05
	c-3.58,1.64-7.48,3.48-11.47,5.33c-2.36,1.13-4.81,2.25-7.27,3.38h-24.38v21.92h4.81V97.9C103.7,82.54,85.87,56.12,85.87,56.12
	H60.17v22.33h5.12v9.53c-0.31,0.2-0.72,0.31-1.02,0.51c-1.8,0.8-3.41,1.61-4.93,2.31l-0.3-1.5l-1.95-3.28l-1.13-1.95l-0.82-0.82
	l0.41-3.18l-1.64-2.05l-2.05-4.92L49,70.86l-0.2-0.31l2.25-4.92l-3.99-8.3l-5.84-5.12l-1.13-2.36V4.08h110.62l-0.2,2.87l4.81,9.32
	l0.31,9.12l3.07,5.63L160.85,33.07z M245.35,181.68l-0.61,1.33l-1.84,0.51l-9.01,3.58l-0.92-7.68l-18.13-8.19l-1.64-3.38l-3.69-2.97
	l-5.02,2.77l-2.77,10.55l1.54,1.33l-4.61,2.97l-1.02-0.1l-2.87-4.92l-3.48-0.92l-3.38,1.43l-1.74-1.84l-3.48,0.41l-5.53,5.84
	l-4.92,0.31l-1.84-1.64l-6.55-1.43l-9.32-12.5l-6.45-1.23l-4.61-2.36l-2.05-3.48l-1.74-0.72l-0.1-0.1l0.92-2.87l-5.02-1.64
	l-1.95,0.82l-2.87-0.61l-0.2-0.2c-0.1-0.41-1.33-3.99-1.33-3.99l-5.02,0.31l-9.63,8.5l2.97,3.38l-10.14,0.61l-20.79-4.61
	l-12.19-5.12l-27.86,3.38l-0.41-0.51l-0.72-1.84l0.82-1.02l1.13-2.77l3.28-3.28l4.1-11.57l-2.66-4.51l0.1-2.46l0.82-2.15l-0.2-3.28
	l0.2-0.72l5.33-2.46l1.02,2.46v22.64h34.93v-3.89c2.66,1.02,4.4,0.92,7.37,1.54c3.69,0.41,5.12,0.2,6.56,0.2s2.66-2.05,4.4-1.33
	c1.33,0.61,2.77,2.46,3.28,3.18c0.1,0.2,0.2,0.31,0.2,0.31h27.14v-24.27h-1.33c0.82-1.02,2.56-3.69,2.97-10.14
	c0.51-8.09-0.51-11.88-0.72-13.93h66.78l0.61,0.82l-2.05,6.56v11.78l7.99,7.89l0.82,5.74l-7.89-1.74l-9.12-4.61l-3.48-1.13
	l-3.58,2.05l-7.89,6.96l-0.51,4.92l3.69,4.81l4.51,1.13l8.81-0.31l5.22-2.97l2.15-1.43l4.61,0.31l-4.2,3.07l1.64,4.81l3.38,2.15
	l3.69,1.23l3.28-2.36l3.18-5.63l7.37-2.77l2.87-1.54h0.51l0.61,0.92l-1.43,3.38l1.33,2.05l-0.2,1.23l-3.58,2.05l-5.94,7.99
	l-6.86,4.3l-0.51,5.94l2.56,4.4l8.5,5.43l13.52,5.94L245.35,181.68z M36.4,112.04c0-0.1,0-0.2-0.1-0.31l2.97,0.2
	c0.1,0.41,0.31,0.92,0.41,1.33l-1.95-0.2c-0.2-0.41-0.51-0.72-0.92-0.51C36.61,112.65,36.51,112.45,36.4,112.04 M28.62,111.73
	c0,0.2,0,0.51,0,0.61h-0.41L28.62,111.73 M24.01,101.69c0.31,0.61,2.05,3.69,2.05,3.69l-18.44-3.18l37.69-17.51
	c0,0,5.22,10.24,6.15,12.09c0.41-0.2,5.74-2.66,13.83-6.45v1.43l-14.44,6.76L44.7,86.43l-32.67,15.16l11.68,1.84l-1.33-2.46
	l20.69-10.14l4.61,9.12l-7.58,3.58h-0.1c-0.31,0.1-0.61,0.2-0.82,0.41l0,0l-1.02,0.51l-1.33-1.64l-2.56,3.58
	c-0.41-0.2-0.61-0.31-0.72-0.2c-0.1,0.2-0.2-0.2-0.31-0.72l3.48-4.81c0,0,1.43,1.84,1.74,2.25c1.33-0.61,5.74-2.66,7.37-3.48
	c-0.82-1.54-2.77-5.22-3.48-6.76C40.4,93.7,26.06,100.67,24.01,101.69 M55.05,104.66c0.82,1.95,5.33,12.5,5.22,12.5l-37.69,17.51
	l7.17-12.19l3.28-1.54c0.31,0.61,0.51,1.23,0.61,1.43c2.05-0.92,16.69-7.27,18.64-8.19c-0.72-1.54-2.25-5.33-2.97-6.96
	c-0.51,0.2-1.13,0.51-1.95,0.92c-0.31-0.31-0.61-0.72-0.92-1.02l3.58-1.64l3.99,9.42l-21.1,9.32l-1.02-2.66l-5.94,10.14l32.67-15.16
	l-5.33-12.5l11.88-5.53v1.43C59.25,102.72,55.46,104.46,55.05,104.66 M173.75,47.92v-6.66L142,56.01h-3.18
	c20.38-9.42,36.26-16.8,36.26-16.8v9.63c0,0-14.24,6.66-32.98,15.36v-1.43L173.75,47.92z M134.83,75.88v48.86h5.12v18.03h-22.43
	c0,0-23.25-34.52-31.34-46.5v28.88H91v17.72H62.32v-17.72h5.12V76.29h-5.12V58.27h22.53c0,0,23.25,34.52,31.34,46.5V75.88h-4.81
	V58.16h28.68v17.72H134.83z M131.86,127.91v-55.1h5.12V61.34h-22.53v11.47h4.81v42.1L83.11,61.34H65.39v11.88h5.12v55h-5.12v11.47
	h22.53v-11.47h-4.81v-42.1l36.05,53.67h17.72v-11.88H131.86z"/>
<path fill="#F78426" d="M59.35,90.63c1.43-0.72,3.18-1.43,5.02-2.36c0.31-0.1,0.61-0.31,1.02-0.51v-9.53h-5.12V56.12h25.71
	c0,0,17.82,26.42,28.17,41.79V78.03h-4.81V56.12h24.38c2.46-1.13,4.92-2.25,7.27-3.38c-0.1-0.1-0.2-0.2-0.2-0.2
	c-0.72-1.23-2.15-5.63-3.79-6.35c-3.07-1.13-3.28-6.96-4.61-6.76c-1.33,0.1-1.33,0.92-1.54,4.92c0,5.63,1.13,3.99,1.13,6.35
	s-0.61,2.77-0.61,2.77c-0.2-5.94-3.79-8.91-3.89-10.65c1.95-1.23,1.43-4.61,0.51-4.4c-1.02,0.2-4.4,3.18-4.1,7.58
	c0.2,4.4-0.41,8.09-1.95,8.3c0.51-1.43-1.74-4.1-2.97-6.66c-1.23-2.46-6.25-3.38-6.04-5.74c0.2-2.15-0.51-3.99-1.64-4.1
	c0.2-0.2,0.31-0.41,0.61-0.51c0.92-0.51,1.02-3.79,1.23-7.07s-2.46-4.81-2.46-4.81s0.41,2.46-0.61,2.25c-1.02-0.2,0.82,2.46,0,2.46
	c-0.82,0-1.23,2.66-1.02,4.61c0.2,2.05-0.41,3.58,0.61,4.2c0,0,0,0,0.1,0c-0.1,0.61-0.1,1.54-0.2,3.07c-0.2,4.1,1.43,6.56,1.95,9.01
	c0.41,1.95-0.1,3.79-0.72,4.4h-2.25v12.8l-3.58,1.64l-1.64-0.61c-1.74-4.1-3.79-12.19-5.43-14.54c-1.64-2.36-1.64-6.96-2.66-6.86
	c-2.15,0.41-5.43,9.83-6.66,10.45c-1.23-1.74-1.84-2.77-1.84-2.77h-1.33l0.1-0.31c1.43-3.18-1.43-8.81-1.43-8.81
	s-1.02-1.43-2.46,0.2c0.92,2.46-3.89,7.78-3.89,7.78s-1.13,1.33-2.97-0.51c0.92-5.84-6.04-12.09-7.27-10.24
	c1.43,5.84-0.72,8.5-1.74,10.14c-0.61,0.92-1.13,1.33-1.43,1.54h-4.71v24.27h2.25l0.1,1.02c0,0-1.23,2.97-4.51,5.43l1.95,3.28
	L59.35,90.63z M30.77,79.36c1.02-0.41,1.23-3.48,1.84-5.22c0.61-1.84-3.18-5.02-3.18-5.02c-0.82,0.61-2.66,5.02-2.05,7.89
	C28.01,79.77,29.75,79.77,30.77,79.36 M13.87,81.72c-1.64,0.2-3.07,8.09-3.07,9.32c0,1.23,1.84,3.58,3.38,3.38
	c1.64-0.2,0.61-4.4,1.84-6.66C17.25,85.61,13.87,81.72,13.87,81.72 M42.86,82.13c0,0-1.23-3.28-2.25-3.99
	c-1.02-0.82-4.61-4.81-5.22-5.84c-0.61-1.02-3.28,10.45-4.4,10.45c-1.23,0,0.41,5.84-0.61,6.04c-1.02,0.2-1.02-0.82-1.64-1.23
	c-0.61-0.41,0-5.43,0-6.04s-1.64-4.81-2.87-4.81c-1.23,0-2.46,7.89-3.38,8.09c-1.02,0.2,0.2,2.46-0.41,3.07
	c-0.61,0.61-1.23-1.23-3.28-0.61c-2.05,0.61-3.79,6.04-3.18,8.5c0,0,0,0.1,0,0.31l27.35-12.7L42.86,82.13z M13.67,96.67
	c-0.82,0.2-3.28-6.86-5.63-6.25c-2.46,0.61-0.2,2.87-1.64,3.58c-1.43,0.82-1.02,3.07-1.64,3.18c-0.61,0.2,1.02,2.87,0,3.38
	c-0.1,0.1-0.2,0.31-0.31,0.41l9.63-4.51C13.97,96.67,13.77,96.67,13.67,96.67 M74.2,47.51c1.23,2.25,1.23,3.58,2.46,3.38
	s1.02-0.41,1.64-2.25c0.61-1.84,0-4.81,0-7.27c0-2.46-3.07-5.02-3.07-5.02s-1.64,2.25-0.82,3.99C75.22,42.19,72.97,45.26,74.2,47.51
	 M86.69,48.84c0.31,0.1,0.72,0.31,0.61,0.61c-0.2,0.82,0.41,2.66,1.23,2.25c0.82-0.41,1.84-2.66,2.46-7.27s-2.97-7.37-2.97-7.37
	s0.2,4.3-0.41,3.48c-0.61-0.82,0.41,2.77,0.41,2.77s-0.41,0.1-1.23,0.1S86.9,47.72,86.69,48.84 M101.44,55.5
	c-0.61,1.02,0.41,2.46,1.64,2.46c1.23,0,0-1.84,0.82-2.87c0.82-1.02,0.41-2.25,0.61-5.02c0.2-2.87-3.38-6.25-3.38-6.25l-0.61,6.45
	h-0.61c-0.61,0,0.61,3.07,0.61,3.07S101.96,54.58,101.44,55.5 M105.64,48.13c0.61,0,1.84-2.05,0.82-3.07c-1.02-1.02,1.43-3.79,0-4.4
	c-1.43-0.61-0.41-2.25-0.82-3.28s-1.23-6.04-1.23-6.04s-2.66,5.22-2.66,8.91C101.75,43.82,105.03,48.13,105.64,48.13 M114.55,40.65
	c-0.61,1.02,1.02,2.66,2.25,2.46c1.23-0.2,0.82-2.87,1.23-3.58c0.41-0.82,0.41-5.63,0.2-7.27c-0.2-1.64-1.84-3.48-1.84-3.48
	c-1.23,0.41-1.84,5.63-2.05,7.27C114.14,37.58,115.07,39.63,114.55,40.65 M121.72,47.72c1.23-0.41,1.43-4.61,1.64-6.86
	s-1.23-5.84-1.23-5.84c-2.05,0-1.64,5.22-2.25,5.43c-0.61,0.2,0.82,3.99,0,5.43C119.16,47.31,120.6,48.02,121.72,47.72 M157.06,59.7
	c-4.51,2.05-9.53,4.4-14.95,6.96v11.37h-5.12v44.66h5.12v22.33H116.4c0,0-17.82-26.42-28.17-41.79v19.87h4.81v21.92H60.17V123.1
	h5.12v-20.69c-0.31,0.2-0.72,0.31-1.02,0.51c-1.64,0.82-6.25,2.97-6.25,2.97c1.74,4.1,5.12,12.5,5.12,12.5l-5.12,2.36l1.02,2.46
	v22.84h34.93v-3.89c2.66,1.02,4.4,0.92,7.37,1.54c3.79,0.51,5.12,0.2,6.56,0.2s2.66-2.15,4.4-1.33c1.33,0.61,2.77,2.46,3.28,3.18
	c0.1,0.2,0.2,0.31,0.2,0.31h27.14v-24.27h-1.33c0.92-1.02,2.56-3.58,2.97-10.14c0.61-8.09-0.51-11.88-0.72-13.93
	c0-0.31,0-0.51,0-0.82l0.92-2.15c0.1-0.31,0.1-0.61,0.2-0.92c0.31-2.36-1.54-2.15-0.92-3.18c0.82-1.33,2.87,0,3.89-3.89
	c0.82-5.74-0.41-4.3-0.72-6.35s3.28-3.89,4.1-6.56c0.82-2.77,0.41-5.33,0.1-7.27c1.64-2.15,2.56-3.28,4.71-4.4
	C157.98,61.24,157.37,60.11,157.06,59.7 M47.47,108.25c-0.31-0.31-0.61-0.72-0.92-1.02c-0.72-0.72-1.43-1.43-2.15-1.95l-0.1-0.1
	c-1.33-1.02-2.87-1.74-4.2-1.54c-0.1,0-0.1,0-0.1,0h-0.1c-0.31,0.1-0.61,0.2-0.82,0.41l0,0c-0.82,0.72-0.92,2.25-0.61,3.99
	c0,0.1,0,0.31,0.1,0.41c0.2,1.13,0.51,2.36,0.82,3.58c0.1,0.51,0.31,0.92,0.41,1.33c0.2,0.82,0.41,1.54,0.61,2.25l0,0
	c0.2,1.02,0.31,1.74,0,1.95c-0.41,0.31-0.72,0.41-0.92,0.51c-0.61,0.2-0.82-0.1-1.23,0.1c-0.51,0.2-0.1-1.54,0-2.77
	c0-0.2,0-0.31,0-0.51c0-0.61-0.1-1.23-0.31-1.74c-0.2-0.41-0.51-0.72-0.92-0.51c-0.2,0.1-0.31-0.1-0.41-0.51c0-0.1,0-0.2,0-0.41
	c-0.1-1.33,0.1-3.48,0.1-3.48s-1.43-1.23-2.36-1.84c-0.31-0.2-0.61-0.31-0.72-0.2c-0.1,0.2-0.2-0.2-0.31-0.72
	c-0.2-0.72-0.41-1.74-0.72-1.74c-0.1,0-0.2-0.1-0.31-0.2c-0.1-0.1-0.1-0.1-0.2-0.2c-0.41-0.61-0.92-1.64-1.54-1.64h-1.54h-0.31v0.1
	c0,1.54,0,2.66,0,3.58c0,1.95,0,2.66,0,2.97c0,1.23,0,2.36,0,3.28c0,0.2,0,0.51,0,0.72c0,0.51,0,0.92-0.1,1.02
	c-0.1,0.2-0.31,0.61-0.61,1.13c-0.72,1.13-1.84,2.66-1.84,2.66s-0.61,6.66-0.61,7.27l0.82-0.31l3.58-1.64l3.28-1.54l17.62-8.19
	c0,0-0.41-0.72-1.23-1.84C49,110.19,48.29,109.17,47.47,108.25"/>
</svg>
