<svg xmlns="http://www.w3.org/2000/svg" height="176.76" viewBox="0 0 250 176.75653" width="250"><g transform="matrix(1.25 0 0 -1.25 35.577 656.68)"><g transform="matrix(4.1115 0 0 4.1115 -219.34 -1411.4)"><path d="m90.463 457.73c0.65381 1.0723 1.4331 2.6963-1.4277 3.9194-3.396 1.5215-8.2295 3.6743-8.2295 3.6743s-3.4233 0.4253-3.4233 0.4253l-5.8652 1.7778-0.87109-1.6934s-15.854 3.0644-15.87-8.3984c0 0 0.38427 1.707 2.5371 2.666-0.98731-2.773-0.09912-7.1836 5.3877-13.355 0.04199-0.0522 0.08008-0.10108 0.12207-0.15234-6.9116 2.7598-11.378 7.3535-11.042 12.243 0.46777 6.7881 10.028 11.745 21.869 11.651-0.84277 0.10986-1.7002 0.19629-2.5708 0.25635-13.002 0.8955-23.95-4.2778-24.451-11.553-0.43018-6.251 6.9922-12.021 17.338-14.09 1.2934-1.832 1.7612-3.2812 1.5835-6.0444 0.53028 0.41748 10.735 9.5806 14.131 1.1616 0.50049 0.78222 2.5146 3.9258 5.1387 8.0713l-0.6333 3.48s3.354 0.83496 3.354 0.83496c0.33252 0.52832 0.64062 1.0781 0.94336 1.6357 0.78857-1.3174 1.2168-2.7261 1.2168-4.1919 0.00049-6.8042-9.1978-12.407-21.016-13.128 0.84814-0.0513 1.71-0.0791 2.5825-0.0791 13.033 0 23.599 5.9141 23.599 13.207 0 2.8657-1.6318 5.5171-4.4028 7.6821z"/><path d="m43.096 10.25c-0.69152 0.0555-1.2324 0.53833-1.2324 1.123 0 0.62195 0.61145 1.127 1.3652 1.127-1.2006-0.75868-0.52771-1.8911-0.13281-2.25zm1.4082 0.65234c-0.271 0.19654-0.91992 0.41016-0.91992 0.41016 0.18432 0.2179 0.71642 0.50648 0.94531 0.47656 0.0049-0.01587 0.21936-0.44788-0.02539-0.88672zm3.543 3.4414c-3.639 0.0013-6.2034 2.2983-11.139 1.1895-5.5042-1.2366-15.086 1.6699-9.084 11.006 3.2001 4.978 0.14563 9.1986 0.14258 9.209 1.1432-1.0565 3.9681-3.0608 2.9922-8.1426-2.157-11.23 8.0781-10.012 8.0781-10.012-5.0787 0.60851-7.9055 10.403-1.1465 14.152 3.3032 1.9403 3.4805 3.9297 3.4805 3.9297s1.3168-2.0614 2.7383-4.4082c0 0-6.3721-0.52674-6.377-6.5723-0.0024-2.6044 2.5684-4.2182 3.3398-4.7266 1.0455-0.6897 1.9512-1.9531 1.9512-1.9531 3.0609-3.8776 5.3298-2.0825 5.9023-0.64453 0.41626 1.0419 3.3354 1.632 3.6602 0.16406 0.2533-1.3348-0.5133-2.3201-1.8066-2.7559-0.99667-0.31426-1.8927-0.43584-2.7324-0.43555zm-1.1953 2.2188c-0.09728-0.0056-0.16552 0.0042-0.1875 0.0059-0.69214 1.0303-0.11132 2.4835-1.7422 5.2637 0 0 2.4716-1.8058 3.0996-4.293-0.3273-0.81802-0.87807-0.95985-1.1699-0.97656zm2.9629 2.2988c-0.16112 0.70619-0.37232 1.632-1.2207 2.8887 0 0 1.684-1.0801 2.4414-2.75-0.28015 0.04387-0.68236 0.03228-1.2207-0.13867zm-5.618 6.701c-0.39611 0.7788-0.77161 1.3289-1.1152 1.7402-0.72815 0.8722-1.2965 1.095-1.5449 1.416-0.07446 0.0965-0.12182 0.20252-0.13281 0.33984-0.04456 0.50965 0.44799 0.76562 0.83984 0.58008 0.15015-0.07325 0.31141-0.19164 0.48047-0.37109 1.5253-1.6315 1.4727-3.7051 1.4727-3.7051zm1.5078 1.1562c-0.60485 1.8683-1.8707 2.4191-1.8262 2.9141 0.03661 0.40771 0.72535 0.52191 1.0293 0.11719 1.0724-1.4331 0.79688-3.0312 0.79688-3.0312z" transform="matrix(.8 0 0 -.8 46.611 470.84)" fill="#fff"/><path d="m31.73 5.9375-0.73 1.5176s-5.1302-0.84619-10.99 1.6758c-8.117 3.4941-3.801 11.678-3.801 11.678-1.127-12.207 13.325-12.209 22.242-10.705 2.931 0.508 4.451-0.5389 4.549-0.5688l2.75 1.5352s1.2805 0.75452 2.4023-0.22266c-2.806-1.1969-5.863-2.4798-5.863-2.4798l-4.539-0.6406-6.02-1.7891zm2.7402 4.5273c-1.865 0.01575-3.6774 0.18143-4.9023 0.36133-7.5024 1.1011-14.842 6.9377-8.7773 15.682 2.7429 3.9545 4.9976 5.5576 3.877 11.471 0 0 2.342-2.3461 0.8125-7.8496-1.347-4.8529-3.2352-6.4963-2.9551-10.191 0.55602-7.3029 7.1361-7.9509 14.002-6.0918 3.8281 0.96191 5.9077 0.6206 8.9375-0.49023 0.06836-0.0087 3.8384-1.4592 6.6973-0.76953-1.3654-1.2207-4.6929-1.0062-7.4688 0.01367-1.8646 0.68542-2.5718 0.22852-2.9551-0.35742-0.90752-1.4168-4.1593-1.8036-7.2676-1.7773zm7.707 10.342c1.8701 1.2958 0.10083 4.1257 0.08984 4.1465-0.60241 1.2042 0.002 2.5 0.002 2.5s-1.7289-0.50818-0.97266-2.4082c1.3037-3.2709-0.56543-3.2437-1.0586-3.0605 0 0-2.7975 2.9386 0.68945 6.373 0.17272 0.17029 0.39331 0.29358 0.60938 0.36133 0.24841-0.32105 0.81677-0.54382 1.5449-1.416-0.55725-2.0196 1.4648-4.2185 0.61524-5.6895-0.354-0.61401-0.86462-0.84754-1.5195-0.80664z" transform="matrix(.8 0 0 -.8 46.611 470.84)" fill="#f47920"/></g></g></svg>
