<svg xmlns="http://www.w3.org/2000/svg" width="182" height="248.24" viewBox="0 0 182 248.24">
 <path d="m180.07 140.17c-1.0997-1.9366-2.6705-4.3774-2.6705-4.3774l-2.7368-2.5379-1.4844-3.6554a8.4175 8.4175 0 0 0-3.1546-3.0966c-1.9449-0.9529-4.813-2.5284-4.813-2.5284a46.503 46.503 0 0 1-3.2316-4.684 11.063 11.063 0 0 0-3.363-3.7204l-2.0881-0.67828-4.0554-2.3201-0.57174-1.6525-4.3964-1.675 1.3743-1.3672-5.1883-2.0242-3.8897 0.16336s0.6913-1.3897-1.6821-2.1887a14.349 14.349 0 0 0-5.2865-0.52558s-0.78008-1.5862-3.9785-1.4216a51.576 51.576 0 0 0-8.891 1.8703l-2.1982-1.0938-9.2437 3.2825s0.12074-1.0938 2.7474-2.1887c2.6279-1.0938 5.0119-4.7929 6.3306-5.7008 1.3198-0.90792 1.7803-3.6104 1.7803-3.6104a7.5131 7.5131 0 0 0 3.7039-3.3713 19.856 19.856 0 0 1 3.2979-4.3005l-1.7803-0.83216 2.0656-2.1011c0.44627-1.1103 0.83571-2.2432 1.1648-3.3926 0.32434-1.0145 0.97302-1.894 1.8466-2.506l1.9236-3.2067s-0.70313-2.068-1.527-1.0938c-0.82505 0.97302-0.67117-0.73391-0.67117-0.73391l2.023-3.4245 1.7472-2.4077 1.9236-4.3774-2.4728 1.3672c0.39181-1.2074 0.57647-2.4728 0.54925-3.7418-0.14678-1.1766-0.0876-2.3686 0.17519-3.524a5.8535 5.8535 0 0 0-0.85702-3.1842l0.95645-2.6373-0.0769-1.598-1.0985-1.0298-1.3636-5.3173 0.52794-3.885-0.29711-3.5891-0.29712-2.912 0.33026-1.7401-0.71379-2.7581-0.91265-1.3128 0.11009-0.90792s-0.0994-1.5317-2.2976-1.8052c0.89017-1.2038-0.21899-2.9439-0.21899-2.9439l-3.2979-6.9165-0.87951 2.036v2.6255l0.63803 3.2837v1.8703a4.5787 4.5787 0 0 0-0.451 3.3937c0.56109 1.6631 2.3852 5.8109 2.3852 5.8109a8.5631 8.5631 0 0 0-0.80257 4.3774c0.17993 2.5734 0.52795 5.1315 1.044 7.6599l0.17638 4.5633 0.78007 3.8199s-1.6821-0.13139-1.2417 2.4941c0.26871 1.7081 0.38708 3.4364 0.35157 5.1658a14.232 14.232 0 0 0-2.5391 2.8563 22.285 22.285 0 0 0-0.98842 4.3774s-2.3414 0.42614-1.836 3.2825c0.50546 2.8563-0.46165 3.3926-0.46165 3.3926l-2.693 2.9984a23.499 23.499 0 0 1-0.54925 3.885 31.61 31.61 0 0 1-2.7474 5.1977 3.1949 3.1949 0 0 0-2.1982 1.675 6.7105 6.7105 0 0 0-0.47349 2.0135s-1.0985-1.2476-1.933 0.42614a31.882 31.882 0 0 0-1.6051 3.7643 3.3061 3.3061 0 0 0-2.4835 1.5329 5.1054 5.1054 0 0 1-3.1984 1.7519l2.1981-3.5571-0.4072-2.7368-0.50545-2.1887 1.9011-4.3774s-0.27462-1.6631-0.35156-2.5711c-0.0769-0.90792 1.8348-2.8883 1.8348-2.8883a44.295 44.295 0 0 1-0.84518-4.3786c-0.29593-2.1887-0.43916-4.0045-0.43916-4.0045s0.26279-5.0344-0.0888-6.1282c-0.35157-1.0949-0.64868 1.2583-0.64868 1.2583l-0.78008-2.2763-0.70313-2.7462-1.9117-2.8019 0.74575-2.5616-1.3293-1.8596-1.3518-3.9394s0.74812-2.5722-0.37287-3.8092a13.081 13.081 0 0 0-2.0336-1.849 23.291 23.291 0 0 0-0.64868-3.9501c-0.58239-2.3426-0.93396-3.3819-1.978-4.3774a10.997 10.997 0 0 0-2.4503-1.7294l-2.3308-5.4712v-1.4441s0-0.65697-1.8241-1.8821a23.833 23.833 0 0 1-2.8575-2.2443 4.5621 4.5621 0 0 0-1.0997-3.1191 3.6104 3.6104 0 0 0-2.8575-1.5649l-1.0109-2.1887s-0.24148-2.8125-1.7697-3.0635c-0.82387 1.3672-1.8904-1.8608-1.8904-1.8608l-2.4385-1.7732s0.6913-0.69958-0.78126-2.287a16.08 16.08 0 0 0-3.9892-2.8019s-2.2976-2.0348-3.0007-2.68a13.845 13.845 0 0 0-2.1994-1.5436s-2.7818-0.07694-2.3852 1.1719c0.39536 1.2465 0.37406 0.40365 1.495 0.93988 1.121 0.53623 3.4068 4.3774 3.4068 4.3774l3.4517 2.7462 0.23083 1.3684c0.0142 0.93396 0.29238 1.8431 0.80138 2.6267 0.76942 0.89726 1.2098 2.8232 1.9022 3.5133 0.53504 0.44982 1.2015 0.71852 1.9011 0.76587 0 0 1.2524 2.0455 2.1982 3.5559 0.94461 1.5104 1.5495 2.4846 2.8137 4.1371 1.263 1.6525 1.9224 2.429 1.9224 2.429l1.1873 1.4441s-0.48296 0.63566 0.3634 1.7294a18.703 18.703 0 0 1 1.6146 2.6918c0.2983 0.82624 0.86767 1.5282 1.6158 1.9922a1.8999 1.8999 0 0 1 1.0997 1.7282c0.39773 1.0393 0.89135 2.0396 1.4726 2.9889a52.717 52.717 0 0 1 2.3296 4.7598s-2.1425-1.1932-1.5826 0.47112a27.449 27.449 0 0 0 3.2979 5.0545l0.59305 1.7401a10.592 10.592 0 0 0 0.14205 3.93c0.4001 0.99906 1.0192 1.8975 1.8147 2.6255l0.71379 3.4482a2.2988 2.2988 0 0 0-0.71379 1.8821c0.17993 0.8582 0.51492 1.6773 0.98841 2.4184v2.9214a4.1087 4.1087 0 0 0-0.37287 2.5497c0.41904 0.96474 0.73864 1.9697 0.95527 2.9984a6.2998 6.2998 0 0 1-0.47231 3.7867s-1.4501 0.49243-1.5164 1.6631c-0.0083 1.0642 0.04735 2.1272 0.16572 3.1842 0 0-0.13258 1.6643-0.26515 2.6373-0.13139 0.97421 0.42851 1.237-0.39536 2.1899-0.82387 0.95172-0.82387 1.6631-0.33026 3.1073 0.28765 0.89963 0.21662 1.875-0.19768 2.7249 0 0-0.65934-1.0949-1.7034-2.7581s-4.2531-2.9001-4.2531-2.9001l1.2192-1.849 0.89135-2.1899v-2.68l0.19768-1.456-0.63803-1.1707-1.5152-4.7491s-1.9792-1.0949-2.7486-1.6418c-2.3296-1.6406-1.9236 1.0949-1.9236 1.0949l1.3731 1.3672c0.46876 0.90792 0.67709 1.9259 0.60488 2.9439-0.12074 1.6631-0.57174 1.2145 0.27462 3.009 0.84636 1.7957-1.9887 5.7683-1.9887 5.7683a3.0801 3.0801 0 0 0-3.2967-0.84281c-0.61435 0.0947-1.1731 0.40365-1.5767 0.87359-0.40247 0.46994-0.62382 1.0689-0.62146 1.6868l-1.7922-1.5211-2.835-1.9259a10.358 10.358 0 0 0-0.68183-3.1523 4.4271 4.4271 0 0 1-0.39536-2.1887l0.27462-3.8294-1.8679 0.16335s-1.5175 2.1899-1.9236 3.0102a3.8033 3.8033 0 0 0-0.08878 2.5166c0.21662 1.0796 0.50664 2.1437 0.86886 3.1842l-0.62738 0.89726c0.42022 1.1245 1.018 2.1733 1.7697 3.1085 0.85228 0.99315 1.7933 1.9058 2.8137 2.7249l0.55043 1.6406a29.043 29.043 0 0 0-1.7922 4.104c-0.81322 2.3639 0.29593 4.7823-0.82387 4.246a18.686 18.686 0 0 1-2.9676-2.1887l-1.4832-2.9652a2.7912 2.7912 0 0 0-0.92331-2.6918 12.352 12.352 0 0 0-2.4503-1.7188 1.875 1.875 0 0 0-1.1009-1.7176 7.4717 7.4717 0 0 0-2.5486-0.99551 2.616 2.616 0 0 0-0.44035-2.6279 4.5621 4.5621 0 0 0-1.8135-1.2358l-1.7472-3.5678a37.176 37.176 0 0 0-2.0443-3.8412 5.9317 5.9317 0 0 1-0.72562-3.5453l-1.2086-3.5559a6.3862 6.3862 0 0 0 0-4.1596 6.9224 6.9224 0 0 0-2.8031-3.4352s1.0997-2.1899 0.60488-3.6778a22.301 22.301 0 0 0-1.978-3.7205l-0.38471-4.4982 0.37406-2.3308a5.09 5.09 0 0 0 0-2.9214c-0.50664-1.456-1.0997-3.054-1.0997-3.054v-2.5604l0.34091-1.7401-1.3625-1.1482-0.13258-1.7732s0.75758-0.49243 0.33026-3.1191a9.7243 9.7243 0 0 0-2.2645-4.5408l-0.23083-3.3926 0.89016-2.1899s-1.0985-2.5166-0.33026-4.1786c0.76942-1.6643 0.23083-1.894 0.29712-3.0765 0.19058-1.2879 0.48888-2.5568 0.89016-3.7974 0 0 1.9236-4.7704-1.7697-1.7507l-1.1648 3.5026-0.91147 2.7131-0.42851 2.8895-0.52794 3.885-1.6489 4.0815 1.1648 2.9226 0.26397 4.1691-0.16572 3.1404 0.94698 1.8383-1.1873 2.867-1.2311-0.74338 1.9236 6.3684v2.7699l0.57056 2.5817 0.67117 2.8563 0.29593 2.6811-0.43916 3.2825 0.54925 3.7879 1.3187 5.2297-1.8679-0.58003 2.474 3.8305 1.1636 4.0483 1.0997 1.7626 0.93396 1.8383 0.93514 0.91976 0.29593 2.6811 1.0985 3.0303 2.7036 2.474 1.0334 1.192 0.19768 2.4077 0.9458 1.8383 1.2192 2.6598 1.2098 0.83217 0.57056 1.6525 1.5057 2.571 2.9794 1.456 2.1982 3.6542-3.0232 0.27344-2.7462-0.27226-4.3975-1.6418-0.5161 1.63-3.2979-1.7614-2.3189 0.73391a8.3275 8.3275 0 0 0-2.5273-2.8457 3.3701 3.3701 0 0 0-2.693-0.62501l-0.54925 1.095-5.496-5.2202-1.3613 1.598s-1.2429-2.8776-2.2657-3.1511c-1.0216-0.27463-5.1208-2.2657-5.1208-2.2657a5.5588 5.5588 0 0 0-1.5057-3.5026c-1.572-1.9034-3.7264-4.5633-3.7264-4.5633l-1.4063-3.2174a8.7904 8.7904 0 0 0-2.9013-2.1118c-1.3968-0.44863-1.0334-2.1118-1.0997-3.2825a51.447 51.447 0 0 0-2.1982-6.3803l-0.95645 1.6087-1.0985-1.4666 0.27462-1.018-1.308-2.0242-1.4915-1.4122-0.84636-2.4835-1.4181-2.287-1.9449-3.9619-1.4406-1.6525a1.4962 1.4962 0 0 0 0.27462-1.6631c-0.37287-1.1056-1.2417-3.666-3.2316-3.885-1.9887-0.21899-0.75758 3.0753-0.75758 3.0753l0.20834 2.1887 1.2204 2.8883 0.48414 2.3095 2.4503 6.2595-0.44982 2.3083a7.1095 7.1095 0 0 0 2.197 2.6598c0.68775 0.35985 1.2796 0.87714 1.7259 1.5104l1.0334 1.1932-0.35157 2.5817c0.30658 0.93278 0.71497 1.8277 1.2192 2.6705 0.57174 0.73391 1.2192 1.7519 1.2192 1.7519l1.5945 1.9259 1.308 1.0938 1.1873 3.634 1.6809 2.1875 2.7155 3.1404s1.3956 0.44982 1.4063 1.3684c0.01184 0.91975-1.9674 0.63448-1.9674 0.63448s2.3627 2.3201 4.0341 3.6009c1.6691 1.2796 3.9347 5.1433 3.9347 5.1433l1.0216 0.27344 1.4075 2.287 2.055 1.4666 5.9565 2.912 1.4726-0.19768c-0.01539 0.49717 0.13968 0.98486 0.43798 1.3826 0.30067 0.39774 0.72681 0.68183 1.211 0.80494 1.553 0.27817 3.1191 0.47467 4.6935 0.59186l2.6255 0.87596s1.0997 1.553 2.3521 1.4548c1.2536-0.0982 4.3964-0.58003 4.3964-0.58003h6.4407l-8.7927 4.3774-0.58239 2.0467-3.5275 2.5935s-2.2858 2.287-2.5604 3.2825a7.712 7.712 0 0 1-1.3743 2.3201l-2.1106 1.9484-2.0325 1.3128-1.9354 2.506-3.4719 3.4908c-1.9236 0.40483-0.18703 2.0692-1.0227 3.2836a40.116 40.116 0 0 1-4.8793 4.7385c-1.1979 1.0287-1.0002 1.5755-0.71497 2.4077l0.27462 0.82032-1.1861 1.9484 0.57056 1.6631 0.09943 1.2038-1.4619 2.9652a18.899 18.899 0 0 1-2.1106 2.8788 6.2063 6.2063 0 0 0 0 2.7569c0.17164 0.61081 0.56345 1.1364 1.0997 1.4773l-1.4726 2.036a2.6587 2.6587 0 0 0 0.20834 2.4077c0.4072 0.67236 0.75285 1.379 1.0334 2.1118 0 0-0.72562 3.2825-1.4619 3.885-0.73628 0.60134 0.19768 1.4773-0.15388 3.1404s-0.97776 6.1944-0.97776 6.1944a6.2666 6.2666 0 0 0 0 2.7687c0.37287 1.0938 2.2633 5.7008 2.8788 1.1814s-0.13139-5.8216-0.13139-5.8216l1.2749-2.5936 0.74693-2.6373s1.9236-0.42732 2.474-1.5317c0.54807-1.1056-0.96829-4.6189 0.13021-6.8396 1.1009-2.2219 2.287-4.1703 2.287-4.1703l1.1873-2.867-0.39655-2.9546a32.523 32.523 0 0 1 2.2976-3.2825 14.084 14.084 0 0 0 1.9011-3.3606s1.6714 0.36104 1.8466-0.94106c0.17638-1.3021 0.6037-6.3684 0.6037-6.3684s1.385 2.2538 2.1106 0.77653c0.72562-1.4773 1.7484-4.8698 2.957-4.9681a4.8829 4.8829 0 0 0 2.5651-1.0287 4.8497 4.8497 0 0 0 1.5897-2.2538c0.99907-2.506 1.1754-2.8682 2.197-2.6054 1.0227 0.26279 2.023-1.9366 3.6056-4.4863 2.055-3.2837 4.3964-3.009 4.3964-3.009l7.1438-4.6509s-2.0987 3.2825-3.2979 5.1977c-1.1979 1.9153-2.6918 2.0135-3.5713 5.1978 3.0777-0.99552-2.1319 4.2898-2.1319 5.2202s-1.9887 5.9198-1.9887 5.9198a2.3177 2.3177 0 0 0-0.45218 2.3094c0.28528 0.8369 0.47704 1.7034 0.57174 2.5829l-2.2751 6.0192a8.6163 8.6163 0 0 0-0.25213 1.9366c0.03196 0.69248 0.15744 1.3767 0.37406 2.0348l-0.60488 2.693a5.322 5.322 0 0 0-0.81322 3.0422c0.1894 1.0606 0.54096 2.0869 1.044 3.0422a29.809 29.809 0 0 0-0.06629 3.4245c0.12784 0.92331 0.37879 1.8253 0.74693 2.6811l-0.79073 4.903-0.43916 4.1584a2.661 2.661 0 0 0 0.78008 2.8457c1.4063 1.3672 1.4832 1.9366 1.4832 1.9366l0.16572 3.2837c1.3731 1.6406 2.4385 3.917 1.0109 5.1102l1.4288 4.1478 1.6809 2.1887-0.27462 4.684 1.6489-1.9153 1.0109 5.9861 1.2749 2.6586 2.1982 1.7401-0.26397 1.9366 1.3187 2.0254 1.2098 0.82033 0.85702 2.4846c0.34328 0.9162 0.75167 1.8087 1.2192 2.6693l0.9458 2.7687 0.75758 1.2808 1.5838 1.3128 0.47231 1.379c0.37642 1.1115 0.85228 2.1887 1.4181 3.2174 0.49125 0.6984 1.076 1.3282 1.7353 1.8715l4.0128 4.4863s4.5491-0.3054 2.1201-2.8776a33.638 33.638 0 0 0-4.8568-4.2022l0.39536-1.9804-0.47349-1.379-0.84518-1.6087-1.5945-1.9259 0.27581-1.018-1.6051-4.7172-0.9896-1.0938-2.0774-5.154-0.83453-0.64631-2.0123-7.6599s1.4962 0.73273 0.63921-1.7626a29.036 29.036 0 0 0-1.6927-4.0483s-2.0668-4.2247-1.9898-5.8003c0.07694-1.5755 1.0985-4.0708 0.31961-6.282-0.78126-2.21-1.7046-4.9681-1.7046-4.9681s2.1106 2.113 2.1982 0.54806c0.0876-1.5649-2.5166-7.8363-2.5166-7.8363l0.82387-2.1887s2.1982-1.6738 0.61554-3.5997a4.7231 4.7231 0 0 0-1.0985-1.095l0.16454-1.1707v-2.5604l0.5386-2.4953 1.0334-1.095 0.26279-1.9366 0.97894-0.55754-0.24148-2.693 0.48296-3.4577 1.0985-4.104 1.0997-2.7356 0.27462-3.4257s1.1873 0.0556 1.308-1.6087c0.2545-1.7969 0.62146-3.5772 1.0985-5.3291l1.7484-2.79c-0.30777 0.88543 1.2749 2.2538 1.7034 3.5015 0.3054 0.83334 0.71024 1.6276 1.2086 2.3639l0.42851 2.0467s2.023 2.3308 2.7818 2.5379c0.75758 0.20834 0.97776 1.7839 1.8123 2.1887a7.7025 7.7025 0 0 1 1.9129 1.7839l2.4397-0.0758a2.6196 2.6196 0 0 0 1.5507 1.7945 2.8765 2.8765 0 0 0 2.7024-0.22964s0.71497 2.0242 1.8904 2.0893a11.376 11.376 0 0 1 3.5169 1.4773l3.2091 0.19768 5.309-1.5649c1.9449-0.53623 3.5713-3.2837 3.5713-3.2837l0.27581-1.63 2.4728-1.6525 0.57056-2.4728 0.82506-1.9259 1.3518-2.4408 0.91147-3.2837c0.35157-1.7117 0.5966-3.4446 0.73746-5.1871 0-1.3897-0.94579-2.7249-0.82505-4.3774 0.12074-1.6525-0.69248-3.917 0.54925-3.6542 1.2429 0.26279 2.3959 0.14205 3.2979 1.4442 0.90082 1.3021 1.6264 0.58003 2.2633 1.7507 0.63803 1.1707 2.3746 0.82151 2.3746 0.82151l2.1106 3.447a8.1014 8.1014 0 0 0 2.0988 1.3672c0.75877 0.19769 1.3956 2.0692 1.3956 2.0692s1.3956 0 1.8798-0.64632c0.48297-0.64513 1.4619 0.20834 1.4619 0.20834a3.9465 3.9465 0 0 0 1.1979 2.1887 7.1734 7.1734 0 0 0 2.7143 1.16c0.31723 0.97421 0.72207 1.92 1.2086 2.8232a4.3916 4.3916 0 0 0 2.023 1.8596 1.7768 1.7768 0 0 0 1.5933-0.13021 10.597 10.597 0 0 0 1.3412 3.2825c0.78008 0.89726 2.1982 2.2656 2.1982 2.2656s0.4948 1.4548 1.263 1.6525l0.76942 0.20716 1.6927 2.9001a2.2077 2.2077 0 0 1 1.3187 1.16c0.28646 0.83216 2.2645 4.5526 2.8362 6.2158 0.36459 1.3743 0.5386 2.7924 0.51611 4.2129a16.867 16.867 0 0 1 1.759 3.7974 7.1071 7.1071 0 0 1-1.0227 3.1298s0.92331 1.9922 1.2749 3.0315c0.27936 0.9967 0.47349 2.0147 0.58239 3.0422 0 0-1.4501 1.1932-1.2299 2.506 0.20952 1.0772 0.49598 2.1378 0.85702 3.1736 0 0-0.5386 2.4953 0 3.2837 0.68656 0.75759 1.4654 1.4264 2.3189 1.991 0 0-1.0997 2.912-0.60489 4.3774 0.4948 1.4666 1.0997 3.8092 1.0997 3.8092l0.93396 3.3807-0.61554 2.287-0.4072 1.5329 0.86885 4.5633-0.82506 0.97421-0.52675 3.885 0.64868 3.2825-0.81322 3.7429s-0.26397 1.9366 1.2749 2.3414c1.5377 0.40483 1.9342-1.0938 2.1319-2.5711 0.19769-1.4773 0.86768-4.9255 0.86768-4.9255l1.0997-4.3005-0.64868-1.8596 0.5599-9.2153-0.57056-2.3521 0.68064-1.3897-0.98841-3.5902 1.9117 0.15388-1.7472-5.7671-0.85702-3.1736s2.1982-0.50427 1.8573-2.0254l-1.0997-3.808-0.5824-3.0422-0.57055-1.6525 0.33973-1.0393-0.14205-1.8052 0.40602-1.5223-0.29712-1.5211 0.47349-2.7024-1.6489-2.8563-1.0985-4.0057-0.91265-0.61199 0.40602-1.5329-0.6475-2.5604-1.3198-1.849 1.6489-0.8215c-1.0985-1.0938-1.6489-4.3774-2.8907-5.4712a64.327 64.327 0 0 1-3.4293-3.228 6.1672 6.1672 0 0 1-0.78008-1.5874c-0.35156-1.0287 0.0663-1.1707-1.0985-2.6148-1.1648-1.4453-1.8135-1.237-1.8135-1.237l-0.22018-1.3128a3.595 3.595 0 0 0-1.1979-2.835 17.23 17.23 0 0 0-2.5935-2.1224l-0.98959-2.9001-4.3964-3.1523a1.7815 1.7815 0 0 0 0.33144-1.733 1.804 1.804 0 0 0-1.3198-1.1778 53.475 53.475 0 0 0-5.0226-1.7614l-1.7484-1.0287s0.902-1.456-1.6809-2.1887a14.928 14.928 0 0 0-3.2979-0.73392l-1.3956-1.3778s0.19769 0.89726-2.0325-0.19769a25.168 25.168 0 0 0-4.3088-1.6193c-2.1982-0.27344-5.9127-1.2701-3.2316-1.5318a7.0882 7.0882 0 0 1 5.1551-2.0904c3.2967 0 4.5064-1.0949 4.5064-1.0949l2.7143-0.22965 1.9449 0.26279c0.89253 0.53031 1.8265 0.98723 2.7924 1.3684 1.0985 0.33854 3.0434 1.2903 3.8791 1.018a5.1989 5.1989 0 0 1 2.3189 0.11956 32.884 32.884 0 0 1 3.6932 1.2914c0.91502 0.4143 1.9318 0.54688 2.9238 0.38352l0.90081-0.0769 3.7039 1.9922 2.0443 3.2825 1.527-0.29593 2.3189 4.0708 2.7155 0.47112 1.8786 0.74457a7.1544 7.1544 0 0 0 1.759 2.4065 5.4333 5.4333 0 0 0 3.0777 1.5104l1.5495 2.474s0.63684 1.8703 1.6702 1.5092l1.0997-0.3492 3.2091 1.9141c0.13495 1.1305 0.65934 2.1781 1.4832 2.9664 1.3305 1.1707 1.8135 0.54689 1.8135 0.54689a28.102 28.102 0 0 0 1.4844 3.6553c0.42851 0.54688 2.5273 4.7598 3.769 4.3774 1.2417-0.38352 0.9458-4.6627-0.17519-6.5886z" fill="#99000f"/>
</svg>