<?xml version="1.0" encoding="UTF-8"?>
<!DOCTYPE svg PUBLIC "-//W3C//DTD SVG 1.1//EN" "http://www.w3.org/Graphics/SVG/1.1/DTD/svg11.dtd">
<svg xmlns="http://www.w3.org/2000/svg" version="1.1" width="2557px" height="2048px" style="shape-rendering:geometricPrecision; text-rendering:geometricPrecision; image-rendering:optimizeQuality; fill-rule:evenodd; clip-rule:evenodd" xmlns:xlink="http://www.w3.org/1999/xlink">
<g><path style="opacity:0.994" fill="#cfc593" d="M 673.5,12.5 C 707.892,68.9371 742.059,125.604 776,182.5C 796.407,216.05 810.741,252.05 819,290.5C 829.683,350.065 819.35,405.732 788,457.5C 770.351,486.157 750.018,512.824 727,537.5C 686.976,578.866 645.142,618.033 601.5,655C 636.985,664.581 672.985,671.581 709.5,676C 767.672,683.218 825.838,687.718 884,689.5C 916.263,691.208 948.263,692.542 980,693.5C 1054,693.5 1128,693.5 1202,693.5C 1221.67,692.833 1241.33,692.167 1261,691.5C 1262.43,691.694 1263.93,691.694 1265.5,691.5C 1265.83,692 1266.17,692.5 1266.5,693C 1130.75,897.155 994.754,1101.16 858.5,1305C 868.653,1327.31 877.986,1349.98 886.5,1373C 848.984,1441.83 810.651,1510.17 771.5,1578C 806.392,1579.25 841.225,1580.42 876,1581.5C 883.264,1581.67 890.931,1581.33 899,1580.5C 945.342,1496.49 991.175,1412.15 1036.5,1327.5C 1037,1327.17 1037.5,1326.83 1038,1326.5C 1039.78,1327.31 1041.62,1327.98 1043.5,1328.5C 1074.3,1308.93 1104.96,1289.1 1135.5,1269C 1137.71,1267.13 1139.54,1264.96 1141,1262.5C 1251.77,1078.07 1362.94,893.904 1474.5,710C 1513.47,710.316 1552.31,710.483 1591,710.5C 1665.99,708.94 1740.99,705.273 1816,699.5C 1864.16,694.857 1912,687.69 1959.5,678C 1985.95,672.517 2011.28,663.85 2035.5,652C 2036.52,650.951 2036.68,649.784 2036,648.5C 2019.66,618.814 2004.66,588.481 1991,557.5C 1960.43,475.034 1966.43,395.367 2009,318.5C 2038.16,270.317 2074.33,227.817 2117.5,191C 2147.08,165.552 2177.75,141.552 2209.5,119C 2257.83,85.0249 2306.83,52.3583 2356.5,21C 2334.26,106.784 2312.1,192.617 2290,278.5C 2282.32,313.464 2289.66,344.797 2312,372.5C 2327.8,391.965 2345.3,409.799 2364.5,426C 2394.12,449.287 2423.46,472.954 2452.5,497C 2520.16,556.638 2546.99,631.138 2533,720.5C 2517.84,836.52 2465,931.02 2374.5,1004C 2325.45,1042.38 2271.78,1073.38 2213.5,1097C 2118.68,1133.9 2020.68,1158.23 1919.5,1170C 1880.9,1174.45 1842.23,1178.12 1803.5,1181C 1778.4,1223.76 1752.9,1266.26 1727,1308.5C 1694.29,1361.21 1653.13,1406.38 1603.5,1444C 1580.74,1459.8 1556.91,1473.97 1532,1486.5C 1494,1553.17 1456,1619.83 1418,1686.5C 1418.74,1699.48 1419.57,1712.48 1420.5,1725.5C 1420.58,1757.32 1410.08,1784.98 1389,1808.5C 1374.09,1822.75 1358.59,1836.25 1342.5,1849C 1290.2,1886.16 1236.2,1920.83 1180.5,1953C 1134.67,1978.75 1089,2004.75 1043.5,2031C 1021.81,2031.29 1001.31,2031.46 982,2031.5C 789.151,2029.47 596.151,2027.14 403,2024.5C 399.025,2024.25 395.358,2024.58 392,2025.5C 368.565,2024.84 345.065,2024.17 321.5,2023.5C 282.245,1966.68 245.745,1908.01 212,1847.5C 191.042,1808.92 175.708,1768.26 166,1725.5C 161.48,1704.82 161.48,1684.15 166,1663.5C 170.698,1645.6 179.865,1630.43 193.5,1618C 214.628,1600.54 235.461,1582.71 256,1564.5C 298.333,1497.5 340.667,1430.5 383,1363.5C 383.325,1361.45 382.991,1359.45 382,1357.5C 367.487,1329.63 357.154,1300.29 351,1269.5C 348.564,1247.89 351.897,1227.22 361,1207.5C 370.769,1187.26 381.935,1167.93 394.5,1149.5C 394.291,1148.91 393.957,1148.41 393.5,1148C 325.369,1138.17 259.703,1119.84 196.5,1093C 150.448,1072.83 109.782,1044.99 74.5,1009.5C 19.0124,946.579 -0.820907,873.579 15,790.5C 29.3572,720.395 56.3572,655.728 96,596.5C 124.54,558.294 158.04,525.127 196.5,497C 230.66,472.744 266.327,450.744 303.5,431C 359.125,402.858 413.792,373.192 467.5,342C 500.033,321.779 529.533,297.613 556,269.5C 571.356,251.461 584.356,231.794 595,210.5C 621.272,144.511 647.439,78.5109 673.5,12.5 Z"/></g>
<g><path style="opacity:1" fill="#fefefe" d="M 683.5,134.5 C 702.477,165.106 720.977,196.106 739,227.5C 779.475,310.526 772.475,390.859 718,468.5C 694.134,501.712 666.634,531.879 635.5,559C 602.833,586.333 570.167,613.667 537.5,641C 529.635,648.53 522.135,656.364 515,664.5C 514.575,668.228 515.575,671.562 518,674.5C 525.719,681.948 534.552,687.781 544.5,692C 561.706,699.053 579.373,704.719 597.5,709C 655.606,721.729 714.106,730.229 773,734.5C 810.619,738.56 847.619,741.226 884,742.5C 889.667,743.167 895.333,743.833 901,744.5C 901.333,744.167 901.667,743.833 902,743.5C 925.658,745.008 949.324,746.342 973,747.5C 974,747.167 975,746.833 976,746.5C 1003.5,747.709 1031.83,748.709 1061,749.5C 1083.47,749.265 1109.81,748.598 1140,747.5C 1146.96,747.963 1155.12,748.296 1164.5,748.5C 1042.5,932.511 919.996,1116.18 797,1299.5C 807.335,1321.84 818.001,1344.17 829,1366.5C 830.318,1369.41 830.652,1372.41 830,1375.5C 828.274,1374.42 826.441,1374.26 824.5,1375C 827.406,1376.32 828.573,1378.48 828,1381.5C 777.959,1464.42 727.792,1547.25 677.5,1630C 681.421,1630.2 685.255,1630.7 689,1631.5C 706.274,1631.52 723.607,1631.52 741,1631.5C 767.29,1632.59 793.623,1633.59 820,1634.5C 838.391,1634.45 857.057,1634.45 876,1634.5C 888.333,1635.17 900.667,1635.83 913,1636.5C 918.117,1635.87 923.95,1635.54 930.5,1635.5C 976.509,1550.82 1022.01,1465.82 1067,1380.5C 1067.33,1378.5 1067.67,1376.5 1068,1374.5C 1105.5,1351.08 1142.84,1327.42 1180,1303.5C 1288.04,1123.92 1396.21,944.417 1504.5,765C 1533.08,764.633 1559.58,764.799 1584,765.5C 1611.17,764.617 1637.5,763.617 1663,762.5C 1753.62,760.676 1844.62,752.01 1936,736.5C 1975.36,729.785 2013.53,718.951 2050.5,704C 2066.44,697.114 2080.61,687.614 2093,675.5C 2095.62,671.752 2098.12,667.919 2100.5,664C 2098.4,657.041 2095.9,650.208 2093,643.5C 2077.49,614.479 2062.49,585.146 2048,555.5C 2012.33,470.908 2020.99,390.908 2074,315.5C 2100.67,279.16 2131.5,246.66 2166.5,218C 2200,194.5 2233.5,171 2267,147.5C 2255.86,193.057 2244.86,238.723 2234,284.5C 2225.66,331.052 2237.66,372.385 2270,408.5C 2280.56,419.732 2291.73,430.232 2303.5,440C 2338.04,466.197 2371.7,493.53 2404.5,522C 2472.48,586.93 2495.31,665.097 2473,756.5C 2456.05,826.703 2421.55,886.536 2369.5,936C 2311.34,988.939 2245.01,1028.94 2170.5,1056C 2062.75,1094.55 1951.92,1117.05 1838,1123.5C 1834,1124.17 1830,1124.83 1826,1125.5C 1825.67,1125.17 1825.33,1124.83 1825,1124.5C 1807.59,1126.09 1790.09,1127.26 1772.5,1128C 1732.54,1192.75 1692.71,1257.58 1653,1322.5C 1642.36,1338.15 1629.86,1352.32 1615.5,1365C 1578.74,1397.07 1538.24,1423.57 1494,1444.5C 1449.58,1521.67 1405.41,1599 1361.5,1676.5C 1364.41,1697.06 1365.91,1717.73 1366,1738.5C 1363.09,1752.66 1356.76,1764.99 1347,1775.5C 1331.62,1791.22 1314.79,1805.06 1296.5,1817C 1207.83,1871.34 1118.5,1924.67 1028.5,1977C 986.627,1977.46 942.461,1976.96 896,1975.5C 887.289,1976.38 878.956,1976.71 871,1976.5C 745.93,1974.7 621.263,1973.03 497,1971.5C 455.219,1971.55 413.552,1971.55 372,1971.5C 365.247,1970.69 358.414,1970.19 351.5,1970C 308.579,1904.35 269.079,1836.51 233,1766.5C 224.249,1746.92 217.916,1726.58 214,1705.5C 211.832,1688.01 216.499,1672.67 228,1659.5C 251.41,1638.09 275.41,1617.42 300,1597.5C 348.5,1520.33 397,1443.17 445.5,1366C 432.731,1339.96 420.898,1313.46 410,1286.5C 401.798,1263.55 403.131,1240.88 414,1218.5C 439.167,1180.83 464.333,1143.17 489.5,1105.5C 439.22,1101.15 388.553,1093.65 337.5,1083C 286.789,1072.32 238.456,1055.32 192.5,1032C 73.9714,965.795 37.4714,868.295 83,739.5C 110.651,660.894 157.151,596.061 222.5,545C 256.306,519.586 291.972,496.919 329.5,477C 377.721,452.555 425.721,427.555 473.5,402C 516.202,378.886 554.702,350.053 589,315.5C 615.26,286.532 635.927,253.865 651,217.5C 661.743,189.765 672.577,162.098 683.5,134.5 Z"/></g>
<g><path style="opacity:1" fill="#006745" d="M 691.5,232.5 C 729.801,294.819 731.301,358.152 696,422.5C 682.644,445.194 666.977,466.194 649,485.5C 632.773,502.395 615.94,518.562 598.5,534C 562.412,563.416 526.912,593.583 492,624.5C 483.781,632.72 477.115,642.053 472,652.5C 467.525,666.795 469.525,680.128 478,692.5C 490.564,707.393 505.731,718.893 523.5,727C 550.927,738.92 579.261,748.253 608.5,755C 692.903,772.379 778.237,783.046 864.5,787C 937.45,790.706 1010.45,792.706 1083.5,793C 971.457,960.919 859.291,1128.75 747,1296.5C 757.719,1323.62 769.885,1350.29 783.5,1376.5C 722.959,1475.08 662.292,1573.58 601.5,1672C 719.474,1675.61 837.474,1677.94 955.5,1679C 1004,1587.83 1052.5,1496.67 1101,1405.5C 1138.85,1381.91 1176.18,1357.58 1213,1332.5C 1317.79,1157.75 1422.96,983.251 1528.5,809C 1628.44,809.887 1728.11,805.22 1827.5,795C 1880.03,788.979 1932.03,779.979 1983.5,768C 2018.63,759.071 2052.29,746.404 2084.5,730C 2101.38,720.798 2116.21,708.964 2129,694.5C 2133.17,688.834 2136.84,682.834 2140,676.5C 2142.92,666.968 2143.26,657.301 2141,647.5C 2138.95,641.068 2136.62,634.734 2134,628.5C 2121,603.833 2108,579.167 2095,554.5C 2081.07,526.788 2072.74,497.455 2070,466.5C 2068.78,429.064 2077.44,394.064 2096,361.5C 2122.57,318.755 2155.74,281.755 2195.5,250.5C 2195.83,251 2196.17,251.5 2196.5,252C 2184.48,295.396 2185.98,338.23 2201,380.5C 2215.08,410.596 2234.58,436.763 2259.5,459C 2288.92,483.76 2318.92,507.76 2349.5,531C 2359.97,539.797 2370.13,548.963 2380,558.5C 2402.75,580.929 2419.41,607.262 2430,637.5C 2438.37,667.493 2439.71,697.826 2434,728.5C 2426.26,775.418 2408.59,818.085 2381,856.5C 2347.32,901.185 2306.49,937.685 2258.5,966C 2199.12,1000.25 2136.12,1025.91 2069.5,1043C 2002.79,1060.17 1935.12,1071.84 1866.5,1078C 1827.24,1081.62 1787.91,1083.96 1748.5,1085C 1704.29,1155.92 1660.46,1227.08 1617,1298.5C 1606.28,1313.56 1593.78,1327.06 1579.5,1339C 1543.68,1368.19 1504.84,1392.35 1463,1411.5C 1415,1495.5 1367,1579.5 1319,1663.5C 1318.94,1686.09 1320.44,1708.59 1323.5,1731C 1321.84,1736.83 1319,1741.99 1315,1746.5C 1291.54,1767.97 1266.37,1787.14 1239.5,1804C 1166.48,1848.51 1092.48,1891.51 1017.5,1933C 803.828,1931.87 590.161,1929.87 376.5,1927C 341.548,1875 309.381,1821.16 280,1765.5C 272.534,1749.24 266.201,1732.57 261,1715.5C 259.586,1708.21 259.253,1700.88 260,1693.5C 262.91,1685.92 267.41,1679.42 273.5,1674C 278.833,1669.33 284.167,1664.67 289.5,1660C 304.936,1648.86 320.103,1637.36 335,1625.5C 387.166,1540.5 439.832,1455.83 493,1371.5C 493.584,1368.74 493.25,1366.08 492,1363.5C 479.471,1339.11 467.471,1314.44 456,1289.5C 453.512,1281.88 451.178,1274.21 449,1266.5C 448.188,1258.78 448.522,1251.11 450,1243.5C 489.108,1184.06 528.608,1124.89 568.5,1066C 496.19,1063.8 424.523,1056.14 353.5,1043C 311.072,1034.41 270.072,1021.41 230.5,1004C 117.721,949.732 83.2209,863.565 127,745.5C 151.581,679.471 191.414,624.638 246.5,581C 278.137,557.172 311.471,535.838 346.5,517C 395.513,492.162 444.179,466.828 492.5,441C 540.234,414.7 583.401,382.2 622,343.5C 651.734,310.716 674.901,273.716 691.5,232.5 Z"/></g>
</svg>
