<svg xmlns="http://www.w3.org/2000/svg" width="248" height="143.42" viewBox="0 0 248 143.42">
 <g transform="matrix(1.3333 0 0 -1.3333 -204.9 317.7)">
  <g>
   <path d="m337.26 188.03c-4.3986 4.2551-8.2835 7.0311-10.23 8.5289-2.1821 1.6756-19.527 13.097-19.527 13.097-5.7055 11.087-7.8661 13.709-21.453 19.928-49.182 22.514-56.953-10.555-78.714-4.2637 0.83209-2.4891 7.0182-7.2147 7.0182-7.2147-10.332-10.149-27.295-8.0726-27.295-8.0726s2.7459-5.0097 7.1545-7.7829c-8.3624 0.50786-18.93 4.1231-18.93 4.1231s6.5821-11.222 13.384-14.96c-9.9821-11.79-21.303-13.663-34.062-13.11 14.745-10.708 34.86-11.826 34.86-11.826-0.40886-18.456 21.438-30.265 21.438-30.265s-3.8807 10.599-3.1992 16.098c8.7928-18.028 27.031-20.838 27.031-20.838-1.9999 4.0213-2.5579 5.2192-3.6812 8.79 3.8634-3.281 11.457-6.42 11.457-6.42-1.4318 4.2895-4.5148 10.212-5.3024 20.702 2.5493-13.114 22.174-19.574 22.174-19.574-3.8606 6.2248-4.5679 7.1774-5.9666 10.098l2.8664-2.0486s-3.6224 12.346-2.3858 18.858c6.4013 5.5491 8.0913 9.2146 13.107 11.143 12.709 4.8906 19.336-3.489 22.516-6.3468 6.3841-5.7371 12.447-6.222 19.065-6.364 1.6613-1.0473 3.1992-2.0486 4.7242-1.2682 0.72162 0.3687 1.241 1.0329 1.426 1.8205 1.9411 8.3294-1.6455 12.642-5.6481 13.9-5.3426 1.6814-8.2276 4.5922-11.022 8.7785 6.6768-3.2552 18.881-9.9908 26.404-9.622 4.938 0.23815 11.461 4.0069 13.398 6.6266 1.8664 2.5249 1.5924 5.3583-0.60541 7.4844" fill="#fff"/>
   <path d="m231.07 206.13c-12.395-8.8029-18.752-29.519-9.1888-53.01-6.6983 32.971 9.1888 53.01 9.1888 53.01m-1.9812 3.8003s7.0325 7.4486 16.349 8.196c-14.368-11.996-12.587-34.864-12.587-34.864 0.27402 9.4155 7.1574 30.071 23.722 39.173 0 0-2.6526 0.86795-6.5247 0.22811 2.8994 2.1577 9.9161 3.4933 13.765 2.535-14.999 7.4371-27.37-2.8406-27.37-2.8406s5.4286 2.4991 10.724 1.5465c0 0-11.348-0.93824-18.078-13.973m-1.8607-62.23c0.41747-6.8432 3.3039-12.635 3.3039-12.635-13.052 4.3756-20.029 15.676-23.548 24.165-1.8794-4.7916-2.5436-10.397-0.56667-16.662-25.618 19.396-9.4269 43.95-9.4269 43.95-5.4559-4.5105-8.0325-10.324-9.2261-16.795-6.6065 0.4017-14.239 2.238-22.911 6.3411 0 0 15.543 0.18363 27.294 15.957-4.0413 2.304-7.813 5.6022-11.064 10.212 24.918-7.2248 36.873 4.126 36.873 4.126s2.9338 7.8116 12.62 13.118c-11.362-2.9998-12.531-14.313-31.738-17.19-2.8793 1.416-5.2909 3.1332-6.8876 5.2264 13.6-0.44474 19.301 6.0455 26.731 10.626-1.7746 0.88517-3.4933 2.1405-5.0987 3.8835 12.487-1.8277 18.094 13.368 37.894 8.9822-1.2912 1.1204-3.0457 1.9066-5.0068 2.4489 15.67 3.6267 34.21-4.2379 41.137-7.265 12.477-5.4502 13.407-12.844 17.982-18.336-8.186 2.7401-3.304 10.83-25.142 17.101 1.4088-1.0372 2.3341-2.2595 2.941-3.3915-3.9567-0.6958-8.0827-3.2882-9.6866-6.9594-5.4401 1.2338-10.279-0.44474-11.595-1.7804 3.3456 0.30558 6.3382-0.84069 8.3911-1.9583-24.077 0.53368-25.13-15.96-5.4487-24.04-7.6996 1.0631-16.688 0.83065-23.605-2.5723-0.66423-3.1834-0.27831-6.5003 1.0688-8.7684-1.8923 0.78043-3.3298 1.8248-4.4287 2.9783-3.5407-10.717-5.4114-24.849 0.17359-39.947-4.7156 2.2782-8.351 5.4329-11.029 9.1845m63.342 33.239c0.35292-0.53655 1.2854-1.4203 2.4116-2.0013 0.17933-0.0918 0.39022 0.0516 0.37157 0.2525l-0.20945 2.2022c-0.0144 0.14777-0.14777 0.24819-0.29123 0.22954l-2.1032-0.29266c-0.18363-0.0273-0.28262-0.23385-0.17933-0.39022m14.209-12.289c0.033-1.2309 0.94111-1.7789 1.6082-2.02 0.22524-0.0818 0.46339-0.0947 0.68576-0.0473-0.01-0.31275 0.0559-0.63267 0.32566-0.812 0.55663-0.36726 1.4748-0.21519 2.3384 0.53799 0.0617 0.0545 0.0215 0.16211-0.0602 0.16641-0.78474 0.0373-1.2926 0.0717-1.8966 0.50786 1.0214 1.0301 1.0674 2.5838 1.0301 3.2566-6e-3 0.13485-0.16211 0.20371-0.2654 0.11907-0.45765-0.3644-1.6039-1.1233-3.6267-1.5408-0.0803-0.0144-0.14203-0.0875-0.13916-0.16785m-15.269 13.546-0.13055 3.4345c-4e-3 0.11477-0.11477 0.19081-0.22237 0.15494l-2.7086-0.92103c-0.0789-0.0273-0.12912-0.10329-0.11621-0.18363 0.0947-0.61546 1.2481-1.9439 2.9482-2.6498 0.11047-0.0488 0.23672 0.0402 0.22954 0.16498m-3.3341 3.2666 1.3256 2.4446c0.0516 0.0947 0.0359 0.21519-0.0373 0.29266l-0.93824 1.01-0.44617 1.7201c-0.0359 0.14777-0.19798 0.22667-0.34001 0.17215l-4.0184-1.5953c-0.20659-0.0818-0.3271-0.31419-0.24532-0.52077 0.25967-0.67858 1.185-0.79909 1.8736-1.393 0.82491-0.71014 0.71301-1.9597 2.3571-2.3399 0.18506-0.043 0.37874 0.043 0.46912 0.20945m-5.0112 4.3455 0.82348 2.139c0.0387 0.10329-0.0402 0.21376-0.1492 0.20946l-2.3011-0.1076c-0.0746-3e-3 -0.13342-0.0531-0.14634-0.12195-0.0645-0.36439-0.1162-1.4863 1.568-2.205 0.0789-0.0344 0.17359 6e-3 0.20515 0.0861m50.737-11.328s-3.4589-2.1663-7.5504-2.3671c-9.7956-0.47629-24.832 12.311-33.84 11.83 6.2952-2.9984 7.0082-12.018 17.857-15.429 5.9064-1.8578 4.4273-9.5274 4.0586-11.11-0.0531-0.22954-0.30127-0.36296-0.5179-0.26971-1.2022 0.50356-2.327 1.2983-3.3269 2.1749-0.23528-0.5179-0.75892-0.90238-1.4174-0.8823-7.2176 0.20802-13.207 2.073-20.512 9.5259-3.073 3.1347-11.755 6.6395-20.502 3.2753-5.8576-2.2509-7.4787-6.2363-14.465-12.117-1.1377-6.7126 0.77613-14.46 0.77613-14.46s-1.8837 1.3486-4.1289 3.7071c1.3199-6.2292 4.9609-12.072 4.9609-12.072-10.285 4.6109-13.808 11.781-14.467 18.5 10.342 6.2708 13.101 11.905 20.243 16.345-3.1619 1.5666-9.5819 0.15064-9.5819 0.15064 12.876 9.8659 29.882 6.9163 40.023-1.0114 4.4072-3.4431 6.7571-8.3008 14.815-9.2462-6.1689 1.9525-5.6108 7.9263-17.502 13.798-9.0453 4.466-12.481 8.5647-11.573 11.874-1.1377 0.076-2.0357 0.0273-2.0357 0.0273s2.4762 3.9409 9.1773 4.1217c2.3557 0.0631 5.1403-0.19081 7.6753-1.0444 12.252-4.1289 30.622-17.399 37.434-11.565-1.8923 3.9352 0.14777 7.6121 0.14777 7.6121-0.23241 0.90812-2.0673 3.3814-4.2379 6.5892 4.2867-2.753 6.8174-4.6625 12.318-9.9821 2.9639-2.8692-0.99419-6.7399-3.8262-7.9751m-47.462 34.375c2.2653 1.7962 7.3008 2.2524 7.3008 2.2524s-0.23384 1.0946-1.2625 2.6397c3.9022-1.1118 7.5978-5.3469 9.6522-9.7856-0.8536 0-3.8319 2.073-7.6968 1.5594-1.0831 1.3227-5.6983 3.7257-7.9937 3.3341" fill="#72253d"/>
  </g>
 </g>
</svg>