<?xml version="1.0" encoding="UTF-8" standalone="no"?>
<svg xmlns:rdf="http://www.w3.org/1999/02/22-rdf-syntax-ns#" xmlns="http://www.w3.org/2000/svg" xml:space="preserve" height="194.68" width="252" version="1.1" xmlns:cc="http://creativecommons.org/ns#" xmlns:dc="http://purl.org/dc/elements/1.1/" viewBox="0 0 251.99999 194.68399"><g><g><path fill="#f58025" d="m148.38 0.92293 0.0693 0.88349c0.12369 1.6433 0.15182 3.2799 0.15182 4.9144 0 2.9597-0.12425 5.8967-0.12425 8.8207 0 1.7581 0.0565 3.519 0.20709 5.2595-5.2479-3.3131-12.537-4.0309-20.541-4.0309-6.5378 0-13.572 0.48316-20.375 0.48316-0.65378 0-1.2877-0.005-1.9326-0.01378-13.551-0.202-25.792-1.797-36.589-5.879l-1.1734-0.44174 0.55218 1.1181c3.0039 6.3169 9.2498 12.27 15.337 15.751-20.532 4.4704-35.842 16.817-53.423 22.515l-1.4909 0.48316 1.5047 0.46935c3.7813 1.1662 7.892 1.767 12.327 1.767 2.2529 0 4.5831-0.1513 7.0127-0.46935-9.1798 10.646-17.54 21.598-33.186 28.409l-1.5185 0.66262 1.6289 0.28985c6.4141 1.1309 13.576 0.86144 20.458 0.99389-6.5378 2.8537-13.696 3.9757-20.375 3.9757-5.4246 0-10.552-0.74156-14.757-1.8636l-1.0775-0.29 0.5107 1.008c5.5748 11.061 16.215 13.084 24.821 18.113-6.256-1.13-13.214-0.86-19.575-1.55l-1.2838-0.13804 0.85585 0.96632c7.3421 8.3133 15.785 14.819 22.888 23.15 7.1209 8.3401 13.462 17.857 22.253 24.448 16.142 12.068 44.478 13.746 62.59 16.537 0.053 0.008 0.10765 0.005 0.15182 0.0141h0.0141c16.875 2.5974 34.081 3.9514 47.846 12.645 1.3164 0.83931 3.0679 1.9144 4.9144 3.5754 0.87465 0.7863 1.7758 1.7018 2.6505 2.7885 0.30922 0.3799 0.61569 0.77691 0.92491 1.201 1.5814 2.2176 2.5555 4.1805 3.1474 6.1154-0.0268-0.66261-0.0671-1.64-0.13803-2.7885l0.0551 0.0693-0.11047-1.5875c-0.11486-1.7228-0.3346-3.3556-0.63498-4.9282-0.0191-0.0823-0.0361-0.16871-0.0551-0.2485-0.008-0.0269-0.005-0.0615-0.0141-0.0966h-0.0141c-4.5146-22.131-26.67-30.37-37.148-46.052-2.6946-3.9934-4.6886-11.393-4.6797-16.359 0-0.21203 0.005-0.43177 0.0141-0.63498 0.2032-6.8382 5.661-21.212 15.185-21.079 1.1662 0 2.4108 0.21204 3.7272 0.66261 2.8713 0.96301 7.0304 6.1447 10.988 8.2829 7.2715 3.8608 15.785 4.1954 22.791 7.7026 6.8912 3.4368 12.694 9.0307 17.96 15.047 0.72446 0.79513 3.0839 5.2921 3.4373 7.0679 0.48592 2.3059 0.85698 3.9348 1.5461 5.6046 1.2546 3.101 4.3915 4.4953 8.5175 4.4864 0.91883 0 1.883-0.0693 2.899-0.19324 3.6665-0.48592 6.6985-3.1403 9.8703-3.741 0.34456-0.0707 0.73167-0.0966 1.1734-0.0966 1.1839 0 2.6676 0.19826 4.2932 0.20709 1.5019 0 3.1369-0.1844 4.7626-0.85585 3.6311-1.6079 3.8222-6.2032 5.8807-10.851 0.57426-1.3517 2.3164-3.9072 3.9067-6.4605 1.5814-2.5886 3.0519-5.1038 3.0784-6.8884v-0.11047c-0.28271-5.3451-4.1877-10.856-6.6262-14.743-6.97-11.051-16.5-21.66-24.32-32.103-3.77-5.001-5.07-11.984-7.51-19.961-1.64-5.081-8.94-6.938-12.71-10.216-4.04-3.437-6.1-7.226-10.27-11.113l-0.0966-0.09663-0.15182-0.02764c-5.4-1.025-11.01-1.64-16.77-2.002-2.23-8.968-19.5-26.117-23.43-28.202l-0.78687-0.38653z"/><path fill="#fff" d="m152.98 10.766c2.5444 5.4953 2.4926 10.837 4.8868 15.917 1.9172 4.0464 7.3124 5.6184 9.3183 7.827-0.60077-4.4351-5.8587-5.2253-7.5372-8.8207-1.2987-2.783-1.3341-3.3871-2.4296-6.9299-0.78631-2.5444-1.7228-4.354-1.9878-7.1372 4.7355 6.8029 13.943 14.95 13.943 21.576 5.4246 0.2032 11.396 0.71174 16.634 1.5599 4.0464 2.4826 6.4599 8.1422 12.521 12.728 2.8713 2.1734 7.6835 3.0154 9.3183 6.5847 1.3429 2.942 2.6819 8.0305 3.5477 11.706 1.4843 6.2374 5.0353 8.9324 8.49 13.818 2.3412 3.3042 18.112 21.549 21.77 29.183 4.1877 8.7112 7.8404 7.6609 3.5202 14.605-0.76863 1.228-2.9155 3.9127-4.1966 6.1568-2.4384 4.2849-2.0094 9.5311-3.9619 10.229-13.826 4.9829 0.54557-16.754-20.817-10.34 5.3716 1.5549 4.8509 7.7076 8.0758 12.01-6.5113 3.9669-10.135 3.1474-14.163 0.49694-0.14136-41.153-40.523-29.531-50.082-39.108-10.593-10.62-7.4008-26.438 1.9464-31.254-44.343 1.4489-46.947 46.011-37.521 62.258 13.951 24.049 35.171 26.768 41.841 44.34-6.5643-7.5626-22.079-11.579-39.218-14.37-10.637-10.063-21.785-27.345-18.746-53.92-0.009 0-0.43291-0.30865-0.44175-0.31749-4.7973 25.975 0.17338 42.381 8.7522 52.692-19.631-2.6858-39.445-4.4368-49.075-8.5451-3.2159-1.3694-11.492-3.862-14.84-14.605-6.744-21.67-7.221-106.15 101.39-106.15 2.8006 2.4296 5.9812 3.8244 10.602 3.0646-5.672-1.7935-14.513-3.2496-11.527-25.249z"/><path d="m150.44 38.416c-106.5 8.428-85.931 91.974-81.096 105.02 0.031-0.05 0.595 0.66 0.572 0.67-1.272-15.77-15.406-90.683 80.234-104.92 0-0.013 0.28-0.761 0.29-0.774zm-81.096 105.02c-0.006 0.01 0 0.03 0.033 0.1-0.01-0.03-0.023-0.07-0.033-0.1zm117.39-98.592c0.27 7.792 10.56 9.453 12.02 16.759-3.02-0.804-3.23-4.194-5.09-4.707-3.45 4.851 3.22 7.351 6.22 7.731 1.32 3.578 5.31 8.423 8.26 7.398-4.14-4.258-2.85-9.862-5.76-14.341-3.53-5.452-12.49-7.608-15.65-12.838v-0.002zm-16.79 26.974s-0.05 0.722-0.05 0.731c20.13 2.279 36.11 24.044 38.17 30.787 0-0.01 0.58-0.33 0.54-0.24-1.5-8.038-12.2-29.89-38.66-31.278zm69.11 40.568c-2.36 0-4.28 2.91-4.28 6.52 0 3.59 1.92 6.53 4.28 6.51 2.58-0.01 3.74-3.39 3.74-3.39s-3.55-0.42-4.35-4.67c-0.88-4.7 2.57-4.24 2.26-4.46-0.49-0.34-1.06-0.51-1.65-0.51z" transform="translate(-.0025940)" fill="#f58025"/></g><path stroke-linejoin="round" d="m47.89 141.15c-11.105-13.02-19.224-27.63-32.044-34.04 8.1192 1.2811 13.031 1.2811 23.934 0.85698-9.506-10.459-18.165-10.892-29.058-17.73 10.045 4.479 29.146 0.335 34.818-11.318-6.405 0.424-10.858 0.124-16.874-0.221 16.026-7.05 18.8-21.574 34.818-31.611-7.9426 2.5709-12.395 2.6505-18.58 2.138 15.081-5.1684 26.637-16.592 43.786-18.377 3.8343-0.39757 9.63 0.68912 13.464-1.2811-9.1618-0.75096-19.931-6.0519-24.57-12.386 20.506 11.432 58.664-6.2816 73.63 12.51-114.89 0-109.33 91.37-103.32 111.45" stroke="#0064b1" stroke-width="1.4136" fill="#0064b1"/></g></svg>
