<svg xmlns="http://www.w3.org/2000/svg" height="216.15" width="248" viewBox="0 0 248 216.15">
 <g transform="matrix(2.2307 0 0 2.2307 .74949 .99932)">
  <path d="m20.871 0c-5.2923 0-8.5233 3.2646-12.139 8.1191-2.1235 2.8769-5.2297 4.8808-8.7324 5.6309v68.504c3.5028 0.7478 6.6095 2.7502 8.7324 5.627 3.6154 4.8546 6.8563 8.1191 12.139 8.1191h68.535c5.2923 0 8.5258-3.2645 12.141-8.1191 2.123-2.8768 5.2294-4.8792 8.7324-5.627v-25.883h-28.91v14.221h-52.592v-45.322h52.592v13.115h28.91v-24.635c-3.503-0.7501-6.6084-2.7539-8.7324-5.6309-3.6148-4.8546-6.8582-8.1191-12.141-8.1191zm35.344 28.098-5.6465 14.338h-17.865l14.373 8.8574-5.6504 14.336 14.531-8.8574 14.375 8.8574-5.3926-14.336 14.531-8.8574h-17.865z" fill="#002856"/>
  <path d="m86.453 33.438h18.854v-16.107c-0.992-0.4188-4.085-1.9194-7.313-5.7219-0.5888-0.6959-1.1147-1.3357-1.6009-1.926-2.6528-3.2518-3.8701-4.7358-6.9859-4.7358h-68.536c-3.1159 0-4.3331 1.4841-6.9793 4.7358-0.4862 0.59035-1.0121 1.2302-1.6009 1.926-3.2448 3.8025-6.3375 5.3031-7.3298 5.7219v61.342c0.99231 0.4188 4.085 1.9194 7.3134 5.7252 0.5887 0.6926 1.1147 1.3192 1.6009 1.926 2.6462 3.2485 3.8799 4.7326 6.9958 4.7326h68.536c3.1158 0 4.3331-1.4841 6.9958-4.7326 0.4862-0.5903 1.0121-1.2334 1.6009-1.926 3.2281-3.8058 6.3041-5.3064 7.3131-5.7252v-17.354h-18.854v14.359h-62.648v-55.356h62.638z" fill="#7BADD3"/>
 </g>
</svg>