<?xml version="1.0" encoding="UTF-8" standalone="no"?>
<svg xmlns:rdf="http://www.w3.org/1999/02/22-rdf-syntax-ns#" xmlns="http://www.w3.org/2000/svg" xml:space="preserve" height="96.543" width="117.39" version="1.1" xmlns:cc="http://creativecommons.org/ns#" xmlns:dc="http://purl.org/dc/elements/1.1/" viewBox="0 0 117.3924 96.542969"><g><path fill="#c1a875" d="m55.741 0.9443s2.4891 4.2731 3.3066 5.4844c-0.06625 0.9-0.12062 1.7528-0.17188 2.5703-1.0662 0.0575-2.1491 0.14125-3.2441 0.25-2.4488-1.075-5.5441-2.2819-8.9141-3.2344-7.8888-2.23-15.565-3.5084-25.459 0.43164l-5.1562 2.0547s6.7517 1.7596 8.2305 2.2559c0.54625 1.8688 1.3747 4.6266 2.3359 7.5078-14.656 8.4038-26.232 23.043-25.59 45.816l0.2168 7.6426 4.4102-6.2441c1.4975-2.12 2.9562-3.9094 4.3438-5.4219-4.4938 9.455-3.0569 17.557-3.0156 17.779l1.1328 6.2266 3.498-5.2754c1.8225-2.7488 4.6484-5.1347 7.4297-7.0234-4.75 10.806-0.95992 18.972-0.79492 19.318l2.1152 4.4043 2.4023-4.2539c8.2238-14.569 31.135-17.288 42.562-14.582-0.185 0.275-0.29297 0.60383-0.29297 0.95508 0 0.545 0.25906 1.0312 0.66406 1.3574-0.0037 0.0012-0.0066 0.0039-0.0078 0.0039l-6.2109 3.4453 6.9844 1.2871c2.12 0.39125 4.3269 0.36914 6.2969 0.18164l-2.041 2.4199 5.543-0.04687c20.082-0.16625 29.987-12.824 24.672-20.281 0.87874-1.4975 1.3735-3.1324 1.666-4.4199 0.13625-0.60125 0.2368-1.1666 0.31055-1.6641 7.5538-2.0675 9.5745-6.068 9.957-8.6855 5.3625-3.805 4.1672-10.491-0.63281-13.596 0.10625-0.3575 0.18164-0.625 0.18164-0.625s-1.0834-1.1762-1.9746-1.6875c-0.68375-0.3925-1.6809-0.86109-3.0859-1.3086l-5.2891-4.4961 4.2109-4.9492-6.5664 0.27539c-2.218-7.567-10.495-11.824-17.184-11.031-0.951-0.763-2.076-1.424-3.32-1.99-2.399-4.2529-8.025-10.394-20.246-10.754l-3.277-0.098z"/><path fill="#592c88" d="m58.965 2.8623s1.0741 1.848 1.9453 3.0605c-0.13875 1.7675-0.22492 3.3406-0.32617 4.8281-1.705 0.05125-3.46 0.16867-5.25 0.35742-2.4475-1.0925-5.6263-2.3568-9.1113-3.3418-7.715-2.18-14.932-3.3545-24.291 0.37305 0 0 2.0555 0.53523 3.8867 1.209 0.59 2.0375 1.7275 5.9095 3.0625 9.7695-14.801 8.0075-26.621 22.255-25.982 44.91l0.060547 2.1836 1.2598-1.7832c4.755-6.73 9.181-10.321 12.385-12.229 0.737-0.438 1.413-0.787 2.011-1.067-12.326 12.346-9.8068 26.292-9.7905 26.378l0.3242 1.778 0.9961-1.506c3.4802-5.251 10.153-9.132 13.883-11.002-9.129 12.892-4.144 23.397-4.086 23.516l0.60352 1.2559 0.68555-1.2129c10.404-18.429 42.293-19.013 50.32-13.068-1.84 1.5725-4.9045 3.2778-4.9258 3.2891l-1.7715 0.98242 1.9941 0.36914c2.8888 0.5325 6.0439 0.22047 8.4414-0.20703 0.77-0.1375 1.4688-0.28719 2.0625-0.42969-0.7775 0.97375-1.6058 1.9561-1.6133 1.9648l-1.0215 1.209 1.582-0.01367c21.815-0.18 27.223-13.634 22.398-18.338 1.1825-1.46 1.8266-3.3816 2.1816-4.9453 0.25625-1.1362 0.37258-2.1359 0.42383-2.7246 9.03-2.05 9.883-6.6242 9.873-8.2617 5.2888-3.0912 4.1149-9.4167-1.0801-11.668 0.22375-0.6225 0.3418-1.0332 0.3418-1.0332s-0.96133-0.95641-3.9238-1.8477l-6.9629-5.918 2.6914-3.1621-3.918 0.16406c-1.315-7.7362-9.8626-12.225-16.299-10.986-1.01-0.95875-2.3882-1.7968-4.0645-2.498-1.953-3.7743-6.979-10-18.994-10.354z"/><path d="m67.387 24.896c-0.235 1.77 1.113 4.652 3.556 5.625 2.614 1.043 5.53-0.295 6.6-1.962-0.734-0.395-2.737-0.811-3.17-1.049-0.326 0.845-2.687 1.969-2.687 1.969s-0.865-2.644-0.778-3.452c-0.59-0.171-2.89-1.017-3.521-1.131zm33.443 22.295c-1.984 1.195-4.289 1.654-6.465 1.739l-0.021 3.277s2.683-2.199 3.06-2.656l0.59 2.568 2.496-2.598 0.2 2.573s2.05-1.637 3.27-2.756c-1.8-0.916-3.13-2.147-3.13-2.147zm-12.484 1.168c-0.874 1.278-2.199 3.933-0.713 6.834 0 0 1.41-3.962 5.058-6.267-1.691-0.07-3.219-0.324-4.345-0.567zm16.784 1.493c-0.51 1.2-1.66 3.375-3.8 5.242 0 0 4.53-0.092 7.19-4.891-1.12 0.251-2.3 0.047-3.39-0.351zm-22.804 9.511c-2.704 3.801-2.549 6.583-2.222 8.004 1.346 0.37 2.557 0.087 5.107-0.568-2.896-2.415-2.885-7.436-2.885-7.436zm16.09 1.078s-3.009 3.505-4.771 4.606c1.053 0.045 1.931 0.232 2.677 0.56 1.783-2.537 2.094-5.166 2.094-5.166zm-8.801 2.325l-3.599 3.925c0.276-0.072 0.557-0.15 0.843-0.236 2.323-0.697 4.155-1.119 5.621-1.254l0.526-2.012-2.348 1.569-1.043-1.992z" fill="#fff" transform="translate(0 -.0010033)"/><path d="m29.451 10.217c0.686 2.04 1.588 4.812 1.588 4.812l2.738-0.072-1.8 2.143 2.697 0.031-1.938 1.98 0.309 1.219s-5.002 2.468-7.1 4.574c0 0 9.912-4.021 18.33-6.455-5.428-5.626-14.824-8.232-14.824-8.232zm36.229 6.758c-2.791 0.008-5.561 0.487-8.084 1.703-7.855 3.785-9.004 12.25-9.004 12.25s5.827-6.952 14.945-7.422c0 0-2.483-1.316-4.869-2.221 0 0 10.842-3.941 22.937 3.477 3.454 2.117 7.03 0.136 7.03 0.136s0.684 3.483-2.201 4.512c0 0 1.527 0.794 4.171-0.496 0 0-0.769 4.078-8.242 2.563-10.788-2.188-11.343 7.246-11.343 7.246 1.021-1.749 5.467-4.888 13.136-5.024-8.773 2.096-17.395 10.23-15.015 23.821 2.468-12.578 14.168-13.292 17.115-12.278 13.114 4.506 15.044-1.599 13.471-4.412-1.477 0.101-1.809 1.979-1.809 1.979l-1.506-0.293s-1.455-4.372-1.117-7.864c0 0 1.81-0.588 5.925-0.099l-5.452-4.541-3.569-0.266s4.289-2.738 0.268-6.58-9.449-3.744-9.449-3.744 1.653 1.428 2.841 3.519c0 0-10.209-5.993-20.177-5.966h-0.002zm28.273 13.795l4.576 2.82c-2.196-0.169-3.742 0.139-3.742 0.139l-0.834-2.959zm-23.974 9.101c-0.001 0.001-0.002 0.001-0.002 0.002h0.003l-0.001-0.002zm-0.002 0.002c-8.628-0.05-35.351 5.28-44.672 14.525 0 0 26.398-12.254 42.994-11.8 0.463-0.917 1.017-1.831 1.678-2.725zm39.063 1.096c-0.69 1.357-1.61 2.729-2.71 3.334l-1.35-0.453c0.13-0.688-0.2-1.397-0.45-1.825-2.04-0.012-3.17 3.945 0.65 5.854 2.13 1.064 5.56 0.66 6.34-1.789 1.03-3.218-1.29-4.625-2.48-5.121zm-41.481 3.287c-6.463 0.669-34.871 5.928-46.666 18.099 0 0 30.026-14.616 45.726-14.962 0.22-1.025 0.526-2.078 0.94-3.137zm-1.272 5.135c-6.37 0.815-30.267 6.238-37.256 14.045 0 0 22.22-10.311 37.098-10.893l-0.002-0.225c-0.006-0.912 0.038-1.895 0.16-2.927zm0 4.847c-2.187 2.679-3.103 9.287-0.898 13.451 3.717 7.018 13.449 6.424 13.449 6.424-0.794 1.865-2.932 4.078-2.932 4.078 5.084-0.857 9.532-3.16 9.532-3.16 0.087 1.908-2.196 4.498-2.196 4.498s12.958-2.691 12.865-8.992c-0.03-2.026-1.92-4.258-6.015-2.984-2.486 0.773-11.123 2.982-16.985 0.982-0.673-0.139-2.91-1.547-3.33-2.131-2.2-2.672-3.479-7.291-3.49-12.166zm25.264 2.682c-0.423 0-0.877 0.051-1.363 0.168-5.232 1.252-5.153 5.892-5.153 5.892s2.051-2.088 5.569-1.416c5.432 1.039 5.191-1.033 5.265-1.642 0.058-0.481-1.357-3.003-4.318-3.002z" fill="#c1a875" transform="translate(0 -.0010033)"/><path fill="#592c88" d="m93.955 30.768 0.83398 2.959s1.5479-0.30742 3.7441-0.13867l-4.5781-2.8203z"/></g></svg>
