<svg xmlns="http://www.w3.org/2000/svg" height="170.98" width="204.5" viewBox="0 0 204.49991 170.98"><g><path fill="#fff" d="m33.102 88.76c-8.7788-0.1575-12.276 2.8962-15.384 5.55-2.2938 1.9588-4.6662 3.985-8.9325 5.4762-5.5062 1.9225-8.5975 7.5088-7.69 13.901 1.2038 8.4912 9.7388 18.332 25.63 19.872 0.06375 0.006 0.1175 0.0425 0.14625 0.0987 1.4375 2.8325 4.85 7.5812 11.558 7.5812l0.16375-0.001c0.09875 0 0.18125 0.0812 0.1825 0.18 0.04875 2.4112 0.3 4.69 0.745 6.7725l0.11875 0.50125 0.23875 0.3825c0.12625 0.2 12.825 19.991 38.114 20.926 0.91125 0.0325 1.7988 0.0513 2.6362 0.0513 15.014 0 19.461-5.2725 20.546-9.695 0.0125-0.0537 0.0487-0.0975 0.1-0.12125 3.405-1.6112 8.7588-5.085 14.932-12.482 0.035-0.0425 0.0763-0.0637 0.14125-0.0637 0.085 0 0.10625 0.0263 0.14125 0.07 2.9912 3.8375 8.2762 8.8 16.466 10.646 0.0275 0.007 0.66125 0.17 1.3825 0.24375 2.765 5.37 7.8562 8.6438 14.726 9.4675 0.73375 0.0875 1.475 0.1325 2.2012 0.1325 6.3462 0 10.435-3.2712 12.749-6.015 3.2288-3.8312 5.08-9.3875 4.8312-14.502-0.004-0.0662 0.0288-0.1275 0.0863-0.1625 5.1025-3.1488 4.9788-7.0738 4.4512-9.135-0.009-0.0325-0.007-0.065 0.001-0.0975 0.06-0.195 0.1225-0.41625 0.185-0.66375l0.0413-0.1725c0.46375-1.8325 1.5475-6.1238-1.175-9.85-0.14375-0.1975-0.29-0.38875-0.43625-0.57875l-0.16125-0.21125c-0.695-0.90375-0.7225-0.94-0.735-1.6038-0.1125-5.4888-3.1475-7.9888-6.1525-9.7538l-0.245-0.31625c-1.2588-1.6225-3.88-5-9.01-5-1.7188 0-3.4625 0.38-5.3262 1.1575-1.0075 0.395-6.2912 2.555-11.371 6.3475-0.0687 0.0487-0.1675 0.0463-0.235-0.015l-0.2125-0.19375c-0.0388-0.0312-0.06-0.0775-0.0613-0.1275-0.004-0.0487 0.0125-0.0975 0.045-0.1325 2.8175-3.08 5.155-6.285 6.9475-9.5262 0.0325-0.0575 0.10625-0.0975 0.19125-0.0925 0.82 0.13375 1.5862 0.19875 2.3412 0.19875 4.4825 0 7.9888-2.2612 11.032-7.115 2.4825-3.9562 2.1025-7.1025 1.3462-9.045-0.75-1.936-2.24-3.542-4.29-4.64-0.0687-0.03625-0.10625-0.1075-0.0975-0.1825 0.21-1.755 0.0725-3.44-0.41125-5.0075-0.0175-0.05625-0.007-0.11375 0.025-0.16 0.83875-1.1888 1.795-3.065 1.5925-5.2662-0.1175-1.295-0.705-3.1925-2.8238-4.8888-0.0375-0.02875-0.0613-0.07125-0.0675-0.11875-0.0225-0.17375-0.0487-0.36-0.08-0.5575-0.0125-0.07125 0.0212-0.14375 0.0812-0.1825 0.0625-0.03875 0.14375-0.03625 0.2025 0.0025 2.9788 2.0262 5.9662 4.5388 9.1312 7.6775 0.585 0.58125 1.2712 0.87375 2.0362 0.87375 0.79 0 1.3688-0.32125 1.3912-0.33375 1.1075-0.60875 1.6788-1.8988 1.3912-3.1375-0.0325-0.135-0.8125-3.3662-3.3575-7.6238-0.0375-0.06375-0.0337-0.14375 0.0112-0.2025 0.035-0.04625 0.0863-0.07375 0.1925-0.0675 0.8275 0.22375 1.3712 0.3875 1.5138 0.43125l0.4375 0.13625h0.43125c1.015 0 1.9588-0.54625 2.4588-1.425 0.02-0.035 0.0362-0.07 0.06-0.12625l0.0375-0.0875c0.03-0.06375 0.1025-0.10375 0.17375-0.105 0.075 0.0037 0.13875 0.05125 0.165 0.12 1.5462 4.2612 3.9938 8.1838 7.275 11.661 0.53375 0.5725 1.2888 0.90125 2.0575 0.90125h0.001c0.7125 0.055 1.4925-0.41625 1.525-0.43625 0.1175-0.07375 0.22875-0.155 0.33-0.2425 0.065-0.055 0.16375-0.0575 0.23125-0.0063 1.4912 1.15 3.0988 2.225 4.7788 3.1938 0.42375 0.24 0.905 0.3675 1.385 0.3675h0.001l0.0863 0.0012c0.81875 0 1.55-0.4825 1.605-0.52375 0.06-0.0575 0.15625-0.065 0.225-0.02 1.0075 0.6525 2.1225 1.3275 3.315 2.0038 0.55125 0.3125 1.0375 0.35875 1.2788 0.35875 0.0575 0 0.0975-0.0025 0.0987-0.0037 0.8275-0.0013 1.6062-0.355 2.13-0.9675 0.0425-0.04625 0.08-0.09375 0.11375-0.14 0.0375-0.04375 0.0925-0.0725 0.20875-0.06 0.63375 0.22875 1.2975 0.46 2.0062 0.695 0.4975 0.1075 0.965 0.1625 1.3888 0.1625 1.4575 0 1.9562-0.64375 1.96-0.65125 0.325-0.32625 0.57125-0.73125 0.70625-1.1712 0.325-1.0038 0.0575-2.13-0.66-2.8475-0.41125-0.56625-0.785-1.0688-1.1488-1.55-0.0488-0.06375-0.05-0.15125-0.005-0.215 0.0412-0.05625 0.08-0.1125 0.1175-0.1725 0.705-1.1375 0.52625-2.5862-0.435-3.5238l-0.0537-0.05125c-0.95625-0.88625-1.89-1.705-2.7738-2.4312-0.0588-0.0475-0.0825-0.12875-0.0575-0.20125 0.3625-1.0588 0.0625-2.2138-0.78375-3.0188-1.3675-1.2438-2.82-2.4038-4.3212-3.4488-0.07-0.04875-0.0975-0.14125-0.065-0.2175 0.0462-0.11125 0.0862-0.225 0.1175-0.34375 0.365-1.3262-0.28-2.7488-1.4962-3.3038-6.2638-3.0238-11.924-3.6588-15.57-3.6588-0.7325 0-1.455 0.025-2.1488 0.07625l-0.3175 0.025c-0.0375 0-0.07-0.0087-0.0975-0.02375-3.5162-2.0312-6.985-3.8425-10.311-5.385-0.0787-0.03625-0.12-0.12-0.10125-0.20375 0.02-0.085 0.0913-0.145 0.17875-0.145h0.25625c0.895 0 1.7425-0.42375 2.2675-1.1362 0.65625-0.8775 0.74875-2.0662 0.235-3.0288-0.0325-0.06125-0.0288-0.135 0.0125-0.19125 0.035-0.04875 0.0725-0.07125 0.17875-0.075 0.22375 0.03875 0.44875 0.0725 0.69 0.10875l0.4525 0.03375c1.1675-0.0012 2.225-0.75 2.6338-1.8612 0.05-0.14 0.09-0.28 0.1175-0.42 0.0162-0.08375 0.0913-0.14625 0.1775-0.14625 1.8788-0.01875 3.7875-0.1675 5.6712-0.44 1.115-0.14875 2.04-0.95625 2.3562-2.0562 0.0213-0.07125 0.085-0.12375 0.16-0.13125 1.2012-0.1075 2.4825-0.26625 3.8075-0.46875 1.3525-0.19 2.3788-1.2975 2.4412-2.6312 0.004-0.0775 0.005-0.145 0.004-0.21125 0-0.08 0.05-0.15 0.1275-0.175 0.6375-0.2125 1.3-0.44125 1.955-0.67875 1.0788-0.195 1.9138-0.91625 2.23-1.9238 0.13875-0.4075 0.185-0.8425 0.13375-1.2588-0.15-1.2825-1.1488-2.3-2.4012-2.4688-0.68375-0.1925-1.3-0.36-1.895-0.515-0.0787-0.02-0.135-0.09125-0.1375-0.1675-0.001-0.07875-0.007-0.1575-0.0163-0.24375-0.16625-1.3275-1.255-2.365-2.5875-2.4688-1.2838-0.10375-2.525-0.16875-3.6912-0.1925-0.075-0.0012-0.1425-0.0525-0.1675-0.1225-0.37875-1.07-1.3475-1.8112-2.4688-1.885-1.8312-0.1325-3.73-0.14625-5.54-0.0425-0.0875 0-0.1625-0.05375-0.18375-0.1325-0.0337-0.11625-0.075-0.23-0.12375-0.34125-0.44625-1.0538-1.47-1.735-2.6125-1.735l-0.34 0.0075-0.27375 0.06c-9.1325 2.02-14.745 6.785-16.735 8.7388-0.0312 0.03125-0.07 0.04875-0.11375 0.0525-2.2825 0.1925-4.4738 0.45125-7.1275 0.775-0.62375-0.15125-1.2575-0.29375-1.895-0.4275-0.0675-0.01375-0.12-0.06375-0.13875-0.13125-0.0175-0.065 0.002-0.135 0.0537-0.1825 0.5125-0.46875 0.835-1.1112 0.9075-1.81 0.1325-1.3275-0.65-2.5462-1.9-2.9638-0.0687-0.02375-7.0512-2.385-15.525-2.385-2.4475 0-4.81 0.19625-7.0512 0.58625-0.0425 0-0.0837-0.015-0.11625-0.0425-0.0413-0.035-0.0663-0.08375-0.0663-0.1375-0.004-0.25875-0.0437-0.51625-0.115-0.7625-0.0138-0.05125-0.006-0.105 0.0238-0.15 0.0275-0.04375 0.0737-0.07375 0.12375-0.08125 3.2412-0.5 6.4388-1.4288 9.5075-2.7625 1.2175-0.54875 1.8862-1.9138 1.59-3.25l-0.0237-0.095c-0.0213-0.0775 0.0112-0.1575 0.0787-0.20125 1.4125-0.89375 2.785-1.8838 4.08-2.9412 0.83-0.6725 1.2062-1.7462 0.985-2.8-0.0162-0.07 0.0125-0.14375 0.07-0.18625 0.845-0.63 1.7212-1.32 2.605-2.0525 1.0475-0.87625 1.33-2.36 0.67375-3.5288-0.0437-0.07625-0.045-0.19875-0.004-0.2475 0.29625-0.35 0.59875-0.71375 0.8825-1.0675 0.69875-0.625 1.05-1.4962 0.95375-2.4288-0.6825-2.0988-2.2975-2.4112-3.2-2.4112-0.51125 0-0.87125 0.09625-0.8925 0.10125-0.6775 0.205-1.33 0.41-2.0112 0.62375-0.0525 0-0.10375-0.02375-0.14-0.065-0.53375-0.63-1.3425-1.0062-2.1675-1.0062-0.71875 0.005-1.3025 0.3175-1.3225 0.32875-1.1788 0.60125-2.2775 1.2012-3.2688 1.7825-0.06 0.03625-0.13875 0.035-0.19625-0.0075-0.475-0.3325-1.055-0.515-1.6188-0.515h-0.001c-0.7025-0.04375-1.3062 0.30875-1.32 0.31875-1.6512 0.8575-3.2425 1.8162-4.7262 2.85-0.0637 0.04375-0.15625 0.0425-0.22-0.01-0.0625-0.05-0.125-0.1-0.19375-0.15-0.4675-0.31625-1.0162-0.485-1.5962-0.485h-0.001c-0.0512 0.0025-1.27 0.065-1.9425 0.77625-5.1312 4.86-7.3662 9.7838-8.3362 13.059-0.009 0.03375-0.03 0.06375-0.055 0.08625-3.4188 2.9662-6.1588 5.9388-8.3762 9.0838-0.02875 0.03875-0.07125 0.06625-0.15125 0.0775-0.0375 0-0.07375-0.0125-0.10625-0.035-2.905-2.1162-7.65-4.7038-13.759-5.0162-0.6 0-1.0112 0.03625-1.0325 0.03875-0.935 0.19875-1.7275 0.8775-2.065 1.7725-0.4275 1.13-0.0925 2.4075 0.83375 3.18 0.01375 0.0125 0.22625 0.19375 0.54625 0.51 0.05375 0.055 0.06875 0.14 0.035 0.21-0.03125 0.065-0.09125 0.10125-0.1875 0.10125-2.385-0.30125-5.1438-0.34-7.5012-0.10625-0.855 0.09-1.6125 0.55125-2.0788 1.2688-0.04875 0.07625-0.15375 0.105-0.23625 0.0625-1.679-0.858-3.402-1.634-5.283-2.368-0.033-0.012-0.061-0.034-0.083-0.062-2.042-2.785-5.826-6.702-12.247-9.549-0.5625-0.23-1.0275-0.23375-1.1575-0.2475-0.9025 0-1.7662 0.44625-2.315 1.1962-0.035 0.05-0.07125 0.105-0.10625 0.16125-0.032 0.055-0.094 0.089-0.204 0.081-1.737-0.476-3.547-0.847-5.392-1.103l-0.43125-0.03c-0.915 0.0012-1.7725 0.4475-2.2938 1.1938-0.03375 0.04875-0.06875 0.09125-0.18375 0.075-1.15-0.22-2.395-0.42125-3.7138-0.59375l-0.382-0.024c-1.1638 0-2.1962 0.72125-2.6338 1.8388-0.02625 0.06875-0.09125 0.11375-0.165 0.115-0.69125 0.0175-1.3762 0.0425-2.0325 0.07625l-0.08625-0.0013c-0.4025 0-1.765 0.07125-2.4212 0.97625-0.37875 0.44625-0.60625 0.94625-0.6775 1.485-0.18125 1.2875 0.53 2.53 1.705 3.01 0.46875 0.27875 0.87875 0.5225 1.2775 0.755 0.065 0.03875 0.10125 0.11375 0.08875 0.18875-0.235 1.3612 0.53 2.6862 1.8162 3.15 1.075 0.395 2.1262 0.75125 3.1238 1.0575 0.06875 0.02125 0.11875 0.08125 0.1275 0.1525 0.13625 1.0588 0.865 1.9638 1.855 2.305 1.5862 0.56755 3.2162 1.0438 4.8462 1.4163 0.07875 0.01625 0.13625 0.08375 0.14125 0.1675l0.0087 0.09875c0.1475 1.3562 1.2512 2.4188 2.6288 2.5262 1.5525 0.10875 3.2112 0.12375 4.8025 0.04125 0.12 0 0.15875 0.09 0.17125 0.13125 0.02375 0.08125-0.01125 0.1675-0.085 0.21-1.5888 0.91375-3.1025 1.9538-4.5025 3.0912-0.9275 0.7525-1.2812 2.015-0.8825 3.1425 0.39875 1.1312 1.4725 1.89 2.6738 1.89 0.20875 0 2.1138 0.0037 4.8 0.13 0.07875 0.0037 0.1475 0.05625 0.1675 0.13125 0.02125 0.0775-0.0087 0.15875-0.07375 0.20125-4.6288 3.14-7.835 7.175-9.5288 11.994-0.4675 1.3125 0.08875 2.7612 1.3288 3.4475l0.63 0.32875c0.07375 0.03875 0.1125 0.1225 0.0925 0.205-0.49875 2.0738-0.43 3.4962-0.38625 3.94 0.08125 0.89875 0.57875 1.7112 1.3275 2.1688 0.02625 0.01625 0.65 0.4075 1.4812 0.41875 0.7725 0 1.5362-0.32625 2.045-0.8725 0.215-0.225 0.50125-0.5125 0.845-0.845 0.055-0.055 0.14625-0.06625 0.21375-0.02875 0.07125 0.0375 0.1075 0.1175 0.0925 0.19625-0.201 1.022-0.715 3.437-0.801 4.473-0.05625 0.65 0.285 0.9675 0.6425 1.51 0.03875 0.05875 0.04 0.135 0.0037 0.195-0.035 0.05625-0.085 0.0875-0.17375 0.08875l-2.015-0.19625c-0.0375-0.0037-0.07375-0.02-0.1025-0.045-2.5288-2.205-6.8-5.2375-12.792-7.1525l-0.45375-0.1375-0.3925-0.0075c-1.056-0.018-2.027 0.545-2.537 1.472-0.064 0.116-0.119 0.236-0.164 0.359-0.0275 0.06875-0.10375 0.12625-0.19875 0.115-1.815-0.27625-3.675-0.43375-5.5275-0.4725-1.1062-0.01875-2.135 0.63125-2.62 1.655-0.03 0.06375-0.095 0.10625-0.17625 0.105h-0.0012c-1.035-0.07375-2.1425-0.1225-3.29-0.14125l-0.39-0.0062c-1.3612-0.02375-2.55 0.93-2.83 2.2675-0.01375 0.065-0.025 0.13-0.0325 0.195-0.0125 0.08-0.0725 0.1425-0.13625 0.15375-0.19125 0.01375-4.68 0.37625-4.6488 3.1562 0.015 1.3175 0.84375 2.4338 2.0338 2.7688 0.72375 0.3325 1.3712 0.6225 1.995 0.89625 0.0725 0.03 0.11625 0.105 0.1075 0.18875l-0.0125 0.1975c-0.045 1.3375 0.84 2.5088 2.155 2.8462 1.3212 0.32625 2.5925 0.60375 3.78 0.82125 0.075 0.015 0.13125 0.0725 0.14625 0.1475 0.2025 1.11 1.0375 1.995 2.1288 2.255 1.8862 0.45125 3.785 0.7775 5.6438 0.9675 0 0 0.635 0.105 0.62625 0.515-0.01 0.41625 0.455 0.74875 0.95625 0.98625 0 0 0.165 0.05125 0.165 0.2 0 0.15-0.2175 0.16625-0.2975 0.165"/><path fill="#27251F" d="m130.1 3.8178c-3.22 1.6413-5.73 3.2168-7.47 4.6856 0.41-1.6775 1.17-2.9524 1.18-2.9649 0.02-0.0362 0.01-0.084-0.02-0.1152-0.03-0.0313-0.07-0.0376-0.11-0.0176-3.84 1.995-6.52 4.1416-8.13 5.6328-0.24-1.8575 0.22-2.9751 0.23-2.9863 0.01-0.0425 0-0.089-0.04-0.1152-0.04-0.0263-0.09-0.0222-0.12 0.0078-5.28 4.9987-7.18 10.104-7.81 12.653-4.73 4.003-7.957 7.832-10.318 11.818-2.505-2.344-7.715-6.216-14.984-6.482-0.043-0.013-0.074 0.022-0.088 0.058-0.015 0.038-0.004 0.079 0.027 0.104 0.037 0.03 3.626 3.024 4.68 7.123-1.914-0.67-5.665-1.725-10.277-1.725-0.999 0-2.003 0.049-2.983 0.147-0.037 0.003-0.068 0.03-0.078 0.066-0.009 0.036 0.003 0.074 0.033 0.098 0.027 0.021 2.678 2.089 4.666 4.693-0.863-0.105-1.765-0.185-2.646-0.225-3.234-2.332-6.911-4.382-11.656-6.156-1.493-2.227-4.986-6.404-11.635-9.351-0.041-0.019-0.09-0.007-0.117 0.031-0.028 0.037-0.024 0.09 0.007 0.123 0.008 0.01 0.815 0.907 1.211 2.738-2.008-0.867-5.251-1.995-9.548-2.594-0.043-0.006-0.084 0.017-0.1 0.057-0.018 0.039-0.006 0.086 0.027 0.113 0.011 0.01 1.152 0.956 2.102 2.401-2.124-0.802-5.02-1.444-8.61-1.92-0.046-0.004-0.088 0.022-0.103 0.066-0.014 0.043 0.004 0.091 0.045 0.113 0.012 0.008 1.311 0.738 2.764 1.803-2.538-0.095-7.959 0.049-7.973 0.071-0.038 0.01-0.065 0.04-0.068 0.078-0.008 0.046 0.02 0.091 0.062 0.105 0 0 5.035 2.825 6.607 3.586-1.923 0.245-3.503 0.272-3.519 0.272-0.046 0-0.086 0.033-0.094 0.078-0.006 0.046 0.018 0.091 0.061 0.107 3.295 1.208 6.134 1.969 8.445 2.262-1.746 0.78-3.322 1.059-3.34 1.062-0.042 0.008-0.075 0.042-0.08 0.084-0.002 0.045 0.025 0.086 0.065 0.1 3.99 1.429 7.431 1.945 9.681 2.123-1.537 1.351-2.805 1.738-2.82 1.742-0.044 0.014-0.071 0.057-0.065 0.102 0.004 0.047 0.042 0.082 0.088 0.086 0.84 0.058 1.693 0.089 2.532 0.089 5.782 0 10.254-1.37 12.918-2.517 4.162 1.416 5.75 2.152 7.283 3.141-5.719 0.362-13.876 1.993-20.807 7.625-0.03 0.025-0.038 0.067-0.025 0.103 0.012 0.036 0.052 0.061 0.09 0.061 0.361 0 8.749 0.013 15.689 1.191-5.383 1.586-14.458 5.58-17.744 14.926-0.014 0.042 0.005 0.089 0.045 0.111 0.012 0.008 0.026 0.012 0.041 0.012 0.029 0 0.057-0.013 0.074-0.035 0.086-0.112 8.872-11.066 30.367-13.239 0.04-0.003 0.072-0.031 0.082-0.07 0.008-0.039-0.009-0.078-0.043-0.1-3.031-1.847-8.93-4.243-19.855-5.228 0 0 22.678-7.277 34.48 5.162 0 0-3.275-7.808-11.191-11.978 1.282 0.226 6.261 1.239 10.187 3.869 0.027 0.017 0.061 0.021 0.09 0.006 0.03-0.015 0.05-0.045 0.051-0.077 0.16-3.748-1.591-7.179-2.156-8.181 5.168 2.945 8.098 7.129 9.65 10.146 0.014 0.029 0.044 0.05 0.076 0.051 0.027-0.001 0.063-0.016 0.08-0.045 0 0 2.477-4.345 6.117-6.848-0.68 1.914-0.9 4.021-0.62 6.297 0.01 0.037 0.03 0.066 0.07 0.076 0.03 0.012 0.07 0 0.1-0.029 0.07-0.089 7.31-8.842 20.95-8.842 0.77 0 1.55 0.026 2.33 0.082-2.06 0.42-8.19 2.065-11.88 7.276-0.02 0.031-0.03 0.072-0.01 0.103 0.02 0.033 0.06 0.048 0.1 0.041 0.01-0.003 0.55-0.099 1.49-0.224 2.53-0.197 7.95-0.492 14.16-0.08-18.43 3.885-24.95 10.031-25.78 10.923-0.03 0.018-0.05 0.025-0.05 0.028l0.01 0.017c-0.03 0.039-0.05 0.06-0.05 0.063 0.01 0.03 0.02 0.056 0.05 0.07 0.02 0.015 0.05 0.017 0.08 0.004 0.15-0.066 14.71-6.616 34.62-10.004 1.59 0.303 3.17 0.668 4.71 1.113 2.39 0.768 4.65 1.676 6.72 2.754-1.5 0.06-7.52 0.437-11.49 2.672-0.03 0.019-0.05 0.062-0.04 0.102s0.05 0.068 0.09 0.068h0.34c2.69 0 16.41 0.109 22.38 2.258 0.04 0.014 0.08 0.001 0.1-0.031 0.03-0.033 0.03-0.078 0-0.11-0.04-0.06-4.52-5.921-15.21-9.918 1.41-0.167 3.01-0.283 4.33-0.425 2.26 1.841 7.16 5.092 14.6 6.197 0.05 0.007 0.09-0.02 0.11-0.063 0.01-0.042-0.01-0.09-0.05-0.115-0.01-0.006-1.14-0.722-2.19-2.555 3.24 0.447 6.83 0.412 10.42-0.107 0.04-0.006 0.07-0.039 0.08-0.082 0-0.042-0.02-0.083-0.06-0.1-0.01-0.007-1.5-0.676-2.97-1.937 0.65 0.057 1.36 0.088 2.11 0.088 2.03 0 4.44-0.21 7.14-0.623 0.05-0.007 0.08-0.046 0.08-0.092 0.01-0.046-0.03-0.086-0.07-0.096-0.02-0.005-1.59-0.391-3.42-1.099 1.82-0.467 4.57-1.243 7.72-2.391l0.17-0.018c0.04-0.003 0.05-0.036 0.05-0.074 0.02-0.019 0.02-0.044 0.02-0.07-0.01-0.045-0.04-0.078-0.09-0.082l-0.11-0.004c-3.14-0.913-5.9-1.495-7.75-1.834 1.84-0.84 3.42-1.343 3.44-1.35 0.04-0.013 0.06-0.056 0.06-0.101-0.01-0.046-0.04-0.08-0.09-0.084-3.71-0.299-6.85-0.254-9.23 0.129 1.46-1.364 2.95-2.138 2.96-2.147 0.04-0.018 0.06-0.062 0.05-0.103-0.01-0.043-0.04-0.076-0.08-0.078-3.6-0.259-7.16-0.036-10.41 0.648 1.05-1.906 2.19-2.707 2.2-2.715 0.04-0.026 0.05-0.076 0.03-0.117-0.02-0.042-0.06-0.068-0.11-0.057-9.79 2.167-15.19 7.704-16.11 8.76-2.98 0.219-5.83 0.569-8.58 0.92-4.91-1.231-10.26-1.887-15.91-1.953 1.99-1.21 5.66-2.753 12.15-3.582 0.05-0.005 0.08-0.04 0.08-0.082 0.01-0.043-0.02-0.08-0.06-0.094-0.06-0.024-6.68-2.238-14.63-2.238-5.88 0-10.99 1.182-15.19 3.517 0.8-1.636 2.32-3.875 5.18-5.734 0.03-0.022 0.04-0.067 0.03-0.105-0.01-0.04-0.05-0.069-0.09-0.063-0.08 0.006-7.41 0.683-12.18 4.998 2.08-3.135 4.68-5.778 8-8.307 0.48 0.028 1.03 0.045 1.63 0.045 3.21 0 8.2-0.508 13.8-2.941 0.04-0.019 0.06-0.064 0.05-0.109s-0.03-0.073-0.1-0.075h-0.08c-0.34 0-1.53-0.051-3.16-0.701 2.07-0.925 5.15-2.564 8.42-5.236 0.03-0.028 0.04-0.073 0.02-0.113-0.01-0.039-0.05-0.065-0.1-0.057-0.01 0.002-0.97 0.164-2.29 0.164-0.41 0-0.82-0.016-1.21-0.047 2.07-1.045 4.49-2.711 7.2-4.9549 0.04-0.03 0.05-0.0799 0.02-0.1211-0.02-0.0412-0.07-0.0599-0.11-0.0449-0.02 0.005-1.52 0.5088-3.41 0.9238 1.22-1.2387 5.03-5.5898 5.03-5.5898 0.03-0.0238 0.02-0.0561 0-0.0899 0-0.0237 0-0.0476-0.02-0.0664-0.03-0.035-0.08-0.0447-0.12-0.0234 0 0-5.76 1.9299-7.47 2.6074 1.01-1.4888 2-2.6106 2.01-2.623 0.03-0.0338 0.03-0.0849 0-0.1211-0.02-0.0375-0.08-0.0499-0.12-0.0274zm4.83 43.362c-1.17 0.002-2.26 0.049-3.28 0.123-5.21 0.38-7.9 1.716-7.93 1.728-0.04 0.02-0.06 0.067-0.05 0.11 0.02 0.042 0.06 0.072 0.1 0.062 0 0 0.41-0.056 1.16-0.111 5.38-0.392 23.55-1.053 47.6 14.748 0.88 3.189 2.87 7.983 7.34 12.713 0.03 0.033 0.08 0.04 0.12 0.015s0.05-0.071 0.04-0.115c-0.01-0.012-0.45-1.276-0.14-3.367 1.6 1.671 4.3 4.086 8.24 6.359 0.04 0.022 0.09 0.017 0.12-0.013s0.04-0.076 0.02-0.114c-0.01-0.016-0.77-1.46-1.14-3.357 1.75 1.655 4.31 3.436 7.6 5.301 0.04 0.022 0.09 0.015 0.12-0.02 0.03-0.034 0.03-0.087 0.01-0.123-0.02-0.012-1.01-1.29-2.02-2.978 1.73 0.762 4.37 1.85 7.55 2.896l0.14 0.09c0.02 0.012 0.04 0.017 0.06 0.016 0.02-0.002 0.04-0.012 0.06-0.028s0.03-0.037 0.03-0.058v-0.008c0.02-0.04-3.82-5.014-5.06-6.416 1.97 0.479 3.51 1.059 3.53 1.064 0.04 0.018 0.09 0 0.12-0.039 0.02-0.039 0.01-0.09-0.02-0.121-2.75-2.545-5.21-4.431-7.34-5.613 2.01-0.178 3.65 0.144 3.67 0.146 0.04 0.01 0.08-0.01 0.1-0.049 0.02-0.038 0.01-0.085-0.02-0.115-3.33-3.026-6.47-4.882-8.58-5.926 1.36-0.573 2.43-0.723 2.95-0.761 0.29-0.022 0.45-0.012 0.45-0.012 0.05 0.001 0.09-0.025 0.1-0.07 0.02-0.045-0.01-0.093-0.05-0.112-7.05-3.402-13.25-3.536-16.32-3.312-0.48 0.034-0.88 0.075-1.14 0.129-17.92-10.504-29.97-12.678-38.14-12.662zm-47.795 3.365c-5.543 1.969-13.44 6.295-19.783 15.74 0.453-2.222 1.521-5.41 4.015-8.713 0.023-0.031 0.024-0.074 0.004-0.105-0.021-0.033-0.06-0.049-0.098-0.039-0.081 0.018-7.686 1.886-11.361 5.205 1.331-1.921 5.382-7.154 12.074-10.588 0.039-0.02 0.059-0.066 0.045-0.108-0.012-0.043-0.053-0.066-0.099-0.062-0.184 0.024-18.482 2.498-22.909 15.023-0.015 0.04 0 0.085 0.038 0.108 0.036 0.024 0.085 0.017 0.115-0.014 0.051-0.055 5.067-5.281 9.34-7.193-2.598 3.762-4.69 6.871-3.955 13.4 0.003 0.041 0.02 0.079 0.06 0.094 0.039 0.012 0.084 0.001 0.108-0.035 0.031-0.046 2.864-4.96 8.908-7.518-0.407 1.125-1.392 6.279 1.185 10.715 0.018 0.031 0.033 0.045 0.084 0.053 0.036-0.001 0.069-0.023 0.082-0.057 0.017-0.037 1.56-3.728 4.33-6.713 0.19 1.453 0.05 5.524-0.293 9.1l-20.289-2.008c-2.412-2.241-6.546-5.317-12.537-7.232-0.045-0.015-0.092 0.003-0.113 0.045-0.023 0.04-0.014 0.09 0.021 0.119 0.012 0.01 1.067 0.907 1.938 2.906-2.254-0.695-5.816-1.509-10.299-1.602h-0.002c-0.041 0-0.079 0.029-0.092 0.069-0.012 0.042 0.005 0.085 0.041 0.109 0.014 0.009 1.423 0.92 2.758 2.412-2.27-0.581-5.222-0.91-8.785-0.972l-0.4-0.004c-0.047-0.002-0.087 0.031-0.096 0.076-0.01 0.045 0.013 0.09 0.055 0.107 0.017 0.008 1.538 0.651 3.291 1.658-1.855 0.167-7.985 1.108-7.985 1.108-0.036-0.005-0.053 0.015-0.064 0.043-0.035 0.014-0.059 0.048-0.059 0.088 0 0.046 6.039 2.62 7.715 3.217-1.892 0.533-3.493 0.778-3.51 0.781-0.047 0.007-0.081 0.043-0.084 0.09-0.001 0.045 0.031 0.086 0.075 0.097 3.518 0.875 6.503 1.339 8.878 1.379 0.098 0.003 0.192 0.002 0.286 0.002-1.577 1.119-3.119 1.649-3.135 1.654-0.041 0.014-0.067 0.054-0.065 0.096 0.002 0.043 0.031 0.08 0.073 0.09 3.537 0.849 7.095 1.211 10.361 1.061-1.211 1.731-2.407 2.34-2.42 2.345-0.041 0.02-0.06 0.067-0.049 0.11 0.013 0.045 0.05 0.079 0.098 0.072 6.671-0.371 11.498-2.574 14.305-4.344l18.781 3.389c-0.269 0.939-0.2 0.586-0.528 1.478-0.046-0.002-0.112-0.004-0.197-0.004-1.064 0-4.568 0.298-4.994 4.147-0.004 0.029 0.009 0.06 0.031 0.08 0.033 0.029 3.237 2.854 3.143 7.469-5.62-9.363-12.279-11.338-16.893-11.338-4.131 0-7.089 1.568-7.119 1.584-0.031 0.016-0.049 0.051-0.047 0.086 0.003 0.035 0.023 0.065 0.057 0.078 0.047 0.02 4.811 2.015 6.016 7.348-3.998-3.188-8.549-4.964-13.534-5.282-0.662-0.042-1.307-0.062-1.916-0.062-6.383 0-9.097 2.317-12.242 5.004-2.37 2.025-5.059 4.321-9.8124 5.981-4.3 1.5-6.6064 5.79-5.8789 10.93 1.1213 7.9 9.3843 16.79 24.879 17.66 0.241 0.72 2.716 7.53 9.74 7.53 0.999 0 2.055-0.13 3.146-0.41-0.187 3.49 0.02 6.69 0.627 9.53 0.119 0.19 12.083 18.77 35.891 19.65 0.88 0.03 1.726 0.04 2.537 0.04 15.229 0 17.878-5.58 18.086-8.95 3.291-1.26 9.921-4.93 17.801-15.41 2.31 3.91 7.56 10.65 17.05 12.79 0.03 0.01 0.07-0.01 0.09-0.03 0.02-0.03 0.03-0.06 0.02-0.09-0.02-0.05-1.83-5.12 1.16-8.22-0.19 5.06 0.95 16.37 14.55 18 0.63 0.07 1.27 0.11 1.88 0.11 5.29 0 8.71-2.74 10.65-5.04 3.25-3.85 4.82-9.49 4-14.37 0.5-0.25 0.92-0.47 1.29-0.69 3.77-2.2 3.98-4.7 3.49-6.41-0.12-0.41-0.16-0.64-0.17-0.75l0.03-0.08c0.08-0.23 0.22-0.62 0.35-1.14l0.05-0.19c0.43-1.71 1.23-4.88-0.73-7.56-0.14-0.19-0.27-0.36-0.4-0.54l-0.15-0.19c-0.88-1.15-1.28-1.67-1.31-3.23-0.1-4.73-3.03-6.41-5.15-7.63-0.14-0.13-0.43-0.5-0.68-0.82-1.14-1.47-3.05-3.94-6.84-3.94-1.35 0-2.77 0.32-4.34 0.98-1.1 0.43-6.86 2.79-11.99 6.97-0.22 0.15-0.56 0.4-0.93 0.75-1.04-1.79-2.54-3.02-4.46-3.65 3.09-2.98 7.31-7.71 10.11-13.54 1.47 0.42 2.75 0.63 3.93 0.63 3.49 0 6.18-1.8 8.71-5.831 1.48-2.368 1.87-4.649 1.11-6.596-0.73-1.878-2.52-3.301-5.04-4.016 0.61-1.73 1.01-4.723-0.4-7.402 0.37-0.355 2.29-2.315 2.08-4.586-0.13-1.411-1.06-2.647-2.78-3.664-0.01-0.598-0.16-3.736-2.25-8.451 5.72 2.791 11.17 6.801 16.2 11.92 0.03 0.03 0.07 0.035 0.11 0.015s0.05-0.061 0.05-0.101c-0.02-0.063-1.55-6.365-7.53-12.827 4.99 0.754 9.35 2.107 9.4 2.12 0.03 0.013 0.08-0.005 0.1-0.041 0.02-0.038 0.02-0.085-0.01-0.114-9.76-8.636-23.95-11.912-24.1-11.945-0.04-0.01-0.09 0.013-0.1 0.055-0.02 0.041 0 0.089 0.04 0.113 0.04 0.025 4.08 2.514 7.38 6.686-4.4-2.089-10.06-4.064-16.84-5.872-0.04-0.011-0.08 0.006-0.1 0.039-0.02 0.032-0.02 0.077 0 0.108 0.02 0.024 1.9 2.45 3.27 5.637-3.94-2.374-10.87-5.417-21.74-6.766-0.05-0.007-0.08 0.016-0.09 0.055-0.02 0.037-0.01 0.082 0.03 0.107 0.04 0.038 4.76 3.72 5.92 8.563-3.33-2.622-8.75-5.905-15.96-7.037-0.03-0.005-0.06 0.006-0.08 0.033-0.02 0.025-1.91 2.467-2.15 5.533-0.8-1.37-1.79-3.588-2.28-6.713-0.01-0.027-0.03-0.049-0.05-0.064-0.02-0.013-0.05-0.015-0.08-0.006-0.03 0.011-2.862 1.132-5.234 5.093-0.114-1.497-0.097-3.178 0.05-5.001 0.004-0.034-0.012-0.067-0.041-0.084-0.027-0.019-0.063-0.019-0.093-0.004-0.09 0.047-8.872 4.828-13.633 14.892 0.276-2.965 1.367-8.204 5.43-13.22 0.028-0.036 0.027-0.084 0-0.118-0.03-0.033-0.08-0.043-0.118-0.019-6.21 3.825-10.63 11.989-11.142 12.994 2.209-9.696 7.266-15.044 11.17-17.838 0.036-0.026 0.048-0.076 0.027-0.117-0.02-0.039-0.07-0.059-0.111-0.043z" style=""/><path d="m129.33 7.9955c-1.55 0.4138-2.98 0.8581-4.32 1.3106-0.52 0.6812-0.95 1.3144-1.29 1.8904 3.28-1.9785 5.61-3.201 5.61-3.201zm-6.86 2.229c-1.17 0.45-2.24 0.893-3.17 1.312-1.14 1.433-1.87 2.836-2.33 4.02 1.32-0.919 2.63-1.787 3.88-2.58 0.51-1.062 1.11-2.021 1.62-2.752zm-6.02 2.687c-1.42 0.743-2.19 1.232-2.19 1.232-2.5 2.573-3.31 5.975-3.31 5.975 1.06-0.9 2.19-1.775 3.32-2.625 0.45-1.697 1.39-3.371 2.18-4.582zm-72.292 12.275c-1.414 0.02-2.915 0.079-4.515 0.207 0 0 2.606 0.375 6.361 1.145-0.514-0.43-1.13-0.884-1.846-1.352zm2.703 0.014c0.72 0.521 1.604 1.224 2.44 2.055 1.442 0.332 2.969 0.711 4.525 1.135-0.832-0.962-1.988-2.04-3.541-3.01-1.021-0.084-2.175-0.146-3.424-0.18zm6.565 0.524c1.157 0.876 2.599 2.14 3.584 3.591 1.356 0.42 2.708 0.874 4.015 1.364 0 0-1.904-2.94-5.117-4.528 0 0-0.888-0.205-2.482-0.427zm35.961 4.703c0.565 1.001 2.315 4.429 2.156 8.177-0.003 0.033-0.02 0.064-0.049 0.079-0.031 0.015-0.067 0.011-0.094-0.006-3.926-2.63-8.902-3.642-10.183-3.869 7.915 4.17 11.189 11.976 11.189 11.976-11.804-12.439-34.48-5.158-34.48-5.158 10.925 0.984 16.824 3.38 19.855 5.228 0.035 0.022 0.051 0.059 0.043 0.098-0.009 0.038-0.041 0.067-0.082 0.07-10.009 1.013-17.261 3.929-22.164 6.768-7.166 7.01-6.555 13.107-6.555 13.107 4.427-12.526 22.725-15.001 22.909-15.025 0.046-0.003 0.087 0.022 0.099 0.064 0.014 0.043-0.006 0.09-0.045 0.11-6.692 3.434-10.743 8.665-12.074 10.586 3.675-3.32 11.28-5.187 11.361-5.205 0.038-0.012 0.075 0.006 0.096 0.039 0.021 0.031 0.021 0.074-0.002 0.105-2.494 3.303-3.562 6.491-4.015 8.713 6.343-9.446 14.24-13.773 19.783-15.74 0.041-0.016 0.09 0.003 0.111 0.043 0.021 0.041 0.008 0.091-0.029 0.117-3.903 2.794-8.96 8.143-11.17 17.838 0.514-1.004 4.934-9.167 11.144-12.992 0.038-0.024 0.088-0.016 0.118 0.017 0.027 0.033 0.028 0.084 0 0.118-4.063 5.017-5.155 10.254-5.43 13.22 4.761-10.064 13.543-14.845 13.633-14.892 0.03-0.017 0.065-0.013 0.093 0.005 0.029 0.018 0.045 0.049 0.041 0.083-0.148 1.822-0.164 3.504-0.05 5.001 2.372-3.961 5.204-5.082 5.234-5.093 0.03-0.009 0.06-0.007 0.08 0.006s0.04 0.038 0.04 0.066c0.5 3.124 1.49 5.341 2.29 6.711 0.24-3.066 2.13-5.508 2.15-5.533 0.02-0.027 0.05-0.038 0.08-0.033 7.21 1.131 12.63 4.415 15.96 7.035-1.16-4.843-5.88-8.523-5.92-8.561-0.04-0.025-0.05-0.068-0.03-0.105 0.01-0.039 0.04-0.064 0.09-0.057 10.87 1.349 17.8 4.392 21.74 6.766-1.37-3.187-3.25-5.613-3.27-5.637-0.02-0.033-0.02-0.075 0-0.108 0.02-0.032 0.06-0.05 0.1-0.039 6.78 1.808 12.44 3.785 16.84 5.873-3.3-4.171-7.34-6.662-7.38-6.687-0.04-0.024-0.06-0.07-0.04-0.111 0.01-0.042 0.06-0.068 0.1-0.057 0.15 0.033 14.32 3.307 24.08 11.93 0 0.006 0.01 0.01 0.02 0.015-3.16-3.545-8.11-7.85-11.52-10.435-15.78-6.699-27.23-6.253-31.31-5.957-0.75 0.055-1.16 0.111-1.16 0.111-0.04 0.01-0.08-0.02-0.1-0.062-0.01-0.043 0.01-0.09 0.05-0.11 0.03-0.012 2.72-1.35 7.93-1.728 4.14-0.3 9.5-0.151 16.46 1.648 6.96-0.529 14.14-0.588 15.33-0.504-6.05-2.099-19.57-2.207-22.23-2.207h-0.34c-0.04 0-0.08-0.028-0.09-0.068s0-0.082 0.04-0.102c3.97-2.235 9.99-2.611 11.49-2.67-2.07-1.078-4.33-1.988-6.72-2.756-1.54-0.443-3.12-0.812-4.71-1.115-19.91 3.389-34.47 9.94-34.62 10.006-0.03 0.011-0.06 0.012-0.08-0.002-0.03-0.015-0.04-0.041-0.05-0.07 0-0.004 0.02-0.025 0.05-0.063l-0.01-0.019c0-0.003 0.02-0.012 0.05-0.029 0.82-0.892 7.35-7.037 25.78-10.922-6.21-0.412-11.63-0.118-14.16 0.078-0.94 0.125-1.48 0.224-1.49 0.226-0.04 0.008-0.08-0.009-0.1-0.041s-0.02-0.071 0.01-0.101c3.69-5.212 9.82-6.856 11.88-7.278-0.78-0.055-1.56-0.084-2.33-0.084-13.64 0-20.88 8.757-20.95 8.844-0.03 0.03-0.07 0.043-0.1 0.031-0.04-0.01-0.06-0.041-0.07-0.078-0.28-2.275-0.06-4.384 0.62-6.297-3.64 2.502-6.117 6.85-6.117 6.85-0.016 0.028-0.053 0.042-0.08 0.043-0.032-0.001-0.063-0.02-0.078-0.049-1.551-3.019-4.48-7.203-9.648-10.146zm72.793 1.632c-3.76 0.996-6.7 3.75-6.7 3.75 1.47-0.234 2.98-0.421 4.48-0.57 1.49-1.351 3.37-2.395 4.84-3.084-1.67-0.119-2.62-0.096-2.62-0.096zm5.86 0.434c-1.89 0.701-3.42 1.61-4.59 2.465 1.7-0.108 3.35-0.171 4.9-0.205 1.13-0.711 2.26-1.273 3.16-1.676-1.26-0.249-2.43-0.441-3.47-0.584zm6.16 1.18c-0.88 0.345-1.66 0.699-2.32 1.051 4.01 0.016 6.73 0.199 6.73 0.199-1.54-0.501-3.02-0.909-4.41-1.25zm-66.98 26.531c-1.54 4.043-1.29 8.689-1.29 8.689-5.41-3.968-6.168-8.328-6.168-8.328-2.637 2.904-4.123 8.725-4.123 8.725-1.848-2.508-2.432-7.137-2.432-7.137-2.754 3.115-3.635 9.643-3.635 9.643-1.583-1.978-1.662-5.508-1.662-5.508-3.561 4.089-7.308 15.271-7.308 15.271-1.72-2.826-1.981-6.314-1.768-9.23-0.93 0.994-3.101 4.539-4.617 8.356l16.91 14.179c0.052-0.994 0.177-2.195 0.314-2.885-3.616-1.705-4.197-4.556-4.197-4.556s5.812 4.455 18.826 2.767c0 0-1.73 3.428-9.289 2.998 3.479 2.935 14.349 10.509 33.909 10.469 0.14-1.41 0.54-3.15 1.54-4.428 0 0-3.41-1.543-7.06 0.968 0 0 0.89-8.544 13.28-1.759 9.75 5.349 12.78 2.089 15-1.476 2.21-3.566-0.86-7.501-10.33-5.041-9.34 2.426-16.74-2.639-12.44-11.91-1.08-0.035-2.4 0.568-3.79 0.086 0.68 1.717 1.18 5.085-6.27 3.677 0 0-0.15 3.618-3.42 5.561 2.24 1.449 2.61 2.609 2.61 2.609-1.9-0.706-3.73-1.332-5.48-1.888l-0.01 0.003-0.13-0.046c-16.964-5.33-27.213-4.049-27.213-4.049s0.383-1.335 4.535-1.725c-0.942-1.141-3.158-4.301-1.883-7.933 0 0-2.212-0.984-4.178-0.614 0 0 6.933-6.342 27.109 1.567 18.89 7.402 9.16-1.448 3.88-1.448 0 0 2.22-1.793 9.57 1.034 7.42 2.852 8.13-1.05 7.76-1.854 0 0 3.56 2.413 0.38 6.494 2.51 0.37 8.06 0.785 13.08-1.611 3.66-1.75 3.43-3.632 1.55-4.934-0.02-2.328-0.44-7.075-4.02-12.502-1.19-0.422-2.22-0.721-3.01-0.921 1.81 4.66 0.49 9.794 0.49 9.794-3.47-4.863-7.06-7.316-9.26-8.468 1.28 3.482 0.56 6.453 0.56 6.453-3.35-4.935-6.58-7.118-8.51-8.057 2.22 4.518 0.94 11.168 0.94 11.168-2.96-4.465-6.19-6.986-8.57-8.383 0.15 2.839-1.03 5.475-1.03 5.475-3.81-7.894-9.15-9.295-9.15-9.295zm69.15 2.334c-0.43 0.008-0.68 0.029-0.68 0.029 1.3 0.729 2.6 1.514 3.87 2.323 2.01-0.137 4.13 0.208 5.71 0.572-1.23-1.121-2-1.695-2-1.695-2.68-1.159-5.6-1.254-6.9-1.229zm6.11 4.295c1.4 0.966 2.74 1.937 3.97 2.869 1.33 0.138 2.57 0.395 3.52 0.635-0.83-0.969-1.63-1.844-2.36-2.6-1.91-0.617-3.68-0.852-5.13-0.904zm6.77 5.029c3.13 2.49 5.16 4.319 5.16 4.319-0.9-1.35-1.81-2.58-2.69-3.713-0.91-0.272-1.73-0.47-2.47-0.606zm-150.91 3.127c1.392 0.82 3.173 2.033 4.539 3.516 1.477 0.284 2.959 0.606 4.406 0.976 0 0-2.675-3.013-6.33-4.349 0 0-0.949-0.109-2.615-0.143zm-3.262 0.039c-1.052 0.045-2.232 0.131-3.502 0.264 0.86 0.484 1.934 1.144 2.99 1.957 1.542 0.176 3.18 0.392 4.86 0.654-1.085-0.957-2.53-2.004-4.348-2.875zm-6.236 0.61c-1.423 0.212-2.925 0.483-4.506 0.841 0 0 2.727 0.065 6.715 0.416-0.63-0.411-1.367-0.834-2.209-1.257zm24.238 3.953-2.463 0.693 20.447 3.367 26.821 20.796 1.76 0.86 0.3-0.45-27.992-23.215-18.873-2.051zm19.258 8.408c-0.414 2.349-0.936 5.059-0.936 8.078 0 0 0.146-0.997 3.19-3.35 0 0 0.214 2.469 1.142 10.32 0.329-1.37 0.539-2.91 3.971-6.343 0 0-0.043 2.857 0.504 8.973 3.071 3.58 12.657 12.8 32.743 17.28 0 0 0.65-0.16 4.88-5.08 0 0 0.18 2.67-0.64 5.81 0.33 0.02 0.7 0.04 1.09 0.05 0.91-1.19 2.42-3.45 4.77-7.76 0 0 0.52 4.39-0.52 7.47 0.18-0.03 0.36-0.06 0.54-0.09 1.11-1.63 2.86-4.45 5.35-9.19 0 0 0.67 1.94 0.23 4.52 0.05-0.05 0.12-0.1 0.17-0.15l-0.08 0.13s4.93-4.03 9.02-10.4l-0.02-0.02c2.68-4.02-2.76-7.73-2.76-7.73s-1.63 2.65-1.44 6.07c-2.29-0.05-5.45 0.76-8.25 2.3-6.95 3.82-21.1 11.62-27.614 6.09-3.643-3.09-4.977-6.32-5.697-11.32l-19.643-15.658zm-12.91 20.438c-3.124 0-8.954 1.14-12.897 8.77-5.337 10.34-2.104 16.87-2.072 16.93 0.02 0.04 2.68 4.35 9.018 7.3 1.542 0.72 4.187 1.22 6.431 1.22 2.456 0 4.114-0.58 4.545-1.59 0.565-1.32 1.379-2.24 2.418-2.73 1.1-0.52 3.16-2.08 3.098-4.25-0.068-2.41 0.536-3.6 1.916-5.36 1.377-1.75 1.225-3 0.859-4.58-0.187-0.81-0.564-1.37-0.931-1.9-0.583-0.86-1.135-1.66-0.541-3.19 0.845-2.17-0.821-4-0.838-4.02-0.73-0.87-2.03-1.3-3.871-1.3-1.538 0-3.054 0.31-3.768 0.49 1.012 0.8 2.036 2 2.084 2.05 0.05 0.06 0.064 0.14 0.039 0.21s-0.086 0.12-0.16 0.14c-0.743 0.14-1.477 0.22-2.182 0.22-4.607 0-6.814-3.04-6.906-3.16-0.034-0.05-0.049-0.12-0.035-0.17 0.014-0.06 0.053-0.11 0.105-0.14 2.59-1.46 5.302-1.76 7.123-1.76 1.099 0 1.921 0.11 2.301 0.17 0.009-0.62-0.315-2.42-4.219-3.24-0.002 0-0.581-0.11-1.517-0.11zm96.194 7.78c-0.9 0-1.95 0.25-3.11 0.74-0.06 0.03-6.16 2.37-11.28 6.58-0.04 0.03-1.28 0.78-1.55 1.92-0.13 0.53-0.02 1.07 0.31 1.6 0.36 0.58 0.9 0.86 1.64 0.86 1.96 0 4.76-2.01 6.11-2.98 0.27-0.2 0.49-0.36 0.65-0.46 0.76-0.49 1.91-1.15 3.15-1.15 0.81 0 1.55 0.29 2.2 0.87 0.05 0.05 0.08 0.12 0.07 0.19-0.01 0.08-0.06 0.14-0.13 0.17-0.07 0.02-6.39 2.84-9.75 5.6-0.17 0.11-3.44 2.15-1.85 4.93 0.46 0.8 1.11 1.19 2.01 1.19 1.56 0 3.42-1.2 4.32-1.77 0.14-0.09 0.25-0.17 0.35-0.23 0.12-0.08 0.3-0.19 0.52-0.34 1.38-0.91 4.24-2.82 6.44-2.82 0.83 0 1.49 0.27 1.96 0.82 0.04 0.05 0.06 0.12 0.05 0.18-0.02 0.07-0.06 0.13-0.12 0.16-0.06 0.02-5.96 2.82-8.24 4.39-0.05 0.02-1.56 0.77-1.98 2.08-0.21 0.65-0.12 1.34 0.26 2.05 0.43 0.79 1.1 1.17 2.03 1.17 1.49 0 3.42-0.98 4.97-1.77 0.32-0.17 0.64-0.33 0.93-0.47l0.2-0.1c1.52-0.75 2.84-1.39 4.07-1.39 0.83 0 1.54 0.3 2.19 0.92 0.05 0.05 0.07 0.12 0.06 0.2-0.01 0.07-0.06 0.12-0.13 0.15-1.58 0.67-6.96 2.99-10.9 5.21 0.3 0.47 1.32 1.72 3.7 1.72 1.08 0 2.3-0.26 3.65-0.78 5.97-2.29 9.61-3.8 9.06-5.74-0.52-1.83-0.22-2.89 0.11-4.02 0.06-0.24 0.14-0.48 0.2-0.74 0.32-1.27 0.61-3.14-0.56-4.74-0.16-0.21-0.31-0.42-0.46-0.61-0.96-1.25-1.72-2.24-1.77-4.9-0.05-2.49-1.14-3.09-2.79-3.99-0.25-0.13-0.5-0.27-0.76-0.42-0.58-0.33-1.06-0.95-1.57-1.6-0.97-1.25-2.07-2.68-4.26-2.68zm-88.595 3.75c0.037 0.01 0.073 0.03 0.102 0.05 1.047 0.94 1.516 1.88 1.389 2.78-0.195 1.39-1.747 2.25-2.217 2.48-0.026 0.01-0.056 0.02-0.086 0.02-0.044 0-0.086-0.02-0.121-0.05-0.059-0.04-0.085-0.12-0.065-0.19 0.833-3.2 0.778-4.87 0.778-4.89-0.003-0.08 0.039-0.15 0.109-0.18 0.035-0.02 0.075-0.02 0.111-0.02zm-1.711 7.83c0.073-0.02 0.145 0.02 0.186 0.08 0.778 1.1 1.016 2.09 0.709 2.92-0.458 1.25-1.984 1.77-2.619 1.94h-0.049c-0.056 0-0.109-0.02-0.146-0.06-0.048-0.06-0.06-0.14-0.03-0.21 0.696-1.57 1.299-3.09 1.793-4.54 0.024-0.07 0.085-0.12 0.156-0.13zm71.116 0.46c-2.4 2.62-1.37 6.29 0.77 8.83 1.96 2.33 2.14 4.79 2.14 5.5 0.34 0.05 0.67 0.07 0.98 0.07 2.89 0 3.7-1.95 3.88-2.6-2.53-0.61-4.23-1.77-5.04-3.46-1.1-2.3-0.21-4.85 0.13-5.65-1.7-0.45-2.56-2.01-2.86-2.69zm-74.303 7.07c0.072 0 0.136 0.03 0.172 0.09 0.634 1.08 0.768 2.02 0.396 2.8-0.673 1.42-2.759 1.76-2.847 1.77-0.01 0.01-0.02 0.01-0.03 0.01-0.062 0-0.124-0.04-0.16-0.09-0.042-0.06-0.045-0.14-0.008-0.2 0.823-1.43 1.601-2.87 2.311-4.28 0.031-0.06 0.095-0.1 0.166-0.1z" fill="#ffcd00"/><path d="m94.23 76.295c-0.295 0.006-0.55 0.021-0.759 0.047-0.664 1.287-1.498 4.29 2.031 7.822 2.025 0.079 4.518 0.311 7.618 0.781 0.09 0.015 0.18 0.031 0.28 0.045-0.48-0.769-0.56-2.133-0.56-3.056 0-1.569 0.8-2.966 2.05-3.885-4.54-1.329-8.598-1.796-10.66-1.754zm19.71 5.217c0.01 0.138 0.02 0.279 0.02 0.422 0 1.651-1.22 3.956-2.57 4.836 1.07 0.334 2 0.679 2.82 1.023 2.7-1.425 2.92-3.627 3.36-5.252-1.28-0.259-2.54-0.643-3.63-1.029zm35.44 1.297c-1.06 0.528-2.17 0.942-3.29 1.273 0.31 0.701 0.44 1.842 0.32 2.652-0.09 0.58-0.3 1.135-0.6 1.639 1.24-0.159 2.42-0.227 3.51-0.187 0.92-2.317 0.45-4.472 0.06-5.377zm-16.98 2.109c0 1.185 0.48 4.531 5.69 4.576-0.55-0.744-0.81-1.858-0.65-3.006 0.06-0.439 0.18-0.86 0.35-1.261-2.28 0.022-4.21-0.158-5.39-0.309zm-37.668 9.947l0.153 0.33s1.472 3.472 4.513 5.665c3.322 2.4 8.122 5.49 17.872 7.89 0 0 3.41-1.03 6.53-3.19 0 0-14.34 0.71-29.068-10.695zm-25.802 3.867l0.289 3.238c0.501 1.4 1.13 2.77 1.869 4.09 0.366-0.47 0.724-0.94 1.058-1.42-2.69-3.57-3.216-5.908-3.216-5.908zm-33.979 3.428c-0.631 0.01-1.292 0.05-1.982 0.13 0 0 5.578 0.71 8.67 5.18 0.771-0.71 1.661-1.39 2.67-1.99-1.944-1.76-4.938-3.39-9.358-3.32zm61.488 3.4l-0.085 0.27s1.978 10.33 12.966 6.23c0 0-4.97-0.52-12.881-6.5zm-22.32 1.45c-0.432 0.58-0.88 1.16-1.355 1.71 0.763 1.09 1.61 2.15 2.519 3.17 0.57-0.68 1.107-1.39 1.606-2.12-1.053-0.96-1.972-1.88-2.77-2.76zm-27.83 0.73c-1.447 1.08-2.682 2.18-3.738 3.28 0.695 0.69 1.39 1.33 2.072 1.88 0.805-1.04 1.725-2.1 2.781-3.16 0 0-0.329-0.86-1.115-2zm32.879 3.99c-0.567 0.8-1.174 1.58-1.82 2.33 0.905 0.88 1.86 1.73 2.861 2.56 0.735-0.94 1.346-1.85 1.855-2.7-1.044-0.74-2.01-1.47-2.896-2.19zm-38.545 1.56c-0.707 0.96-1.295 1.9-1.773 2.84 0.808 0.9 1.624 1.71 2.431 2.41 0.442-1.02 0.981-2.07 1.633-3.14-0.754-0.62-1.523-1.33-2.291-2.11zm43.932 2.32c-0.553 0.9-1.214 1.86-1.991 2.84 0.826 0.61 1.673 1.19 2.543 1.76 0.836-1.01 1.537-2 2.125-2.95-0.938-0.55-1.83-1.1-2.677-1.65zm5.299 3.13c-0.615 0.98-1.344 2.01-2.196 3.06 0.996 0.58 2.017 1.14 3.055 1.68 0.912-1.06 1.671-2.11 2.299-3.1-1.103-0.55-2.153-1.09-3.158-1.64zm-52.219 0.43c-0.098 0.33-0.181 0.66-0.256 0.98-0.211 0.98-0.346 2.01-0.371 3.06 0.84 0.87 1.682 1.62 2.502 2.28 0.104-1.21 0.324-2.52 0.707-3.92-0.853-0.7-1.72-1.5-2.582-2.4zm58.105 2.51c-0.627 1-1.381 2.07-2.273 3.15 1.076 0.5 2.17 0.98 3.273 1.43 0.909-1.08 1.665-2.14 2.287-3.14-1.062-0.44-2.154-0.92-3.287-1.44zm-17.396 0.24l-0.299 0.66c-0.135 0.3-0.278 0.6-0.428 0.89l-0.367 0.72 0.846 0.35c-0.742 2.98-2.058 5.77-3.92 8.31l-0.561 0.76 2.985 1.26 0.322-0.19c1.735-1.01 3.349-2.12 4.83-3.3-0.638 1.29-1.395 2.52-2.268 3.69l-0.568 0.77 0.875 0.37c0.59 0.25 1.183 0.5 1.773 0.75l0.342 0.14 0.323-0.19c3.46-2.01 6.411-4.34 8.781-6.93l0.84 0.35 0.318-0.62c0.163-0.31 0.317-0.63 0.465-0.95l0.324-0.7-3.041-1.28-0.352 0.41c-1.245 1.44-3.113 3.32-5.023 4.95 0.904-1.98 1.541-4.05 1.9-6.2l0.096-0.58-1.766-0.74-0.355 0.43c-1.49 1.83-3.286 3.54-5.361 5.12 1.007-2.11 1.859-4.48 2.347-6.27l0.172-0.63-3.23-1.35zm23.516 2.33c-0.61 1-1.33 2.05-2.186 3.13 1.156 0.42 2.316 0.8 3.476 1.16 0.86-1.08 1.57-2.13 2.13-3.09-1.09-0.35-2.23-0.75-3.42-1.2zm24.87 0.25c-0.16 0.95-1.58 2.27-4.56 2.92-0.29 0.87-0.73 2.04-1.39 3.39 5.06-1.24 6.05-4.96 5.95-6.31zm-18.48 1.83c-0.54 0.96-1.2 2.01-2.01 3.1 1.24 0.32 2.47 0.61 3.7 0.87 0.78-1.1 1.41-2.16 1.92-3.14-1.14-0.22-2.33-0.48-3.61-0.83zm6.74 1.31c-0.48 1-1.09 2.11-1.83 3.26 1.46 0.22 2.78 0.32 3.96 0.32 0.75-1.29 1.28-2.46 1.66-3.42-1.13 0.04-2.39-0.01-3.79-0.16zm-77.322 0.23c0.506 1.62 1.324 3.26 2.566 4.9 0 0-0.492-1.31-0.705-3.48-0.603-0.42-1.227-0.9-1.861-1.42zm54.797 5.5l-0.281 0.11c-0.513 0.2-1.034 0.39-1.563 0.59l-0.264 0.09-0.134 0.25c-0.532 0.98-1.139 1.95-1.805 2.88l-0.186 0.26 0.059 0.32c0.098 0.51 0.189 1.01 0.268 1.51l0.062 0.41 3.621 1.52c-0.576 0.68-1.189 1.35-1.836 2l-2.215-0.93 0.643-0.69-3.006-1.26-0.357 0.38c-0.627 0.67-0.881 0.9-1.561 1.51l-0.871 0.79 6.984 2.94 0.227-0.05c0.695-0.15 1.382-0.3 2.064-0.46l0.2-0.05 0.15-0.14c1.011-0.99 1.962-2.03 2.824-3.12l0.223-0.28-0.078-0.35c-0.113-0.5-0.237-1.01-0.371-1.51l-0.092-0.36-3.586-1.51c0.386-0.56 0.753-1.15 1.094-1.73l2.283 0.96-0.371 0.62 0.791 0.33c0.514 0.22 1.029 0.44 1.547 0.65l0.597 0.26 0.332-0.56c0.378-0.63 0.677-1.13 1.014-1.82l0.348-0.72-6.754-2.84zm5.646 8.3l-0.297 0.67c-0.135 0.3-0.28 0.6-0.429 0.89l-0.36 0.72 0.635 0.27c-1.275 2.3-2.978 4.47-5.068 6.43l-0.27 0.25 0.037 0.37c0.044 0.43 0.082 0.85 0.11 1.27l0.029 0.46 5.25 2.21 0.223-0.04c0.682-0.13 1.355-0.27 2.017-0.41l0.202-0.04 0.16-0.15c2.25-2.1 4.09-4.43 5.45-6.93l0.79 0.34 0.32-0.62c0.15-0.32 0.31-0.63 0.46-0.95l0.32-0.7-3.72-1.57-0.3 0.66c-0.14 0.3-0.28 0.6-0.43 0.89-1.24 2.41-2.93 4.66-5.025 6.71l-2.151-0.9c2.008-2.05 3.636-4.28 4.846-6.66 0.16-0.32 0.32-0.64 0.46-0.96l0.32-0.7-3.579-1.51zm-52.248 3.97s0.991 1.9 3.35 4.44c0.291-0.31 0.568-0.62 0.838-0.92-2.724-2.04-4.188-3.52-4.188-3.52zm6.348 5.05c-0.37 0.41-0.75 0.82-1.143 1.23 0.828 0.75 1.764 1.54 2.819 2.33 0.506-0.52 0.996-1.05 1.463-1.58-1.14-0.68-2.194-1.34-3.139-1.98zm5.545 3.33c-0.526 0.59-1.084 1.17-1.656 1.75 0.986 0.63 2.059 1.25 3.214 1.85 0.636-0.67 1.216-1.34 1.745-1.99-1.162-0.52-2.263-1.06-3.303-1.61zm5.922 2.72c-0.558 0.68-1.17 1.38-1.832 2.08 0.835 0.36 1.706 0.71 2.619 1.04 0.715-0.71 1.367-1.41 1.967-2.1-0.95-0.32-1.864-0.66-2.754-1.02zm5.576 1.89c-0.604 0.71-1.259 1.42-1.969 2.14 0.231 0.07 0.457 0.14 0.694 0.21 0.851 0.23 1.668 0.43 2.472 0.63 0.763-0.72 1.461-1.44 2.1-2.14-1.133-0.25-2.228-0.53-3.297-0.84zm25.297 1.21c-1.393 0.25-2.754 0.43-4.1 0.58-0.527 0.68-1.112 1.39-1.748 2.11 4.223-0.98 5.848-2.69 5.848-2.69zm-18.914 0.21c-0.639 0.73-1.331 1.47-2.09 2.22 1.211 0.23 2.356 0.41 3.445 0.55 0.828-0.78 1.579-1.55 2.262-2.3-1.236-0.12-2.438-0.28-3.617-0.47zm11.064 0.66c-1.376 0.05-2.718 0.05-4.037 0.01-0.67 0.79-1.408 1.59-2.217 2.41 1.48 0.07 2.822 0.06 4.037-0.01 0.818-0.82 1.555-1.63 2.217-2.41z" fill="#fff" transform="translate(-.000045776)"/></g></svg>
