<svg xmlns="http://www.w3.org/2000/svg" width="250" height="197.73" viewBox="0 0 250 197.73">
 <g>
  <path d="m119.74 73.87-0.0379-0.06388c0.037 0.05525 0.056 0.08988 0.0679 0.11275zm105.48 91.575-14.294-84.179-33.692 59.825-17.524-31.979c2.8546-0.52691 5.5531-1.86 7.8628-3.925 3.8414-3.436 6.1495-8.5789 6.1352-13.758-0.0394-14.29-16.764-18.855-16.764-18.855s0.28317 9.4324-4.5655 11.235c-0.96785 0.36049-2.1944 0.8803-3.406 1.2652 2.6022-3.9858 4.0212-8.8321 3.996-13.91-0.0252-5.0759-2.409-13.274-9.0428-19.674-5.8939-5.6872-13.802-8.534-22.889-8.265-1.5105 0.04738-3.0188 0.19641-4.5095 0.44488l1.7859-10.75c4.127-17.769 23.496-26.635 23.496-26.635l-41.934 0.0245c-3.985 0-7.4904 3.0369-8.011 6.9256l-2.614 18.35-18.798-30.656-18.722 30.678-2.678-18.391c-0.52928-3.8801-4.03-6.9075-8.0062-6.9075l-40.329-0.023625s18.271 10.479 21.758 25.86l14.521 84.179 33.465-59.826 21.105 38.515c-6.0154 7.0393-9.3938 16.054-9.3938 25.36 0 21.531 17.516 39.047 39.048 39.047 3.1181 0 6.2134-0.37467 9.2194-1.1075l-1.0562 6.3561c-3.4281 15.092-24.062 26.636-24.062 26.636l42.501-0.0245c3.9826 0 7.4865-3.0338 8.0102-6.9192l2.6149-18.358 18.798 30.658 18.722-30.678 2.678 18.386c0.52849 3.8825 4.0291 6.9114 8.0062 6.9114l42.068 0.10488s-17.854-7.9052-23.496-25.941" fill="#f0b323"/>
  <path d="m219.42 166.66-11.526-69.25-30.55 55.79h-0.22638l-28.711-52.391c1.3685 0.96391 3.7452 2.1724 7.421 2.5841 6.5532 0.73437 11.96-5.3654 11.96-11.96 0-4.9465-2.9194-9.871-7.309-11.02 1.6722 19.365-52.092 5.1311-51.248 38.109 0.86294 17.48 25.738 17.41 23.942 1.8545-14.746 0.0796-10.278-16.488 0.89529-14.214l0.1901 0.14592c3.7255 3.4596 5.8868 8.5955 5.8868 14.069 0 10.44-8.493 18.932-18.931 18.932-10.44 0-18.888-8.3312-18.932-18.932-0.0457-10.601 4.7849-19.524 18.885-27.12-3.3043-1.882-11.696-6.6109-11.926-17.958h0.0134c0-6.5942 5.3811-11.96 11.96-11.96 4.7825 0 8.7572 3.839 8.7572 8.5442 0 4.7051-3.8288 8.6168-8.534 8.534-4.7478-0.08363-6.7348-3.4336-6.7552-3.4684 0.0213 6.8672 6.2449 11.9 12.487 12.454 12.103 1.0751 19.932-7.5528 19.879-18.208-0.0355-7.0629-6.7355-22.644-25.832-22.055-4.3746 0.13568-8.4985 1.2739-12.127 3.1899l3.4139-20.559c3.3302-14.586 12.621-19.558 12.621-19.558l-25.254 0.01262c-1.1319 0-2.0366 0.90474-2.1495 1.8095l-4.9789 34.96h-0.2256l-22.056-37.971-21.955 37.971h-0.22639l-5.0916-34.96c-0.112-0.90475-1.1311-1.8095-2.1486-1.8095l-25.2-0.01262s8.9402 4.777 12.427 18.719l11.526 69.251 30.549-55.79h0.22638l28.27 51.586c-6.6022 6.0603-10.754 14.749-10.754 24.395 0 18.269 14.862 33.131 33.131 33.131 6.1186 0 11.851-1.6738 16.775-4.5774l-2.805 16.892c-3.3302 14.586-12.621 19.558-12.621 19.558l25.254-0.0126c1.1311 0 2.0366-0.90476 2.1486-1.8102l4.9789-34.959h0.22639l22.055 37.97 21.955-37.97h0.22639l5.0916 34.959c0.11275 0.90554 1.1319 1.8102 2.1495 1.8102l25.199 0.0126s-8.9394-4.7777-12.426-18.72" fill="#115740"/>
 </g>
</svg>