<svg xmlns="http://www.w3.org/2000/svg" height="47.468" viewBox="0 0 242.87506 47.468022" width="242.88"><g transform="matrix(1.25 0 0 -1.25 -208.46 469.96)"><g transform="matrix(.5625 0 0 .5625 115.8 156.51)"><path d="m40.324 0c-7.831 0-10.17 5.1833-11.717 8.6133l-27.716 61.58-0.041016 0.08789-0.033203 0.08984c-1.1738 3.0862-1.0809 5.6445 0.27539 7.6133 0.89375 1.2975 2.7485 2.8438 6.5098 2.8438h73.297 2.0645l0.86328-1.875 6.1816-13.443 2.1016-4.5684h-0.0098l0.0039-0.0059 2.0957-4.5703h-5.0254-16.959-2.2051l-0.79883 2.0566-0.97852 2.5195h-29.824c-1.2988 0-1.6005-0.46203-1.6992-0.61328-0.425-0.65625-0.42359-1.9674 0.0039-2.9199l10.717-23.791 12.314 2.0938c27.022 4.5975 44.58 13.813 54.551 20.734 10.789 7.4875 15.266 13.979 15.311 14.043l6.6016 9.7109-0.77539-11.41-1.0801-15.877 14.324-4.7324-6.6016 14.66c-2.2125 4.9138-4.5051 9.9945-1.8926 14.033 1.72 2.6638 5.0825 3.9551 10.281 3.9551h57.557c13.596 0 17.416-8.4886 20.486-15.309l27.44-60.973 2.05-4.547h-4.9863-23.014-2.082l-0.85742 1.8984-24.172 53.672c-0.0175 0.0375-2.5501 5.3711-7.2676 5.3711h-20.68c-0.71625 0-1.053-0.11602-1.168-0.16602-0.14-0.44625 0.0784-1.6987 0.46093-2.5762l24.17-53.65 2.05-4.549h-4.99-23.01-2.08l-0.86 1.8984-17.95 39.86-0.26-0.061c-5.7538-1.3462-11.794-2.6008-17.984-3.7383l-1.4785-21.689-0.57422-8.4316-5.1797 6.9883-14.553 19.619c-21.195-3.141-39.429-4.161-51.13-4.461l-11.215-0.28516 3.1133-6.9141c0.0063-0.015 1.4133-2.8984 3.5195-2.8984h31.795l-0.10742 0.2793-1.7051 4.3906h4.7109 16.629 2.0664l0.86328-1.8809 1.2773-2.7891 0.8711-1.8789 6.17-13.442 2.09-4.566h-5.02-75.146zm344.53 0-0.96875 1.2793-56.164 74.387-3.8984 5.166h6.4746 25.541 1.6055l0.96679-1.2832 12.207-16.17h28.316l0.4668 14.332 0.10351 3.1211h3.1211 22.27 3.3301l-0.10743-3.3281-2.45-74.387-0.1-3.117h-3.1211-35.996-1.6035zm-108.75 0.0019531c-7.8312 0-10.17 5.1813-11.719 8.6113l-16.58 36.818-2.0469 4.5469h4.9844 52.646l-4.9395 10.963h-33.887l0.002-0.0059 2.0976-4.5703h-5.0273-16.959-2.2051l-0.80078 2.0566-1.7656 4.5508-2.9668 6.5898-0.1289 0.29688c-1.0912 2.4988-2.4438 5.6123-0.6875 8.291 1.7538 2.6775 5.3124 2.6777 6.4824 2.6777h69.139c7.8338 0 10.172-5.1827 11.719-8.6152l16.924-37.572 2.0488-4.5508h-4.9863-52.65l4.5938-10.199h33.875l-0.10742 0.27344-1.707 4.3926h4.7109 16.631 2.0664l0.86328-1.877 1.2793-2.7891h0.0176l0.86329-1.9023 3.0234-6.7207 0.1211-0.2793c1.0938-2.5062 2.4523-5.6223 0.69726-8.3086-1.7562-2.6775-5.3112-2.6777-6.4824-2.6777h-69.139zm121.65 27.437l0.53125 16.129h-12.709l12.18-16.129z" transform="matrix(.8 0 0 -.8 91.832 388.51)" fill="#bbbcbc"/><path d="m194.8 375.35 1.303-19.13c5.384-0.957 10.803-2.055 16.159-3.308l-15.58-5.145 0.984-14.434s-14.473 21.546-57.571 28.877c10.316-0.263 25.102-1.166 42.157-3.778l12.548 16.918z" fill="#75787b"/><path d="m40.324 3.2246c-5.755 0-7.2675 3.3612-8.7812 6.7188l-8.5918 19.088 22.748 0.57812 3.6699-8.1484s2.144-4.7969 6.459-4.7969h36.504l-1.8105 4.668h16.629l2.1406-4.668h0.008l6.168-13.439h-75.143zm-17.549 26.199-18.945 42.094c-0.47 1.235-2.2273 6.0879 3.7715 6.0879h73.297l6.1797-13.441h-0.0039l2.0996-4.5742h-16.959l-1.7773 4.5742h-32.029c-5.355 0-5.9787-5.0735-4.6387-8.0723l10.375-23.033-21.369-3.6348z" transform="matrix(.8 0 0 -.8 91.832 388.51)" fill="#003865"/><path d="m172.46 3.2246-17.691 39.283 6.4922 1.5156-8.4297 2.7832-7.8184 17.357c-3.0275 6.7213-6.0394 13.441 5.4531 13.441h57.557c11.531 0 14.538-6.7202 17.562-13.441l27.443-60.939h-23.014l-24.174 53.67s-3.2738 7.2695-10.205 7.2695h-20.68c-6.925 0-3.6562-7.2695-3.6562-7.2695l24.176-53.67h-23.016zm103.64 0c-5.755 0-7.2702 3.3607-8.7852 6.7207l-16.576 36.807h57.631l-7.8398 17.412h-41l2.1016-4.5742h-16.959l-1.7969 4.6309-3.002 6.666c-1.4625 3.3688-3.0734 6.7188 2.7266 6.7188h69.139c5.7538 0 7.2662-3.36 8.7812-6.7188l16.924-37.572h-57.639l7.5-16.646h40.67l-1.8164 4.6641h16.631l2.1426-4.6641h0.006l3.0254-6.7227c1.4662-3.37 3.0704-6.7207-2.7246-6.7207h-69.139zm110.36 0-56.16 74.383h25.543l13.172-17.451h33.043l0.57032 17.451h22.27l-2.4414-74.383h-35.996zm14.217 14.994 0.93945 28.572h-22.51l21.57-28.572z" transform="matrix(.8 0 0 -.8 91.832 388.51)" fill="#a6192e"/></g></g></svg>
