<svg width="132" height="141" viewBox="0 0 88 94" xmlns="http://www.w3.org/2000/svg"><path fill="#afafaf" d="M43.5021 1.23193V91.6955L64.4273 83.4304L68.6148 71.3652L73.3894 79.9404L73.3739 80.0116L86.3347 75.1177L84.8831 72.1742V21.0299L86.3346 18.0872L77.6016 14.6527V61.3241L73.397 62.1328V13.0032L63.5614 9.12407V64.0217L57.7396 65.1402V6.84063L43.5026 1.23197L43.5021 1.23193ZM13.6305 12.9236L13.615 12.9948L18.3896 21.5621L21.3966 13.0107L13.6304 12.9239L13.6305 12.9236ZM29.2651 27.7959L23.4432 28.9145V83.8026L29.2651 82.1852V27.796V27.7959ZM13.4726 30.8261L9.40283 31.6023V78.2658L13.6074 77.3704V30.8417L13.4726 30.8262V30.8261Z"/><path fill="#4f2d7f" d="M43.502 1.23193L22.5768 9.497L22.6094 9.53728L18.3893 21.562L13.6147 12.9868L13.6302 12.9233L0.669434 17.8173L2.12106 20.7593V71.8972L0.669434 74.8407L9.40248 78.266V31.6025L13.607 30.8016V79.9256L23.4426 83.8032V28.9151L29.2645 27.7965V86.0962L43.5015 91.6961V1.23257L43.502 1.23193ZM63.5611 9.12356L57.7392 10.7424V65.1396L63.5611 64.021V9.12341V9.12356ZM77.6014 14.6526L73.3968 15.5651V62.1327L77.6014 61.324V14.6526ZM68.6145 71.3659L65.6168 79.9157L73.3737 80.0118L73.3891 79.9405L68.6145 71.3653V71.3659Z"/></svg>