<svg xmlns="http://www.w3.org/2000/svg" width="248" height="72.612" viewBox="0 0 248 72.612">
 <g transform="matrix(1.3333 0 0 -1.3333 -157.04 502.04)">
  <g>
   <path d="m186.76 375.68-52.534-40.726h15.551l8.6001 6.5889 25.9 6.4043-3.7881-12.98 12.028 0.02491 11.354 40.688h-17.111zm38.057-0.00586c-2.2091 0-13.38-0.26651-16.198-8.8257l-6.5142-19.8c-1.9164-7.4347 3.0937-12.088 9.9375-12.088h28.976l3.1128 9.4556h-24.456c-3.832 0-6.5678 1.5178-5.6309 5.02l4.4604 13.578c0.91062 1.9588 2.8222 3.2022 5.2134 3.2022h18.223l14.335 9.4585h-31.459zm46.676 0c-2.2091 0-13.382-0.26651-16.2-8.8257l-6.5127-19.8c-1.9184-7.4347 3.0937-12.088 9.9375-12.088h28.975l3.1142 9.4556h-24.457c-3.8314 0-6.5678 1.5178-5.6309 5.02l4.4604 13.578c0.90994 1.9588 2.8222 3.2022 5.2134 3.2022h18.223l14.335 9.4585h-31.458zm-82.118-10.264-4.437-15.199h-15.272l19.709 15.199z" fill="#013ca6"/>
   <path d="m283.91 322.73 2.2644 6.8823h-158.85l-8.8776-6.8823z" fill="#a8a9aa"/>
  </g>
 </g>
</svg>