<?xml version="1.0" encoding="UTF-8" standalone="no"?>
<svg xmlns:rdf="http://www.w3.org/1999/02/22-rdf-syntax-ns#" xmlns="http://www.w3.org/2000/svg" enable-background="new 0 0 233.333 257.677" xml:space="preserve" height="257.68px" viewBox="0 0 233.333 257.677" width="233.33px" version="1.1" y="0px" x="0px" xmlns:cc="http://creativecommons.org/ns#" xmlns:dc="http://purl.org/dc/elements/1.1/"><g style=""><g fill="none"><rect height="215.01" width="233.33" y="0" x="0"/><rect height="215.01" width="227.39" y="0" x="0"/><rect height="215.01" width="233.33" y="0" x="0"/></g><path fill="#0d2647" d="m46.355 215.21l-7.97 17.03h14.91c0.682 0 1.268-0.42 1.547-1.04l6.076-13.11c0.126-0.27 0.185-0.57 0.18-0.89-0.009-1.09-0.839-1.99-1.846-1.99h-12.897zm-10.466 0l-7.805 17.03h5.639l7.808-17.03h-5.642zm59.554 0l-7.873 17.03h5.567l6.125-13.18h3.318l-6.113 13.18h5.633l6.13-13.18h3.37l-6.2 13.18h5.64l7.96-17.03h-23.557zm46.817 0l-7.92 17.03h5.57l2.48-5.35h2.2l2.11 5.35h5.1l-2.1-5.35h3.14l4.05-8.8c0.12-0.27 0.18-0.57 0.18-0.89-0.02-1.09-0.84-1.99-1.84-1.99h-12.97zm20.18 0l-7.81 17.03h5.65l7.81-17.03h-5.65zm10.35 0c-0.68 0-1.28 0.43-1.56 1.05l-6.07 13.11c-0.11 0.27-0.18 0.57-0.18 0.88 0.02 1.11 0.84 2 1.85 2h11.91c0.69 0 1.28-0.43 1.56-1.05l1.3-2.8h-10.42l4.33-9.34h4.86l-2.39 5.2h5.57l2.83-6.17c0.1-0.27 0.18-0.57 0.18-0.89-0.02-1.09-0.85-1.99-1.86-1.99h-11.91zm39.83 0l-7.95 17.03h5.57l6.12-13.18h4.85l-6.18 13.18h5.63l6.55-14.15c0.13-0.27 0.19-0.57 0.18-0.89-0.01-1.09-0.83-1.99-1.85-1.99h-12.92zm-207.92 0.01l1.3907 3.88-6.0938 13.14h5.5664l6.1196-13.18h3.328l-6.1214 13.18h5.6364l6.121-13.18h3.371l-6.193 13.18h5.639l7.959-17.02h-26.723zm118.79 0l-7.91 17.02h14.64l1.71-3.84h-9l1.09-2.36h7.04l1.78-3.84h-7.04l1.47-3.14h8.97l1.71-3.84h-14.46zm-47.199 0.11c-1.055 0-2.011 0.65-2.441 1.58l-7.082 15.33h5.529l2.33-4.99h4.924l-2.352 4.99h5.596l7.826-16.91h-14.33zm117.36 0c-1.05 0-2 0.65-2.44 1.58l-7.08 15.33h5.53l2.33-4.99h4.93l-2.36 4.99h5.6l7.82-16.91h-14.33zm-115.21 3.58h4.968l-2.158 4.75h-4.949l2.139-4.75zm117.36 0h4.97l-2.16 4.75h-4.95l2.14-4.75zm-145.73 0.15h4.848l-4.328 9.34h-4.857l4.337-9.34zm95.964 0h4.86l-1.88 4h-4.83l1.85-4zm-83.573 4l-1.779 3.84h4.812l1.795-3.84h-4.828zm-40.801 17.59c-0.681 0-1.272 0.42-1.556 1.04l-6.077 13.11c-0.118 0.27-0.175 0.57-0.175 0.88 0.014 1.11 0.84 2 1.851 2h11.906c0.688 0 1.272-0.43 1.557-1.05l1.301-2.79h-10.426l4.342-9.35h4.851l-2.382 5.2h5.57l2.82-6.17c0.114-0.27 0.19-0.57 0.182-0.88-0.014-1.1-0.845-1.99-1.846-1.99h-11.918zm19.682 0c-0.691 0-1.28 0.42-1.565 1.04l-6.08 13.11c-0.116 0.27-0.173 0.56-0.173 0.88 0.013 1.11 0.842 2 1.845 2h11.92c0.682 0 1.27-0.43 1.555-1.05l6.074-13.11c0.113-0.27 0.181-0.57 0.176-0.88-0.014-1.1-0.841-1.99-1.842-1.99h-11.91zm19.228 0l-7.955 17.03h5.573l6.115-13.19h4.851l-6.183 13.19h5.633l6.562-14.16c0.112-0.27 0.177-0.57 0.172-0.89-0.012-1.09-0.832-1.98-1.842-1.98h-12.926zm20.487 0l-7.981 17.03h5.649l2.797-6.2h7.056l1.774-3.84h-7.043l1.461-3.15h8.98l1.705-3.84h-14.398zm18.863 0l-7.93 17.03h14.644l1.71-3.84h-9.006l1.096-2.36h7.04l1.78-3.84h-7.04l1.46-3.15h8.98l1.71-3.84h-14.444zm19.094 0l-7.91 17.03h5.57l2.48-5.36h2.19l2.11 5.36h5.1l-2.09-5.36h3.14l4.05-8.8c0.12-0.27 0.17-0.57 0.17-0.89-0.01-1.09-0.84-1.98-1.84-1.98h-12.97zm20.6 0l-7.93 17.03h14.65l1.71-3.84h-9.01l1.1-2.36h7.04l1.78-3.84h-7.04l1.46-3.15h8.98l1.71-3.84h-14.45zm19.15 0l-7.96 17.03h5.58l6.11-13.19h4.86l-6.19 13.19h5.63l6.57-14.16c0.11-0.27 0.18-0.57 0.17-0.89-0.01-1.09-0.83-1.98-1.84-1.98h-12.93zm21.19 0c-0.69 0-1.28 0.42-1.56 1.04l-6.08 13.11c-0.11 0.27-0.17 0.57-0.17 0.88 0.02 1.11 0.83 2 1.85 2h11.91c0.68 0 1.27-0.43 1.55-1.05l1.3-2.79h-10.42l4.34-9.35h4.85l-2.38 5.2h5.57l2.82-6.17c0.11-0.27 0.19-0.57 0.18-0.88-0.02-1.1-0.85-1.99-1.85-1.99h-11.91zm19.38 0l-7.93 17.03h14.64l1.71-3.84h-9l1.09-2.36h7.05l1.78-3.84h-7.04l1.46-3.15h8.98l1.71-3.84h-14.45zm-155.28 3.84h4.851l-4.338 9.35h-4.851l4.338-9.35zm78.725 0h4.86l-1.88 3.99h-4.83l1.85-3.99z"/><path fill="#fff" d="m2.694 30.9c4.591 75.7 48.302 140.85 111.2 175.48 62.88-34.63 106.59-99.78 111.18-175.48-32.45-19.609-70.49-30.9-111.18-30.9-40.696 0-78.742 11.291-111.2 30.9"/><path fill="#0d2647" d="m157.11 73.456c1.066-2.27 3.41-3.873 5.996-3.873h35.926l-10.383 22.921h-14.138l6.433-14.137h-12.164l-10.936 23.855h42.781c9.35-20.896 15.1-43.525 16.48-67.226-29.87-17.468-65.26-27.593-103.22-27.593-37.963 0-73.366 10.125-103.23 27.598 1.375 23.525 7.034 46.001 16.274 66.771l10.706-23.298-3.859-8.889h66.926l-19.215 41.422h-14.138l15.216-32.638h-8.436l-15.049 32.638h-14.142l15.045-32.638h-8.341l-15.04 32.638h-5.249c18.086 35.564 46.862 65.575 82.528 86.479 35.668-20.904 64.44-50.915 82.526-86.479h-56.631l17.332-37.549z"/><path fill="#fff" d="m113.89 16.982c-32.56 0-64.637 8.219-93.023 23.756 0.682 6.36 1.701 12.64 3.002 18.84h180.04c1.3-6.2 2.32-12.482 3-18.842-28.39-15.537-60.46-23.754-93.02-23.754zm-65.335 104.42c16.092 26.1 38.344 48.43 65.335 64.65 26.99-16.22 49.24-38.54 65.33-64.65h-130.66z"/><path fill="#00a160" d="m77.664 26.895c-17.374 3.418-34.22 9.26-49.959 17.41 0.415 3.174 0.926 6.331 1.5 9.463h49.826c-0.695-8.767-1.169-17.749-1.367-26.873zm72.466 0.001c-0.2 9.122-0.68 18.106-1.37 26.872h49.82c0.57-3.137 1.08-6.29 1.5-9.467-15.73-8.145-32.58-13.989-49.95-17.405zm-89.745 100.89c11.136 15.79 24.749 29.88 40.405 41.71-2.922-9.8-6.863-24.16-10.673-41.71h-29.732zm77.285 0c-3.81 17.54-7.74 31.9-10.67 41.69 15.65-11.82 29.27-25.9 40.4-41.69h-29.73z"/><path fill="#aeafaa" d="m94.883 33.037l-6.738 14.682h3.794l6.737-14.682h-3.793zm8.617 0c-1.17 0-2.22 0.716-2.72 1.736l-2.411 5.231c-0.082 0.169-0.13 0.357-0.144 0.551-0.067 0.822 0.546 1.484 1.367 1.484h5.498l-1.26 2.729h-7.312l-1.381 2.951 9.223-0.024c1.17 0 2.22-0.716 2.72-1.732l5.02-10.883c0.07-0.173 0.13-0.36 0.14-0.555 0.07-0.822-0.54-1.488-1.37-1.488h-7.37zm14.33 0c-1.17 0-2.22 0.716-2.72 1.736l-2.41 5.231c-0.08 0.168-0.13 0.357-0.15 0.551-0.06 0.822 0.55 1.484 1.37 1.484h5.5l-2.58 5.666 3.78-0.01 6.73-14.658h-3.79l-2.77 6.049h-3.86l2.77-6.049h-1.87zm24.01 0l-9.23 0.025c-1.17 0-2.22 0.718-2.71 1.733l-5.02 10.883c-0.08 0.171-0.14 0.355-0.16 0.554-0.06 0.822 0.55 1.487 1.38 1.487h7.37c1.17 0 2.23-0.718 2.73-1.733l2.4-5.23c0.08-0.174 0.13-0.36 0.15-0.555 0.06-0.82-0.55-1.484-1.37-1.484h-5.5l1.26-2.725h7.31l1.39-2.955zm-37.83 2.959h3.87l-1.42 3.09h-3.86l1.41-3.09zm26.5 5.674h3.86l-1.41 3.09h-3.86l1.41-3.09zm-16.62 90.17l-3.01 9.28h-9.76l7.89 5.74-3.01 9.27 7.89-5.73 7.89 5.73-3.01-9.27 7.89-5.74h-9.76l-3.01-9.28z"/><path fill="#0d2647" d="m168.85 174.5h-1.604l-1.964 4.405h-1.52l1.965-4.405h-1.607l0.543-1.217h4.73l-0.543 1.217zm6.076 4.405h-1.506l1.953-4.397h-0.16l-2.752 3.08h-1.06l-0.005-3.135h-0.204l-1.981 4.452h-1.431l2.505-5.622h2.45l-0.089 2.746 2.408-2.746h2.373l-2.501 5.622z"/><path fill="#fff" d="m114.08 69.583c-2.582 0-4.928 1.602-5.989 3.873l-17.337 37.549h13.961l5.7-12.222h12.077l-5.78 12.222h14.133l19.161-41.422h-35.926zm12.554 20.411h-12.115l5.24-11.627h12.165l-5.29 11.627z"/></g></svg>
