<svg id="Layer_1" data-name="Layer 1" xmlns="http://www.w3.org/2000/svg" width="3.58625in" height="0.94979in" viewBox="0 0 258.20979 68.3847">
  <g>
    <path d="M146.7263,42.9366l14.0906-21.3855.758,21.3855Zm56.39289-.2937,14.0689-21.3059.7036,21.3059Zm36.3053,25.7418-4.5497-66.5756h-36.4754l-4.303,15.2071h5.6518L181.7456,45.5793,179.219,1.8091H142.2058l-4.2012,15.1453,5.6478.0618L119.4873,53.6814,99.593,53.6053c-2.0845,0-10.1323-1.9322-10.1323-11.89,0-9.9617,9.4906-24.4307,19.1334-24.4307l4.0384.098c-.6813,2.4503-2.1062,7.5543-2.1062,7.5543h17.7124l6.3761-23.1278L107.22,1.7072C91.2298,1.5623,76.6175,13.9166,72.2779,26.4464L79.3976,1.816,55.0842,1.8091,50.796,17.0162l6.2896-.0218L50.7525,39.2679,34.8744,1.8921H12.1293L7.8594,17.0305h6.2348L0,68.363H18.1905s6.9976-25.4373,8.7993-31.9875C29.5564,42.5667,40.2251,68.363,40.2251,68.363l20.2424-.007,9.2621-32.5936a45.09927,45.09927,0,0,0-.0109,14.95C71.4952,61.3995,81.8989,68.363,93.2421,68.363H129.982l6.3005-9.5484h25.9194l.529,9.4505H185.701l5.8545-9.4505h26.5028l1.0333,9.5484Z" style="fill: #005cb9"/>
    <path d="M242.78859,8.4285a6.86052,6.86052,0,1,1,13.7174,0,6.8615,6.8615,0,1,1-13.7174,0Zm6.873,8.4715a8.451,8.451,0,1,0-8.5803-8.4715A8.43772,8.43772,0,0,0,249.66159,16.9Zm-1.7834-7.7971h1.6964l2.574,4.2194h1.66031l-2.78761-4.2956a2.5369,2.5369,0,0,0,2.5448-2.6758c0-1.9283-1.1421-2.7727-3.44419-2.7727h-3.71561v9.7441h1.4719Zm0-1.2618V4.8285h2.02271c1.02249,0,2.12059.225,2.12059,1.4319,0,1.5006-1.1273,1.5807-2.3817,1.5807Z" style="fill: #005cb9"/>
  </g>
</svg>
