<?xml version="1.0" encoding="UTF-8" standalone="no"?>
<svg xmlns:rdf="http://www.w3.org/1999/02/22-rdf-syntax-ns#" xmlns="http://www.w3.org/2000/svg" xml:space="preserve" height="77.184" viewBox="0 0 191.01071 77.184097" width="191.01" version="1.1" xmlns:cc="http://creativecommons.org/ns#" xmlns:dc="http://purl.org/dc/elements/1.1/"><g transform="matrix(1.25 0 0 -1.25 -286.52 533.39)"><g style="" transform="matrix(.25 0 0 .25 229.21 296.88)"><g fill="#000007"><path d="m65.624 450.08s-18.575 0.0419-34.375-0.0196v33.028c27.597 0.0406 36.017-0.0503 52.394-0.01-9.5838-17.717-9.7613-18.075-18.019-32.999zm-65.624 63.94v-190.61h30.677c0.19422 0.3466 0.39263 0.7154 0.57148 1.041-0.08104 49.543 0 94.801 0 94.801s17.942 0.021 52.002 0.021c3.8187 7.2825 32.763 59.427 52 94.75h-135.25"/><path d="m181.63 482.69c0.0209-0.01 10.011-17.717 17.871-32.63h-35.349c8.4157 15.8 17.407 32.917 17.478 32.63zm-34.491-63.455c13.968-0.0209 51.184 0 69.28 0 19.074-34.498 37.802-68.626 52.699-95.832h35.532c-36.512 66.811-93.791 171.33-104.89 190.6 0 0 0.1984 0.021-0.0307 0.021-1.3316 0.0307-27.99 0-35.197 0-0.0657 0.0195 0.204 0.01-0.081 0.0195-11.11-19.28-68.307-123.83-104.76-190.64h34.726c14.903 27.195 33.646 61.323 52.721 95.832"/><path d="m364.61 419.23c-11.899 0-21.196 0.0419-31.427 0.0419v-30.561c-16.509 29.173-20.217 37.63-52.031 94.404 24.164 0 25.629-0.0112 52.031-0.0112 0.0517-11.097 0-21.42 0-33.088 15.779 0 31.296 0.0908 31.296 0.0908 0 38.915 0.008 63.926 0 63.926-21.111 0-59.744 0.0405-135.33 0 0 0-0.3675 0.0307-0.3116-0.0517 33.469-59.6 76.452-138.32 105.03-190.57h30.849c-0.0461 41.986-0.1118 88.906-0.1118 95.821"/><path d="m36.885 277.94c0-3.081-2.4382-5.6002-5.6002-5.6002h-25.684c-3.0203 0-5.601 2.52-5.601 5.6v24.604c0 3.0894 2.5807 5.6086 5.6002 5.6086h25.684c3.162 0 5.6002-2.5192 5.6002-5.6086v-6.6719l-7.467-1.2142v7.242h-21.951v-23.246h21.951v7.3258l7.467-1.2966v-6.7432"/><path d="m70.137 278.66h27.275v23.246h-27.275v-23.246zm-1.7899-6.3142c-3.0852 0-5.6659 2.5192-5.6659 5.6002v24.604c0 3.0894 2.5807 5.6086 5.6659 5.6086h30.923c3.0908 0 5.6002-2.5192 5.6002-5.6086v-24.604c0-3.081-2.5095-5.6002-5.6002-5.6002h-30.923"/><path d="m165.33 272.34-27.195 26.551v-26.551h-7.4656v35.813h7.4656l27.195-26.479v26.479h7.5271v-35.813h-7.5271"/><path d="m233.32 301.9h-27.198v-8.5359h14.927v-6.3044h-14.927v-14.72h-7.4571v35.813h34.655v-6.2527"/><path d="m257.04 272.34v35.813h34.66v-6.2527h-27.205v-8.5359h14.93v-6.3044h-14.93v-8.4059h27.205v-6.3142h-34.66"/><path d="m327.02 293.16h21.033c0.6414 0 0.9278 0.7154 0.9278 0.9991v6.7432c0 0.6525-0.5757 0.999-0.9278 0.999h-21.033v-8.7413zm0-20.819h-7.46v35.813h31.288c3.1578 0 5.5946-2.5192 5.5946-5.6086v-10.108c0-3.0125-2.4368-5.529-5.5946-5.529h-7.1037l16.068-14.568h-10.045l-15.93 14.568h-6.8172v-14.568"/><path d="m385.45 272.34v35.813h34.66v-6.2527h-27.199v-8.5359h14.924v-6.3044h-14.924v-8.4059h27.199v-6.3142h-34.66"/><path d="m480.56 272.34-27.195 26.551v-26.551h-7.4613v35.813h7.4613l27.195-26.479v26.479h7.5382v-35.813h-7.5382"/><path d="m550.77 277.94c0-3.081-2.4368-5.6002-5.589-5.6002h-25.694c-3.0153 0-5.5904 2.5192-5.5904 5.6002v24.604c0 3.0894 2.5751 5.6086 5.5904 5.6086h25.694c3.1522 0 5.589-2.5192 5.589-5.6086v-6.6719l-7.4557-1.2142v7.242h-21.961v-23.246h21.961v7.3258l7.4557-1.2966v-6.7432"/><path d="m576.58 272.34v35.813h34.656v-6.2527h-27.2v-8.5359h14.933v-6.3044h-14.933v-8.4059h27.2v-6.3142h-34.656"/></g><path d="m611.18 354.52-107.45 0.008 100.74 102.33v42.197s-36.642 20.274-78.136 20.274c-41.486 0-72.131-20.274-72.131-20.274v-43.699h32.618l-0.0195 22.637s5.8182 10.106 39.533 10.106c33.723 0 43.402-11.966 43.402-11.966l-0.0182-9.3253-115.51-112.45v-30.705h131.82c10.052 11.512 25.156 30.86 25.156 30.86" fill="#004b91"/><path d="m394.18 323.66h31.236v191.12s-15.617-2.3069-31.236-15.728v-175.4" fill="#004b91"/></g></g></svg>
