<?xml version="1.0" encoding="UTF-8" standalone="no"?>
<svg
   xmlns:dc="http://purl.org/dc/elements/1.1/"
   xmlns:cc="http://creativecommons.org/ns#"
   xmlns:rdf="http://www.w3.org/1999/02/22-rdf-syntax-ns#"
   xmlns:svg="http://www.w3.org/2000/svg"
   xmlns="http://www.w3.org/2000/svg"
   xmlns:sodipodi="http://sodipodi.sourceforge.net/DTD/sodipodi-0.dtd"
   xmlns:inkscape="http://www.inkscape.org/namespaces/inkscape"
   version="1.1"
   id="svg2"
   xml:space="preserve"
   width="303.00934"
   height="147.16666"
   viewBox="0 0 303.00934 147.16666"
   sodipodi:docname="Sun Belt Conference 2020 logo.svg"
   inkscape:version="1.0.2 (e86c870879, 2021-01-15)"><metadata
     id="metadata8"><rdf:RDF><cc:Work
         rdf:about=""><dc:format>image/svg+xml</dc:format><dc:type
           rdf:resource="http://purl.org/dc/dcmitype/StillImage" /><dc:title></dc:title></cc:Work></rdf:RDF></metadata><defs
     id="defs6"><clipPath
       clipPathUnits="userSpaceOnUse"
       id="clipPath20"><path
         d="M 0,612 H 792 V 0 H 0 Z"
         id="path18" /></clipPath><clipPath
       clipPathUnits="userSpaceOnUse"
       id="clipPath214"><path
         d="M 0,0 H 792 V 612 H 0 Z"
         id="path212" /></clipPath></defs><sodipodi:namedview
     pagecolor="#ffffff"
     bordercolor="#666666"
     borderopacity="1"
     objecttolerance="10"
     gridtolerance="10"
     guidetolerance="10"
     inkscape:pageopacity="0"
     inkscape:pageshadow="2"
     inkscape:window-width="1920"
     inkscape:window-height="1136"
     id="namedview4"
     showgrid="false"
     inkscape:zoom="1.0940056"
     inkscape:cx="46.864945"
     inkscape:cy="270.59292"
     inkscape:window-x="0"
     inkscape:window-y="27"
     inkscape:window-maximized="1"
     inkscape:current-layer="g10" /><g
     id="g10"
     inkscape:groupmode="layer"
     inkscape:label="SBC_2020-Brand_Standards_2.5_May20"
     transform="matrix(1.3333333,0,0,-1.3333333,-481.13505,678.59292)"><g
       id="g220"
       transform="translate(588.1083,465.8417)"><path
         d="m 0,0 v 21.454 c 0,11.937 -9.712,21.649 -21.648,21.649 h -31.907 c -11.79,0 -21.392,-9.479 -21.626,-21.214 -0.235,11.735 -9.793,21.214 -21.585,21.214 h -55.341 V 22.994 c -0.793,11.222 -10.176,20.109 -21.595,20.109 h -31.908 c -11.936,0 -21.647,-9.712 -21.647,-21.649 v -38.436 l 25.845,-7.188 h -25.845 v -21.454 c 0,-11.936 9.711,-21.648 21.647,-21.648 h 31.944 c 11.27,0 20.558,8.658 21.559,19.673 v -19.673 h 55.341 c 11.471,0 20.888,8.968 21.607,20.261 0.718,-11.293 10.133,-20.261 21.604,-20.261 h 31.907 C -9.712,-67.272 0,-57.56 0,-45.624 V -24.17 H -33.291 V 0 Z"
         style="fill:#ffffff;fill-opacity:1;fill-rule:nonzero;stroke:none"
         id="path222" /></g><g
       id="g224"
       transform="translate(561.1625,435.2251)"><path
         d="m 0,0 h 20.499 v -15.007 c 0,-8.396 -6.806,-15.202 -15.202,-15.202 h -31.906 c -8.396,0 -15.202,6.806 -15.202,15.202 v 29.651 c 6.834,-0.146 13.667,-0.329 20.499,-0.544 v -26.749 c 0,-2.001 1.622,-3.623 3.623,-3.623 h 14.066 c 2.001,0 3.623,1.622 3.623,3.623 z m -60.375,14.952 5.759,-5.037 v -24.92 c 0,-8.396 -6.807,-15.204 -15.204,-15.204 h -48.894 v 45.118 c 5.33,0.066 10.66,0.108 15.99,0.14 5.35,0.044 10.7,0.051 16.05,0.054 3.865,-0.002 7.73,-0.016 11.596,-0.035 4.901,-0.026 9.802,-0.055 14.703,-0.116 M -75.115,4.073 c 0,2.001 -1.622,3.623 -3.623,3.623 h -19.478 v -23.968 h 19.478 c 2.001,0 3.623,1.622 3.623,3.623 z m -100.843,9.479 23.94,-6.658 v -19.543 c 0,-2.001 -1.622,-3.623 -3.623,-3.623 h -14.102 c -2.001,0 -3.623,1.622 -3.623,3.623 V 0 h -20.499 v -15.007 c 0,-8.396 6.806,-15.202 15.202,-15.202 h 31.942 c 8.396,0 15.202,6.806 15.202,15.202 v 29.728 c -14.818,-0.259 -29.632,-0.649 -44.439,-1.169"
         style="fill:#f4a00f;fill-opacity:1;fill-rule:nonzero;stroke:none"
         id="path226" /></g><g
       id="g228"
       transform="translate(487.5149,465.7938)"><path
         d="M 0,0 18.006,24.168 C 18.159,23.3 18.254,22.412 18.254,21.5 V 3.746 L 1.097,-2.005 C 0.773,-1.311 0.409,-0.641 0,0 m -45.067,2.875 14.558,-4.88 c 0.323,0.694 0.688,1.364 1.097,2.005 l -15.655,21.012 z m 17.462,33.829 11.467,-28.688 c 0.473,0.039 0.948,0.072 1.432,0.072 0.483,0 0.958,-0.033 1.432,-0.072 l 11.467,28.688 z m 79.94,-46.754 v 29.194 c 0,2.001 1.622,3.623 3.623,3.623 H 70.06 c 2.001,0 3.623,-1.622 3.623,-3.623 V 6.495 h 20.463 v 15.007 c 0,8.396 -6.806,15.202 -15.201,15.202 H 47.038 c -8.395,0 -15.201,-6.806 -15.201,-15.202 V -8.725 c 6.834,-0.407 13.667,-0.849 20.498,-1.325 M -6.343,5.954 C -5.618,5.557 -4.936,5.097 -4.28,4.605 L 17.766,25.262 C 16.089,31.836 10.146,36.704 3.05,36.704 H -0.556 Z M 18.254,1.652 2.964,-7.232 c 3.442,-0.156 6.883,-0.306 10.324,-0.48 l 4.966,4.293 z m -50.556,-8.927 -12.765,7.417 v -7.997 c 4.255,0.199 8.51,0.402 12.765,0.58 m 7.169,11.88 c 0.657,0.492 1.339,0.952 2.063,1.349 l -5.787,30.75 h -16.21 v -13.42 z m -43.449,-13.663 -31.137,8.659 v 19.544 c 0,2.001 1.622,3.623 3.623,3.623 h 14.102 c 2.001,0 3.624,-1.622 3.624,-3.623 V 6.495 h 20.463 v 15.008 c 0,8.395 -6.806,15.201 -15.202,15.201 h -31.907 c -8.395,0 -15.201,-6.806 -15.201,-15.201 v -33.991 c 17.201,1.319 34.415,2.465 51.635,3.43"
         style="fill:#17243b;fill-opacity:1;fill-rule:nonzero;stroke:none"
         id="path230" /></g></g></svg>
